<svg version="1.1" xmlns="http://www.w3.org/2000/svg" xmlns:xlink="http://www.w3.org/1999/xlink" stroke-linecap="round" stroke-linejoin="round" stroke-width="0" fill-rule="evenodd" clip-rule="evenodd" id="YtCkU4M350mY_bottom" viewBox="43180 -109220 91440 66040" width="91.44mm" height="66.04mm"><defs><style>.YtCkU4M350mY_fr4 {color: #666666;}
.YtCkU4M350mY_cu {color: #cccccc;}
.YtCkU4M350mY_cf {color: #cc9933;}
.YtCkU4M350mY_sm {color: #ff0000; opacity: 0.75;}
.YtCkU4M350mY_ss {color: #ffffff;}
.YtCkU4M350mY_sp {color: #999999;}
.YtCkU4M350mY_out {color: #000000;}</style><rect x="-950" y="-1050" width="1900" height="2100" rx="950" ry="950" id="pFJcxb-eqctv_pad-10"/><rect x="-950" y="-1050" width="1900" height="2100" id="pFJcxb-eqctv_pad-11"/><circle cx="0" cy="0" r="762" id="pFJcxb-eqctv_pad-12"/><circle cx="0" cy="0" r="250" id="pFJcxb-eqctv_pad-13"/><circle cx="0" cy="0" r="800" id="pFJcxb-eqctv_pad-14"/><rect x="-800" y="-800" width="1600" height="1600" id="pFJcxb-eqctv_pad-15"/><rect x="-1750" y="-1750" width="3500" height="3500" id="pFJcxb-eqctv_pad-16"/><circle cx="0" cy="0" r="400" id="pFJcxb-eqctv_pad-17"/><circle cx="0" cy="0" r="317.5" id="pFJcxb-eqctv_pad-18"/><circle cx="0" cy="0" r="1600" id="EPIle9kjEqGD_pad-10"/><rect x="-950" y="-1050" width="1900" height="2100" rx="950" ry="950" id="EPIle9kjEqGD_pad-11"/><rect x="-950" y="-1050" width="1900" height="2100" id="EPIle9kjEqGD_pad-12"/><circle cx="0" cy="0" r="952.5" id="EPIle9kjEqGD_pad-13"/><circle cx="0" cy="0" r="762" id="EPIle9kjEqGD_pad-14"/><circle cx="0" cy="0" r="250" id="EPIle9kjEqGD_pad-15"/><circle cx="0" cy="0" r="800" id="EPIle9kjEqGD_pad-16"/><rect x="-800" y="-800" width="1600" height="1600" id="EPIle9kjEqGD_pad-17"/><rect x="-1750" y="-1750" width="3500" height="3500" id="EPIle9kjEqGD_pad-18"/><circle cx="0" cy="0" r="37.5" id="anDbaXqKR6P9_pad-1"/><circle cx="0" cy="0" r="63" id="anDbaXqKR6P9_pad-2"/><circle cx="0" cy="0" r="5.9" id="oZpQXfhHKUzJ_pad-1"/><circle cx="0" cy="0" r="7.85" id="oZpQXfhHKUzJ_pad-2"/><circle cx="0" cy="0" r="15" id="oZpQXfhHKUzJ_pad-3"/><circle cx="0" cy="0" r="15.75" id="oZpQXfhHKUzJ_pad-4"/><circle cx="0" cy="0" r="20.1" id="oZpQXfhHKUzJ_pad-6"/><g id="YtCkU4M350mY_bottom_copper"><use xlink:href="#pFJcxb-eqctv_pad-10" x="93980" y="-50800"/><use xlink:href="#pFJcxb-eqctv_pad-10" x="93980" y="-71120"/><use xlink:href="#pFJcxb-eqctv_pad-10" x="96520" y="-50800"/><use xlink:href="#pFJcxb-eqctv_pad-10" x="96520" y="-71120"/><use xlink:href="#pFJcxb-eqctv_pad-10" x="99060" y="-50800"/><use xlink:href="#pFJcxb-eqctv_pad-10" x="99060" y="-71120"/><use xlink:href="#pFJcxb-eqctv_pad-10" x="101600" y="-50800"/><use xlink:href="#pFJcxb-eqctv_pad-10" x="101600" y="-71120"/><use xlink:href="#pFJcxb-eqctv_pad-10" x="104140" y="-50800"/><use xlink:href="#pFJcxb-eqctv_pad-10" x="104140" y="-71120"/><use xlink:href="#pFJcxb-eqctv_pad-10" x="106680" y="-50800"/><use xlink:href="#pFJcxb-eqctv_pad-10" x="106680" y="-71120"/><use xlink:href="#pFJcxb-eqctv_pad-10" x="109220" y="-50800"/><use xlink:href="#pFJcxb-eqctv_pad-10" x="109220" y="-71120"/><use xlink:href="#pFJcxb-eqctv_pad-10" x="111760" y="-50800"/><use xlink:href="#pFJcxb-eqctv_pad-10" x="111760" y="-71120"/><use xlink:href="#pFJcxb-eqctv_pad-10" x="114300" y="-50800"/><use xlink:href="#pFJcxb-eqctv_pad-10" x="114300" y="-71120"/><use xlink:href="#pFJcxb-eqctv_pad-10" x="116840" y="-50800"/><use xlink:href="#pFJcxb-eqctv_pad-11" x="116840" y="-71120"/><use xlink:href="#pFJcxb-eqctv_pad-12" x="59550.3" y="-93218"/><use xlink:href="#pFJcxb-eqctv_pad-12" x="67449.7" y="-93218"/><use xlink:href="#pFJcxb-eqctv_pad-13" x="77200" y="-93980"/><use xlink:href="#pFJcxb-eqctv_pad-13" x="76200" y="-93980"/><use xlink:href="#pFJcxb-eqctv_pad-13" x="75200" y="-93980"/><use xlink:href="#pFJcxb-eqctv_pad-13" x="77200" y="-92980"/><use xlink:href="#pFJcxb-eqctv_pad-13" x="76200" y="-92980"/><use xlink:href="#pFJcxb-eqctv_pad-13" x="77200" y="-91980"/><use xlink:href="#pFJcxb-eqctv_pad-13" x="76200" y="-91980"/><use xlink:href="#pFJcxb-eqctv_pad-13" x="75200" y="-91980"/><use xlink:href="#pFJcxb-eqctv_pad-13" x="75200" y="-92980"/><use xlink:href="#pFJcxb-eqctv_pad-14" x="60920" y="-59690"/><use xlink:href="#pFJcxb-eqctv_pad-15" x="58420" y="-59690"/><path d="M 57925 -48590 59675 -48590 A 875 875 0 0 0 60550 -49465 L 60550 -51215 A 875 875 0 0 0 59675 -52090 L 57925 -52090 A 875 875 0 0 0 57050 -51215 L 57050 -49465 A 875 875 0 0 0 57925 -48590"/><path d="M 62500 -45840 64500 -45840 A 750 750 0 0 0 65250 -46590 L 65250 -48090 A 750 750 0 0 0 64500 -48840 L 62500 -48840 A 750 750 0 0 0 61750 -48090 L 61750 -46590 A 750 750 0 0 0 62500 -45840"/><use xlink:href="#pFJcxb-eqctv_pad-16" x="63500" y="-53340"/><use xlink:href="#pFJcxb-eqctv_pad-17" x="120650" y="-46990"/><use xlink:href="#pFJcxb-eqctv_pad-17" x="97790" y="-81280"/><use xlink:href="#pFJcxb-eqctv_pad-17" x="75565" y="-97155"/><use xlink:href="#pFJcxb-eqctv_pad-17" x="73025" y="-57150"/><use xlink:href="#pFJcxb-eqctv_pad-17" x="79375" y="-54610"/><use xlink:href="#pFJcxb-eqctv_pad-18" x="76200" y="-85090"/><use xlink:href="#pFJcxb-eqctv_pad-18" x="78740" y="-83820"/><use xlink:href="#pFJcxb-eqctv_pad-18" x="91059" y="-59055"/><use xlink:href="#pFJcxb-eqctv_pad-18" x="115316" y="-59055"/><use xlink:href="#pFJcxb-eqctv_pad-18" x="109093" y="-59055"/><use xlink:href="#pFJcxb-eqctv_pad-18" x="98806" y="-59055"/><use xlink:href="#pFJcxb-eqctv_pad-18" x="122555" y="-59055"/><use xlink:href="#pFJcxb-eqctv_pad-18" x="92499" y="-58377"/><use xlink:href="#pFJcxb-eqctv_pad-18" x="100076" y="-58420"/><use xlink:href="#pFJcxb-eqctv_pad-18" x="107696" y="-58420"/><use xlink:href="#pFJcxb-eqctv_pad-18" x="116840" y="-58420"/><use xlink:href="#pFJcxb-eqctv_pad-18" x="126365" y="-59055"/><use xlink:href="#pFJcxb-eqctv_pad-18" x="93929.2" y="-62865"/><use xlink:href="#pFJcxb-eqctv_pad-18" x="119761" y="-62865"/><use xlink:href="#pFJcxb-eqctv_pad-18" x="104444.8" y="-62865"/><use xlink:href="#pFJcxb-eqctv_pad-18" x="112115.6" y="-62865"/><use xlink:href="#pFJcxb-eqctv_pad-18" x="122555" y="-62865"/><use xlink:href="#pFJcxb-eqctv_pad-18" x="95351.6" y="-62230"/><use xlink:href="#pFJcxb-eqctv_pad-18" x="102997" y="-62230"/><use xlink:href="#pFJcxb-eqctv_pad-18" x="110617" y="-62230"/><use xlink:href="#pFJcxb-eqctv_pad-18" x="118364" y="-62230"/><use xlink:href="#pFJcxb-eqctv_pad-18" x="127635" y="-62865"/><use xlink:href="#pFJcxb-eqctv_pad-18" x="112014" y="-60960"/><use xlink:href="#pFJcxb-eqctv_pad-18" x="119634" y="-60960"/><use xlink:href="#pFJcxb-eqctv_pad-18" x="96799.4" y="-60960"/><use xlink:href="#pFJcxb-eqctv_pad-18" x="104394" y="-60960"/><use xlink:href="#pFJcxb-eqctv_pad-18" x="131445" y="-61595"/><use xlink:href="#pFJcxb-eqctv_pad-18" x="105410" y="-63500"/><use xlink:href="#pFJcxb-eqctv_pad-18" x="96799.4" y="-63500"/><use xlink:href="#pFJcxb-eqctv_pad-18" x="113030" y="-63500"/><use xlink:href="#pFJcxb-eqctv_pad-18" x="101600" y="-63500"/><use xlink:href="#pFJcxb-eqctv_pad-18" x="126365" y="-63500"/><use xlink:href="#pFJcxb-eqctv_pad-18" x="96139" y="-61595"/><use xlink:href="#pFJcxb-eqctv_pad-18" x="111379" y="-61595"/><use xlink:href="#pFJcxb-eqctv_pad-18" x="103759" y="-61595"/><use xlink:href="#pFJcxb-eqctv_pad-18" x="118999" y="-61595"/><use xlink:href="#pFJcxb-eqctv_pad-18" x="127635" y="-61595"/><use xlink:href="#pFJcxb-eqctv_pad-18" x="115443" y="-60325"/><use xlink:href="#pFJcxb-eqctv_pad-18" x="92506.8" y="-60325"/><use xlink:href="#pFJcxb-eqctv_pad-18" x="100203" y="-60325"/><use xlink:href="#pFJcxb-eqctv_pad-18" x="107696" y="-60325"/><use xlink:href="#pFJcxb-eqctv_pad-18" x="131445" y="-60325"/><use xlink:href="#pFJcxb-eqctv_pad-18" x="114681" y="-59690"/><use xlink:href="#pFJcxb-eqctv_pad-18" x="107061" y="-59690"/><use xlink:href="#pFJcxb-eqctv_pad-18" x="99441" y="-59690"/><use xlink:href="#pFJcxb-eqctv_pad-18" x="91821" y="-59690"/><use xlink:href="#pFJcxb-eqctv_pad-18" x="127000" y="-59690"/><use xlink:href="#pFJcxb-eqctv_pad-18" x="121920" y="-56515"/><use xlink:href="#pFJcxb-eqctv_pad-18" x="131445" y="-58420"/><use xlink:href="#pFJcxb-eqctv_pad-18" x="122555" y="-57150"/><use xlink:href="#pFJcxb-eqctv_pad-18" x="125095" y="-57150"/><path d="M 99060 -80010 97790 -81280 M 99060 -71120 99060 -80010" fill="none" stroke-width="889"/><path d="M 73025 -78740 73025 -94615 75565 -97155 M 73025 -78740 73025 -57150" fill="none" stroke-width="381"/><path d="M 76835 -57150 73025 -57150 M 79375 -54610 76835 -57150 M 58420 -55781 58420 -59690 M 60861 -53340 58420 -55781 M 63500 -53340 60861 -53340" fill="none" stroke-width="889"/><path d="M 109220 -49530 109220 -50800 M 107950 -48260 109220 -49530 M 90170 -48260 107950 -48260 M 88900 -49530 90170 -48260 M 88900 -83820 88900 -49530 M 87630 -85090 88900 -83820 M 76200 -85090 87630 -85090 M 111760 -50800 111760 -48260 110490 -46990 89535 -46990 87630 -48895 87630 -73660 M 78740 -83820 86360 -83820 87630 -82550 87630 -73660 M 91059 -59055 98806 -59055 M 109093 -59055 115316 -59055 M 98806 -59055 109093 -59055 M 121920 -59055 115316 -59055 M 122555 -59055 121920 -59055 M 107696 -58420 116840 -58420 M 92075 -58420 100076 -58420 107696 -58420 M 125730 -58420 126365 -59055 M 116840 -58420 125730 -58420 M 93929.2 -62865 104444.8 -62865 M 112115.6 -62865 119761 -62865 M 104444.8 -62865 112115.6 -62865 M 122555 -62865 119761 -62865 M 102997 -62230 110617 -62230 118364 -62230 M 95351.6 -62230 102997 -62230 M 127000 -62230 127635 -62865 M 118364 -62230 127000 -62230 M 96799.4 -60960 104394 -60960 112014 -60960 119634 -60960 M 130810 -60960 131445 -61595 M 119634 -60960 130810 -60960 M 105410 -63500 113030 -63500 M 101600 -63500 105410 -63500 M 96799.4 -63500 101600 -63500 M 113030 -63500 119990.618 -63500 124460 -63500 126365 -63500 M 96139 -61595 118237 -61595 M 118999 -61595 118237 -61595 M 118999 -61595 125095 -61595 127635 -61595 M 100203 -60325 107696 -60325 115443 -60325 M 92506.8 -60325 100203 -60325 M 131445 -60325 115443 -60325 M 91821 -59690 114681 -59690 127000 -59690 M 129540 -56515 131445 -58420 M 121920 -56515 129540 -56515 M 125095 -57150 122555 -57150" fill="none" stroke-width="381"/><path d="M 128004.47 -43914.617 128987.898 -44131.739 129929.675 -44488.546 130810.095 -44977.575 131610.687 -45588.569 132314.694 -46308.732 132907.37 -47122.987 133376.296 -48014.269 133711.647 -48963.9 133907.127 -49955.692 133960 -50820.164 133960.001 -101576.08 133885.382 -102604.47 133668.262 -103587.896 133311.454 -104529.675 132822.424 -105410.095 132211.435 -106210.684 131491.268 -106914.694 130677.013 -107507.37 129785.731 -107976.296 128836.099 -108311.647 127844.309 -108507.127 126979.835 -108560 50823.906 -108560 49795.53 -108485.382 48812.104 -108268.262 47870.325 -107911.454 46989.905 -107422.424 46189.316 -106811.435 45485.306 -106091.268 44892.63 -105277.013 44423.704 -104385.731 44088.353 -103436.099 43892.873 -102444.309 43840 -101579.835 43840 -101379.872 48565 -101379.872 48565 -101820.128 48650.89 -102251.925 48819.369 -102658.669 49063.962 -103024.729 49375.271 -103336.038 49741.331 -103580.631 50148.075 -103749.11 50579.872 -103835 51020.128 -103835 51451.925 -103749.11 51858.669 -103580.631 52224.729 -103336.038 52536.038 -103024.729 52780.631 -102658.669 52949.11 -102251.925 52983.577 -102078.645 61912.5 -102078.645 61912.5 -102391.355 61973.507 -102698.057 62093.176 -102986.963 62266.908 -103246.972 62488.028 -103468.092 62748.037 -103641.824 63036.943 -103761.493 63343.645 -103822.5 63656.355 -103822.5 63963.057 -103761.493 64251.963 -103641.824 64511.972 -103468.092 64733.092 -103246.972 64906.824 -102986.963 65026.493 -102698.057 65087.5 -102391.355 65087.5 -102078.645 65026.493 -101771.943 64906.824 -101483.037 64837.892 -101379.872 124765 -101379.872 124765 -101820.128 124850.89 -102251.925 125019.369 -102658.669 125263.962 -103024.729 125575.271 -103336.038 125941.331 -103580.631 126348.075 -103749.11 126779.872 -103835 127220.128 -103835 127651.925 -103749.11 128058.669 -103580.631 128424.729 -103336.038 128736.038 -103024.729 128980.631 -102658.669 129149.11 -102251.925 129235 -101820.128 129235 -101379.872 129149.11 -100948.075 128980.631 -100541.331 128736.038 -100175.271 128424.729 -99863.962 128058.669 -99619.369 127651.925 -99450.89 127220.128 -99365 126779.872 -99365 126348.075 -99450.89 125941.331 -99619.369 125575.271 -99863.962 125263.962 -100175.271 125019.369 -100541.331 124850.89 -100948.075 124765 -101379.872 64837.892 -101379.872 64733.092 -101223.028 64511.972 -101001.908 64251.963 -100828.176 63963.057 -100708.507 63656.355 -100647.5 63343.645 -100647.5 63036.943 -100708.507 62748.037 -100828.176 62488.028 -101001.908 62266.908 -101223.028 62093.176 -101483.037 61973.507 -101771.943 61912.5 -102078.645 52983.577 -102078.645 53035 -101820.128 53035 -101379.872 52949.11 -100948.075 52780.631 -100541.331 52536.038 -100175.271 52224.729 -99863.962 51858.669 -99619.369 51451.925 -99450.89 51020.128 -99365 50579.872 -99365 50148.075 -99450.89 49741.331 -99619.369 49375.271 -99863.962 49063.962 -100175.271 48819.369 -100541.331 48650.89 -100948.075 48565 -101379.872 43840 -101379.872 43840 -93080.408 58153.3 -93080.408 58153.3 -93355.592 58206.986 -93625.49 58312.295 -93879.727 58465.18 -94108.535 58659.765 -94303.12 58888.573 -94456.005 59142.81 -94561.314 59412.708 -94615 59687.892 -94615 59957.79 -94561.314 60212.027 -94456.005 60440.835 -94303.12 60635.42 -94108.535 60788.305 -93879.727 60893.614 -93625.49 60947.3 -93355.592 60947.3 -93080.408 66052.7 -93080.408 66052.7 -93355.592 66106.386 -93625.49 66211.695 -93879.727 66364.58 -94108.535 66559.165 -94303.12 66787.973 -94456.005 67042.21 -94561.314 67312.108 -94615 67587.292 -94615 67857.19 -94561.314 68111.427 -94456.005 68340.235 -94303.12 68534.82 -94108.535 68687.705 -93879.727 68793.014 -93625.49 68846.7 -93355.592 68846.7 -93080.408 68793.014 -92810.51 68687.705 -92556.273 68534.82 -92327.465 68340.235 -92132.88 68111.427 -91979.995 67857.19 -91874.686 67587.292 -91821 67312.108 -91821 67042.21 -91874.686 66787.973 -91979.995 66559.165 -92132.88 66364.58 -92327.465 66211.695 -92556.273 66106.386 -92810.51 66052.7 -93080.408 60947.3 -93080.408 60893.614 -92810.51 60788.305 -92556.273 60635.42 -92327.465 60440.835 -92132.88 60212.027 -91979.995 59957.79 -91874.686 59687.892 -91821 59412.708 -91821 59142.81 -91874.686 58888.573 -91979.995 58659.765 -92132.88 58465.18 -92327.465 58312.295 -92556.273 58206.986 -92810.51 58153.3 -93080.408 43840 -93080.408 43840 -50823.92 43857.707 -50579.872 48565 -50579.872 48565 -51020.128 48650.89 -51451.925 48819.369 -51858.669 49063.962 -52224.729 49375.271 -52536.038 49741.331 -52780.631 50148.075 -52949.11 50579.872 -53035 51020.128 -53035 51451.925 -52949.11 51858.669 -52780.631 52224.729 -52536.038 52536.038 -52224.729 52780.631 -51858.669 52949.11 -51451.925 53035 -51020.128 53035 -50579.872 52949.11 -50148.075 52780.631 -49741.331 52595.993 -49465 56411.928 -49465 56411.928 -51215 56441.001 -51510.186 56527.104 -51794.028 56666.927 -52055.618 56855.097 -52284.903 57084.382 -52473.073 57345.972 -52612.896 57629.814 -52698.999 57925 -52728.072 59675 -52728.072 59970.186 -52698.999 59977.61 -52696.747 57694.185 -54980.173 57652.985 -55013.985 57518.086 -55178.36 57417.847 -55365.895 57417.847 -55365.896 57356.12 -55569.382 57335.277 -55781 57340.5 -55834.029 57340.501 -58319.377 57265.506 -58359.463 57168.815 -58438.815 57089.463 -58535.506 57030.498 -58645.82 56994.188 -58765.518 56981.928 -58890 56981.928 -60490 56994.188 -60614.482 57030.498 -60734.18 57089.463 -60844.494 57168.815 -60941.185 57265.506 -61020.537 57375.82 -61079.502 57495.518 -61115.812 57620 -61128.072 59220 -61128.072 59344.482 -61115.812 59464.18 -61079.502 59574.494 -61020.537 59671.185 -60941.185 59750.537 -60844.494 59809.502 -60734.18 59825.117 -60682.702 60106.903 -60682.702 60178.486 -60926.671 60433.996 -61047.571 60708.184 -61116.3 60990.512 -61130.217 61270.13 -61088.787 61536.292 -60993.603 61661.514 -60926.671 61733.097 -60682.702 60920 -59869.605 60106.903 -60682.702 59825.117 -60682.702 59845.812 -60614.482 59858.072 -60490 59858.072 -60482.785 59927.298 -60503.097 60740.395 -59690 61099.605 -59690 61912.702 -60503.097 62156.671 -60431.514 62277.571 -60176.004 62346.3 -59901.816 62360.217 -59619.488 62318.787 -59339.87 62223.603 -59073.708 62156.671 -58948.486 61912.702 -58876.903 61099.605 -59690 60740.395 -59690 59927.298 -58876.903 59858.072 -58897.215 59858.072 -58890 59845.812 -58765.518 59825.118 -58697.298 60106.903 -58697.298 60920 -59510.395 61733.097 -58697.298 61661.514 -58453.329 61406.004 -58332.429 61131.816 -58263.7 60849.488 -58249.783 60569.87 -58291.213 60303.708 -58386.397 60178.486 -58453.329 60106.903 -58697.298 59825.118 -58697.298 59809.502 -58645.82 59750.537 -58535.506 59671.185 -58438.815 59574.494 -58359.463 59499.5 -58319.377 59499.5 -57150 71940.277 -57150 71961.12 -57361.619 72022.847 -57565.106 72123.086 -57752.64 72199.501 -57845.752 72199.5 -78699.447 72199.5 -78699.448 72199.501 -94574.439 72195.506 -94615 72211.445 -94776.826 72258.647 -94932.433 72335.301 -95075.842 72396.863 -95150.854 72438.46 -95201.541 72469.961 -95227.393 74537.572 -97295.004 74569.774 -97456.898 74647.795 -97645.256 74761.063 -97814.774 74905.226 -97958.937 75074.744 -98072.205 75263.102 -98150.226 75463.061 -98190 75666.939 -98190 75866.898 -98150.226 76055.256 -98072.205 76224.774 -97958.937 76368.937 -97814.774 76482.205 -97645.256 76560.226 -97456.898 76600 -97256.939 76600 -97053.061 76560.226 -96853.102 76482.205 -96664.744 76368.937 -96495.226 76224.774 -96351.063 76055.256 -96237.795 75866.898 -96159.774 75705.004 -96127.572 73850.5 -94273.068 73850.5 -91892.835 74315 -91892.835 74315 -92067.165 74349.01 -92238.145 74415.723 -92399.205 74469.709 -92480 74415.723 -92560.795 74349.01 -92721.855 74315 -92892.835 74315 -93067.165 74349.01 -93238.145 74415.723 -93399.205 74469.709 -93480 74415.723 -93560.795 74349.01 -93721.855 74315 -93892.835 74315 -94067.165 74349.01 -94238.145 74415.723 -94399.205 74512.576 -94544.155 74635.845 -94667.424 74780.795 -94764.277 74941.855 -94830.99 75112.835 -94865 75287.165 -94865 75458.145 -94830.99 75619.205 -94764.277 75700 -94710.291 75780.795 -94764.277 75941.855 -94830.99 76112.835 -94865 76287.165 -94865 76458.145 -94830.99 76619.205 -94764.277 76700 -94710.291 76780.795 -94764.277 76941.855 -94830.99 77112.835 -94865 77287.165 -94865 77458.145 -94830.99 77619.205 -94764.277 77764.155 -94667.424 77887.424 -94544.155 77984.277 -94399.205 78050.99 -94238.145 78085 -94067.165 78085 -93892.835 78050.99 -93721.855 77984.277 -93560.795 77930.291 -93480 77984.277 -93399.205 78050.99 -93238.145 78085 -93067.165 78085 -92892.835 78050.99 -92721.855 77984.277 -92560.795 77930.291 -92480 77984.277 -92399.205 78050.99 -92238.145 78085 -92067.165 78085 -91892.835 78050.99 -91721.855 77984.277 -91560.795 77887.424 -91415.845 77764.155 -91292.576 77619.205 -91195.723 77458.145 -91129.01 77287.165 -91095 77112.835 -91095 76941.855 -91129.01 76780.795 -91195.723 76700 -91249.709 76619.205 -91195.723 76458.145 -91129.01 76287.165 -91095 76112.835 -91095 75941.855 -91129.01 75780.795 -91195.723 75700 -91249.709 75619.205 -91195.723 75458.145 -91129.01 75287.165 -91095 75112.835 -91095 74941.855 -91129.01 74780.795 -91195.723 74635.845 -91292.576 74512.576 -91415.845 74415.723 -91560.795 74349.01 -91721.855 74315 -91892.835 73850.5 -91892.835 73850.5 -84996.187 75247.5 -84996.187 75247.5 -85183.813 75284.104 -85367.834 75355.905 -85541.178 75460.145 -85697.184 75592.816 -85829.855 75748.822 -85934.095 75922.166 -86005.896 76106.187 -86042.5 76293.813 -86042.5 76477.834 -86005.896 76651.178 -85934.095 76679.007 -85915.5 87589.45 -85915.5 87630 -85919.494 87670.55 -85915.5 87670.553 -85915.5 87791.826 -85903.556 87947.434 -85856.353 88090.842 -85779.699 88216.541 -85676.541 88242.398 -85645.034 89455.042 -84432.391 89486.541 -84406.541 89554.57 -84323.647 89589.699 -84280.843 89646.752 -84174.104 89666.353 -84137.434 89713.556 -83981.826 89725.5 -83860.553 89725.5 -83860.551 89729.494 -83820.001 89725.5 -83779.45 89725.5 -71494.447 92419.805 -71494.447 92503.326 -71793.553 92643.595 -72070.617 92835.221 -72314.992 93070.84 -72517.287 93341.397 -72669.728 93607.412 -72760.586 93853 -72640.584 93853 -71247 92554.831 -71247 92419.805 -71494.447 89725.5 -71494.447 89725.5 -70745.553 92419.805 -70745.553 92554.831 -70993 93853 -70993 93853 -69599.416 94107 -69599.416 94107 -70993 94127 -70993 94127 -71247 94107 -71247 94107 -72640.584 94352.588 -72760.586 94618.603 -72669.728 94889.16 -72517.287 95124.779 -72314.992 95243.725 -72163.304 95393.813 -72346.187 95635.162 -72544.256 95910.513 -72691.434 96209.287 -72782.066 96520 -72812.669 96830.714 -72782.066 97129.488 -72691.434 97404.839 -72544.256 97646.187 -72346.187 97790 -72170.95 97933.813 -72346.187 97980.5 -72384.502 97980.501 -79562.856 96989.182 -80554.176 96888.087 -80677.361 96787.847 -80864.896 96726.12 -81068.382 96705.277 -81280 96726.12 -81491.618 96787.847 -81695.104 96888.087 -81882.639 97022.986 -82047.014 97187.361 -82181.913 97374.896 -82282.153 97578.382 -82343.88 97790 -82364.723 98001.618 -82343.88 98205.104 -82282.153 98392.639 -82181.913 98515.824 -82080.818 99785.821 -80810.822 99827.015 -80777.015 99961.914 -80612.64 100062.153 -80425.106 100123.88 -80221.619 100139.5 -80063.029 100139.5 -80063.022 100144.722 -80010.001 100139.5 -79956.979 100139.5 -72384.502 100186.187 -72346.187 100330 -72170.95 100473.813 -72346.187 100715.162 -72544.256 100990.513 -72691.434 101289.287 -72782.066 101600 -72812.669 101910.714 -72782.066 102209.488 -72691.434 102484.839 -72544.256 102726.187 -72346.187 102870 -72170.95 103013.813 -72346.187 103255.162 -72544.256 103530.513 -72691.434 103829.287 -72782.066 104140 -72812.669 104450.714 -72782.066 104749.488 -72691.434 105024.839 -72544.256 105266.187 -72346.187 105410 -72170.95 105553.813 -72346.187 105795.162 -72544.256 106070.513 -72691.434 106369.287 -72782.066 106680 -72812.669 106990.714 -72782.066 107289.488 -72691.434 107564.839 -72544.256 107806.187 -72346.187 107950 -72170.95 108093.813 -72346.187 108335.162 -72544.256 108610.513 -72691.434 108909.287 -72782.066 109220 -72812.669 109530.714 -72782.066 109829.488 -72691.434 110104.839 -72544.256 110346.187 -72346.187 110490 -72170.95 110633.813 -72346.187 110875.162 -72544.256 111150.513 -72691.434 111449.287 -72782.066 111760 -72812.669 112070.714 -72782.066 112369.488 -72691.434 112644.839 -72544.256 112886.187 -72346.187 113030 -72170.95 113173.813 -72346.187 113415.162 -72544.256 113690.513 -72691.434 113989.287 -72782.066 114300 -72812.669 114610.714 -72782.066 114909.488 -72691.434 115184.839 -72544.256 115313.56 -72438.617 115359.463 -72524.494 115438.815 -72621.185 115535.506 -72700.537 115645.82 -72759.502 115765.518 -72795.812 115890 -72808.072 117790 -72808.072 117914.482 -72795.812 118034.18 -72759.502 118144.494 -72700.537 118241.185 -72621.185 118320.537 -72524.494 118379.502 -72414.18 118415.812 -72294.482 118428.072 -72170 118428.072 -70070 118415.812 -69945.518 118379.502 -69825.82 118320.537 -69715.506 118241.185 -69618.815 118144.494 -69539.463 118034.18 -69480.498 117914.482 -69444.188 117790 -69431.928 115890 -69431.928 115765.518 -69444.188 115645.82 -69480.498 115535.506 -69539.463 115438.815 -69618.815 115359.463 -69715.506 115313.56 -69801.383 115184.838 -69695.744 114909.487 -69548.566 114610.713 -69457.934 114300 -69427.331 113989.286 -69457.934 113690.512 -69548.566 113415.161 -69695.744 113173.813 -69893.813 113030 -70069.05 112886.187 -69893.813 112644.838 -69695.744 112369.487 -69548.566 112070.713 -69457.934 111760 -69427.331 111449.286 -69457.934 111150.512 -69548.566 110875.161 -69695.744 110633.813 -69893.813 110490 -70069.05 110346.187 -69893.813 110104.838 -69695.744 109829.487 -69548.566 109530.713 -69457.934 109220 -69427.331 108909.286 -69457.934 108610.512 -69548.566 108335.161 -69695.744 108093.813 -69893.813 107950 -70069.05 107806.187 -69893.813 107564.838 -69695.744 107289.487 -69548.566 106990.713 -69457.934 106680 -69427.331 106369.286 -69457.934 106070.512 -69548.566 105795.161 -69695.744 105553.813 -69893.813 105410 -70069.05 105266.187 -69893.813 105024.838 -69695.744 104749.487 -69548.566 104450.713 -69457.934 104140 -69427.331 103829.286 -69457.934 103530.512 -69548.566 103255.161 -69695.744 103013.813 -69893.813 102870 -70069.05 102726.187 -69893.813 102484.838 -69695.744 102209.487 -69548.566 101910.713 -69457.934 101600 -69427.331 101289.286 -69457.934 100990.512 -69548.566 100715.161 -69695.744 100473.813 -69893.813 100330 -70069.05 100186.187 -69893.813 99944.838 -69695.744 99669.487 -69548.566 99370.713 -69457.934 99060 -69427.331 98749.286 -69457.934 98450.512 -69548.566 98175.161 -69695.744 97933.813 -69893.813 97790 -70069.05 97646.187 -69893.813 97404.838 -69695.744 97129.487 -69548.566 96830.713 -69457.934 96520 -69427.331 96209.286 -69457.934 95910.512 -69548.566 95635.161 -69695.744 95393.813 -69893.813 95243.725 -70076.697 95124.779 -69925.008 94889.16 -69722.713 94618.603 -69570.272 94352.588 -69479.414 94107 -69599.416 93853 -69599.416 93607.412 -69479.414 93341.397 -69570.272 93070.84 -69722.713 92835.221 -69925.008 92643.595 -70169.383 92503.326 -70446.447 92419.805 -70745.553 89725.5 -70745.553 89725.5 -58961.187 90106.5 -58961.187 90106.5 -59148.813 90143.104 -59332.834 90214.905 -59506.178 90319.145 -59662.184 90451.816 -59794.855 90607.822 -59899.095 90781.166 -59970.896 90917.615 -59998.037 90976.905 -60141.178 91081.145 -60297.184 91213.816 -60429.855 91369.822 -60534.095 91543.166 -60605.896 91596.573 -60616.519 91662.705 -60776.178 91766.945 -60932.184 91899.616 -61064.855 92055.622 -61169.095 92228.966 -61240.896 92412.987 -61277.5 92600.613 -61277.5 92784.634 -61240.896 92957.978 -61169.095 92985.807 -61150.5 95292.139 -61150.5 95237.895 -61281.457 95073.766 -61314.104 94900.422 -61385.905 94744.416 -61490.145 94611.745 -61622.816 94507.505 -61778.822 94435.704 -61952.166 94418.332 -62039.5 94408.207 -62039.5 94380.378 -62020.905 94207.034 -61949.104 94023.013 -61912.5 93835.387 -61912.5 93651.366 -61949.104 93478.022 -62020.905 93322.016 -62125.145 93189.345 -62257.816 93085.105 -62413.822 93013.304 -62587.166 92976.7 -62771.187 92976.7 -62958.813 93013.304 -63142.834 93085.105 -63316.178 93189.345 -63472.184 93322.016 -63604.855 93478.022 -63709.095 93651.366 -63780.896 93835.387 -63817.5 94023.013 -63817.5 94207.034 -63780.896 94380.378 -63709.095 94408.207 -63690.5 95866.132 -63690.5 95883.504 -63777.834 95955.305 -63951.178 96059.545 -64107.184 96192.216 -64239.855 96348.222 -64344.095 96521.566 -64415.896 96705.587 -64452.5 96893.213 -64452.5 97077.234 -64415.896 97250.578 -64344.095 97278.407 -64325.5 101120.993 -64325.5 101148.822 -64344.095 101322.166 -64415.896 101506.187 -64452.5 101693.813 -64452.5 101877.834 -64415.896 102051.178 -64344.095 102079.007 -64325.5 104930.993 -64325.5 104958.822 -64344.095 105132.166 -64415.896 105316.187 -64452.5 105503.813 -64452.5 105687.834 -64415.896 105861.178 -64344.095 105889.007 -64325.5 112550.993 -64325.5 112578.822 -64344.095 112752.166 -64415.896 112936.187 -64452.5 113123.813 -64452.5 113307.834 -64415.896 113481.178 -64344.095 113509.007 -64325.5 125885.993 -64325.5 125913.822 -64344.095 126087.166 -64415.896 126271.187 -64452.5 126458.813 -64452.5 126642.834 -64415.896 126816.178 -64344.095 126972.184 -64239.855 127104.855 -64107.184 127209.095 -63951.178 127280.896 -63777.834 127286.139 -63751.476 127357.166 -63780.896 127541.187 -63817.5 127728.813 -63817.5 127912.834 -63780.896 128086.178 -63709.095 128242.184 -63604.855 128374.855 -63472.184 128479.095 -63316.178 128550.896 -63142.834 128587.5 -62958.813 128587.5 -62771.187 128550.896 -62587.166 128479.095 -62413.822 128374.855 -62257.816 128347.039 -62230 128374.855 -62202.184 128479.095 -62046.178 128550.896 -61872.834 128568.268 -61785.5 130468.067 -61785.5 130522.574 -61840.007 130529.104 -61872.834 130600.905 -62046.178 130705.145 -62202.184 130837.816 -62334.855 130993.822 -62439.095 131167.166 -62510.896 131351.187 -62547.5 131538.813 -62547.5 131722.834 -62510.896 131896.178 -62439.095 132052.184 -62334.855 132184.855 -62202.184 132289.095 -62046.178 132360.896 -61872.834 132397.5 -61688.813 132397.5 -61501.187 132360.896 -61317.166 132289.095 -61143.822 132184.855 -60987.816 132157.039 -60960 132184.855 -60932.184 132289.095 -60776.178 132360.896 -60602.834 132397.5 -60418.813 132397.5 -60231.187 132360.896 -60047.166 132289.095 -59873.822 132184.855 -59717.816 132052.184 -59585.145 131896.178 -59480.905 131722.834 -59409.104 131538.813 -59372.5 131722.834 -59335.896 131896.178 -59264.095 132052.184 -59159.855 132184.855 -59027.184 132289.095 -58871.178 132360.896 -58697.834 132397.5 -58513.813 132397.5 -58326.187 132360.896 -58142.166 132289.095 -57968.822 132184.855 -57812.816 132052.184 -57680.145 131896.178 -57575.905 131722.834 -57504.104 131690.008 -57497.575 130152.398 -55959.966 130126.541 -55928.459 130000.842 -55825.301 129857.434 -55748.647 129701.826 -55701.444 129580.553 -55689.5 129580.55 -55689.5 129540 -55685.506 129499.45 -55689.5 122399.007 -55689.5 122371.178 -55670.905 122197.834 -55599.104 122013.813 -55562.5 121826.187 -55562.5 121642.166 -55599.104 121468.822 -55670.905 121312.816 -55775.145 121180.145 -55907.816 121075.905 -56063.822 121004.104 -56237.166 120967.5 -56421.187 120967.5 -56608.813 121004.104 -56792.834 121075.905 -56966.178 121180.145 -57122.184 121312.816 -57254.855 121468.822 -57359.095 121640.001 -57429.999 121708.139 -57594.5 117319.007 -57594.5 117291.178 -57575.905 117117.834 -57504.104 116933.813 -57467.5 116746.187 -57467.5 116562.166 -57504.104 116388.822 -57575.905 116360.993 -57594.5 108175.007 -57594.5 108147.178 -57575.905 107973.834 -57504.104 107789.813 -57467.5 107602.187 -57467.5 107418.166 -57504.104 107244.822 -57575.905 107216.993 -57594.5 100555.007 -57594.5 100527.178 -57575.905 100353.834 -57504.104 100169.813 -57467.5 99982.187 -57467.5 99798.166 -57504.104 99624.822 -57575.905 99596.993 -57594.5 93042.361 -57594.5 92950.178 -57532.905 92776.834 -57461.104 92592.813 -57424.5 92405.187 -57424.5 92221.166 -57461.104 92047.822 -57532.905 91942.014 -57603.604 91913.174 -57606.444 91757.566 -57653.647 91614.158 -57730.301 91488.459 -57833.459 91385.301 -57959.158 91308.647 -58102.566 91299.798 -58131.737 91152.813 -58102.5 90965.187 -58102.5 90781.166 -58139.104 90607.822 -58210.905 90451.816 -58315.145 90319.145 -58447.816 90214.905 -58603.822 90143.104 -58777.166 90106.5 -58961.187 89725.5 -58961.187 89725.5 -51174.447 92419.805 -51174.447 92503.326 -51473.553 92643.595 -51750.617 92835.221 -51994.992 93070.84 -52197.287 93341.397 -52349.728 93607.412 -52440.586 93853 -52320.584 93853 -50927 92554.831 -50927 92419.805 -51174.447 89725.5 -51174.447 89725.5 -50425.553 92419.805 -50425.553 92554.831 -50673 93853 -50673 93853 -49279.416 93607.412 -49159.414 93341.397 -49250.272 93070.84 -49402.713 92835.221 -49605.008 92643.595 -49849.383 92503.326 -50126.447 92419.805 -50425.553 89725.5 -50425.553 89725.5 -49871.932 90511.933 -49085.5 107608.068 -49085.5 108095.223 -49572.656 108093.813 -49573.813 107950 -49749.05 107806.187 -49573.813 107564.838 -49375.744 107289.487 -49228.566 106990.713 -49137.934 106680 -49107.331 106369.286 -49137.934 106070.512 -49228.566 105795.161 -49375.744 105553.813 -49573.813 105410 -49749.05 105266.187 -49573.813 105024.838 -49375.744 104749.487 -49228.566 104450.713 -49137.934 104140 -49107.331 103829.286 -49137.934 103530.512 -49228.566 103255.161 -49375.744 103013.813 -49573.813 102870 -49749.05 102726.187 -49573.813 102484.838 -49375.744 102209.487 -49228.566 101910.713 -49137.934 101600 -49107.331 101289.286 -49137.934 100990.512 -49228.566 100715.161 -49375.744 100473.813 -49573.813 100330 -49749.05 100186.187 -49573.813 99944.838 -49375.744 99669.487 -49228.566 99370.713 -49137.934 99060 -49107.331 98749.286 -49137.934 98450.512 -49228.566 98175.161 -49375.744 97933.813 -49573.813 97790 -49749.05 97646.187 -49573.813 97404.838 -49375.744 97129.487 -49228.566 96830.713 -49137.934 96520 -49107.331 96209.286 -49137.934 95910.512 -49228.566 95635.161 -49375.744 95393.813 -49573.813 95243.725 -49756.697 95124.779 -49605.008 94889.16 -49402.713 94618.603 -49250.272 94352.588 -49159.414 94107 -49279.416 94107 -50673 94127 -50673 94127 -50927 94107 -50927 94107 -52320.584 94352.588 -52440.586 94618.603 -52349.728 94889.16 -52197.287 95124.779 -51994.992 95243.725 -51843.304 95393.813 -52026.187 95635.162 -52224.256 95910.513 -52371.434 96209.287 -52462.066 96520 -52492.669 96830.714 -52462.066 97129.488 -52371.434 97404.839 -52224.256 97646.187 -52026.187 97790 -51850.95 97933.813 -52026.187 98175.162 -52224.256 98450.513 -52371.434 98749.287 -52462.066 99060 -52492.669 99370.714 -52462.066 99669.488 -52371.434 99944.839 -52224.256 100186.187 -52026.187 100330 -51850.95 100473.813 -52026.187 100715.162 -52224.256 100990.513 -52371.434 101289.287 -52462.066 101600 -52492.669 101910.714 -52462.066 102209.488 -52371.434 102484.839 -52224.256 102726.187 -52026.187 102870 -51850.95 103013.813 -52026.187 103255.162 -52224.256 103530.513 -52371.434 103829.287 -52462.066 104140 -52492.669 104450.714 -52462.066 104749.488 -52371.434 105024.839 -52224.256 105266.187 -52026.187 105410 -51850.95 105553.813 -52026.187 105795.162 -52224.256 106070.513 -52371.434 106369.287 -52462.066 106680 -52492.669 106990.714 -52462.066 107289.488 -52371.434 107564.839 -52224.256 107806.187 -52026.187 107950 -51850.95 108093.813 -52026.187 108335.162 -52224.256 108610.513 -52371.434 108909.287 -52462.066 109220 -52492.669 109530.714 -52462.066 109829.488 -52371.434 110104.839 -52224.256 110346.187 -52026.187 110490 -51850.95 110633.813 -52026.187 110875.162 -52224.256 111150.513 -52371.434 111449.287 -52462.066 111760 -52492.669 112070.714 -52462.066 112369.488 -52371.434 112644.839 -52224.256 112886.187 -52026.187 113030 -51850.95 113173.813 -52026.187 113415.162 -52224.256 113690.513 -52371.434 113989.287 -52462.066 114300 -52492.669 114610.714 -52462.066 114909.488 -52371.434 115184.839 -52224.256 115426.187 -52026.187 115570 -51850.95 115713.813 -52026.187 115955.162 -52224.256 116230.513 -52371.434 116529.287 -52462.066 116840 -52492.669 117150.714 -52462.066 117449.488 -52371.434 117724.839 -52224.256 117966.187 -52026.187 118164.256 -51784.839 118311.434 -51509.487 118402.066 -51210.713 118425 -50977.863 118425 -50622.136 118420.838 -50579.872 124765 -50579.872 124765 -51020.128 124850.89 -51451.925 125019.369 -51858.669 125263.962 -52224.729 125575.271 -52536.038 125941.331 -52780.631 126348.075 -52949.11 126779.872 -53035 127220.128 -53035 127651.925 -52949.11 128058.669 -52780.631 128424.729 -52536.038 128736.038 -52224.729 128980.631 -51858.669 129149.11 -51451.925 129235 -51020.128 129235 -50579.872 129149.11 -50148.075 128980.631 -49741.331 128736.038 -49375.271 128424.729 -49063.962 128058.669 -48819.369 127651.925 -48650.89 127220.128 -48565 126779.872 -48565 126348.075 -48650.89 125941.331 -48819.369 125575.271 -49063.962 125263.962 -49375.271 125019.369 -49741.331 124850.89 -50148.075 124765 -50579.872 118420.838 -50579.872 118402.066 -50389.286 118311.434 -50090.512 118164.256 -49815.161 117966.187 -49573.813 117724.838 -49375.744 117449.487 -49228.566 117150.713 -49137.934 116840 -49107.331 116529.286 -49137.934 116230.512 -49228.566 115955.161 -49375.744 115713.813 -49573.813 115570 -49749.05 115426.187 -49573.813 115184.838 -49375.744 114909.487 -49228.566 114610.713 -49137.934 114300 -49107.331 113989.286 -49137.934 113690.512 -49228.566 113415.161 -49375.744 113173.813 -49573.813 113030 -49749.05 112886.187 -49573.813 112644.838 -49375.744 112585.5 -49344.027 112585.5 -48300.55 112589.494 -48259.999 112585.5 -48219.447 112573.556 -48098.174 112526.353 -47942.566 112452.05 -47803.556 112449.699 -47799.157 112372.391 -47704.958 112346.541 -47673.459 112315.039 -47647.606 111102.398 -46434.966 111076.541 -46403.459 110950.842 -46300.301 110807.434 -46223.647 110651.826 -46176.444 110530.553 -46164.5 110530.55 -46164.5 110490 -46160.506 110449.45 -46164.5 89575.55 -46164.5 89535 -46160.506 89494.449 -46164.5 89494.447 -46164.5 89373.174 -46176.444 89245.752 -46215.097 89217.566 -46223.647 89074.157 -46300.301 88979.958 -46377.608 88979.957 -46377.609 88948.459 -46403.459 88922.611 -46434.955 87074.966 -48282.602 87043.459 -48308.459 86995.803 -48366.529 86940.301 -48434.158 86870.364 -48565 86863.647 -48577.567 86816.444 -48733.175 86805.279 -48846.54 86800.506 -48895 86804.5 -48935.55 86804.501 -73619.447 86804.5 -82208.067 86018.068 -82994.5 79219.007 -82994.5 79191.178 -82975.905 79017.834 -82904.104 78833.813 -82867.5 78646.187 -82867.5 78462.166 -82904.104 78288.822 -82975.905 78132.816 -83080.145 78000.145 -83212.816 77895.905 -83368.822 77824.104 -83542.166 77787.5 -83726.187 77787.5 -83913.813 77824.104 -84097.834 77893.139 -84264.5 76679.007 -84264.5 76651.178 -84245.905 76477.834 -84174.104 76293.813 -84137.5 76106.187 -84137.5 75922.166 -84174.104 75748.822 -84245.905 75592.816 -84350.145 75460.145 -84482.816 75355.905 -84638.822 75284.104 -84812.166 75247.5 -84996.187 73850.5 -84996.187 73850.5 -58229.5 76781.971 -58229.5 76835 -58234.723 76888.029 -58229.5 77046.619 -58213.88 77250.106 -58152.153 77437.64 -58051.914 77602.015 -57917.015 77635.827 -57875.815 80175.818 -55335.825 80276.913 -55212.64 80377.153 -55025.106 80438.88 -54821.619 80459.722 -54610.001 80438.88 -54398.382 80377.153 -54194.896 80276.913 -54007.361 80142.014 -53842.986 79977.639 -53708.087 79790.104 -53607.847 79586.618 -53546.12 79374.999 -53525.278 79163.381 -53546.12 78959.894 -53607.847 78772.36 -53708.087 78649.175 -53809.182 76387.858 -56070.5 72971.971 -56070.5 72813.381 -56086.12 72609.894 -56147.847 72422.36 -56248.086 72257.985 -56382.985 72123.086 -56547.36 72022.847 -56734.894 71961.12 -56938.381 71940.277 -57150 59499.5 -57150 59499.5 -56228.142 61111.928 -54615.715 61111.928 -55090 61124.188 -55214.482 61160.498 -55334.18 61219.463 -55444.494 61298.815 -55541.185 61395.506 -55620.537 61505.82 -55679.502 61625.518 -55715.812 61750 -55728.072 65250 -55728.072 65374.482 -55715.812 65494.18 -55679.502 65604.494 -55620.537 65701.185 -55541.185 65780.537 -55444.494 65839.502 -55334.18 65875.812 -55214.482 65888.072 -55090 65888.072 -51590 65875.812 -51465.518 65839.502 -51345.82 65780.537 -51235.506 65701.185 -51138.815 65604.494 -51059.463 65494.18 -51000.498 65374.482 -50964.188 65250 -50951.928 61750 -50951.928 61625.518 -50964.188 61505.82 -51000.498 61395.506 -51059.463 61298.815 -51138.815 61219.463 -51235.506 61178.506 -51312.131 61188.072 -51215 61188.072 -49465 61158.999 -49169.814 61072.896 -48885.972 61048.324 -48840 61111.928 -48840 61124.188 -48964.482 61160.498 -49084.18 61219.463 -49194.494 61298.815 -49291.185 61395.506 -49370.537 61505.82 -49429.502 61625.518 -49465.812 61750 -49478.072 63214.25 -49475 63373 -49316.25 63373 -47467 63627 -47467 63627 -49316.25 63785.75 -49475 65250 -49478.072 65374.482 -49465.812 65494.18 -49429.502 65604.494 -49370.537 65701.185 -49291.185 65780.537 -49194.494 65839.502 -49084.18 65875.812 -48964.482 65888.072 -48840 65885 -47625.75 65726.25 -47467 63627 -47467 63373 -47467 61273.75 -47467 61115 -47625.75 61111.928 -48840 61048.324 -48840 60933.073 -48624.382 60744.903 -48395.097 60515.618 -48206.927 60254.028 -48067.104 59970.186 -47981.001 59675 -47951.928 57925 -47951.928 57629.814 -47981.001 57345.972 -48067.104 57084.382 -48206.927 56855.097 -48395.097 56666.927 -48624.382 56527.104 -48885.972 56441.001 -49169.814 56411.928 -49465 52595.993 -49465 52536.038 -49375.271 52224.729 -49063.962 51858.669 -48819.369 51451.925 -48650.89 51020.128 -48565 50579.872 -48565 50148.075 -48650.89 49741.331 -48819.369 49375.271 -49063.962 49063.962 -49375.271 48819.369 -49741.331 48650.89 -50148.075 48565 -50579.872 43857.707 -50579.872 43914.617 -49795.53 44131.739 -48812.102 44488.546 -47870.325 44977.575 -46989.905 45588.569 -46189.313 45945.898 -45840 61111.928 -45840 61115 -47054.25 61273.75 -47213 63373 -47213 63373 -45363.75 63627 -45363.75 63627 -47213 65726.25 -47213 65885 -47054.25 65888.072 -45840 65875.812 -45715.518 65839.502 -45595.82 65780.537 -45485.506 65701.185 -45388.815 65604.494 -45309.463 65494.18 -45250.498 65374.482 -45214.188 65250 -45201.928 63785.75 -45205 63627 -45363.75 63373 -45363.75 63214.25 -45205 61750 -45201.928 61625.518 -45214.188 61505.82 -45250.498 61395.506 -45309.463 61298.815 -45388.815 61219.463 -45485.506 61160.498 -45595.82 61124.188 -45715.518 61111.928 -45840 45945.898 -45840 46308.732 -45485.306 47122.987 -44892.63 48014.269 -44423.704 48963.9 -44088.353 49955.692 -43892.873 50820.164 -43840 126976.08 -43840 128004.47 -43914.617" fill="none" stroke-width="254"/><path d="M 128004.47 -43914.617 128987.898 -44131.739 129929.675 -44488.546 130810.095 -44977.575 131610.687 -45588.569 132314.694 -46308.732 132907.37 -47122.987 133376.296 -48014.269 133711.647 -48963.9 133907.127 -49955.692 133960 -50820.164 133960.001 -101576.08 133885.382 -102604.47 133668.262 -103587.896 133311.454 -104529.675 132822.424 -105410.095 132211.435 -106210.684 131491.268 -106914.694 130677.013 -107507.37 129785.731 -107976.296 128836.099 -108311.647 127844.309 -108507.127 126979.835 -108560 50823.906 -108560 49795.53 -108485.382 48812.104 -108268.262 47870.325 -107911.454 46989.905 -107422.424 46189.316 -106811.435 45485.306 -106091.268 44892.63 -105277.013 44423.704 -104385.731 44088.353 -103436.099 43892.873 -102444.309 43840 -101579.835 43840 -101379.872 48565 -101379.872 48565 -101820.128 48650.89 -102251.925 48819.369 -102658.669 49063.962 -103024.729 49375.271 -103336.038 49741.331 -103580.631 50148.075 -103749.11 50579.872 -103835 51020.128 -103835 51451.925 -103749.11 51858.669 -103580.631 52224.729 -103336.038 52536.038 -103024.729 52780.631 -102658.669 52949.11 -102251.925 52983.577 -102078.645 61912.5 -102078.645 61912.5 -102391.355 61973.507 -102698.057 62093.176 -102986.963 62266.908 -103246.972 62488.028 -103468.092 62748.037 -103641.824 63036.943 -103761.493 63343.645 -103822.5 63656.355 -103822.5 63963.057 -103761.493 64251.963 -103641.824 64511.972 -103468.092 64733.092 -103246.972 64906.824 -102986.963 65026.493 -102698.057 65087.5 -102391.355 65087.5 -102078.645 65026.493 -101771.943 64906.824 -101483.037 64837.892 -101379.872 124765 -101379.872 124765 -101820.128 124850.89 -102251.925 125019.369 -102658.669 125263.962 -103024.729 125575.271 -103336.038 125941.331 -103580.631 126348.075 -103749.11 126779.872 -103835 127220.128 -103835 127651.925 -103749.11 128058.669 -103580.631 128424.729 -103336.038 128736.038 -103024.729 128980.631 -102658.669 129149.11 -102251.925 129235 -101820.128 129235 -101379.872 129149.11 -100948.075 128980.631 -100541.331 128736.038 -100175.271 128424.729 -99863.962 128058.669 -99619.369 127651.925 -99450.89 127220.128 -99365 126779.872 -99365 126348.075 -99450.89 125941.331 -99619.369 125575.271 -99863.962 125263.962 -100175.271 125019.369 -100541.331 124850.89 -100948.075 124765 -101379.872 64837.892 -101379.872 64733.092 -101223.028 64511.972 -101001.908 64251.963 -100828.176 63963.057 -100708.507 63656.355 -100647.5 63343.645 -100647.5 63036.943 -100708.507 62748.037 -100828.176 62488.028 -101001.908 62266.908 -101223.028 62093.176 -101483.037 61973.507 -101771.943 61912.5 -102078.645 52983.577 -102078.645 53035 -101820.128 53035 -101379.872 52949.11 -100948.075 52780.631 -100541.331 52536.038 -100175.271 52224.729 -99863.962 51858.669 -99619.369 51451.925 -99450.89 51020.128 -99365 50579.872 -99365 50148.075 -99450.89 49741.331 -99619.369 49375.271 -99863.962 49063.962 -100175.271 48819.369 -100541.331 48650.89 -100948.075 48565 -101379.872 43840 -101379.872 43840 -93080.408 58153.3 -93080.408 58153.3 -93355.592 58206.986 -93625.49 58312.295 -93879.727 58465.18 -94108.535 58659.765 -94303.12 58888.573 -94456.005 59142.81 -94561.314 59412.708 -94615 59687.892 -94615 59957.79 -94561.314 60212.027 -94456.005 60440.835 -94303.12 60635.42 -94108.535 60788.305 -93879.727 60893.614 -93625.49 60947.3 -93355.592 60947.3 -93080.408 66052.7 -93080.408 66052.7 -93355.592 66106.386 -93625.49 66211.695 -93879.727 66364.58 -94108.535 66559.165 -94303.12 66787.973 -94456.005 67042.21 -94561.314 67312.108 -94615 67587.292 -94615 67857.19 -94561.314 68111.427 -94456.005 68340.235 -94303.12 68534.82 -94108.535 68687.705 -93879.727 68793.014 -93625.49 68846.7 -93355.592 68846.7 -93080.408 68793.014 -92810.51 68687.705 -92556.273 68534.82 -92327.465 68340.235 -92132.88 68111.427 -91979.995 67857.19 -91874.686 67587.292 -91821 67312.108 -91821 67042.21 -91874.686 66787.973 -91979.995 66559.165 -92132.88 66364.58 -92327.465 66211.695 -92556.273 66106.386 -92810.51 66052.7 -93080.408 60947.3 -93080.408 60893.614 -92810.51 60788.305 -92556.273 60635.42 -92327.465 60440.835 -92132.88 60212.027 -91979.995 59957.79 -91874.686 59687.892 -91821 59412.708 -91821 59142.81 -91874.686 58888.573 -91979.995 58659.765 -92132.88 58465.18 -92327.465 58312.295 -92556.273 58206.986 -92810.51 58153.3 -93080.408 43840 -93080.408 43840 -50823.92 43857.707 -50579.872 48565 -50579.872 48565 -51020.128 48650.89 -51451.925 48819.369 -51858.669 49063.962 -52224.729 49375.271 -52536.038 49741.331 -52780.631 50148.075 -52949.11 50579.872 -53035 51020.128 -53035 51451.925 -52949.11 51858.669 -52780.631 52224.729 -52536.038 52536.038 -52224.729 52780.631 -51858.669 52949.11 -51451.925 53035 -51020.128 53035 -50579.872 52949.11 -50148.075 52780.631 -49741.331 52595.993 -49465 56411.928 -49465 56411.928 -51215 56441.001 -51510.186 56527.104 -51794.028 56666.927 -52055.618 56855.097 -52284.903 57084.382 -52473.073 57345.972 -52612.896 57629.814 -52698.999 57925 -52728.072 59675 -52728.072 59970.186 -52698.999 59977.61 -52696.747 57694.185 -54980.173 57652.985 -55013.985 57518.086 -55178.36 57417.847 -55365.895 57417.847 -55365.896 57356.12 -55569.382 57335.277 -55781 57340.5 -55834.029 57340.501 -58319.377 57265.506 -58359.463 57168.815 -58438.815 57089.463 -58535.506 57030.498 -58645.82 56994.188 -58765.518 56981.928 -58890 56981.928 -60490 56994.188 -60614.482 57030.498 -60734.18 57089.463 -60844.494 57168.815 -60941.185 57265.506 -61020.537 57375.82 -61079.502 57495.518 -61115.812 57620 -61128.072 59220 -61128.072 59344.482 -61115.812 59464.18 -61079.502 59574.494 -61020.537 59671.185 -60941.185 59750.537 -60844.494 59809.502 -60734.18 59825.117 -60682.702 60106.903 -60682.702 60178.486 -60926.671 60433.996 -61047.571 60708.184 -61116.3 60990.512 -61130.217 61270.13 -61088.787 61536.292 -60993.603 61661.514 -60926.671 61733.097 -60682.702 60920 -59869.605 60106.903 -60682.702 59825.117 -60682.702 59845.812 -60614.482 59858.072 -60490 59858.072 -60482.785 59927.298 -60503.097 60740.395 -59690 61099.605 -59690 61912.702 -60503.097 62156.671 -60431.514 62277.571 -60176.004 62346.3 -59901.816 62360.217 -59619.488 62318.787 -59339.87 62223.603 -59073.708 62156.671 -58948.486 61912.702 -58876.903 61099.605 -59690 60740.395 -59690 59927.298 -58876.903 59858.072 -58897.215 59858.072 -58890 59845.812 -58765.518 59825.118 -58697.298 60106.903 -58697.298 60920 -59510.395 61733.097 -58697.298 61661.514 -58453.329 61406.004 -58332.429 61131.816 -58263.7 60849.488 -58249.783 60569.87 -58291.213 60303.708 -58386.397 60178.486 -58453.329 60106.903 -58697.298 59825.118 -58697.298 59809.502 -58645.82 59750.537 -58535.506 59671.185 -58438.815 59574.494 -58359.463 59499.5 -58319.377 59499.5 -57150 71940.277 -57150 71961.12 -57361.619 72022.847 -57565.106 72123.086 -57752.64 72199.501 -57845.752 72199.5 -78699.447 72199.5 -78699.448 72199.501 -94574.439 72195.506 -94615 72211.445 -94776.826 72258.647 -94932.433 72335.301 -95075.842 72396.863 -95150.854 72438.46 -95201.541 72469.961 -95227.393 74537.572 -97295.004 74569.774 -97456.898 74647.795 -97645.256 74761.063 -97814.774 74905.226 -97958.937 75074.744 -98072.205 75263.102 -98150.226 75463.061 -98190 75666.939 -98190 75866.898 -98150.226 76055.256 -98072.205 76224.774 -97958.937 76368.937 -97814.774 76482.205 -97645.256 76560.226 -97456.898 76600 -97256.939 76600 -97053.061 76560.226 -96853.102 76482.205 -96664.744 76368.937 -96495.226 76224.774 -96351.063 76055.256 -96237.795 75866.898 -96159.774 75705.004 -96127.572 73850.5 -94273.068 73850.5 -91892.835 74315 -91892.835 74315 -92067.165 74349.01 -92238.145 74415.723 -92399.205 74469.709 -92480 74415.723 -92560.795 74349.01 -92721.855 74315 -92892.835 74315 -93067.165 74349.01 -93238.145 74415.723 -93399.205 74469.709 -93480 74415.723 -93560.795 74349.01 -93721.855 74315 -93892.835 74315 -94067.165 74349.01 -94238.145 74415.723 -94399.205 74512.576 -94544.155 74635.845 -94667.424 74780.795 -94764.277 74941.855 -94830.99 75112.835 -94865 75287.165 -94865 75458.145 -94830.99 75619.205 -94764.277 75700 -94710.291 75780.795 -94764.277 75941.855 -94830.99 76112.835 -94865 76287.165 -94865 76458.145 -94830.99 76619.205 -94764.277 76700 -94710.291 76780.795 -94764.277 76941.855 -94830.99 77112.835 -94865 77287.165 -94865 77458.145 -94830.99 77619.205 -94764.277 77764.155 -94667.424 77887.424 -94544.155 77984.277 -94399.205 78050.99 -94238.145 78085 -94067.165 78085 -93892.835 78050.99 -93721.855 77984.277 -93560.795 77930.291 -93480 77984.277 -93399.205 78050.99 -93238.145 78085 -93067.165 78085 -92892.835 78050.99 -92721.855 77984.277 -92560.795 77930.291 -92480 77984.277 -92399.205 78050.99 -92238.145 78085 -92067.165 78085 -91892.835 78050.99 -91721.855 77984.277 -91560.795 77887.424 -91415.845 77764.155 -91292.576 77619.205 -91195.723 77458.145 -91129.01 77287.165 -91095 77112.835 -91095 76941.855 -91129.01 76780.795 -91195.723 76700 -91249.709 76619.205 -91195.723 76458.145 -91129.01 76287.165 -91095 76112.835 -91095 75941.855 -91129.01 75780.795 -91195.723 75700 -91249.709 75619.205 -91195.723 75458.145 -91129.01 75287.165 -91095 75112.835 -91095 74941.855 -91129.01 74780.795 -91195.723 74635.845 -91292.576 74512.576 -91415.845 74415.723 -91560.795 74349.01 -91721.855 74315 -91892.835 73850.5 -91892.835 73850.5 -84996.187 75247.5 -84996.187 75247.5 -85183.813 75284.104 -85367.834 75355.905 -85541.178 75460.145 -85697.184 75592.816 -85829.855 75748.822 -85934.095 75922.166 -86005.896 76106.187 -86042.5 76293.813 -86042.5 76477.834 -86005.896 76651.178 -85934.095 76679.007 -85915.5 87589.45 -85915.5 87630 -85919.494 87670.55 -85915.5 87670.553 -85915.5 87791.826 -85903.556 87947.434 -85856.353 88090.842 -85779.699 88216.541 -85676.541 88242.398 -85645.034 89455.042 -84432.391 89486.541 -84406.541 89554.57 -84323.647 89589.699 -84280.843 89646.752 -84174.104 89666.353 -84137.434 89713.556 -83981.826 89725.5 -83860.553 89725.5 -83860.551 89729.494 -83820.001 89725.5 -83779.45 89725.5 -71494.447 92419.805 -71494.447 92503.326 -71793.553 92643.595 -72070.617 92835.221 -72314.992 93070.84 -72517.287 93341.397 -72669.728 93607.412 -72760.586 93853 -72640.584 93853 -71247 92554.831 -71247 92419.805 -71494.447 89725.5 -71494.447 89725.5 -70745.553 92419.805 -70745.553 92554.831 -70993 93853 -70993 93853 -69599.416 94107 -69599.416 94107 -70993 94127 -70993 94127 -71247 94107 -71247 94107 -72640.584 94352.588 -72760.586 94618.603 -72669.728 94889.16 -72517.287 95124.779 -72314.992 95243.725 -72163.304 95393.813 -72346.187 95635.162 -72544.256 95910.513 -72691.434 96209.287 -72782.066 96520 -72812.669 96830.714 -72782.066 97129.488 -72691.434 97404.839 -72544.256 97646.187 -72346.187 97790 -72170.95 97933.813 -72346.187 97980.5 -72384.502 97980.501 -79562.856 96989.182 -80554.176 96888.087 -80677.361 96787.847 -80864.896 96726.12 -81068.382 96705.277 -81280 96726.12 -81491.618 96787.847 -81695.104 96888.087 -81882.639 97022.986 -82047.014 97187.361 -82181.913 97374.896 -82282.153 97578.382 -82343.88 97790 -82364.723 98001.618 -82343.88 98205.104 -82282.153 98392.639 -82181.913 98515.824 -82080.818 99785.821 -80810.822 99827.015 -80777.015 99961.914 -80612.64 100062.153 -80425.106 100123.88 -80221.619 100139.5 -80063.029 100139.5 -80063.022 100144.722 -80010.001 100139.5 -79956.979 100139.5 -72384.502 100186.187 -72346.187 100330 -72170.95 100473.813 -72346.187 100715.162 -72544.256 100990.513 -72691.434 101289.287 -72782.066 101600 -72812.669 101910.714 -72782.066 102209.488 -72691.434 102484.839 -72544.256 102726.187 -72346.187 102870 -72170.95 103013.813 -72346.187 103255.162 -72544.256 103530.513 -72691.434 103829.287 -72782.066 104140 -72812.669 104450.714 -72782.066 104749.488 -72691.434 105024.839 -72544.256 105266.187 -72346.187 105410 -72170.95 105553.813 -72346.187 105795.162 -72544.256 106070.513 -72691.434 106369.287 -72782.066 106680 -72812.669 106990.714 -72782.066 107289.488 -72691.434 107564.839 -72544.256 107806.187 -72346.187 107950 -72170.95 108093.813 -72346.187 108335.162 -72544.256 108610.513 -72691.434 108909.287 -72782.066 109220 -72812.669 109530.714 -72782.066 109829.488 -72691.434 110104.839 -72544.256 110346.187 -72346.187 110490 -72170.95 110633.813 -72346.187 110875.162 -72544.256 111150.513 -72691.434 111449.287 -72782.066 111760 -72812.669 112070.714 -72782.066 112369.488 -72691.434 112644.839 -72544.256 112886.187 -72346.187 113030 -72170.95 113173.813 -72346.187 113415.162 -72544.256 113690.513 -72691.434 113989.287 -72782.066 114300 -72812.669 114610.714 -72782.066 114909.488 -72691.434 115184.839 -72544.256 115313.56 -72438.617 115359.463 -72524.494 115438.815 -72621.185 115535.506 -72700.537 115645.82 -72759.502 115765.518 -72795.812 115890 -72808.072 117790 -72808.072 117914.482 -72795.812 118034.18 -72759.502 118144.494 -72700.537 118241.185 -72621.185 118320.537 -72524.494 118379.502 -72414.18 118415.812 -72294.482 118428.072 -72170 118428.072 -70070 118415.812 -69945.518 118379.502 -69825.82 118320.537 -69715.506 118241.185 -69618.815 118144.494 -69539.463 118034.18 -69480.498 117914.482 -69444.188 117790 -69431.928 115890 -69431.928 115765.518 -69444.188 115645.82 -69480.498 115535.506 -69539.463 115438.815 -69618.815 115359.463 -69715.506 115313.56 -69801.383 115184.838 -69695.744 114909.487 -69548.566 114610.713 -69457.934 114300 -69427.331 113989.286 -69457.934 113690.512 -69548.566 113415.161 -69695.744 113173.813 -69893.813 113030 -70069.05 112886.187 -69893.813 112644.838 -69695.744 112369.487 -69548.566 112070.713 -69457.934 111760 -69427.331 111449.286 -69457.934 111150.512 -69548.566 110875.161 -69695.744 110633.813 -69893.813 110490 -70069.05 110346.187 -69893.813 110104.838 -69695.744 109829.487 -69548.566 109530.713 -69457.934 109220 -69427.331 108909.286 -69457.934 108610.512 -69548.566 108335.161 -69695.744 108093.813 -69893.813 107950 -70069.05 107806.187 -69893.813 107564.838 -69695.744 107289.487 -69548.566 106990.713 -69457.934 106680 -69427.331 106369.286 -69457.934 106070.512 -69548.566 105795.161 -69695.744 105553.813 -69893.813 105410 -70069.05 105266.187 -69893.813 105024.838 -69695.744 104749.487 -69548.566 104450.713 -69457.934 104140 -69427.331 103829.286 -69457.934 103530.512 -69548.566 103255.161 -69695.744 103013.813 -69893.813 102870 -70069.05 102726.187 -69893.813 102484.838 -69695.744 102209.487 -69548.566 101910.713 -69457.934 101600 -69427.331 101289.286 -69457.934 100990.512 -69548.566 100715.161 -69695.744 100473.813 -69893.813 100330 -70069.05 100186.187 -69893.813 99944.838 -69695.744 99669.487 -69548.566 99370.713 -69457.934 99060 -69427.331 98749.286 -69457.934 98450.512 -69548.566 98175.161 -69695.744 97933.813 -69893.813 97790 -70069.05 97646.187 -69893.813 97404.838 -69695.744 97129.487 -69548.566 96830.713 -69457.934 96520 -69427.331 96209.286 -69457.934 95910.512 -69548.566 95635.161 -69695.744 95393.813 -69893.813 95243.725 -70076.697 95124.779 -69925.008 94889.16 -69722.713 94618.603 -69570.272 94352.588 -69479.414 94107 -69599.416 93853 -69599.416 93607.412 -69479.414 93341.397 -69570.272 93070.84 -69722.713 92835.221 -69925.008 92643.595 -70169.383 92503.326 -70446.447 92419.805 -70745.553 89725.5 -70745.553 89725.5 -58961.187 90106.5 -58961.187 90106.5 -59148.813 90143.104 -59332.834 90214.905 -59506.178 90319.145 -59662.184 90451.816 -59794.855 90607.822 -59899.095 90781.166 -59970.896 90917.615 -59998.037 90976.905 -60141.178 91081.145 -60297.184 91213.816 -60429.855 91369.822 -60534.095 91543.166 -60605.896 91596.573 -60616.519 91662.705 -60776.178 91766.945 -60932.184 91899.616 -61064.855 92055.622 -61169.095 92228.966 -61240.896 92412.987 -61277.5 92600.613 -61277.5 92784.634 -61240.896 92957.978 -61169.095 92985.807 -61150.5 95292.139 -61150.5 95237.895 -61281.457 95073.766 -61314.104 94900.422 -61385.905 94744.416 -61490.145 94611.745 -61622.816 94507.505 -61778.822 94435.704 -61952.166 94418.332 -62039.5 94408.207 -62039.5 94380.378 -62020.905 94207.034 -61949.104 94023.013 -61912.5 93835.387 -61912.5 93651.366 -61949.104 93478.022 -62020.905 93322.016 -62125.145 93189.345 -62257.816 93085.105 -62413.822 93013.304 -62587.166 92976.7 -62771.187 92976.7 -62958.813 93013.304 -63142.834 93085.105 -63316.178 93189.345 -63472.184 93322.016 -63604.855 93478.022 -63709.095 93651.366 -63780.896 93835.387 -63817.5 94023.013 -63817.5 94207.034 -63780.896 94380.378 -63709.095 94408.207 -63690.5 95866.132 -63690.5 95883.504 -63777.834 95955.305 -63951.178 96059.545 -64107.184 96192.216 -64239.855 96348.222 -64344.095 96521.566 -64415.896 96705.587 -64452.5 96893.213 -64452.5 97077.234 -64415.896 97250.578 -64344.095 97278.407 -64325.5 101120.993 -64325.5 101148.822 -64344.095 101322.166 -64415.896 101506.187 -64452.5 101693.813 -64452.5 101877.834 -64415.896 102051.178 -64344.095 102079.007 -64325.5 104930.993 -64325.5 104958.822 -64344.095 105132.166 -64415.896 105316.187 -64452.5 105503.813 -64452.5 105687.834 -64415.896 105861.178 -64344.095 105889.007 -64325.5 112550.993 -64325.5 112578.822 -64344.095 112752.166 -64415.896 112936.187 -64452.5 113123.813 -64452.5 113307.834 -64415.896 113481.178 -64344.095 113509.007 -64325.5 125885.993 -64325.5 125913.822 -64344.095 126087.166 -64415.896 126271.187 -64452.5 126458.813 -64452.5 126642.834 -64415.896 126816.178 -64344.095 126972.184 -64239.855 127104.855 -64107.184 127209.095 -63951.178 127280.896 -63777.834 127286.139 -63751.476 127357.166 -63780.896 127541.187 -63817.5 127728.813 -63817.5 127912.834 -63780.896 128086.178 -63709.095 128242.184 -63604.855 128374.855 -63472.184 128479.095 -63316.178 128550.896 -63142.834 128587.5 -62958.813 128587.5 -62771.187 128550.896 -62587.166 128479.095 -62413.822 128374.855 -62257.816 128347.039 -62230 128374.855 -62202.184 128479.095 -62046.178 128550.896 -61872.834 128568.268 -61785.5 130468.067 -61785.5 130522.574 -61840.007 130529.104 -61872.834 130600.905 -62046.178 130705.145 -62202.184 130837.816 -62334.855 130993.822 -62439.095 131167.166 -62510.896 131351.187 -62547.5 131538.813 -62547.5 131722.834 -62510.896 131896.178 -62439.095 132052.184 -62334.855 132184.855 -62202.184 132289.095 -62046.178 132360.896 -61872.834 132397.5 -61688.813 132397.5 -61501.187 132360.896 -61317.166 132289.095 -61143.822 132184.855 -60987.816 132157.039 -60960 132184.855 -60932.184 132289.095 -60776.178 132360.896 -60602.834 132397.5 -60418.813 132397.5 -60231.187 132360.896 -60047.166 132289.095 -59873.822 132184.855 -59717.816 132052.184 -59585.145 131896.178 -59480.905 131722.834 -59409.104 131538.813 -59372.5 131722.834 -59335.896 131896.178 -59264.095 132052.184 -59159.855 132184.855 -59027.184 132289.095 -58871.178 132360.896 -58697.834 132397.5 -58513.813 132397.5 -58326.187 132360.896 -58142.166 132289.095 -57968.822 132184.855 -57812.816 132052.184 -57680.145 131896.178 -57575.905 131722.834 -57504.104 131690.008 -57497.575 130152.398 -55959.966 130126.541 -55928.459 130000.842 -55825.301 129857.434 -55748.647 129701.826 -55701.444 129580.553 -55689.5 129580.55 -55689.5 129540 -55685.506 129499.45 -55689.5 122399.007 -55689.5 122371.178 -55670.905 122197.834 -55599.104 122013.813 -55562.5 121826.187 -55562.5 121642.166 -55599.104 121468.822 -55670.905 121312.816 -55775.145 121180.145 -55907.816 121075.905 -56063.822 121004.104 -56237.166 120967.5 -56421.187 120967.5 -56608.813 121004.104 -56792.834 121075.905 -56966.178 121180.145 -57122.184 121312.816 -57254.855 121468.822 -57359.095 121640.001 -57429.999 121708.139 -57594.5 117319.007 -57594.5 117291.178 -57575.905 117117.834 -57504.104 116933.813 -57467.5 116746.187 -57467.5 116562.166 -57504.104 116388.822 -57575.905 116360.993 -57594.5 108175.007 -57594.5 108147.178 -57575.905 107973.834 -57504.104 107789.813 -57467.5 107602.187 -57467.5 107418.166 -57504.104 107244.822 -57575.905 107216.993 -57594.5 100555.007 -57594.5 100527.178 -57575.905 100353.834 -57504.104 100169.813 -57467.5 99982.187 -57467.5 99798.166 -57504.104 99624.822 -57575.905 99596.993 -57594.5 93042.361 -57594.5 92950.178 -57532.905 92776.834 -57461.104 92592.813 -57424.5 92405.187 -57424.5 92221.166 -57461.104 92047.822 -57532.905 91942.014 -57603.604 91913.174 -57606.444 91757.566 -57653.647 91614.158 -57730.301 91488.459 -57833.459 91385.301 -57959.158 91308.647 -58102.566 91299.798 -58131.737 91152.813 -58102.5 90965.187 -58102.5 90781.166 -58139.104 90607.822 -58210.905 90451.816 -58315.145 90319.145 -58447.816 90214.905 -58603.822 90143.104 -58777.166 90106.5 -58961.187 89725.5 -58961.187 89725.5 -51174.447 92419.805 -51174.447 92503.326 -51473.553 92643.595 -51750.617 92835.221 -51994.992 93070.84 -52197.287 93341.397 -52349.728 93607.412 -52440.586 93853 -52320.584 93853 -50927 92554.831 -50927 92419.805 -51174.447 89725.5 -51174.447 89725.5 -50425.553 92419.805 -50425.553 92554.831 -50673 93853 -50673 93853 -49279.416 93607.412 -49159.414 93341.397 -49250.272 93070.84 -49402.713 92835.221 -49605.008 92643.595 -49849.383 92503.326 -50126.447 92419.805 -50425.553 89725.5 -50425.553 89725.5 -49871.932 90511.933 -49085.5 107608.068 -49085.5 108095.223 -49572.656 108093.813 -49573.813 107950 -49749.05 107806.187 -49573.813 107564.838 -49375.744 107289.487 -49228.566 106990.713 -49137.934 106680 -49107.331 106369.286 -49137.934 106070.512 -49228.566 105795.161 -49375.744 105553.813 -49573.813 105410 -49749.05 105266.187 -49573.813 105024.838 -49375.744 104749.487 -49228.566 104450.713 -49137.934 104140 -49107.331 103829.286 -49137.934 103530.512 -49228.566 103255.161 -49375.744 103013.813 -49573.813 102870 -49749.05 102726.187 -49573.813 102484.838 -49375.744 102209.487 -49228.566 101910.713 -49137.934 101600 -49107.331 101289.286 -49137.934 100990.512 -49228.566 100715.161 -49375.744 100473.813 -49573.813 100330 -49749.05 100186.187 -49573.813 99944.838 -49375.744 99669.487 -49228.566 99370.713 -49137.934 99060 -49107.331 98749.286 -49137.934 98450.512 -49228.566 98175.161 -49375.744 97933.813 -49573.813 97790 -49749.05 97646.187 -49573.813 97404.838 -49375.744 97129.487 -49228.566 96830.713 -49137.934 96520 -49107.331 96209.286 -49137.934 95910.512 -49228.566 95635.161 -49375.744 95393.813 -49573.813 95243.725 -49756.697 95124.779 -49605.008 94889.16 -49402.713 94618.603 -49250.272 94352.588 -49159.414 94107 -49279.416 94107 -50673 94127 -50673 94127 -50927 94107 -50927 94107 -52320.584 94352.588 -52440.586 94618.603 -52349.728 94889.16 -52197.287 95124.779 -51994.992 95243.725 -51843.304 95393.813 -52026.187 95635.162 -52224.256 95910.513 -52371.434 96209.287 -52462.066 96520 -52492.669 96830.714 -52462.066 97129.488 -52371.434 97404.839 -52224.256 97646.187 -52026.187 97790 -51850.95 97933.813 -52026.187 98175.162 -52224.256 98450.513 -52371.434 98749.287 -52462.066 99060 -52492.669 99370.714 -52462.066 99669.488 -52371.434 99944.839 -52224.256 100186.187 -52026.187 100330 -51850.95 100473.813 -52026.187 100715.162 -52224.256 100990.513 -52371.434 101289.287 -52462.066 101600 -52492.669 101910.714 -52462.066 102209.488 -52371.434 102484.839 -52224.256 102726.187 -52026.187 102870 -51850.95 103013.813 -52026.187 103255.162 -52224.256 103530.513 -52371.434 103829.287 -52462.066 104140 -52492.669 104450.714 -52462.066 104749.488 -52371.434 105024.839 -52224.256 105266.187 -52026.187 105410 -51850.95 105553.813 -52026.187 105795.162 -52224.256 106070.513 -52371.434 106369.287 -52462.066 106680 -52492.669 106990.714 -52462.066 107289.488 -52371.434 107564.839 -52224.256 107806.187 -52026.187 107950 -51850.95 108093.813 -52026.187 108335.162 -52224.256 108610.513 -52371.434 108909.287 -52462.066 109220 -52492.669 109530.714 -52462.066 109829.488 -52371.434 110104.839 -52224.256 110346.187 -52026.187 110490 -51850.95 110633.813 -52026.187 110875.162 -52224.256 111150.513 -52371.434 111449.287 -52462.066 111760 -52492.669 112070.714 -52462.066 112369.488 -52371.434 112644.839 -52224.256 112886.187 -52026.187 113030 -51850.95 113173.813 -52026.187 113415.162 -52224.256 113690.513 -52371.434 113989.287 -52462.066 114300 -52492.669 114610.714 -52462.066 114909.488 -52371.434 115184.839 -52224.256 115426.187 -52026.187 115570 -51850.95 115713.813 -52026.187 115955.162 -52224.256 116230.513 -52371.434 116529.287 -52462.066 116840 -52492.669 117150.714 -52462.066 117449.488 -52371.434 117724.839 -52224.256 117966.187 -52026.187 118164.256 -51784.839 118311.434 -51509.487 118402.066 -51210.713 118425 -50977.863 118425 -50622.136 118420.838 -50579.872 124765 -50579.872 124765 -51020.128 124850.89 -51451.925 125019.369 -51858.669 125263.962 -52224.729 125575.271 -52536.038 125941.331 -52780.631 126348.075 -52949.11 126779.872 -53035 127220.128 -53035 127651.925 -52949.11 128058.669 -52780.631 128424.729 -52536.038 128736.038 -52224.729 128980.631 -51858.669 129149.11 -51451.925 129235 -51020.128 129235 -50579.872 129149.11 -50148.075 128980.631 -49741.331 128736.038 -49375.271 128424.729 -49063.962 128058.669 -48819.369 127651.925 -48650.89 127220.128 -48565 126779.872 -48565 126348.075 -48650.89 125941.331 -48819.369 125575.271 -49063.962 125263.962 -49375.271 125019.369 -49741.331 124850.89 -50148.075 124765 -50579.872 118420.838 -50579.872 118402.066 -50389.286 118311.434 -50090.512 118164.256 -49815.161 117966.187 -49573.813 117724.838 -49375.744 117449.487 -49228.566 117150.713 -49137.934 116840 -49107.331 116529.286 -49137.934 116230.512 -49228.566 115955.161 -49375.744 115713.813 -49573.813 115570 -49749.05 115426.187 -49573.813 115184.838 -49375.744 114909.487 -49228.566 114610.713 -49137.934 114300 -49107.331 113989.286 -49137.934 113690.512 -49228.566 113415.161 -49375.744 113173.813 -49573.813 113030 -49749.05 112886.187 -49573.813 112644.838 -49375.744 112585.5 -49344.027 112585.5 -48300.55 112589.494 -48259.999 112585.5 -48219.447 112573.556 -48098.174 112526.353 -47942.566 112452.05 -47803.556 112449.699 -47799.157 112372.391 -47704.958 112346.541 -47673.459 112315.039 -47647.606 111102.398 -46434.966 111076.541 -46403.459 110950.842 -46300.301 110807.434 -46223.647 110651.826 -46176.444 110530.553 -46164.5 110530.55 -46164.5 110490 -46160.506 110449.45 -46164.5 89575.55 -46164.5 89535 -46160.506 89494.449 -46164.5 89494.447 -46164.5 89373.174 -46176.444 89245.752 -46215.097 89217.566 -46223.647 89074.157 -46300.301 88979.958 -46377.608 88979.957 -46377.609 88948.459 -46403.459 88922.611 -46434.955 87074.966 -48282.602 87043.459 -48308.459 86995.803 -48366.529 86940.301 -48434.158 86870.364 -48565 86863.647 -48577.567 86816.444 -48733.175 86805.279 -48846.54 86800.506 -48895 86804.5 -48935.55 86804.501 -73619.447 86804.5 -82208.067 86018.068 -82994.5 79219.007 -82994.5 79191.178 -82975.905 79017.834 -82904.104 78833.813 -82867.5 78646.187 -82867.5 78462.166 -82904.104 78288.822 -82975.905 78132.816 -83080.145 78000.145 -83212.816 77895.905 -83368.822 77824.104 -83542.166 77787.5 -83726.187 77787.5 -83913.813 77824.104 -84097.834 77893.139 -84264.5 76679.007 -84264.5 76651.178 -84245.905 76477.834 -84174.104 76293.813 -84137.5 76106.187 -84137.5 75922.166 -84174.104 75748.822 -84245.905 75592.816 -84350.145 75460.145 -84482.816 75355.905 -84638.822 75284.104 -84812.166 75247.5 -84996.187 73850.5 -84996.187 73850.5 -58229.5 76781.971 -58229.5 76835 -58234.723 76888.029 -58229.5 77046.619 -58213.88 77250.106 -58152.153 77437.64 -58051.914 77602.015 -57917.015 77635.827 -57875.815 80175.818 -55335.825 80276.913 -55212.64 80377.153 -55025.106 80438.88 -54821.619 80459.722 -54610.001 80438.88 -54398.382 80377.153 -54194.896 80276.913 -54007.361 80142.014 -53842.986 79977.639 -53708.087 79790.104 -53607.847 79586.618 -53546.12 79374.999 -53525.278 79163.381 -53546.12 78959.894 -53607.847 78772.36 -53708.087 78649.175 -53809.182 76387.858 -56070.5 72971.971 -56070.5 72813.381 -56086.12 72609.894 -56147.847 72422.36 -56248.086 72257.985 -56382.985 72123.086 -56547.36 72022.847 -56734.894 71961.12 -56938.381 71940.277 -57150 59499.5 -57150 59499.5 -56228.142 61111.928 -54615.715 61111.928 -55090 61124.188 -55214.482 61160.498 -55334.18 61219.463 -55444.494 61298.815 -55541.185 61395.506 -55620.537 61505.82 -55679.502 61625.518 -55715.812 61750 -55728.072 65250 -55728.072 65374.482 -55715.812 65494.18 -55679.502 65604.494 -55620.537 65701.185 -55541.185 65780.537 -55444.494 65839.502 -55334.18 65875.812 -55214.482 65888.072 -55090 65888.072 -51590 65875.812 -51465.518 65839.502 -51345.82 65780.537 -51235.506 65701.185 -51138.815 65604.494 -51059.463 65494.18 -51000.498 65374.482 -50964.188 65250 -50951.928 61750 -50951.928 61625.518 -50964.188 61505.82 -51000.498 61395.506 -51059.463 61298.815 -51138.815 61219.463 -51235.506 61178.506 -51312.131 61188.072 -51215 61188.072 -49465 61158.999 -49169.814 61072.896 -48885.972 61048.324 -48840 61111.928 -48840 61124.188 -48964.482 61160.498 -49084.18 61219.463 -49194.494 61298.815 -49291.185 61395.506 -49370.537 61505.82 -49429.502 61625.518 -49465.812 61750 -49478.072 63214.25 -49475 63373 -49316.25 63373 -47467 63627 -47467 63627 -49316.25 63785.75 -49475 65250 -49478.072 65374.482 -49465.812 65494.18 -49429.502 65604.494 -49370.537 65701.185 -49291.185 65780.537 -49194.494 65839.502 -49084.18 65875.812 -48964.482 65888.072 -48840 65885 -47625.75 65726.25 -47467 63627 -47467 63373 -47467 61273.75 -47467 61115 -47625.75 61111.928 -48840 61048.324 -48840 60933.073 -48624.382 60744.903 -48395.097 60515.618 -48206.927 60254.028 -48067.104 59970.186 -47981.001 59675 -47951.928 57925 -47951.928 57629.814 -47981.001 57345.972 -48067.104 57084.382 -48206.927 56855.097 -48395.097 56666.927 -48624.382 56527.104 -48885.972 56441.001 -49169.814 56411.928 -49465 52595.993 -49465 52536.038 -49375.271 52224.729 -49063.962 51858.669 -48819.369 51451.925 -48650.89 51020.128 -48565 50579.872 -48565 50148.075 -48650.89 49741.331 -48819.369 49375.271 -49063.962 49063.962 -49375.271 48819.369 -49741.331 48650.89 -50148.075 48565 -50579.872 43857.707 -50579.872 43914.617 -49795.53 44131.739 -48812.102 44488.546 -47870.325 44977.575 -46989.905 45588.569 -46189.313 45945.898 -45840 61111.928 -45840 61115 -47054.25 61273.75 -47213 63373 -47213 63373 -45363.75 63627 -45363.75 63627 -47213 65726.25 -47213 65885 -47054.25 65888.072 -45840 65875.812 -45715.518 65839.502 -45595.82 65780.537 -45485.506 65701.185 -45388.815 65604.494 -45309.463 65494.18 -45250.498 65374.482 -45214.188 65250 -45201.928 63785.75 -45205 63627 -45363.75 63373 -45363.75 63214.25 -45205 61750 -45201.928 61625.518 -45214.188 61505.82 -45250.498 61395.506 -45309.463 61298.815 -45388.815 61219.463 -45485.506 61160.498 -45595.82 61124.188 -45715.518 61111.928 -45840 45945.898 -45840 46308.732 -45485.306 47122.987 -44892.63 48014.269 -44423.704 48963.9 -44088.353 49955.692 -43892.873 50820.164 -43840 126976.08 -43840 128004.47 -43914.617"/></g><g id="YtCkU4M350mY_bottom_soldermask"><use xlink:href="#EPIle9kjEqGD_pad-10" x="127000" y="-50800"/><use xlink:href="#EPIle9kjEqGD_pad-11" x="93980" y="-50800"/><use xlink:href="#EPIle9kjEqGD_pad-11" x="93980" y="-71120"/><use xlink:href="#EPIle9kjEqGD_pad-11" x="96520" y="-50800"/><use xlink:href="#EPIle9kjEqGD_pad-11" x="96520" y="-71120"/><use xlink:href="#EPIle9kjEqGD_pad-11" x="99060" y="-50800"/><use xlink:href="#EPIle9kjEqGD_pad-11" x="99060" y="-71120"/><use xlink:href="#EPIle9kjEqGD_pad-11" x="101600" y="-50800"/><use xlink:href="#EPIle9kjEqGD_pad-11" x="101600" y="-71120"/><use xlink:href="#EPIle9kjEqGD_pad-11" x="104140" y="-50800"/><use xlink:href="#EPIle9kjEqGD_pad-11" x="104140" y="-71120"/><use xlink:href="#EPIle9kjEqGD_pad-11" x="106680" y="-50800"/><use xlink:href="#EPIle9kjEqGD_pad-11" x="106680" y="-71120"/><use xlink:href="#EPIle9kjEqGD_pad-11" x="109220" y="-50800"/><use xlink:href="#EPIle9kjEqGD_pad-11" x="109220" y="-71120"/><use xlink:href="#EPIle9kjEqGD_pad-11" x="111760" y="-50800"/><use xlink:href="#EPIle9kjEqGD_pad-11" x="111760" y="-71120"/><use xlink:href="#EPIle9kjEqGD_pad-11" x="114300" y="-50800"/><use xlink:href="#EPIle9kjEqGD_pad-11" x="114300" y="-71120"/><use xlink:href="#EPIle9kjEqGD_pad-11" x="116840" y="-50800"/><use xlink:href="#EPIle9kjEqGD_pad-12" x="116840" y="-71120"/><use xlink:href="#EPIle9kjEqGD_pad-13" x="63500" y="-102235"/><use xlink:href="#EPIle9kjEqGD_pad-14" x="59550.3" y="-93218"/><use xlink:href="#EPIle9kjEqGD_pad-14" x="67449.7" y="-93218"/><use xlink:href="#EPIle9kjEqGD_pad-15" x="77200" y="-93980"/><use xlink:href="#EPIle9kjEqGD_pad-15" x="76200" y="-93980"/><use xlink:href="#EPIle9kjEqGD_pad-15" x="75200" y="-93980"/><use xlink:href="#EPIle9kjEqGD_pad-15" x="77200" y="-92980"/><use xlink:href="#EPIle9kjEqGD_pad-15" x="76200" y="-92980"/><use xlink:href="#EPIle9kjEqGD_pad-15" x="77200" y="-91980"/><use xlink:href="#EPIle9kjEqGD_pad-15" x="76200" y="-91980"/><use xlink:href="#EPIle9kjEqGD_pad-15" x="75200" y="-91980"/><use xlink:href="#EPIle9kjEqGD_pad-15" x="75200" y="-92980"/><use xlink:href="#EPIle9kjEqGD_pad-16" x="60920" y="-59690"/><use xlink:href="#EPIle9kjEqGD_pad-17" x="58420" y="-59690"/><path d="M 57925 -48590 59675 -48590 A 875 875 0 0 0 60550 -49465 L 60550 -51215 A 875 875 0 0 0 59675 -52090 L 57925 -52090 A 875 875 0 0 0 57050 -51215 L 57050 -49465 A 875 875 0 0 0 57925 -48590"/><path d="M 62500 -45840 64500 -45840 A 750 750 0 0 0 65250 -46590 L 65250 -48090 A 750 750 0 0 0 64500 -48840 L 62500 -48840 A 750 750 0 0 0 61750 -48090 L 61750 -46590 A 750 750 0 0 0 62500 -45840"/><use xlink:href="#EPIle9kjEqGD_pad-18" x="63500" y="-53340"/><use xlink:href="#EPIle9kjEqGD_pad-10" x="127000" y="-101600"/><use xlink:href="#EPIle9kjEqGD_pad-10" x="50800" y="-101600"/><use xlink:href="#EPIle9kjEqGD_pad-10" x="50800" y="-50800"/></g><g id="YtCkU4M350mY_bottom_silkscreen"><path d="M 51172.619 -93550.952 51648.809 -93884.285 M 51172.619 -94122.38 52172.619 -94122.38 52172.619 -93741.428 52125 -93646.19 52077.38 -93598.571 51982.142 -93550.952 51839.285 -93550.952 51744.047 -93598.571 51696.428 -93646.19 51648.809 -93741.428 51648.809 -94122.38 M 51696.428 -93122.38 51696.428 -92789.047 M 51172.619 -92646.19 51172.619 -93122.38 52172.619 -93122.38 52172.619 -92646.19 M 52172.619 -92360.476 51172.619 -92027.142 52172.619 -91693.809 M 51172.619 -91360.476 52172.619 -91360.476 M 51220.238 -90931.904 51172.619 -90789.047 51172.619 -90550.952 51220.238 -90455.714 51267.857 -90408.095 51363.095 -90360.476 51458.333 -90360.476 51553.571 -90408.095 51601.19 -90455.714 51648.809 -90550.952 51696.428 -90741.428 51744.047 -90836.666 51791.666 -90884.285 51886.904 -90931.904 51982.142 -90931.904 52077.38 -90884.285 52125 -90836.666 52172.619 -90741.428 52172.619 -90503.333 52125 -90360.476 M 51172.619 -89931.904 52172.619 -89931.904 M 52172.619 -89265.238 52172.619 -89074.761 52125 -88979.523 52029.761 -88884.285 51839.285 -88836.666 51505.952 -88836.666 51315.476 -88884.285 51220.238 -88979.523 51172.619 -89074.761 51172.619 -89265.238 51220.238 -89360.476 51315.476 -89455.714 51505.952 -89503.333 51839.285 -89503.333 52029.761 -89455.714 52125 -89360.476 52172.619 -89265.238 M 51172.619 -88408.095 52172.619 -88408.095 51172.619 -87836.666 52172.619 -87836.666 M 51458.333 -86646.19 51458.333 -86170 M 51172.619 -86741.428 52172.619 -86408.095 51172.619 -86074.761 M 50522.619 -93670 49808.333 -93670 49665.476 -93717.619 49570.238 -93812.857 49522.619 -93955.714 49522.619 -94050.952 M 50522.619 -93193.809 49713.095 -93193.809 49617.857 -93146.19 49570.238 -93098.571 49522.619 -93003.333 49522.619 -92812.857 49570.238 -92717.619 49617.857 -92670 49713.095 -92622.38 50522.619 -92622.38 M 49522.619 -91670 49522.619 -92146.19 50522.619 -92146.19 M 49998.809 -91146.19 49522.619 -91146.19 M 50522.619 -91479.523 49998.809 -91146.19 50522.619 -90812.857 M 50427.38 -89765.238 50475 -89717.619 50522.619 -89622.38 50522.619 -89384.285 50475 -89289.047 50427.38 -89241.428 50332.142 -89193.809 50236.904 -89193.809 50094.047 -89241.428 49522.619 -89812.857 49522.619 -89193.809 M 50522.619 -88574.761 50522.619 -88479.523 50475 -88384.285 50427.38 -88336.666 50332.142 -88289.047 50141.666 -88241.428 49903.571 -88241.428 49713.095 -88289.047 49617.857 -88336.666 49570.238 -88384.285 49522.619 -88479.523 49522.619 -88574.761 49570.238 -88670 49617.857 -88717.619 49713.095 -88765.238 49903.571 -88812.857 50141.666 -88812.857 50332.142 -88765.238 50427.38 -88717.619 50475 -88670 50522.619 -88574.761 M 50427.38 -87860.476 50475 -87812.857 50522.619 -87717.619 50522.619 -87479.523 50475 -87384.285 50427.38 -87336.666 50332.142 -87289.047 50236.904 -87289.047 50094.047 -87336.666 49522.619 -87908.095 49522.619 -87289.047 M 49522.619 -86336.666 49522.619 -86908.095 M 49522.619 -86622.38 50522.619 -86622.38 50379.761 -86717.619 50284.523 -86812.857 50236.904 -86908.095" fill="none" stroke-width="150"/><path d="M 118210 -49430 118210 -52170 M 92610 -49430 118210 -49430 M 92610 -52170 92610 -49430 M 118210 -52170 92610 -52170 M 118210 -69750 118210 -72490 M 92610 -69750 118210 -69750 M 92610 -72490 92610 -69750 M 118210 -72490 92610 -72490 M 123440 -73910 123440 -72160 M 121690 -73910 123440 -73910 M 120650 -48140 87630 -48140 M 120650 -73780 87630 -73780 M 84970 -71120 84970 -50800 M 123310 -71120 123310 -50800 M 87630 -73780 A 2660 2660 0 0 0 84970 -71120 M 84970 -50800 A 2660 2660 0 0 0 87630 -48140 M 120650 -48140 A 2660 2660 0 0 0 123310 -50800 M 123310 -71120 A 2660 2660 0 0 0 120650 -73780" fill="none" stroke-width="120"/><path d="M 124356.666 -60245.714 124356.666 -60721.904 M 124642.38 -60150.476 123642.38 -60483.809 124642.38 -60817.142 M 124642.38 -61674.285 124642.38 -61102.857 M 124642.38 -61388.571 123642.38 -61388.571 123785.238 -61293.333 123880.476 -61198.095 123928.095 -61102.857" fill="none" stroke-width="150"/></g><g id="YtCkU4M350mY_bottom_drill1" transform="scale(25.4,25.4)"><use xlink:href="#anDbaXqKR6P9_pad-1" x="2500" y="-4025"/><use xlink:href="#anDbaXqKR6P9_pad-2" x="5000" y="-4000"/><use xlink:href="#anDbaXqKR6P9_pad-2" x="5000" y="-2000"/><use xlink:href="#anDbaXqKR6P9_pad-2" x="2000" y="-4000"/><use xlink:href="#anDbaXqKR6P9_pad-2" x="2000" y="-2000"/></g><g id="YtCkU4M350mY_bottom_drill2" transform="scale(25.4,25.4)"><use xlink:href="#oZpQXfhHKUzJ_pad-1" x="2960.6" y="-3621.3"/><use xlink:href="#oZpQXfhHKUzJ_pad-1" x="2960.6" y="-3660.6"/><use xlink:href="#oZpQXfhHKUzJ_pad-1" x="2960.6" y="-3700"/><use xlink:href="#oZpQXfhHKUzJ_pad-1" x="3000" y="-3621.3"/><use xlink:href="#oZpQXfhHKUzJ_pad-1" x="3000" y="-3660.6"/><use xlink:href="#oZpQXfhHKUzJ_pad-1" x="3000" y="-3700"/><use xlink:href="#oZpQXfhHKUzJ_pad-1" x="3039.4" y="-3621.3"/><use xlink:href="#oZpQXfhHKUzJ_pad-1" x="3039.4" y="-3660.6"/><use xlink:href="#oZpQXfhHKUzJ_pad-1" x="3039.4" y="-3700"/><use xlink:href="#oZpQXfhHKUzJ_pad-2" x="2875" y="-2250"/><use xlink:href="#oZpQXfhHKUzJ_pad-2" x="2975" y="-3825"/><use xlink:href="#oZpQXfhHKUzJ_pad-2" x="3000" y="-3350"/><use xlink:href="#oZpQXfhHKUzJ_pad-2" x="3100" y="-3300"/><use xlink:href="#oZpQXfhHKUzJ_pad-2" x="3125" y="-2150"/><use xlink:href="#oZpQXfhHKUzJ_pad-2" x="3585" y="-2325"/><use xlink:href="#oZpQXfhHKUzJ_pad-2" x="3615" y="-2350"/><use xlink:href="#oZpQXfhHKUzJ_pad-2" x="3641.7" y="-2298.3"/><use xlink:href="#oZpQXfhHKUzJ_pad-2" x="3642" y="-2375"/><use xlink:href="#oZpQXfhHKUzJ_pad-2" x="3698" y="-2475"/><use xlink:href="#oZpQXfhHKUzJ_pad-2" x="3754" y="-2450"/><use xlink:href="#oZpQXfhHKUzJ_pad-2" x="3785" y="-2425"/><use xlink:href="#oZpQXfhHKUzJ_pad-2" x="3811" y="-2400"/><use xlink:href="#oZpQXfhHKUzJ_pad-2" x="3811" y="-2500"/><use xlink:href="#oZpQXfhHKUzJ_pad-2" x="3850" y="-3200"/><use xlink:href="#oZpQXfhHKUzJ_pad-2" x="3890" y="-2325"/><use xlink:href="#oZpQXfhHKUzJ_pad-2" x="3915" y="-2350"/><use xlink:href="#oZpQXfhHKUzJ_pad-2" x="3940" y="-2300"/><use xlink:href="#oZpQXfhHKUzJ_pad-2" x="3945" y="-2375"/><use xlink:href="#oZpQXfhHKUzJ_pad-2" x="4000" y="-2500"/><use xlink:href="#oZpQXfhHKUzJ_pad-2" x="4055" y="-2450"/><use xlink:href="#oZpQXfhHKUzJ_pad-2" x="4085" y="-2425"/><use xlink:href="#oZpQXfhHKUzJ_pad-2" x="4110" y="-2400"/><use xlink:href="#oZpQXfhHKUzJ_pad-2" x="4112" y="-2475"/><use xlink:href="#oZpQXfhHKUzJ_pad-2" x="4150" y="-2500"/><use xlink:href="#oZpQXfhHKUzJ_pad-2" x="4215" y="-2350"/><use xlink:href="#oZpQXfhHKUzJ_pad-2" x="4240" y="-2300"/><use xlink:href="#oZpQXfhHKUzJ_pad-2" x="4240" y="-2375"/><use xlink:href="#oZpQXfhHKUzJ_pad-2" x="4295" y="-2325"/><use xlink:href="#oZpQXfhHKUzJ_pad-2" x="4355" y="-2450"/><use xlink:href="#oZpQXfhHKUzJ_pad-2" x="4385" y="-2425"/><use xlink:href="#oZpQXfhHKUzJ_pad-2" x="4410" y="-2400"/><use xlink:href="#oZpQXfhHKUzJ_pad-2" x="4414" y="-2475"/><use xlink:href="#oZpQXfhHKUzJ_pad-2" x="4450" y="-2500"/><use xlink:href="#oZpQXfhHKUzJ_pad-2" x="4515" y="-2350"/><use xlink:href="#oZpQXfhHKUzJ_pad-2" x="4540" y="-2325"/><use xlink:href="#oZpQXfhHKUzJ_pad-2" x="4545" y="-2375"/><use xlink:href="#oZpQXfhHKUzJ_pad-2" x="4600" y="-2300"/><use xlink:href="#oZpQXfhHKUzJ_pad-2" x="4660" y="-2450"/><use xlink:href="#oZpQXfhHKUzJ_pad-2" x="4685" y="-2425"/><use xlink:href="#oZpQXfhHKUzJ_pad-2" x="4710" y="-2400"/><use xlink:href="#oZpQXfhHKUzJ_pad-2" x="4715" y="-2475"/><use xlink:href="#oZpQXfhHKUzJ_pad-2" x="4750" y="-1850"/><use xlink:href="#oZpQXfhHKUzJ_pad-2" x="4800" y="-2225"/><use xlink:href="#oZpQXfhHKUzJ_pad-2" x="4825" y="-2250"/><use xlink:href="#oZpQXfhHKUzJ_pad-2" x="4825" y="-2325"/><use xlink:href="#oZpQXfhHKUzJ_pad-2" x="4825" y="-2475"/><use xlink:href="#oZpQXfhHKUzJ_pad-2" x="4925" y="-2250"/><use xlink:href="#oZpQXfhHKUzJ_pad-2" x="4975" y="-2325"/><use xlink:href="#oZpQXfhHKUzJ_pad-2" x="4975" y="-2500"/><use xlink:href="#oZpQXfhHKUzJ_pad-2" x="5000" y="-2350"/><use xlink:href="#oZpQXfhHKUzJ_pad-2" x="5025" y="-2425"/><use xlink:href="#oZpQXfhHKUzJ_pad-2" x="5025" y="-2475"/><use xlink:href="#oZpQXfhHKUzJ_pad-2" x="5175" y="-2300"/><use xlink:href="#oZpQXfhHKUzJ_pad-2" x="5175" y="-2375"/><use xlink:href="#oZpQXfhHKUzJ_pad-2" x="5175" y="-2425"/><use xlink:href="#oZpQXfhHKUzJ_pad-3" x="2344.5" y="-3670"/><use xlink:href="#oZpQXfhHKUzJ_pad-3" x="2655.5" y="-3670"/><use xlink:href="#oZpQXfhHKUzJ_pad-4" x="2300" y="-2350"/><use xlink:href="#oZpQXfhHKUzJ_pad-4" x="2398.4" y="-2350"/><use xlink:href="#oZpQXfhHKUzJ_pad-6" x="3700" y="-2000"/><use xlink:href="#oZpQXfhHKUzJ_pad-6" x="3700" y="-2800"/><use xlink:href="#oZpQXfhHKUzJ_pad-6" x="3800" y="-2000"/><use xlink:href="#oZpQXfhHKUzJ_pad-6" x="3800" y="-2800"/><use xlink:href="#oZpQXfhHKUzJ_pad-6" x="3900" y="-2000"/><use xlink:href="#oZpQXfhHKUzJ_pad-6" x="3900" y="-2800"/><use xlink:href="#oZpQXfhHKUzJ_pad-6" x="4000" y="-2000"/><use xlink:href="#oZpQXfhHKUzJ_pad-6" x="4000" y="-2800"/><use xlink:href="#oZpQXfhHKUzJ_pad-6" x="4100" y="-2000"/><use xlink:href="#oZpQXfhHKUzJ_pad-6" x="4100" y="-2800"/><use xlink:href="#oZpQXfhHKUzJ_pad-6" x="4200" y="-2000"/><use xlink:href="#oZpQXfhHKUzJ_pad-6" x="4200" y="-2800"/><use xlink:href="#oZpQXfhHKUzJ_pad-6" x="4300" y="-2000"/><use xlink:href="#oZpQXfhHKUzJ_pad-6" x="4300" y="-2800"/><use xlink:href="#oZpQXfhHKUzJ_pad-6" x="4400" y="-2000"/><use xlink:href="#oZpQXfhHKUzJ_pad-6" x="4400" y="-2800"/><use xlink:href="#oZpQXfhHKUzJ_pad-6" x="4500" y="-2000"/><use xlink:href="#oZpQXfhHKUzJ_pad-6" x="4500" y="-2800"/><use xlink:href="#oZpQXfhHKUzJ_pad-6" x="4600" y="-2000"/><use xlink:href="#oZpQXfhHKUzJ_pad-6" x="4600" y="-2800"/><path d="M 2315 -1942.5 2315 -2021.3 M 2539.4 -1863.8 2460.6 -1863.8 M 2539.4 -2100 2460.6 -2100" fill="none" stroke-width="39.4"/></g><clipPath id="YtCkU4M350mY_bottom_outline"><path d="M 50800 -109220 127000 -109220 A 7620 7620 0 0 1 134620 -101600 L 134620 -50800 A 7620 7620 0 0 1 127000 -43180 L 50800 -43180 A 7620 7620 0 0 1 43180 -50800 L 43180 -101600 A 7620 7620 0 0 1 50800 -109220" fill="none" stroke-width="50"/></clipPath><mask id="YtCkU4M350mY_bottom_mech-mask"><g fill="#000" stroke="#000"><rect x="43180" y="-109220" width="91440" height="66040" fill="#fff"/><use xlink:href="#YtCkU4M350mY_bottom_drill1"/><use xlink:href="#YtCkU4M350mY_bottom_drill2"/></g></mask><mask id="YtCkU4M350mY_bottom_cf-mask"><g fill="#fff" stroke="#fff"><use xlink:href="#YtCkU4M350mY_bottom_soldermask"/></g></mask><mask id="YtCkU4M350mY_bottom_sm-mask"><g fill="#000" stroke="#000"><rect x="43180" y="-109220" width="91440" height="66040" fill="#fff"/><use xlink:href="#YtCkU4M350mY_bottom_soldermask"/></g></mask></defs><g transform="translate(0,-152400) scale(1,-1)"><g mask="url(#YtCkU4M350mY_bottom_mech-mask)" clip-path="url(#YtCkU4M350mY_bottom_outline)" transform="translate(177800,0) scale(-1,1)"><rect x="43180" y="-109220" width="91440" height="66040" fill="currentColor" class="YtCkU4M350mY_fr4"/><use xlink:href="#YtCkU4M350mY_bottom_copper" fill="currentColor" stroke="currentColor" class="YtCkU4M350mY_cu"/><use xlink:href="#YtCkU4M350mY_bottom_copper" fill="currentColor" stroke="currentColor" class="YtCkU4M350mY_cf" mask="url(#YtCkU4M350mY_bottom_cf-mask)"/><g mask="url(#YtCkU4M350mY_bottom_sm-mask)"><rect x="43180" y="-109220" width="91440" height="66040" fill="currentColor" class="YtCkU4M350mY_sm"/><use xlink:href="#YtCkU4M350mY_bottom_silkscreen" fill="currentColor" stroke="currentColor" class="YtCkU4M350mY_ss"/></g></g></g></svg>