<svg version="1.1" xmlns="http://www.w3.org/2000/svg" xmlns:xlink="http://www.w3.org/1999/xlink" stroke-linecap="round" stroke-linejoin="round" stroke-width="0" fill-rule="evenodd" clip-rule="evenodd" id="X7hauhpZqOyw_bottom" viewBox="43180 -109220 91440 66040" width="91.44mm" height="66.04mm"><defs><style>.X7hauhpZqOyw_fr4 {color: #666666;}
.X7hauhpZqOyw_cu {color: #cccccc;}
.X7hauhpZqOyw_cf {color: #cc9933;}
.X7hauhpZqOyw_sm {color: #ff0000; opacity: 0.75;}
.X7hauhpZqOyw_ss {color: #ffffff;}
.X7hauhpZqOyw_sp {color: #999999;}
.X7hauhpZqOyw_out {color: #000000;}</style><rect x="-950" y="-1050" width="1900" height="2100" rx="950" ry="950" id="nlN8CPe9L4om_pad-10"/><rect x="-950" y="-1050" width="1900" height="2100" id="nlN8CPe9L4om_pad-11"/><circle cx="0" cy="0" r="762" id="nlN8CPe9L4om_pad-12"/><circle cx="0" cy="0" r="250" id="nlN8CPe9L4om_pad-13"/><circle cx="0" cy="0" r="800" id="nlN8CPe9L4om_pad-14"/><rect x="-800" y="-800" width="1600" height="1600" id="nlN8CPe9L4om_pad-15"/><rect x="-1750" y="-1750" width="3500" height="3500" id="nlN8CPe9L4om_pad-16"/><circle cx="0" cy="0" r="400" id="nlN8CPe9L4om_pad-17"/><circle cx="0" cy="0" r="317.5" id="nlN8CPe9L4om_pad-18"/><circle cx="0" cy="0" r="1600" id="xOzhcfnAPlZu_pad-10"/><rect x="-950" y="-1050" width="1900" height="2100" rx="950" ry="950" id="xOzhcfnAPlZu_pad-11"/><rect x="-950" y="-1050" width="1900" height="2100" id="xOzhcfnAPlZu_pad-12"/><circle cx="0" cy="0" r="952.5" id="xOzhcfnAPlZu_pad-13"/><circle cx="0" cy="0" r="762" id="xOzhcfnAPlZu_pad-14"/><circle cx="0" cy="0" r="250" id="xOzhcfnAPlZu_pad-15"/><circle cx="0" cy="0" r="800" id="xOzhcfnAPlZu_pad-16"/><rect x="-800" y="-800" width="1600" height="1600" id="xOzhcfnAPlZu_pad-17"/><rect x="-1750" y="-1750" width="3500" height="3500" id="xOzhcfnAPlZu_pad-18"/><g id="X7hauhpZqOyw_bottom_copper"><use xlink:href="#nlN8CPe9L4om_pad-10" x="93980" y="-50800"/><use xlink:href="#nlN8CPe9L4om_pad-10" x="93980" y="-71120"/><use xlink:href="#nlN8CPe9L4om_pad-10" x="96520" y="-50800"/><use xlink:href="#nlN8CPe9L4om_pad-10" x="96520" y="-71120"/><use xlink:href="#nlN8CPe9L4om_pad-10" x="99060" y="-50800"/><use xlink:href="#nlN8CPe9L4om_pad-10" x="99060" y="-71120"/><use xlink:href="#nlN8CPe9L4om_pad-10" x="101600" y="-50800"/><use xlink:href="#nlN8CPe9L4om_pad-10" x="101600" y="-71120"/><use xlink:href="#nlN8CPe9L4om_pad-10" x="104140" y="-50800"/><use xlink:href="#nlN8CPe9L4om_pad-10" x="104140" y="-71120"/><use xlink:href="#nlN8CPe9L4om_pad-10" x="106680" y="-50800"/><use xlink:href="#nlN8CPe9L4om_pad-10" x="106680" y="-71120"/><use xlink:href="#nlN8CPe9L4om_pad-10" x="109220" y="-50800"/><use xlink:href="#nlN8CPe9L4om_pad-10" x="109220" y="-71120"/><use xlink:href="#nlN8CPe9L4om_pad-10" x="111760" y="-50800"/><use xlink:href="#nlN8CPe9L4om_pad-10" x="111760" y="-71120"/><use xlink:href="#nlN8CPe9L4om_pad-10" x="114300" y="-50800"/><use xlink:href="#nlN8CPe9L4om_pad-10" x="114300" y="-71120"/><use xlink:href="#nlN8CPe9L4om_pad-10" x="116840" y="-50800"/><use xlink:href="#nlN8CPe9L4om_pad-11" x="116840" y="-71120"/><use xlink:href="#nlN8CPe9L4om_pad-12" x="59550.3" y="-93218"/><use xlink:href="#nlN8CPe9L4om_pad-12" x="67449.7" y="-93218"/><use xlink:href="#nlN8CPe9L4om_pad-13" x="77200" y="-93980"/><use xlink:href="#nlN8CPe9L4om_pad-13" x="76200" y="-93980"/><use xlink:href="#nlN8CPe9L4om_pad-13" x="75200" y="-93980"/><use xlink:href="#nlN8CPe9L4om_pad-13" x="77200" y="-92980"/><use xlink:href="#nlN8CPe9L4om_pad-13" x="76200" y="-92980"/><use xlink:href="#nlN8CPe9L4om_pad-13" x="77200" y="-91980"/><use xlink:href="#nlN8CPe9L4om_pad-13" x="76200" y="-91980"/><use xlink:href="#nlN8CPe9L4om_pad-13" x="75200" y="-91980"/><use xlink:href="#nlN8CPe9L4om_pad-13" x="75200" y="-92980"/><use xlink:href="#nlN8CPe9L4om_pad-14" x="60920" y="-59690"/><use xlink:href="#nlN8CPe9L4om_pad-15" x="58420" y="-59690"/><path d="M 57925 -48590 59675 -48590 A 875 875 0 0 0 60550 -49465 L 60550 -51215 A 875 875 0 0 0 59675 -52090 L 57925 -52090 A 875 875 0 0 0 57050 -51215 L 57050 -49465 A 875 875 0 0 0 57925 -48590"/><path d="M 62500 -45840 64500 -45840 A 750 750 0 0 0 65250 -46590 L 65250 -48090 A 750 750 0 0 0 64500 -48840 L 62500 -48840 A 750 750 0 0 0 61750 -48090 L 61750 -46590 A 750 750 0 0 0 62500 -45840"/><use xlink:href="#nlN8CPe9L4om_pad-16" x="63500" y="-53340"/><use xlink:href="#nlN8CPe9L4om_pad-17" x="120650" y="-46990"/><use xlink:href="#nlN8CPe9L4om_pad-17" x="97790" y="-81280"/><use xlink:href="#nlN8CPe9L4om_pad-17" x="75565" y="-97155"/><use xlink:href="#nlN8CPe9L4om_pad-17" x="73025" y="-57150"/><use xlink:href="#nlN8CPe9L4om_pad-17" x="79375" y="-54610"/><use xlink:href="#nlN8CPe9L4om_pad-18" x="76200" y="-85090"/><use xlink:href="#nlN8CPe9L4om_pad-18" x="78740" y="-83820"/><use xlink:href="#nlN8CPe9L4om_pad-18" x="91059" y="-59055"/><use xlink:href="#nlN8CPe9L4om_pad-18" x="115316" y="-59055"/><use xlink:href="#nlN8CPe9L4om_pad-18" x="109093" y="-59055"/><use xlink:href="#nlN8CPe9L4om_pad-18" x="98806" y="-59055"/><use xlink:href="#nlN8CPe9L4om_pad-18" x="122555" y="-59055"/><use xlink:href="#nlN8CPe9L4om_pad-18" x="92499" y="-58377"/><use xlink:href="#nlN8CPe9L4om_pad-18" x="100076" y="-58420"/><use xlink:href="#nlN8CPe9L4om_pad-18" x="107696" y="-58420"/><use xlink:href="#nlN8CPe9L4om_pad-18" x="116840" y="-58420"/><use xlink:href="#nlN8CPe9L4om_pad-18" x="126365" y="-59055"/><use xlink:href="#nlN8CPe9L4om_pad-18" x="93929.2" y="-62865"/><use xlink:href="#nlN8CPe9L4om_pad-18" x="119761" y="-62865"/><use xlink:href="#nlN8CPe9L4om_pad-18" x="104444.8" y="-62865"/><use xlink:href="#nlN8CPe9L4om_pad-18" x="112115.6" y="-62865"/><use xlink:href="#nlN8CPe9L4om_pad-18" x="122555" y="-62865"/><use xlink:href="#nlN8CPe9L4om_pad-18" x="95351.6" y="-62230"/><use xlink:href="#nlN8CPe9L4om_pad-18" x="102997" y="-62230"/><use xlink:href="#nlN8CPe9L4om_pad-18" x="110617" y="-62230"/><use xlink:href="#nlN8CPe9L4om_pad-18" x="118364" y="-62230"/><use xlink:href="#nlN8CPe9L4om_pad-18" x="127635" y="-62865"/><use xlink:href="#nlN8CPe9L4om_pad-18" x="112014" y="-60960"/><use xlink:href="#nlN8CPe9L4om_pad-18" x="119634" y="-60960"/><use xlink:href="#nlN8CPe9L4om_pad-18" x="96799.4" y="-60960"/><use xlink:href="#nlN8CPe9L4om_pad-18" x="104394" y="-60960"/><use xlink:href="#nlN8CPe9L4om_pad-18" x="131445" y="-61595"/><use xlink:href="#nlN8CPe9L4om_pad-18" x="105410" y="-63500"/><use xlink:href="#nlN8CPe9L4om_pad-18" x="96799.4" y="-63500"/><use xlink:href="#nlN8CPe9L4om_pad-18" x="113030" y="-63500"/><use xlink:href="#nlN8CPe9L4om_pad-18" x="101600" y="-63500"/><use xlink:href="#nlN8CPe9L4om_pad-18" x="126365" y="-63500"/><use xlink:href="#nlN8CPe9L4om_pad-18" x="96139" y="-61595"/><use xlink:href="#nlN8CPe9L4om_pad-18" x="111379" y="-61595"/><use xlink:href="#nlN8CPe9L4om_pad-18" x="103759" y="-61595"/><use xlink:href="#nlN8CPe9L4om_pad-18" x="118999" y="-61595"/><use xlink:href="#nlN8CPe9L4om_pad-18" x="127635" y="-61595"/><use xlink:href="#nlN8CPe9L4om_pad-18" x="115443" y="-60325"/><use xlink:href="#nlN8CPe9L4om_pad-18" x="92506.8" y="-60325"/><use xlink:href="#nlN8CPe9L4om_pad-18" x="100203" y="-60325"/><use xlink:href="#nlN8CPe9L4om_pad-18" x="107696" y="-60325"/><use xlink:href="#nlN8CPe9L4om_pad-18" x="131445" y="-60325"/><use xlink:href="#nlN8CPe9L4om_pad-18" x="114681" y="-59690"/><use xlink:href="#nlN8CPe9L4om_pad-18" x="107061" y="-59690"/><use xlink:href="#nlN8CPe9L4om_pad-18" x="99441" y="-59690"/><use xlink:href="#nlN8CPe9L4om_pad-18" x="91821" y="-59690"/><use xlink:href="#nlN8CPe9L4om_pad-18" x="127000" y="-59690"/><use xlink:href="#nlN8CPe9L4om_pad-18" x="121920" y="-56515"/><use xlink:href="#nlN8CPe9L4om_pad-18" x="131445" y="-58420"/><use xlink:href="#nlN8CPe9L4om_pad-18" x="122555" y="-57150"/><use xlink:href="#nlN8CPe9L4om_pad-18" x="125095" y="-57150"/><path d="M 99060 -80010 97790 -81280 M 99060 -71120 99060 -80010" fill="none" stroke-width="889"/><path d="M 73025 -78740 73025 -94615 75565 -97155 M 73025 -78740 73025 -57150" fill="none" stroke-width="381"/><path d="M 76835 -57150 73025 -57150 M 79375 -54610 76835 -57150 M 58420 -55781 58420 -59690 M 60861 -53340 58420 -55781 M 63500 -53340 60861 -53340" fill="none" stroke-width="889"/><path d="M 109220 -49530 109220 -50800 M 107950 -48260 109220 -49530 M 90170 -48260 107950 -48260 M 88900 -49530 90170 -48260 M 88900 -83820 88900 -49530 M 87630 -85090 88900 -83820 M 76200 -85090 87630 -85090 M 111760 -50800 111760 -48260 110490 -46990 89535 -46990 87630 -48895 87630 -73660 M 78740 -83820 86360 -83820 87630 -82550 87630 -73660 M 91059 -59055 98806 -59055 M 109093 -59055 115316 -59055 M 98806 -59055 109093 -59055 M 121920 -59055 115316 -59055 M 122555 -59055 121920 -59055 M 107696 -58420 116840 -58420 M 92075 -58420 100076 -58420 107696 -58420 M 125730 -58420 126365 -59055 M 116840 -58420 125730 -58420 M 93929.2 -62865 104444.8 -62865 M 112115.6 -62865 119761 -62865 M 104444.8 -62865 112115.6 -62865 M 122555 -62865 119761 -62865 M 102997 -62230 110617 -62230 118364 -62230 M 95351.6 -62230 102997 -62230 M 127000 -62230 127635 -62865 M 118364 -62230 127000 -62230 M 96799.4 -60960 104394 -60960 112014 -60960 119634 -60960 M 130810 -60960 131445 -61595 M 119634 -60960 130810 -60960 M 105410 -63500 113030 -63500 M 101600 -63500 105410 -63500 M 96799.4 -63500 101600 -63500 M 113030 -63500 119990.618 -63500 124460 -63500 126365 -63500 M 96139 -61595 118237 -61595 M 118999 -61595 118237 -61595 M 118999 -61595 125095 -61595 127635 -61595 M 100203 -60325 107696 -60325 115443 -60325 M 92506.8 -60325 100203 -60325 M 131445 -60325 115443 -60325 M 91821 -59690 114681 -59690 127000 -59690 M 129540 -56515 131445 -58420 M 121920 -56515 129540 -56515 M 125095 -57150 122555 -57150" fill="none" stroke-width="381"/></g><g id="X7hauhpZqOyw_bottom_soldermask"><use xlink:href="#xOzhcfnAPlZu_pad-10" x="127000" y="-50800"/><use xlink:href="#xOzhcfnAPlZu_pad-11" x="93980" y="-50800"/><use xlink:href="#xOzhcfnAPlZu_pad-11" x="93980" y="-71120"/><use xlink:href="#xOzhcfnAPlZu_pad-11" x="96520" y="-50800"/><use xlink:href="#xOzhcfnAPlZu_pad-11" x="96520" y="-71120"/><use xlink:href="#xOzhcfnAPlZu_pad-11" x="99060" y="-50800"/><use xlink:href="#xOzhcfnAPlZu_pad-11" x="99060" y="-71120"/><use xlink:href="#xOzhcfnAPlZu_pad-11" x="101600" y="-50800"/><use xlink:href="#xOzhcfnAPlZu_pad-11" x="101600" y="-71120"/><use xlink:href="#xOzhcfnAPlZu_pad-11" x="104140" y="-50800"/><use xlink:href="#xOzhcfnAPlZu_pad-11" x="104140" y="-71120"/><use xlink:href="#xOzhcfnAPlZu_pad-11" x="106680" y="-50800"/><use xlink:href="#xOzhcfnAPlZu_pad-11" x="106680" y="-71120"/><use xlink:href="#xOzhcfnAPlZu_pad-11" x="109220" y="-50800"/><use xlink:href="#xOzhcfnAPlZu_pad-11" x="109220" y="-71120"/><use xlink:href="#xOzhcfnAPlZu_pad-11" x="111760" y="-50800"/><use xlink:href="#xOzhcfnAPlZu_pad-11" x="111760" y="-71120"/><use xlink:href="#xOzhcfnAPlZu_pad-11" x="114300" y="-50800"/><use xlink:href="#xOzhcfnAPlZu_pad-11" x="114300" y="-71120"/><use xlink:href="#xOzhcfnAPlZu_pad-11" x="116840" y="-50800"/><use xlink:href="#xOzhcfnAPlZu_pad-12" x="116840" y="-71120"/><use xlink:href="#xOzhcfnAPlZu_pad-13" x="63500" y="-102235"/><use xlink:href="#xOzhcfnAPlZu_pad-14" x="59550.3" y="-93218"/><use xlink:href="#xOzhcfnAPlZu_pad-14" x="67449.7" y="-93218"/><use xlink:href="#xOzhcfnAPlZu_pad-15" x="77200" y="-93980"/><use xlink:href="#xOzhcfnAPlZu_pad-15" x="76200" y="-93980"/><use xlink:href="#xOzhcfnAPlZu_pad-15" x="75200" y="-93980"/><use xlink:href="#xOzhcfnAPlZu_pad-15" x="77200" y="-92980"/><use xlink:href="#xOzhcfnAPlZu_pad-15" x="76200" y="-92980"/><use xlink:href="#xOzhcfnAPlZu_pad-15" x="77200" y="-91980"/><use xlink:href="#xOzhcfnAPlZu_pad-15" x="76200" y="-91980"/><use xlink:href="#xOzhcfnAPlZu_pad-15" x="75200" y="-91980"/><use xlink:href="#xOzhcfnAPlZu_pad-15" x="75200" y="-92980"/><use xlink:href="#xOzhcfnAPlZu_pad-16" x="60920" y="-59690"/><use xlink:href="#xOzhcfnAPlZu_pad-17" x="58420" y="-59690"/><path d="M 57925 -48590 59675 -48590 A 875 875 0 0 0 60550 -49465 L 60550 -51215 A 875 875 0 0 0 59675 -52090 L 57925 -52090 A 875 875 0 0 0 57050 -51215 L 57050 -49465 A 875 875 0 0 0 57925 -48590"/><path d="M 62500 -45840 64500 -45840 A 750 750 0 0 0 65250 -46590 L 65250 -48090 A 750 750 0 0 0 64500 -48840 L 62500 -48840 A 750 750 0 0 0 61750 -48090 L 61750 -46590 A 750 750 0 0 0 62500 -45840"/><use xlink:href="#xOzhcfnAPlZu_pad-18" x="63500" y="-53340"/><use xlink:href="#xOzhcfnAPlZu_pad-10" x="127000" y="-101600"/><use xlink:href="#xOzhcfnAPlZu_pad-10" x="50800" y="-101600"/><use xlink:href="#xOzhcfnAPlZu_pad-10" x="50800" y="-50800"/></g><g id="X7hauhpZqOyw_bottom_silkscreen"><path d="M 51172.619 -93550.952 51648.809 -93884.285 M 51172.619 -94122.38 52172.619 -94122.38 52172.619 -93741.428 52125 -93646.19 52077.38 -93598.571 51982.142 -93550.952 51839.285 -93550.952 51744.047 -93598.571 51696.428 -93646.19 51648.809 -93741.428 51648.809 -94122.38 M 51696.428 -93122.38 51696.428 -92789.047 M 51172.619 -92646.19 51172.619 -93122.38 52172.619 -93122.38 52172.619 -92646.19 M 52172.619 -92360.476 51172.619 -92027.142 52172.619 -91693.809 M 51172.619 -91360.476 52172.619 -91360.476 M 51220.238 -90931.904 51172.619 -90789.047 51172.619 -90550.952 51220.238 -90455.714 51267.857 -90408.095 51363.095 -90360.476 51458.333 -90360.476 51553.571 -90408.095 51601.19 -90455.714 51648.809 -90550.952 51696.428 -90741.428 51744.047 -90836.666 51791.666 -90884.285 51886.904 -90931.904 51982.142 -90931.904 52077.38 -90884.285 52125 -90836.666 52172.619 -90741.428 52172.619 -90503.333 52125 -90360.476 M 51172.619 -89931.904 52172.619 -89931.904 M 52172.619 -89265.238 52172.619 -89074.761 52125 -88979.523 52029.761 -88884.285 51839.285 -88836.666 51505.952 -88836.666 51315.476 -88884.285 51220.238 -88979.523 51172.619 -89074.761 51172.619 -89265.238 51220.238 -89360.476 51315.476 -89455.714 51505.952 -89503.333 51839.285 -89503.333 52029.761 -89455.714 52125 -89360.476 52172.619 -89265.238 M 51172.619 -88408.095 52172.619 -88408.095 51172.619 -87836.666 52172.619 -87836.666 M 51458.333 -86646.19 51458.333 -86170 M 51172.619 -86741.428 52172.619 -86408.095 51172.619 -86074.761 M 50522.619 -93670 49808.333 -93670 49665.476 -93717.619 49570.238 -93812.857 49522.619 -93955.714 49522.619 -94050.952 M 50522.619 -93193.809 49713.095 -93193.809 49617.857 -93146.19 49570.238 -93098.571 49522.619 -93003.333 49522.619 -92812.857 49570.238 -92717.619 49617.857 -92670 49713.095 -92622.38 50522.619 -92622.38 M 49522.619 -91670 49522.619 -92146.19 50522.619 -92146.19 M 49998.809 -91146.19 49522.619 -91146.19 M 50522.619 -91479.523 49998.809 -91146.19 50522.619 -90812.857 M 50427.38 -89765.238 50475 -89717.619 50522.619 -89622.38 50522.619 -89384.285 50475 -89289.047 50427.38 -89241.428 50332.142 -89193.809 50236.904 -89193.809 50094.047 -89241.428 49522.619 -89812.857 49522.619 -89193.809 M 50522.619 -88574.761 50522.619 -88479.523 50475 -88384.285 50427.38 -88336.666 50332.142 -88289.047 50141.666 -88241.428 49903.571 -88241.428 49713.095 -88289.047 49617.857 -88336.666 49570.238 -88384.285 49522.619 -88479.523 49522.619 -88574.761 49570.238 -88670 49617.857 -88717.619 49713.095 -88765.238 49903.571 -88812.857 50141.666 -88812.857 50332.142 -88765.238 50427.38 -88717.619 50475 -88670 50522.619 -88574.761 M 50427.38 -87860.476 50475 -87812.857 50522.619 -87717.619 50522.619 -87479.523 50475 -87384.285 50427.38 -87336.666 50332.142 -87289.047 50236.904 -87289.047 50094.047 -87336.666 49522.619 -87908.095 49522.619 -87289.047 M 49522.619 -86336.666 49522.619 -86908.095 M 49522.619 -86622.38 50522.619 -86622.38 50379.761 -86717.619 50284.523 -86812.857 50236.904 -86908.095" fill="none" stroke-width="150"/><path d="M 123310 -71120 123310 -50800 M 84970 -71120 84970 -50800 M 120650 -73780 87630 -73780 M 120650 -48140 87630 -48140 M 121690 -73910 123440 -73910 123440 -72160 M 118210 -72490 92610 -72490 92610 -69750 118210 -69750 118210 -72490 M 118210 -52170 92610 -52170 92610 -49430 118210 -49430 118210 -52170 M 87630 -73780 A 2660 2660 0 0 0 84970 -71120 M 84970 -50800 A 2660 2660 0 0 0 87630 -48140 M 120650 -48140 A 2660 2660 0 0 0 123310 -50800 M 123310 -71120 A 2660 2660 0 0 0 120650 -73780" fill="none" stroke-width="120"/><path d="M 124356.666 -60245.714 124356.666 -60721.904 M 124642.38 -60150.476 123642.38 -60483.809 124642.38 -60817.142 M 124642.38 -61674.285 124642.38 -61102.857 M 124642.38 -61388.571 123642.38 -61388.571 123785.238 -61293.333 123880.476 -61198.095 123928.095 -61102.857" fill="none" stroke-width="150"/></g><clipPath id="X7hauhpZqOyw_bottom_outline"><path d="M 50800 -109220 127000 -109220 A 7620 7620 0 0 1 134620 -101600 L 134620 -50800 A 7620 7620 0 0 1 127000 -43180 L 50800 -43180 A 7620 7620 0 0 1 43180 -50800 L 43180 -101600 A 7620 7620 0 0 1 50800 -109220" fill="none" stroke-width="50"/></clipPath><mask id="X7hauhpZqOyw_bottom_mech-mask"><g fill="#000" stroke="#000"><rect x="43180" y="-109220" width="91440" height="66040" fill="#fff"/></g></mask><mask id="X7hauhpZqOyw_bottom_cf-mask"><g fill="#fff" stroke="#fff"><use xlink:href="#X7hauhpZqOyw_bottom_soldermask"/></g></mask><mask id="X7hauhpZqOyw_bottom_sm-mask"><g fill="#000" stroke="#000"><rect x="43180" y="-109220" width="91440" height="66040" fill="#fff"/><use xlink:href="#X7hauhpZqOyw_bottom_soldermask"/></g></mask></defs><g transform="translate(0,-152400) scale(1,-1)"><g mask="url(#X7hauhpZqOyw_bottom_mech-mask)" clip-path="url(#X7hauhpZqOyw_bottom_outline)" transform="translate(177800,0) scale(-1,1)"><rect x="43180" y="-109220" width="91440" height="66040" fill="currentColor" class="X7hauhpZqOyw_fr4"/><use xlink:href="#X7hauhpZqOyw_bottom_copper" fill="currentColor" stroke="currentColor" class="X7hauhpZqOyw_cu"/><use xlink:href="#X7hauhpZqOyw_bottom_copper" fill="currentColor" stroke="currentColor" class="X7hauhpZqOyw_cf" mask="url(#X7hauhpZqOyw_bottom_cf-mask)"/><g mask="url(#X7hauhpZqOyw_bottom_sm-mask)"><rect x="43180" y="-109220" width="91440" height="66040" fill="currentColor" class="X7hauhpZqOyw_sm"/><use xlink:href="#X7hauhpZqOyw_bottom_silkscreen" fill="currentColor" stroke="currentColor" class="X7hauhpZqOyw_ss"/></g></g></g></svg>