<svg version="1.1" xmlns="http://www.w3.org/2000/svg" xmlns:xlink="http://www.w3.org/1999/xlink" stroke-linecap="round" stroke-linejoin="round" stroke-width="0" fill-rule="evenodd" clip-rule="evenodd" id="IYM8IO2nNpBY_bottom" viewBox="43180 -109220 91440 66040" width="91.44mm" height="66.04mm"><defs><style>.IYM8IO2nNpBY_fr4 {color: #666666;}
.IYM8IO2nNpBY_cu {color: #cccccc;}
.IYM8IO2nNpBY_cf {color: #cc9933;}
.IYM8IO2nNpBY_sm {color: #ff0000; opacity: 0.75;}
.IYM8IO2nNpBY_ss {color: #ffffff;}
.IYM8IO2nNpBY_sp {color: #999999;}
.IYM8IO2nNpBY_out {color: #000000;}</style><rect x="-950" y="-1050" width="1900" height="2100" rx="950" ry="950" id="wn3pQUl8-dIq_pad-10"/><rect x="-950" y="-1050" width="1900" height="2100" id="wn3pQUl8-dIq_pad-11"/><circle cx="0" cy="0" r="762" id="wn3pQUl8-dIq_pad-12"/><circle cx="0" cy="0" r="250" id="wn3pQUl8-dIq_pad-13"/><circle cx="0" cy="0" r="800" id="wn3pQUl8-dIq_pad-14"/><rect x="-800" y="-800" width="1600" height="1600" id="wn3pQUl8-dIq_pad-15"/><rect x="-1750" y="-1750" width="3500" height="3500" id="wn3pQUl8-dIq_pad-16"/><circle cx="0" cy="0" r="400" id="wn3pQUl8-dIq_pad-17"/><circle cx="0" cy="0" r="317.5" id="wn3pQUl8-dIq_pad-18"/><circle cx="0" cy="0" r="1600" id="D1ulr0MiU0WY_pad-10"/><rect x="-950" y="-1050" width="1900" height="2100" rx="950" ry="950" id="D1ulr0MiU0WY_pad-11"/><rect x="-950" y="-1050" width="1900" height="2100" id="D1ulr0MiU0WY_pad-12"/><circle cx="0" cy="0" r="952.5" id="D1ulr0MiU0WY_pad-13"/><circle cx="0" cy="0" r="762" id="D1ulr0MiU0WY_pad-14"/><circle cx="0" cy="0" r="250" id="D1ulr0MiU0WY_pad-15"/><circle cx="0" cy="0" r="800" id="D1ulr0MiU0WY_pad-16"/><rect x="-800" y="-800" width="1600" height="1600" id="D1ulr0MiU0WY_pad-17"/><rect x="-1750" y="-1750" width="3500" height="3500" id="D1ulr0MiU0WY_pad-18"/><g id="IYM8IO2nNpBY_bottom_copper"><use xlink:href="#wn3pQUl8-dIq_pad-10" x="93980" y="-50800"/><use xlink:href="#wn3pQUl8-dIq_pad-10" x="93980" y="-71120"/><use xlink:href="#wn3pQUl8-dIq_pad-10" x="96520" y="-50800"/><use xlink:href="#wn3pQUl8-dIq_pad-10" x="96520" y="-71120"/><use xlink:href="#wn3pQUl8-dIq_pad-10" x="99060" y="-50800"/><use xlink:href="#wn3pQUl8-dIq_pad-10" x="99060" y="-71120"/><use xlink:href="#wn3pQUl8-dIq_pad-10" x="101600" y="-50800"/><use xlink:href="#wn3pQUl8-dIq_pad-10" x="101600" y="-71120"/><use xlink:href="#wn3pQUl8-dIq_pad-10" x="104140" y="-50800"/><use xlink:href="#wn3pQUl8-dIq_pad-10" x="104140" y="-71120"/><use xlink:href="#wn3pQUl8-dIq_pad-10" x="106680" y="-50800"/><use xlink:href="#wn3pQUl8-dIq_pad-10" x="106680" y="-71120"/><use xlink:href="#wn3pQUl8-dIq_pad-10" x="109220" y="-50800"/><use xlink:href="#wn3pQUl8-dIq_pad-10" x="109220" y="-71120"/><use xlink:href="#wn3pQUl8-dIq_pad-10" x="111760" y="-50800"/><use xlink:href="#wn3pQUl8-dIq_pad-10" x="111760" y="-71120"/><use xlink:href="#wn3pQUl8-dIq_pad-10" x="114300" y="-50800"/><use xlink:href="#wn3pQUl8-dIq_pad-10" x="114300" y="-71120"/><use xlink:href="#wn3pQUl8-dIq_pad-10" x="116840" y="-50800"/><use xlink:href="#wn3pQUl8-dIq_pad-11" x="116840" y="-71120"/><use xlink:href="#wn3pQUl8-dIq_pad-12" x="59550.3" y="-93218"/><use xlink:href="#wn3pQUl8-dIq_pad-12" x="67449.7" y="-93218"/><use xlink:href="#wn3pQUl8-dIq_pad-13" x="77200" y="-93980"/><use xlink:href="#wn3pQUl8-dIq_pad-13" x="76200" y="-93980"/><use xlink:href="#wn3pQUl8-dIq_pad-13" x="75200" y="-93980"/><use xlink:href="#wn3pQUl8-dIq_pad-13" x="77200" y="-92980"/><use xlink:href="#wn3pQUl8-dIq_pad-13" x="76200" y="-92980"/><use xlink:href="#wn3pQUl8-dIq_pad-13" x="77200" y="-91980"/><use xlink:href="#wn3pQUl8-dIq_pad-13" x="76200" y="-91980"/><use xlink:href="#wn3pQUl8-dIq_pad-13" x="75200" y="-91980"/><use xlink:href="#wn3pQUl8-dIq_pad-13" x="75200" y="-92980"/><use xlink:href="#wn3pQUl8-dIq_pad-14" x="60920" y="-59690"/><use xlink:href="#wn3pQUl8-dIq_pad-15" x="58420" y="-59690"/><path d="M 57925 -48590 59675 -48590 A 875 875 0 0 0 60550 -49465 L 60550 -51215 A 875 875 0 0 0 59675 -52090 L 57925 -52090 A 875 875 0 0 0 57050 -51215 L 57050 -49465 A 875 875 0 0 0 57925 -48590"/><path d="M 62500 -45840 64500 -45840 A 750 750 0 0 0 65250 -46590 L 65250 -48090 A 750 750 0 0 0 64500 -48840 L 62500 -48840 A 750 750 0 0 0 61750 -48090 L 61750 -46590 A 750 750 0 0 0 62500 -45840"/><use xlink:href="#wn3pQUl8-dIq_pad-16" x="63500" y="-53340"/><use xlink:href="#wn3pQUl8-dIq_pad-17" x="97790" y="-81280"/><use xlink:href="#wn3pQUl8-dIq_pad-18" x="91059" y="-59055"/><use xlink:href="#wn3pQUl8-dIq_pad-18" x="115316" y="-59055"/><use xlink:href="#wn3pQUl8-dIq_pad-18" x="109093" y="-59055"/><use xlink:href="#wn3pQUl8-dIq_pad-18" x="98806" y="-59055"/><use xlink:href="#wn3pQUl8-dIq_pad-18" x="92499" y="-58377"/><use xlink:href="#wn3pQUl8-dIq_pad-18" x="100076" y="-58420"/><use xlink:href="#wn3pQUl8-dIq_pad-18" x="107696" y="-58420"/><use xlink:href="#wn3pQUl8-dIq_pad-18" x="116840" y="-58420"/><use xlink:href="#wn3pQUl8-dIq_pad-18" x="93929.2" y="-62865"/><use xlink:href="#wn3pQUl8-dIq_pad-18" x="119761" y="-62865"/><use xlink:href="#wn3pQUl8-dIq_pad-18" x="104444.8" y="-62865"/><use xlink:href="#wn3pQUl8-dIq_pad-18" x="112115.6" y="-62865"/><use xlink:href="#wn3pQUl8-dIq_pad-18" x="95351.6" y="-62230"/><use xlink:href="#wn3pQUl8-dIq_pad-18" x="102997" y="-62230"/><use xlink:href="#wn3pQUl8-dIq_pad-18" x="110617" y="-62230"/><use xlink:href="#wn3pQUl8-dIq_pad-18" x="118364" y="-62230"/><use xlink:href="#wn3pQUl8-dIq_pad-18" x="112014" y="-60960"/><use xlink:href="#wn3pQUl8-dIq_pad-18" x="119634" y="-60960"/><use xlink:href="#wn3pQUl8-dIq_pad-18" x="96799.4" y="-60960"/><use xlink:href="#wn3pQUl8-dIq_pad-18" x="104394" y="-60960"/><use xlink:href="#wn3pQUl8-dIq_pad-18" x="105410" y="-63500"/><use xlink:href="#wn3pQUl8-dIq_pad-18" x="96799.4" y="-63500"/><use xlink:href="#wn3pQUl8-dIq_pad-18" x="113030" y="-63500"/><use xlink:href="#wn3pQUl8-dIq_pad-18" x="101600" y="-63500"/><use xlink:href="#wn3pQUl8-dIq_pad-18" x="96139" y="-61595"/><use xlink:href="#wn3pQUl8-dIq_pad-18" x="111379" y="-61595"/><use xlink:href="#wn3pQUl8-dIq_pad-18" x="103759" y="-61595"/><use xlink:href="#wn3pQUl8-dIq_pad-18" x="118999" y="-61595"/><use xlink:href="#wn3pQUl8-dIq_pad-18" x="115443" y="-60325"/><use xlink:href="#wn3pQUl8-dIq_pad-18" x="92506.8" y="-60325"/><use xlink:href="#wn3pQUl8-dIq_pad-18" x="100203" y="-60325"/><use xlink:href="#wn3pQUl8-dIq_pad-18" x="107696" y="-60325"/><use xlink:href="#wn3pQUl8-dIq_pad-18" x="114681" y="-59690"/><use xlink:href="#wn3pQUl8-dIq_pad-18" x="107061" y="-59690"/><use xlink:href="#wn3pQUl8-dIq_pad-18" x="99441" y="-59690"/><use xlink:href="#wn3pQUl8-dIq_pad-18" x="91821" y="-59690"/><use xlink:href="#wn3pQUl8-dIq_pad-17" x="75565" y="-97155"/><use xlink:href="#wn3pQUl8-dIq_pad-17" x="73025" y="-57150"/><use xlink:href="#wn3pQUl8-dIq_pad-17" x="79375" y="-54610"/><use xlink:href="#wn3pQUl8-dIq_pad-18" x="76200" y="-85090"/><use xlink:href="#wn3pQUl8-dIq_pad-18" x="78740" y="-83820"/><use xlink:href="#wn3pQUl8-dIq_pad-18" x="122555" y="-59055"/><use xlink:href="#wn3pQUl8-dIq_pad-18" x="126365" y="-59055"/><use xlink:href="#wn3pQUl8-dIq_pad-18" x="122555" y="-62865"/><use xlink:href="#wn3pQUl8-dIq_pad-18" x="127635" y="-62865"/><use xlink:href="#wn3pQUl8-dIq_pad-18" x="131445" y="-61595"/><use xlink:href="#wn3pQUl8-dIq_pad-18" x="126365" y="-63500"/><use xlink:href="#wn3pQUl8-dIq_pad-18" x="127635" y="-61595"/><use xlink:href="#wn3pQUl8-dIq_pad-18" x="131445" y="-60325"/><use xlink:href="#wn3pQUl8-dIq_pad-18" x="127000" y="-59690"/><use xlink:href="#wn3pQUl8-dIq_pad-18" x="121920" y="-56515"/><use xlink:href="#wn3pQUl8-dIq_pad-18" x="131445" y="-58420"/><use xlink:href="#wn3pQUl8-dIq_pad-18" x="122555" y="-57150"/><use xlink:href="#wn3pQUl8-dIq_pad-18" x="125095" y="-57150"/><path d="M 99060 -80010 97790 -81280 M 99060 -71120 99060 -80010" fill="none" stroke-width="889"/><path d="M 91059 -59055 98806 -59055 M 109093 -59055 115316 -59055 M 98806 -59055 109093 -59055 M 107696 -58420 116840 -58420 M 92075 -58420 100076 -58420 107696 -58420 M 93929.2 -62865 104444.8 -62865 M 112115.6 -62865 119761 -62865 M 104444.8 -62865 112115.6 -62865 M 102997 -62230 110617 -62230 118364 -62230 M 95351.6 -62230 102997 -62230 M 96799.4 -60960 104394 -60960 112014 -60960 119634 -60960 M 105410 -63500 113030 -63500 M 101600 -63500 105410 -63500 M 96799.4 -63500 101600 -63500 M 96139 -61595 118237 -61595 M 118999 -61595 118237 -61595 M 100203 -60325 107696 -60325 115443 -60325 M 92506.8 -60325 100203 -60325 M 91821 -59690 114681 -59690 M 73025 -78740 73025 -94615 75565 -97155 M 73025 -78740 73025 -57150" fill="none" stroke-width="381"/><path d="M 76835 -57150 73025 -57150 M 79375 -54610 76835 -57150 M 58420 -55781 58420 -59690 M 60861 -53340 58420 -55781 M 63500 -53340 60861 -53340" fill="none" stroke-width="889"/><path d="M 109220 -49530 109220 -50800 M 107950 -48260 109220 -49530 M 90170 -48260 107950 -48260 M 88900 -49530 90170 -48260 M 88900 -83820 88900 -49530 M 87630 -85090 88900 -83820 M 76200 -85090 87630 -85090 M 111760 -50800 111760 -48260 110490 -46990 89535 -46990 87630 -48895 87630 -73660 M 78740 -83820 86360 -83820 87630 -82550 87630 -73660 M 121920 -59055 115316 -59055 M 122555 -59055 121920 -59055 M 125730 -58420 126365 -59055 M 116840 -58420 125730 -58420 M 122555 -62865 119761 -62865 M 127000 -62230 127635 -62865 M 118364 -62230 127000 -62230 M 130810 -60960 131445 -61595 M 119634 -60960 130810 -60960 M 113030 -63500 119990.618 -63500 124460 -63500 126365 -63500 M 118999 -61595 125095 -61595 127635 -61595 M 131445 -60325 115443 -60325 M 114681 -59690 127000 -59690 M 129540 -56515 131445 -58420 M 121920 -56515 129540 -56515 M 125095 -57150 122555 -57150" fill="none" stroke-width="381"/></g><g id="IYM8IO2nNpBY_bottom_soldermask"><use xlink:href="#D1ulr0MiU0WY_pad-10" x="127000" y="-50800"/><use xlink:href="#D1ulr0MiU0WY_pad-11" x="93980" y="-50800"/><use xlink:href="#D1ulr0MiU0WY_pad-11" x="93980" y="-71120"/><use xlink:href="#D1ulr0MiU0WY_pad-11" x="96520" y="-50800"/><use xlink:href="#D1ulr0MiU0WY_pad-11" x="96520" y="-71120"/><use xlink:href="#D1ulr0MiU0WY_pad-11" x="99060" y="-50800"/><use xlink:href="#D1ulr0MiU0WY_pad-11" x="99060" y="-71120"/><use xlink:href="#D1ulr0MiU0WY_pad-11" x="101600" y="-50800"/><use xlink:href="#D1ulr0MiU0WY_pad-11" x="101600" y="-71120"/><use xlink:href="#D1ulr0MiU0WY_pad-11" x="104140" y="-50800"/><use xlink:href="#D1ulr0MiU0WY_pad-11" x="104140" y="-71120"/><use xlink:href="#D1ulr0MiU0WY_pad-11" x="106680" y="-50800"/><use xlink:href="#D1ulr0MiU0WY_pad-11" x="106680" y="-71120"/><use xlink:href="#D1ulr0MiU0WY_pad-11" x="109220" y="-50800"/><use xlink:href="#D1ulr0MiU0WY_pad-11" x="109220" y="-71120"/><use xlink:href="#D1ulr0MiU0WY_pad-11" x="111760" y="-50800"/><use xlink:href="#D1ulr0MiU0WY_pad-11" x="111760" y="-71120"/><use xlink:href="#D1ulr0MiU0WY_pad-11" x="114300" y="-50800"/><use xlink:href="#D1ulr0MiU0WY_pad-11" x="114300" y="-71120"/><use xlink:href="#D1ulr0MiU0WY_pad-11" x="116840" y="-50800"/><use xlink:href="#D1ulr0MiU0WY_pad-12" x="116840" y="-71120"/><use xlink:href="#D1ulr0MiU0WY_pad-13" x="63500" y="-102235"/><use xlink:href="#D1ulr0MiU0WY_pad-14" x="59550.3" y="-93218"/><use xlink:href="#D1ulr0MiU0WY_pad-14" x="67449.7" y="-93218"/><use xlink:href="#D1ulr0MiU0WY_pad-15" x="77200" y="-93980"/><use xlink:href="#D1ulr0MiU0WY_pad-15" x="76200" y="-93980"/><use xlink:href="#D1ulr0MiU0WY_pad-15" x="75200" y="-93980"/><use xlink:href="#D1ulr0MiU0WY_pad-15" x="77200" y="-92980"/><use xlink:href="#D1ulr0MiU0WY_pad-15" x="76200" y="-92980"/><use xlink:href="#D1ulr0MiU0WY_pad-15" x="77200" y="-91980"/><use xlink:href="#D1ulr0MiU0WY_pad-15" x="76200" y="-91980"/><use xlink:href="#D1ulr0MiU0WY_pad-15" x="75200" y="-91980"/><use xlink:href="#D1ulr0MiU0WY_pad-15" x="75200" y="-92980"/><use xlink:href="#D1ulr0MiU0WY_pad-16" x="60920" y="-59690"/><use xlink:href="#D1ulr0MiU0WY_pad-17" x="58420" y="-59690"/><path d="M 57925 -48590 59675 -48590 A 875 875 0 0 0 60550 -49465 L 60550 -51215 A 875 875 0 0 0 59675 -52090 L 57925 -52090 A 875 875 0 0 0 57050 -51215 L 57050 -49465 A 875 875 0 0 0 57925 -48590"/><path d="M 62500 -45840 64500 -45840 A 750 750 0 0 0 65250 -46590 L 65250 -48090 A 750 750 0 0 0 64500 -48840 L 62500 -48840 A 750 750 0 0 0 61750 -48090 L 61750 -46590 A 750 750 0 0 0 62500 -45840"/><use xlink:href="#D1ulr0MiU0WY_pad-18" x="63500" y="-53340"/><use xlink:href="#D1ulr0MiU0WY_pad-10" x="127000" y="-101600"/><use xlink:href="#D1ulr0MiU0WY_pad-10" x="50800" y="-101600"/><use xlink:href="#D1ulr0MiU0WY_pad-10" x="50800" y="-50800"/></g><g id="IYM8IO2nNpBY_bottom_silkscreen"><path d="M 51172.619 -93622.38 51648.809 -93955.714 M 51172.619 -94193.809 52172.619 -94193.809 52172.619 -93812.857 52125 -93717.619 52077.38 -93670 51982.142 -93622.38 51839.285 -93622.38 51744.047 -93670 51696.428 -93717.619 51648.809 -93812.857 51648.809 -94193.809 M 51696.428 -93193.809 51696.428 -92860.476 M 51172.619 -92717.619 51172.619 -93193.809 52172.619 -93193.809 52172.619 -92717.619 M 52172.619 -92431.904 51172.619 -92098.571 52172.619 -91765.238 M 51172.619 -91431.904 52172.619 -91431.904 M 51220.238 -91003.333 51172.619 -90860.476 51172.619 -90622.38 51220.238 -90527.142 51267.857 -90479.523 51363.095 -90431.904 51458.333 -90431.904 51553.571 -90479.523 51601.19 -90527.142 51648.809 -90622.38 51696.428 -90812.857 51744.047 -90908.095 51791.666 -90955.714 51886.904 -91003.333 51982.142 -91003.333 52077.38 -90955.714 52125 -90908.095 52172.619 -90812.857 52172.619 -90574.761 52125 -90431.904 M 51172.619 -90003.333 52172.619 -90003.333 M 52172.619 -89336.666 52172.619 -89146.19 52125 -89050.952 52029.761 -88955.714 51839.285 -88908.095 51505.952 -88908.095 51315.476 -88955.714 51220.238 -89050.952 51172.619 -89146.19 51172.619 -89336.666 51220.238 -89431.904 51315.476 -89527.142 51505.952 -89574.761 51839.285 -89574.761 52029.761 -89527.142 52125 -89431.904 52172.619 -89336.666 M 51172.619 -88479.523 52172.619 -88479.523 51172.619 -87908.095 52172.619 -87908.095 M 51696.428 -86336.666 51648.809 -86193.809 51601.19 -86146.19 51505.952 -86098.571 51363.095 -86098.571 51267.857 -86146.19 51220.238 -86193.809 51172.619 -86289.047 51172.619 -86670 52172.619 -86670 52172.619 -86336.666 52125 -86241.428 52077.38 -86193.809 51982.142 -86146.19 51886.904 -86146.19 51791.666 -86193.809 51744.047 -86241.428 51696.428 -86336.666 51696.428 -86670 M 49808.333 -94336.666 49808.333 -93860.476 M 49522.619 -94431.904 50522.619 -94098.571 49522.619 -93765.238 M 49522.619 -93431.904 50522.619 -93431.904 50522.619 -93050.952 50475 -92955.714 50427.38 -92908.095 50332.142 -92860.476 50189.285 -92860.476 50094.047 -92908.095 50046.428 -92955.714 49998.809 -93050.952 49998.809 -93431.904 M 49522.619 -91860.476 49998.809 -92193.809 M 49522.619 -92431.904 50522.619 -92431.904 50522.619 -92050.952 50475 -91955.714 50427.38 -91908.095 50332.142 -91860.476 50189.285 -91860.476 50094.047 -91908.095 50046.428 -91955.714 49998.809 -92050.952 49998.809 -92431.904 M 49522.619 -91431.904 50522.619 -91431.904 M 49522.619 -90479.523 49522.619 -90955.714 50522.619 -90955.714 M 50427.38 -89431.904 50475 -89384.285 50522.619 -89289.047 50522.619 -89050.952 50475 -88955.714 50427.38 -88908.095 50332.142 -88860.476 50236.904 -88860.476 50094.047 -88908.095 49522.619 -89479.523 49522.619 -88860.476 M 50522.619 -88241.428 50522.619 -88146.19 50475 -88050.952 50427.38 -88003.333 50332.142 -87955.714 50141.666 -87908.095 49903.571 -87908.095 49713.095 -87955.714 49617.857 -88003.333 49570.238 -88050.952 49522.619 -88146.19 49522.619 -88241.428 49570.238 -88336.666 49617.857 -88384.285 49713.095 -88431.904 49903.571 -88479.523 50141.666 -88479.523 50332.142 -88431.904 50427.38 -88384.285 50475 -88336.666 50522.619 -88241.428 M 50427.38 -87527.142 50475 -87479.523 50522.619 -87384.285 50522.619 -87146.19 50475 -87050.952 50427.38 -87003.333 50332.142 -86955.714 50236.904 -86955.714 50094.047 -87003.333 49522.619 -87574.761 49522.619 -86955.714 M 49522.619 -86003.333 49522.619 -86574.761 M 49522.619 -86289.047 50522.619 -86289.047 50379.761 -86384.285 50284.523 -86479.523 50236.904 -86574.761" fill="none" stroke-width="150"/><path d="M 118210 -49430 118210 -52170 M 92610 -49430 118210 -49430 M 92610 -52170 92610 -49430 M 118210 -52170 92610 -52170 M 118210 -69750 118210 -72490 M 92610 -69750 118210 -69750 M 92610 -72490 92610 -69750 M 118210 -72490 92610 -72490 M 123440 -73910 123440 -72160 M 121690 -73910 123440 -73910 M 120650 -48140 87630 -48140 M 120650 -73780 87630 -73780 M 84970 -71120 84970 -50800 M 123310 -71120 123310 -50800 M 87630 -73780 A 2660 2660 0 0 0 84970 -71120 M 84970 -50800 A 2660 2660 0 0 0 87630 -48140 M 120650 -48140 A 2660 2660 0 0 0 123310 -50800 M 123310 -71120 A 2660 2660 0 0 0 120650 -73780" fill="none" stroke-width="120"/><path d="M 124356.666 -60245.714 124356.666 -60721.904 M 124642.38 -60150.476 123642.38 -60483.809 124642.38 -60817.142 M 124642.38 -61674.285 124642.38 -61102.857 M 124642.38 -61388.571 123642.38 -61388.571 123785.238 -61293.333 123880.476 -61198.095 123928.095 -61102.857" fill="none" stroke-width="150"/></g><clipPath id="IYM8IO2nNpBY_bottom_outline"><path d="M 50800 -109220 127000 -109220 A 7620 7620 0 0 1 134620 -101600 L 134620 -50800 A 7620 7620 0 0 1 127000 -43180 L 50800 -43180 A 7620 7620 0 0 1 43180 -50800 L 43180 -101600 A 7620 7620 0 0 1 50800 -109220" fill="none" stroke-width="50"/></clipPath><mask id="IYM8IO2nNpBY_bottom_mech-mask"><g fill="#000" stroke="#000"><rect x="43180" y="-109220" width="91440" height="66040" fill="#fff"/></g></mask><mask id="IYM8IO2nNpBY_bottom_cf-mask"><g fill="#fff" stroke="#fff"><use xlink:href="#IYM8IO2nNpBY_bottom_soldermask"/></g></mask><mask id="IYM8IO2nNpBY_bottom_sm-mask"><g fill="#000" stroke="#000"><rect x="43180" y="-109220" width="91440" height="66040" fill="#fff"/><use xlink:href="#IYM8IO2nNpBY_bottom_soldermask"/></g></mask></defs><g transform="translate(0,-152400) scale(1,-1)"><g mask="url(#IYM8IO2nNpBY_bottom_mech-mask)" clip-path="url(#IYM8IO2nNpBY_bottom_outline)" transform="translate(177800,0) scale(-1,1)"><rect x="43180" y="-109220" width="91440" height="66040" fill="currentColor" class="IYM8IO2nNpBY_fr4"/><use xlink:href="#IYM8IO2nNpBY_bottom_copper" fill="currentColor" stroke="currentColor" class="IYM8IO2nNpBY_cu"/><use xlink:href="#IYM8IO2nNpBY_bottom_copper" fill="currentColor" stroke="currentColor" class="IYM8IO2nNpBY_cf" mask="url(#IYM8IO2nNpBY_bottom_cf-mask)"/><g mask="url(#IYM8IO2nNpBY_bottom_sm-mask)"><rect x="43180" y="-109220" width="91440" height="66040" fill="currentColor" class="IYM8IO2nNpBY_sm"/><use xlink:href="#IYM8IO2nNpBY_bottom_silkscreen" fill="currentColor" stroke="currentColor" class="IYM8IO2nNpBY_ss"/></g></g></g></svg>