M48
; DRILL file {KiCad 6.0.4+dfsg-1+b1} date Fri 22 Apr 2022 12:30:20 PM CDT
; FORMAT={-:-/ absolute / inch / decimal}
; #@! TF.CreationDate,2022-04-22T12:30:20-05:00
; #@! TF.GenerationSoftware,Kicad,Pcbnew,6.0.4+dfsg-1+b1
; #@! TF.FileFunction,Plated,1,2,PTH
FMAT,2
INCH
; #@! TA.AperFunction,Plated,PTH,ComponentDrill
T1C0.0118
; #@! TA.AperFunction,Plated,PTH,ViaDrill
T2C0.0157
; #@! TA.AperFunction,Plated,PTH,ComponentDrill
T3C0.0315
; #@! TA.AperFunction,Plated,PTH,ComponentDrill
T4C0.0394
; #@! TA.AperFunction,Plated,PTH,ComponentDrill
T5C0.0402
; #@! TA.AperFunction,Plated,PTH,ComponentDrill
T6C0.0433
%
G90
G05
T1
X2.9606Y-3.6213
X2.9606Y-3.6606
X2.9606Y-3.7
X3.0Y-3.6213
X3.0Y-3.6606
X3.0Y-3.7
X3.0394Y-3.6213
X3.0394Y-3.6606
X3.0394Y-3.7
T2
X2.875Y-2.25
X2.975Y-3.825
X3.0Y-3.35
X3.1Y-3.3
X3.125Y-2.15
X3.27Y-3.35
X3.36Y-3.3
X3.585Y-2.325
X3.615Y-2.35
X3.6417Y-2.2983
X3.642Y-2.375
X3.698Y-2.475
X3.754Y-2.45
X3.785Y-2.425
X3.811Y-2.4
X3.811Y-2.5
X3.85Y-3.2
X3.89Y-2.325
X3.915Y-2.35
X3.94Y-2.3
X3.945Y-2.375
X4.0Y-2.5
X4.055Y-2.45
X4.085Y-2.425
X4.11Y-2.4
X4.112Y-2.475
X4.15Y-2.5
X4.215Y-2.35
X4.24Y-2.3
X4.24Y-2.375
X4.295Y-2.325
X4.355Y-2.45
X4.385Y-2.425
X4.41Y-2.4
X4.414Y-2.475
X4.45Y-2.5
X4.515Y-2.35
X4.54Y-2.325
X4.545Y-2.375
X4.6Y-2.3
X4.66Y-2.45
X4.685Y-2.425
X4.71Y-2.4
X4.715Y-2.475
X4.75Y-1.85
X4.8Y-2.225
X4.825Y-2.25
X4.825Y-2.325
X4.825Y-2.475
X4.925Y-2.25
X4.975Y-2.325
X4.975Y-2.5
X5.0Y-2.35
X5.025Y-2.425
X5.025Y-2.475
X5.175Y-2.3
X5.175Y-2.375
X5.175Y-2.425
T3
X2.3Y-2.35
X2.3984Y-2.35
T5
X3.7Y-2.0
X3.7Y-2.8
X3.8Y-2.0
X3.8Y-2.8
X3.9Y-2.0
X3.9Y-2.8
X4.0Y-2.0
X4.0Y-2.8
X4.1Y-2.0
X4.1Y-2.8
X4.2Y-2.0
X4.2Y-2.8
X4.3Y-2.0
X4.3Y-2.8
X4.4Y-2.0
X4.4Y-2.8
X4.5Y-2.0
X4.5Y-2.8
X4.6Y-2.0
X4.6Y-2.8
T6
X2.3445Y-3.67
X2.6555Y-3.67
T4
G00X2.315Y-1.9425
M15
G01X2.315Y-2.0213
M16
G05
G00X2.5394Y-1.8638
M15
G01X2.4606Y-1.8638
M16
G05
G00X2.5394Y-2.1
M15
G01X2.4606Y-2.1
M16
G05
T0
M30
