%TF.GenerationSoftware,KiCad,Pcbnew,6.0.4+dfsg-1+b1*%
%TF.CreationDate,2022-04-22T12:30:22-05:00*%
%TF.ProjectId,mqtt-thermocouple,6d717474-2d74-4686-9572-6d6f636f7570,B*%
%TF.SameCoordinates,Original*%
%TF.FileFunction,Paste,Top*%
%TF.FilePolarity,Positive*%
%FSLAX46Y46*%
G04 Gerber Fmt 4.6, Leading zero omitted, Abs format (unit mm)*
G04 Created by KiCad (PCBNEW 6.0.4+dfsg-1+b1) date 2022-04-22 12:30:22*
%MOMM*%
%LPD*%
G01*
G04 APERTURE LIST*
G04 Aperture macros list*
%AMRoundRect*
0 Rectangle with rounded corners*
0 $1 Rounding radius*
0 $2 $3 $4 $5 $6 $7 $8 $9 X,Y pos of 4 corners*
0 Add a 4 corners polygon primitive as box body*
4,1,4,$2,$3,$4,$5,$6,$7,$8,$9,$2,$3,0*
0 Add four circle primitives for the rounded corners*
1,1,$1+$1,$2,$3*
1,1,$1+$1,$4,$5*
1,1,$1+$1,$6,$7*
1,1,$1+$1,$8,$9*
0 Add four rect primitives between the rounded corners*
20,1,$1+$1,$2,$3,$4,$5,0*
20,1,$1+$1,$4,$5,$6,$7,0*
20,1,$1+$1,$6,$7,$8,$9,0*
20,1,$1+$1,$8,$9,$2,$3,0*%
G04 Aperture macros list end*
%ADD10C,0.010000*%
%ADD11R,2.500000X2.500000*%
%ADD12RoundRect,0.249997X-0.412503X-0.650003X0.412503X-0.650003X0.412503X0.650003X-0.412503X0.650003X0*%
%ADD13RoundRect,0.249999X-0.400001X-0.625001X0.400001X-0.625001X0.400001X0.625001X-0.400001X0.625001X0*%
%ADD14RoundRect,0.250000X0.462500X0.625000X-0.462500X0.625000X-0.462500X-0.625000X0.462500X-0.625000X0*%
%ADD15RoundRect,0.150000X-0.825000X-0.150000X0.825000X-0.150000X0.825000X0.150000X-0.825000X0.150000X0*%
%ADD16RoundRect,0.249999X0.400001X0.625001X-0.400001X0.625001X-0.400001X-0.625001X0.400001X-0.625001X0*%
%ADD17RoundRect,0.249999X-0.625001X0.400001X-0.625001X-0.400001X0.625001X-0.400001X0.625001X0.400001X0*%
%ADD18R,1.900000X0.800000*%
%ADD19R,0.800000X1.900000*%
%ADD20R,0.810000X0.320000*%
%ADD21R,0.320000X0.810000*%
%ADD22RoundRect,0.249998X0.650002X-0.412502X0.650002X0.412502X-0.650002X0.412502X-0.650002X-0.412502X0*%
%ADD23RoundRect,0.249998X-0.650002X0.412502X-0.650002X-0.412502X0.650002X-0.412502X0.650002X0.412502X0*%
%ADD24R,0.900000X2.800000*%
%ADD25R,1.600000X0.410000*%
%ADD26RoundRect,0.250000X0.625000X-0.400000X0.625000X0.400000X-0.625000X0.400000X-0.625000X-0.400000X0*%
G04 APERTURE END LIST*
%TO.C,U1*%
G36*
X77350000Y-94130000D02*
G01*
X75050000Y-94130000D01*
X75050000Y-91830000D01*
X77350000Y-91830000D01*
X77350000Y-94130000D01*
G37*
D10*
X77350000Y-94130000D02*
X75050000Y-94130000D01*
X75050000Y-91830000D01*
X77350000Y-91830000D01*
X77350000Y-94130000D01*
%TD*%
D11*
%TO.C,PS1*%
X50380000Y-67660000D03*
X61380000Y-67660000D03*
X61380000Y-79660000D03*
X50380000Y-79660000D03*
%TD*%
D12*
%TO.C,C3*%
X66040000Y-78740000D03*
X69165000Y-78740000D03*
%TD*%
D13*
%TO.C,R1*%
X100050000Y-78740000D03*
X103150000Y-78740000D03*
%TD*%
D12*
%TO.C,C2*%
X50215000Y-62230000D03*
X53340000Y-62230000D03*
%TD*%
D14*
%TO.C,D1*%
X113882500Y-80645000D03*
X110907500Y-80645000D03*
%TD*%
%TO.C,D2*%
X123407500Y-80645000D03*
X120432500Y-80645000D03*
%TD*%
D15*
%TO.C,U2*%
X65470000Y-60960000D03*
X65470000Y-62230000D03*
X65470000Y-63500000D03*
X65470000Y-64770000D03*
X65470000Y-66040000D03*
X65470000Y-67310000D03*
X65470000Y-68580000D03*
X65470000Y-69850000D03*
X70420000Y-69850000D03*
X70420000Y-68580000D03*
X70420000Y-67310000D03*
X70420000Y-66040000D03*
X70420000Y-64770000D03*
X70420000Y-63500000D03*
X70420000Y-62230000D03*
X70420000Y-60960000D03*
%TD*%
D12*
%TO.C,C4*%
X74637500Y-76200000D03*
X77762500Y-76200000D03*
%TD*%
%TO.C,C5*%
X74637500Y-60960000D03*
X77762500Y-60960000D03*
%TD*%
D16*
%TO.C,R5*%
X77750000Y-72390000D03*
X74650000Y-72390000D03*
%TD*%
%TO.C,R6*%
X77750000Y-68580000D03*
X74650000Y-68580000D03*
%TD*%
D17*
%TO.C,R7*%
X81915000Y-54965000D03*
X81915000Y-58065000D03*
%TD*%
%TO.C,R8*%
X76835000Y-54965000D03*
X76835000Y-58065000D03*
%TD*%
D13*
%TO.C,R9*%
X74650000Y-64770000D03*
X77750000Y-64770000D03*
%TD*%
D18*
%TO.C,Q2*%
X81050000Y-61280000D03*
X81050000Y-63180000D03*
X84050000Y-62230000D03*
%TD*%
D19*
%TO.C,Q1*%
X130490000Y-77240000D03*
X128590000Y-77240000D03*
X129540000Y-80240000D03*
%TD*%
D13*
%TO.C,R2*%
X100050000Y-83820000D03*
X103150000Y-83820000D03*
%TD*%
D20*
%TO.C,U1*%
X73750000Y-91680000D03*
X73750000Y-92330000D03*
X73750000Y-92980000D03*
X73750000Y-93630000D03*
X73750000Y-94280000D03*
D21*
X74900000Y-95430000D03*
X75550000Y-95430000D03*
X76200000Y-95430000D03*
X76850000Y-95430000D03*
X77500000Y-95430000D03*
D20*
X78650000Y-94280000D03*
X78650000Y-93630000D03*
X78650000Y-92980000D03*
X78650000Y-92330000D03*
X78650000Y-91680000D03*
D21*
X77500000Y-90530000D03*
X76850000Y-90530000D03*
X76200000Y-90530000D03*
X75550000Y-90530000D03*
X74900000Y-90530000D03*
%TD*%
D22*
%TO.C,C6*%
X120650000Y-53340000D03*
X120650000Y-50215000D03*
%TD*%
D23*
%TO.C,C7*%
X129540000Y-65747500D03*
X129540000Y-68872500D03*
%TD*%
D24*
%TO.C,D4*%
X98720000Y-65960000D03*
X100160000Y-65960000D03*
X101600000Y-65960000D03*
X103040000Y-65960000D03*
X104480000Y-65960000D03*
X104480000Y-55960000D03*
X103040000Y-55960000D03*
X101600000Y-55960000D03*
X100160000Y-55960000D03*
X98720000Y-55960000D03*
%TD*%
%TO.C,D5*%
X106340000Y-65960000D03*
X107780000Y-65960000D03*
X109220000Y-65960000D03*
X110660000Y-65960000D03*
X112100000Y-65960000D03*
X112100000Y-55960000D03*
X110660000Y-55960000D03*
X109220000Y-55960000D03*
X107780000Y-55960000D03*
X106340000Y-55960000D03*
%TD*%
%TO.C,D6*%
X113960000Y-65960000D03*
X115400000Y-65960000D03*
X116840000Y-65960000D03*
X118280000Y-65960000D03*
X119720000Y-65960000D03*
X119720000Y-55960000D03*
X118280000Y-55960000D03*
X116840000Y-55960000D03*
X115400000Y-55960000D03*
X113960000Y-55960000D03*
%TD*%
D17*
%TO.C,R3*%
X124460000Y-65760000D03*
X124460000Y-68860000D03*
%TD*%
D25*
%TO.C,U3*%
X124345700Y-58737500D03*
X124345700Y-59372500D03*
X124345700Y-60007500D03*
X124345700Y-60642500D03*
X124345700Y-61277500D03*
X124345700Y-61912500D03*
X124345700Y-62547500D03*
X124345700Y-63182500D03*
X129654300Y-63182500D03*
X129654300Y-62547500D03*
X129654300Y-61912500D03*
X129654300Y-61277500D03*
X129654300Y-60642500D03*
X129654300Y-60007500D03*
X129654300Y-59372500D03*
X129654300Y-58737500D03*
%TD*%
D24*
%TO.C,D3*%
X91100000Y-65960000D03*
X92540000Y-65960000D03*
X93980000Y-65960000D03*
X95420000Y-65960000D03*
X96860000Y-65960000D03*
X96860000Y-55960000D03*
X95420000Y-55960000D03*
X93980000Y-55960000D03*
X92540000Y-55960000D03*
X91100000Y-55960000D03*
%TD*%
D26*
%TO.C,R10*%
X84328000Y-94514000D03*
X84328000Y-91414000D03*
%TD*%
%TO.C,R4*%
X81788000Y-94514000D03*
X81788000Y-91414000D03*
%TD*%
M02*
