%TF.GenerationSoftware,KiCad,Pcbnew,6.0.4+dfsg-1+b1*%
%TF.CreationDate,2022-04-22T12:30:22-05:00*%
%TF.ProjectId,mqtt-thermocouple,6d717474-2d74-4686-9572-6d6f636f7570,B*%
%TF.SameCoordinates,Original*%
%TF.FileFunction,Legend,Bot*%
%TF.FilePolarity,Positive*%
%FSLAX46Y46*%
G04 Gerber Fmt 4.6, Leading zero omitted, Abs format (unit mm)*
G04 Created by KiCad (PCBNEW 6.0.4+dfsg-1+b1) date 2022-04-22 12:30:22*
%MOMM*%
%LPD*%
G01*
G04 APERTURE LIST*
%ADD10C,0.150000*%
%ADD11C,0.120000*%
%ADD12C,0.010000*%
G04 APERTURE END LIST*
D10*
X51152619Y-93622380D02*
X51628809Y-93955714D01*
X51152619Y-94193809D02*
X52152619Y-94193809D01*
X52152619Y-93812857D01*
X52105000Y-93717619D01*
X52057380Y-93670000D01*
X51962142Y-93622380D01*
X51819285Y-93622380D01*
X51724047Y-93670000D01*
X51676428Y-93717619D01*
X51628809Y-93812857D01*
X51628809Y-94193809D01*
X51676428Y-93193809D02*
X51676428Y-92860476D01*
X51152619Y-92717619D02*
X51152619Y-93193809D01*
X52152619Y-93193809D01*
X52152619Y-92717619D01*
X52152619Y-92431904D02*
X51152619Y-92098571D01*
X52152619Y-91765238D01*
X51152619Y-91431904D02*
X52152619Y-91431904D01*
X51200238Y-91003333D02*
X51152619Y-90860476D01*
X51152619Y-90622380D01*
X51200238Y-90527142D01*
X51247857Y-90479523D01*
X51343095Y-90431904D01*
X51438333Y-90431904D01*
X51533571Y-90479523D01*
X51581190Y-90527142D01*
X51628809Y-90622380D01*
X51676428Y-90812857D01*
X51724047Y-90908095D01*
X51771666Y-90955714D01*
X51866904Y-91003333D01*
X51962142Y-91003333D01*
X52057380Y-90955714D01*
X52105000Y-90908095D01*
X52152619Y-90812857D01*
X52152619Y-90574761D01*
X52105000Y-90431904D01*
X51152619Y-90003333D02*
X52152619Y-90003333D01*
X52152619Y-89336666D02*
X52152619Y-89146190D01*
X52105000Y-89050952D01*
X52009761Y-88955714D01*
X51819285Y-88908095D01*
X51485952Y-88908095D01*
X51295476Y-88955714D01*
X51200238Y-89050952D01*
X51152619Y-89146190D01*
X51152619Y-89336666D01*
X51200238Y-89431904D01*
X51295476Y-89527142D01*
X51485952Y-89574761D01*
X51819285Y-89574761D01*
X52009761Y-89527142D01*
X52105000Y-89431904D01*
X52152619Y-89336666D01*
X51152619Y-88479523D02*
X52152619Y-88479523D01*
X51152619Y-87908095D01*
X52152619Y-87908095D01*
X51676428Y-86336666D02*
X51628809Y-86193809D01*
X51581190Y-86146190D01*
X51485952Y-86098571D01*
X51343095Y-86098571D01*
X51247857Y-86146190D01*
X51200238Y-86193809D01*
X51152619Y-86289047D01*
X51152619Y-86670000D01*
X52152619Y-86670000D01*
X52152619Y-86336666D01*
X52105000Y-86241428D01*
X52057380Y-86193809D01*
X51962142Y-86146190D01*
X51866904Y-86146190D01*
X51771666Y-86193809D01*
X51724047Y-86241428D01*
X51676428Y-86336666D01*
X51676428Y-86670000D01*
X49828333Y-94336666D02*
X49828333Y-93860476D01*
X49542619Y-94431904D02*
X50542619Y-94098571D01*
X49542619Y-93765238D01*
X49542619Y-93431904D02*
X50542619Y-93431904D01*
X50542619Y-93050952D01*
X50495000Y-92955714D01*
X50447380Y-92908095D01*
X50352142Y-92860476D01*
X50209285Y-92860476D01*
X50114047Y-92908095D01*
X50066428Y-92955714D01*
X50018809Y-93050952D01*
X50018809Y-93431904D01*
X49542619Y-91860476D02*
X50018809Y-92193809D01*
X49542619Y-92431904D02*
X50542619Y-92431904D01*
X50542619Y-92050952D01*
X50495000Y-91955714D01*
X50447380Y-91908095D01*
X50352142Y-91860476D01*
X50209285Y-91860476D01*
X50114047Y-91908095D01*
X50066428Y-91955714D01*
X50018809Y-92050952D01*
X50018809Y-92431904D01*
X49542619Y-91431904D02*
X50542619Y-91431904D01*
X49542619Y-90479523D02*
X49542619Y-90955714D01*
X50542619Y-90955714D01*
X50447380Y-89431904D02*
X50495000Y-89384285D01*
X50542619Y-89289047D01*
X50542619Y-89050952D01*
X50495000Y-88955714D01*
X50447380Y-88908095D01*
X50352142Y-88860476D01*
X50256904Y-88860476D01*
X50114047Y-88908095D01*
X49542619Y-89479523D01*
X49542619Y-88860476D01*
X50542619Y-88241428D02*
X50542619Y-88146190D01*
X50495000Y-88050952D01*
X50447380Y-88003333D01*
X50352142Y-87955714D01*
X50161666Y-87908095D01*
X49923571Y-87908095D01*
X49733095Y-87955714D01*
X49637857Y-88003333D01*
X49590238Y-88050952D01*
X49542619Y-88146190D01*
X49542619Y-88241428D01*
X49590238Y-88336666D01*
X49637857Y-88384285D01*
X49733095Y-88431904D01*
X49923571Y-88479523D01*
X50161666Y-88479523D01*
X50352142Y-88431904D01*
X50447380Y-88384285D01*
X50495000Y-88336666D01*
X50542619Y-88241428D01*
X50447380Y-87527142D02*
X50495000Y-87479523D01*
X50542619Y-87384285D01*
X50542619Y-87146190D01*
X50495000Y-87050952D01*
X50447380Y-87003333D01*
X50352142Y-86955714D01*
X50256904Y-86955714D01*
X50114047Y-87003333D01*
X49542619Y-87574761D01*
X49542619Y-86955714D01*
X50447380Y-86574761D02*
X50495000Y-86527142D01*
X50542619Y-86431904D01*
X50542619Y-86193809D01*
X50495000Y-86098571D01*
X50447380Y-86050952D01*
X50352142Y-86003333D01*
X50256904Y-86003333D01*
X50114047Y-86050952D01*
X49542619Y-86622380D01*
X49542619Y-86003333D01*
X106631428Y-102982380D02*
X106631428Y-101982380D01*
X106202857Y-102982380D02*
X106202857Y-102458571D01*
X106250476Y-102363333D01*
X106345714Y-102315714D01*
X106488571Y-102315714D01*
X106583809Y-102363333D01*
X106631428Y-102410952D01*
X105869523Y-102315714D02*
X105488571Y-102315714D01*
X105726666Y-101982380D02*
X105726666Y-102839523D01*
X105679047Y-102934761D01*
X105583809Y-102982380D01*
X105488571Y-102982380D01*
X105298095Y-102315714D02*
X104917142Y-102315714D01*
X105155238Y-101982380D02*
X105155238Y-102839523D01*
X105107619Y-102934761D01*
X105012380Y-102982380D01*
X104917142Y-102982380D01*
X104583809Y-102315714D02*
X104583809Y-103315714D01*
X104583809Y-102363333D02*
X104488571Y-102315714D01*
X104298095Y-102315714D01*
X104202857Y-102363333D01*
X104155238Y-102410952D01*
X104107619Y-102506190D01*
X104107619Y-102791904D01*
X104155238Y-102887142D01*
X104202857Y-102934761D01*
X104298095Y-102982380D01*
X104488571Y-102982380D01*
X104583809Y-102934761D01*
X103726666Y-102934761D02*
X103631428Y-102982380D01*
X103440952Y-102982380D01*
X103345714Y-102934761D01*
X103298095Y-102839523D01*
X103298095Y-102791904D01*
X103345714Y-102696666D01*
X103440952Y-102649047D01*
X103583809Y-102649047D01*
X103679047Y-102601428D01*
X103726666Y-102506190D01*
X103726666Y-102458571D01*
X103679047Y-102363333D01*
X103583809Y-102315714D01*
X103440952Y-102315714D01*
X103345714Y-102363333D01*
X102869523Y-102887142D02*
X102821904Y-102934761D01*
X102869523Y-102982380D01*
X102917142Y-102934761D01*
X102869523Y-102887142D01*
X102869523Y-102982380D01*
X102869523Y-102363333D02*
X102821904Y-102410952D01*
X102869523Y-102458571D01*
X102917142Y-102410952D01*
X102869523Y-102363333D01*
X102869523Y-102458571D01*
X101679047Y-101934761D02*
X102536190Y-103220476D01*
X100631428Y-101934761D02*
X101488571Y-103220476D01*
X99869523Y-102315714D02*
X99869523Y-103125238D01*
X99917142Y-103220476D01*
X99964761Y-103268095D01*
X100060000Y-103315714D01*
X100202857Y-103315714D01*
X100298095Y-103268095D01*
X99869523Y-102934761D02*
X99964761Y-102982380D01*
X100155238Y-102982380D01*
X100250476Y-102934761D01*
X100298095Y-102887142D01*
X100345714Y-102791904D01*
X100345714Y-102506190D01*
X100298095Y-102410952D01*
X100250476Y-102363333D01*
X100155238Y-102315714D01*
X99964761Y-102315714D01*
X99869523Y-102363333D01*
X99393333Y-102982380D02*
X99393333Y-102315714D01*
X99393333Y-101982380D02*
X99440952Y-102030000D01*
X99393333Y-102077619D01*
X99345714Y-102030000D01*
X99393333Y-101982380D01*
X99393333Y-102077619D01*
X99060000Y-102315714D02*
X98679047Y-102315714D01*
X98917142Y-101982380D02*
X98917142Y-102839523D01*
X98869523Y-102934761D01*
X98774285Y-102982380D01*
X98679047Y-102982380D01*
X98345714Y-102982380D02*
X98345714Y-101982380D01*
X97917142Y-102982380D02*
X97917142Y-102458571D01*
X97964761Y-102363333D01*
X98060000Y-102315714D01*
X98202857Y-102315714D01*
X98298095Y-102363333D01*
X98345714Y-102410952D01*
X97012380Y-102315714D02*
X97012380Y-102982380D01*
X97440952Y-102315714D02*
X97440952Y-102839523D01*
X97393333Y-102934761D01*
X97298095Y-102982380D01*
X97155238Y-102982380D01*
X97060000Y-102934761D01*
X97012380Y-102887142D01*
X96536190Y-102982380D02*
X96536190Y-101982380D01*
X96536190Y-102363333D02*
X96440952Y-102315714D01*
X96250476Y-102315714D01*
X96155238Y-102363333D01*
X96107619Y-102410952D01*
X96060000Y-102506190D01*
X96060000Y-102791904D01*
X96107619Y-102887142D01*
X96155238Y-102934761D01*
X96250476Y-102982380D01*
X96440952Y-102982380D01*
X96536190Y-102934761D01*
X95631428Y-102887142D02*
X95583809Y-102934761D01*
X95631428Y-102982380D01*
X95679047Y-102934761D01*
X95631428Y-102887142D01*
X95631428Y-102982380D01*
X94726666Y-102934761D02*
X94821904Y-102982380D01*
X95012380Y-102982380D01*
X95107619Y-102934761D01*
X95155238Y-102887142D01*
X95202857Y-102791904D01*
X95202857Y-102506190D01*
X95155238Y-102410952D01*
X95107619Y-102363333D01*
X95012380Y-102315714D01*
X94821904Y-102315714D01*
X94726666Y-102363333D01*
X94155238Y-102982380D02*
X94250476Y-102934761D01*
X94298095Y-102887142D01*
X94345714Y-102791904D01*
X94345714Y-102506190D01*
X94298095Y-102410952D01*
X94250476Y-102363333D01*
X94155238Y-102315714D01*
X94012380Y-102315714D01*
X93917142Y-102363333D01*
X93869523Y-102410952D01*
X93821904Y-102506190D01*
X93821904Y-102791904D01*
X93869523Y-102887142D01*
X93917142Y-102934761D01*
X94012380Y-102982380D01*
X94155238Y-102982380D01*
X93393333Y-102982380D02*
X93393333Y-102315714D01*
X93393333Y-102410952D02*
X93345714Y-102363333D01*
X93250476Y-102315714D01*
X93107619Y-102315714D01*
X93012380Y-102363333D01*
X92964761Y-102458571D01*
X92964761Y-102982380D01*
X92964761Y-102458571D02*
X92917142Y-102363333D01*
X92821904Y-102315714D01*
X92679047Y-102315714D01*
X92583809Y-102363333D01*
X92536190Y-102458571D01*
X92536190Y-102982380D01*
X91345714Y-101934761D02*
X92202857Y-103220476D01*
X109012380Y-103925714D02*
X109012380Y-104592380D01*
X109440952Y-103925714D02*
X109440952Y-104449523D01*
X109393333Y-104544761D01*
X109298095Y-104592380D01*
X109155238Y-104592380D01*
X109060000Y-104544761D01*
X109012380Y-104497142D01*
X108631428Y-103925714D02*
X108440952Y-104592380D01*
X108250476Y-104116190D01*
X108060000Y-104592380D01*
X107869523Y-103925714D01*
X107488571Y-104211428D02*
X106726666Y-104211428D01*
X106250476Y-104592380D02*
X106250476Y-103925714D01*
X106250476Y-104020952D02*
X106202857Y-103973333D01*
X106107619Y-103925714D01*
X105964761Y-103925714D01*
X105869523Y-103973333D01*
X105821904Y-104068571D01*
X105821904Y-104592380D01*
X105821904Y-104068571D02*
X105774285Y-103973333D01*
X105679047Y-103925714D01*
X105536190Y-103925714D01*
X105440952Y-103973333D01*
X105393333Y-104068571D01*
X105393333Y-104592380D01*
X104488571Y-104592380D02*
X104488571Y-104068571D01*
X104536190Y-103973333D01*
X104631428Y-103925714D01*
X104821904Y-103925714D01*
X104917142Y-103973333D01*
X104488571Y-104544761D02*
X104583809Y-104592380D01*
X104821904Y-104592380D01*
X104917142Y-104544761D01*
X104964761Y-104449523D01*
X104964761Y-104354285D01*
X104917142Y-104259047D01*
X104821904Y-104211428D01*
X104583809Y-104211428D01*
X104488571Y-104163809D01*
X103583809Y-104592380D02*
X103583809Y-103592380D01*
X103583809Y-104544761D02*
X103679047Y-104592380D01*
X103869523Y-104592380D01*
X103964761Y-104544761D01*
X104012380Y-104497142D01*
X104060000Y-104401904D01*
X104060000Y-104116190D01*
X104012380Y-104020952D01*
X103964761Y-103973333D01*
X103869523Y-103925714D01*
X103679047Y-103925714D01*
X103583809Y-103973333D01*
X103107619Y-104592380D02*
X103107619Y-103925714D01*
X103107619Y-103592380D02*
X103155238Y-103640000D01*
X103107619Y-103687619D01*
X103060000Y-103640000D01*
X103107619Y-103592380D01*
X103107619Y-103687619D01*
X102679047Y-104544761D02*
X102583809Y-104592380D01*
X102393333Y-104592380D01*
X102298095Y-104544761D01*
X102250476Y-104449523D01*
X102250476Y-104401904D01*
X102298095Y-104306666D01*
X102393333Y-104259047D01*
X102536190Y-104259047D01*
X102631428Y-104211428D01*
X102679047Y-104116190D01*
X102679047Y-104068571D01*
X102631428Y-103973333D01*
X102536190Y-103925714D01*
X102393333Y-103925714D01*
X102298095Y-103973333D01*
X101679047Y-104592380D02*
X101774285Y-104544761D01*
X101821904Y-104497142D01*
X101869523Y-104401904D01*
X101869523Y-104116190D01*
X101821904Y-104020952D01*
X101774285Y-103973333D01*
X101679047Y-103925714D01*
X101536190Y-103925714D01*
X101440952Y-103973333D01*
X101393333Y-104020952D01*
X101345714Y-104116190D01*
X101345714Y-104401904D01*
X101393333Y-104497142D01*
X101440952Y-104544761D01*
X101536190Y-104592380D01*
X101679047Y-104592380D01*
X100917142Y-103925714D02*
X100917142Y-104592380D01*
X100917142Y-104020952D02*
X100869523Y-103973333D01*
X100774285Y-103925714D01*
X100631428Y-103925714D01*
X100536190Y-103973333D01*
X100488571Y-104068571D01*
X100488571Y-104592380D01*
X100012380Y-104211428D02*
X99250476Y-104211428D01*
X98345714Y-104544761D02*
X98440952Y-104592380D01*
X98631428Y-104592380D01*
X98726666Y-104544761D01*
X98774285Y-104497142D01*
X98821904Y-104401904D01*
X98821904Y-104116190D01*
X98774285Y-104020952D01*
X98726666Y-103973333D01*
X98631428Y-103925714D01*
X98440952Y-103925714D01*
X98345714Y-103973333D01*
X97917142Y-104592380D02*
X97917142Y-103592380D01*
X97488571Y-104592380D02*
X97488571Y-104068571D01*
X97536190Y-103973333D01*
X97631428Y-103925714D01*
X97774285Y-103925714D01*
X97869523Y-103973333D01*
X97917142Y-104020952D01*
X96631428Y-104544761D02*
X96726666Y-104592380D01*
X96917142Y-104592380D01*
X97012380Y-104544761D01*
X97060000Y-104449523D01*
X97060000Y-104068571D01*
X97012380Y-103973333D01*
X96917142Y-103925714D01*
X96726666Y-103925714D01*
X96631428Y-103973333D01*
X96583809Y-104068571D01*
X96583809Y-104163809D01*
X97060000Y-104259047D01*
X96155238Y-104592380D02*
X96155238Y-103925714D01*
X96155238Y-104020952D02*
X96107619Y-103973333D01*
X96012380Y-103925714D01*
X95869523Y-103925714D01*
X95774285Y-103973333D01*
X95726666Y-104068571D01*
X95726666Y-104592380D01*
X95726666Y-104068571D02*
X95679047Y-103973333D01*
X95583809Y-103925714D01*
X95440952Y-103925714D01*
X95345714Y-103973333D01*
X95298095Y-104068571D01*
X95298095Y-104592380D01*
X94821904Y-104211428D02*
X94060000Y-104211428D01*
X93631428Y-104544761D02*
X93536190Y-104592380D01*
X93345714Y-104592380D01*
X93250476Y-104544761D01*
X93202857Y-104449523D01*
X93202857Y-104401904D01*
X93250476Y-104306666D01*
X93345714Y-104259047D01*
X93488571Y-104259047D01*
X93583809Y-104211428D01*
X93631428Y-104116190D01*
X93631428Y-104068571D01*
X93583809Y-103973333D01*
X93488571Y-103925714D01*
X93345714Y-103925714D01*
X93250476Y-103973333D01*
X92774285Y-104592380D02*
X92774285Y-103592380D01*
X92345714Y-104592380D02*
X92345714Y-104068571D01*
X92393333Y-103973333D01*
X92488571Y-103925714D01*
X92631428Y-103925714D01*
X92726666Y-103973333D01*
X92774285Y-104020952D01*
X91726666Y-104592380D02*
X91821904Y-104544761D01*
X91869523Y-104497142D01*
X91917142Y-104401904D01*
X91917142Y-104116190D01*
X91869523Y-104020952D01*
X91821904Y-103973333D01*
X91726666Y-103925714D01*
X91583809Y-103925714D01*
X91488571Y-103973333D01*
X91440952Y-104020952D01*
X91393333Y-104116190D01*
X91393333Y-104401904D01*
X91440952Y-104497142D01*
X91488571Y-104544761D01*
X91583809Y-104592380D01*
X91726666Y-104592380D01*
X90964761Y-103925714D02*
X90964761Y-104925714D01*
X90964761Y-103973333D02*
X90869523Y-103925714D01*
X90679047Y-103925714D01*
X90583809Y-103973333D01*
X90536190Y-104020952D01*
X90488571Y-104116190D01*
X90488571Y-104401904D01*
X90536190Y-104497142D01*
X90583809Y-104544761D01*
X90679047Y-104592380D01*
X90869523Y-104592380D01*
X90964761Y-104544761D01*
X90107619Y-104544761D02*
X90012380Y-104592380D01*
X89821904Y-104592380D01*
X89726666Y-104544761D01*
X89679047Y-104449523D01*
X89679047Y-104401904D01*
X89726666Y-104306666D01*
X89821904Y-104259047D01*
X89964761Y-104259047D01*
X90060000Y-104211428D01*
X90107619Y-104116190D01*
X90107619Y-104068571D01*
X90060000Y-103973333D01*
X89964761Y-103925714D01*
X89821904Y-103925714D01*
X89726666Y-103973333D01*
X88536190Y-103544761D02*
X89393333Y-104830476D01*
X106202857Y-106202380D02*
X106202857Y-105535714D01*
X106202857Y-105630952D02*
X106155238Y-105583333D01*
X106060000Y-105535714D01*
X105917142Y-105535714D01*
X105821904Y-105583333D01*
X105774285Y-105678571D01*
X105774285Y-106202380D01*
X105774285Y-105678571D02*
X105726666Y-105583333D01*
X105631428Y-105535714D01*
X105488571Y-105535714D01*
X105393333Y-105583333D01*
X105345714Y-105678571D01*
X105345714Y-106202380D01*
X104440952Y-105535714D02*
X104440952Y-106535714D01*
X104440952Y-106154761D02*
X104536190Y-106202380D01*
X104726666Y-106202380D01*
X104821904Y-106154761D01*
X104869523Y-106107142D01*
X104917142Y-106011904D01*
X104917142Y-105726190D01*
X104869523Y-105630952D01*
X104821904Y-105583333D01*
X104726666Y-105535714D01*
X104536190Y-105535714D01*
X104440952Y-105583333D01*
X104107619Y-105535714D02*
X103726666Y-105535714D01*
X103964761Y-105202380D02*
X103964761Y-106059523D01*
X103917142Y-106154761D01*
X103821904Y-106202380D01*
X103726666Y-106202380D01*
X103536190Y-105535714D02*
X103155238Y-105535714D01*
X103393333Y-105202380D02*
X103393333Y-106059523D01*
X103345714Y-106154761D01*
X103250476Y-106202380D01*
X103155238Y-106202380D01*
X102821904Y-105821428D02*
X102060000Y-105821428D01*
X101726666Y-105535714D02*
X101345714Y-105535714D01*
X101583809Y-105202380D02*
X101583809Y-106059523D01*
X101536190Y-106154761D01*
X101440952Y-106202380D01*
X101345714Y-106202380D01*
X101012380Y-106202380D02*
X101012380Y-105202380D01*
X100583809Y-106202380D02*
X100583809Y-105678571D01*
X100631428Y-105583333D01*
X100726666Y-105535714D01*
X100869523Y-105535714D01*
X100964761Y-105583333D01*
X101012380Y-105630952D01*
X99726666Y-106154761D02*
X99821904Y-106202380D01*
X100012380Y-106202380D01*
X100107619Y-106154761D01*
X100155238Y-106059523D01*
X100155238Y-105678571D01*
X100107619Y-105583333D01*
X100012380Y-105535714D01*
X99821904Y-105535714D01*
X99726666Y-105583333D01*
X99679047Y-105678571D01*
X99679047Y-105773809D01*
X100155238Y-105869047D01*
X99250476Y-106202380D02*
X99250476Y-105535714D01*
X99250476Y-105726190D02*
X99202857Y-105630952D01*
X99155238Y-105583333D01*
X99060000Y-105535714D01*
X98964761Y-105535714D01*
X98631428Y-106202380D02*
X98631428Y-105535714D01*
X98631428Y-105630952D02*
X98583809Y-105583333D01*
X98488571Y-105535714D01*
X98345714Y-105535714D01*
X98250476Y-105583333D01*
X98202857Y-105678571D01*
X98202857Y-106202380D01*
X98202857Y-105678571D02*
X98155238Y-105583333D01*
X98060000Y-105535714D01*
X97917142Y-105535714D01*
X97821904Y-105583333D01*
X97774285Y-105678571D01*
X97774285Y-106202380D01*
X97155238Y-106202380D02*
X97250476Y-106154761D01*
X97298095Y-106107142D01*
X97345714Y-106011904D01*
X97345714Y-105726190D01*
X97298095Y-105630952D01*
X97250476Y-105583333D01*
X97155238Y-105535714D01*
X97012380Y-105535714D01*
X96917142Y-105583333D01*
X96869523Y-105630952D01*
X96821904Y-105726190D01*
X96821904Y-106011904D01*
X96869523Y-106107142D01*
X96917142Y-106154761D01*
X97012380Y-106202380D01*
X97155238Y-106202380D01*
X95964761Y-106154761D02*
X96060000Y-106202380D01*
X96250476Y-106202380D01*
X96345714Y-106154761D01*
X96393333Y-106107142D01*
X96440952Y-106011904D01*
X96440952Y-105726190D01*
X96393333Y-105630952D01*
X96345714Y-105583333D01*
X96250476Y-105535714D01*
X96060000Y-105535714D01*
X95964761Y-105583333D01*
X95393333Y-106202380D02*
X95488571Y-106154761D01*
X95536190Y-106107142D01*
X95583809Y-106011904D01*
X95583809Y-105726190D01*
X95536190Y-105630952D01*
X95488571Y-105583333D01*
X95393333Y-105535714D01*
X95250476Y-105535714D01*
X95155238Y-105583333D01*
X95107619Y-105630952D01*
X95060000Y-105726190D01*
X95060000Y-106011904D01*
X95107619Y-106107142D01*
X95155238Y-106154761D01*
X95250476Y-106202380D01*
X95393333Y-106202380D01*
X94202857Y-105535714D02*
X94202857Y-106202380D01*
X94631428Y-105535714D02*
X94631428Y-106059523D01*
X94583809Y-106154761D01*
X94488571Y-106202380D01*
X94345714Y-106202380D01*
X94250476Y-106154761D01*
X94202857Y-106107142D01*
X93726666Y-105535714D02*
X93726666Y-106535714D01*
X93726666Y-105583333D02*
X93631428Y-105535714D01*
X93440952Y-105535714D01*
X93345714Y-105583333D01*
X93298095Y-105630952D01*
X93250476Y-105726190D01*
X93250476Y-106011904D01*
X93298095Y-106107142D01*
X93345714Y-106154761D01*
X93440952Y-106202380D01*
X93631428Y-106202380D01*
X93726666Y-106154761D01*
X92679047Y-106202380D02*
X92774285Y-106154761D01*
X92821904Y-106059523D01*
X92821904Y-105202380D01*
X91917142Y-106154761D02*
X92012380Y-106202380D01*
X92202857Y-106202380D01*
X92298095Y-106154761D01*
X92345714Y-106059523D01*
X92345714Y-105678571D01*
X92298095Y-105583333D01*
X92202857Y-105535714D01*
X92012380Y-105535714D01*
X91917142Y-105583333D01*
X91869523Y-105678571D01*
X91869523Y-105773809D01*
X92345714Y-105869047D01*
%TO.C,A1*%
X124356666Y-60245714D02*
X124356666Y-60721904D01*
X124642380Y-60150476D02*
X123642380Y-60483809D01*
X124642380Y-60817142D01*
X124642380Y-61674285D02*
X124642380Y-61102857D01*
X124642380Y-61388571D02*
X123642380Y-61388571D01*
X123785238Y-61293333D01*
X123880476Y-61198095D01*
X123928095Y-61102857D01*
D11*
X120650000Y-48140000D02*
X87630000Y-48140000D01*
X120650000Y-73780000D02*
X87630000Y-73780000D01*
X121690000Y-73910000D02*
X123440000Y-73910000D01*
X123310000Y-71120000D02*
X123310000Y-50800000D01*
X118210000Y-49430000D02*
X118210000Y-52170000D01*
X118210000Y-69750000D02*
X118210000Y-72490000D01*
X92610000Y-72490000D02*
X92610000Y-69750000D01*
X123440000Y-73910000D02*
X123440000Y-72160000D01*
X118210000Y-52170000D02*
X92610000Y-52170000D01*
X92610000Y-52170000D02*
X92610000Y-49430000D01*
X92610000Y-49430000D02*
X118210000Y-49430000D01*
X92610000Y-69750000D02*
X118210000Y-69750000D01*
X118210000Y-72490000D02*
X92610000Y-72490000D01*
X84970000Y-71120000D02*
X84970000Y-50800000D01*
X123310000Y-50800000D02*
G75*
G03*
X120650000Y-48140000I-2660000J0D01*
G01*
X84970000Y-71120000D02*
G75*
G03*
X87630000Y-73780000I2660000J0D01*
G01*
X87630000Y-48140000D02*
G75*
G03*
X84970000Y-50800000I0J-2660000D01*
G01*
X120650000Y-73780000D02*
G75*
G03*
X123310000Y-71120000I0J2660000D01*
G01*
%TO.C,REF\u002A\u002A*%
G36*
X100986372Y-99101684D02*
G01*
X101077629Y-99144569D01*
X101152416Y-99218729D01*
X101167917Y-99241944D01*
X101180774Y-99268256D01*
X101189893Y-99301420D01*
X101196102Y-99347881D01*
X101200233Y-99414082D01*
X101203116Y-99506468D01*
X101205579Y-99631485D01*
X101211697Y-99978278D01*
X101160303Y-99958738D01*
X101113246Y-99940787D01*
X101078015Y-99923511D01*
X101055017Y-99901242D01*
X101041655Y-99867165D01*
X101035328Y-99814463D01*
X101033437Y-99736323D01*
X101033385Y-99625928D01*
X101033117Y-99537935D01*
X101031521Y-99453502D01*
X101027712Y-99395834D01*
X101020820Y-99357988D01*
X101009975Y-99333024D01*
X100994308Y-99314000D01*
X100955792Y-99287153D01*
X100891091Y-99277034D01*
X100827081Y-99302606D01*
X100822856Y-99305880D01*
X100809689Y-99321007D01*
X100799975Y-99345268D01*
X100792903Y-99384650D01*
X100787656Y-99445141D01*
X100783421Y-99532729D01*
X100779385Y-99653402D01*
X100769615Y-99976515D01*
X100603539Y-99902065D01*
X100603539Y-99607062D01*
X100603883Y-99526919D01*
X100606847Y-99415431D01*
X100614351Y-99332421D01*
X100628190Y-99271199D01*
X100650155Y-99225075D01*
X100682039Y-99187358D01*
X100725633Y-99151358D01*
X100788336Y-99115089D01*
X100887117Y-99091412D01*
X100986372Y-99101684D01*
G37*
D12*
X100986372Y-99101684D02*
X101077629Y-99144569D01*
X101152416Y-99218729D01*
X101167917Y-99241944D01*
X101180774Y-99268256D01*
X101189893Y-99301420D01*
X101196102Y-99347881D01*
X101200233Y-99414082D01*
X101203116Y-99506468D01*
X101205579Y-99631485D01*
X101211697Y-99978278D01*
X101160303Y-99958738D01*
X101113246Y-99940787D01*
X101078015Y-99923511D01*
X101055017Y-99901242D01*
X101041655Y-99867165D01*
X101035328Y-99814463D01*
X101033437Y-99736323D01*
X101033385Y-99625928D01*
X101033117Y-99537935D01*
X101031521Y-99453502D01*
X101027712Y-99395834D01*
X101020820Y-99357988D01*
X101009975Y-99333024D01*
X100994308Y-99314000D01*
X100955792Y-99287153D01*
X100891091Y-99277034D01*
X100827081Y-99302606D01*
X100822856Y-99305880D01*
X100809689Y-99321007D01*
X100799975Y-99345268D01*
X100792903Y-99384650D01*
X100787656Y-99445141D01*
X100783421Y-99532729D01*
X100779385Y-99653402D01*
X100769615Y-99976515D01*
X100603539Y-99902065D01*
X100603539Y-99607062D01*
X100603883Y-99526919D01*
X100606847Y-99415431D01*
X100614351Y-99332421D01*
X100628190Y-99271199D01*
X100650155Y-99225075D01*
X100682039Y-99187358D01*
X100725633Y-99151358D01*
X100788336Y-99115089D01*
X100887117Y-99091412D01*
X100986372Y-99101684D01*
G36*
X99180458Y-99159228D02*
G01*
X99247622Y-99198389D01*
X99277169Y-99228902D01*
X99333948Y-99320110D01*
X99353077Y-99419548D01*
X99353077Y-99487960D01*
X99290191Y-99461518D01*
X99246700Y-99434837D01*
X99212426Y-99379446D01*
X99208907Y-99368024D01*
X99171028Y-99309838D01*
X99113936Y-99278407D01*
X99048383Y-99277058D01*
X98985117Y-99309116D01*
X98975672Y-99317383D01*
X98944087Y-99353311D01*
X98938871Y-99384635D01*
X98962765Y-99415391D01*
X99018510Y-99449617D01*
X99108846Y-99491350D01*
X99114956Y-99493993D01*
X99215241Y-99540755D01*
X99283735Y-99582181D01*
X99325899Y-99623542D01*
X99347193Y-99670111D01*
X99353077Y-99727160D01*
X99345366Y-99790408D01*
X99306430Y-99871364D01*
X99237932Y-99929522D01*
X99188388Y-99946983D01*
X99118469Y-99956537D01*
X99050575Y-99954496D01*
X99002093Y-99940082D01*
X98996943Y-99936493D01*
X98983267Y-99911416D01*
X98992757Y-99867218D01*
X99009246Y-99832527D01*
X99035687Y-99818084D01*
X99085834Y-99818803D01*
X99155453Y-99814660D01*
X99200943Y-99786054D01*
X99216308Y-99733104D01*
X99216294Y-99731582D01*
X99206983Y-99700845D01*
X99175311Y-99672643D01*
X99113731Y-99640136D01*
X99029986Y-99600998D01*
X98974518Y-99579706D01*
X98942497Y-99581079D01*
X98927534Y-99609203D01*
X98923242Y-99668170D01*
X98923231Y-99762068D01*
X98922752Y-99820031D01*
X98920556Y-99891612D01*
X98916986Y-99940606D01*
X98912491Y-99958769D01*
X98911290Y-99958646D01*
X98885319Y-99948802D01*
X98842305Y-99928028D01*
X98782859Y-99897287D01*
X98789923Y-99620298D01*
X98790414Y-99601928D01*
X98796025Y-99472992D01*
X98805938Y-99375814D01*
X98822175Y-99303925D01*
X98846759Y-99250852D01*
X98881715Y-99210127D01*
X98929064Y-99175279D01*
X98929940Y-99174733D01*
X99006499Y-99146303D01*
X99095044Y-99141500D01*
X99180458Y-99159228D01*
G37*
X99180458Y-99159228D02*
X99247622Y-99198389D01*
X99277169Y-99228902D01*
X99333948Y-99320110D01*
X99353077Y-99419548D01*
X99353077Y-99487960D01*
X99290191Y-99461518D01*
X99246700Y-99434837D01*
X99212426Y-99379446D01*
X99208907Y-99368024D01*
X99171028Y-99309838D01*
X99113936Y-99278407D01*
X99048383Y-99277058D01*
X98985117Y-99309116D01*
X98975672Y-99317383D01*
X98944087Y-99353311D01*
X98938871Y-99384635D01*
X98962765Y-99415391D01*
X99018510Y-99449617D01*
X99108846Y-99491350D01*
X99114956Y-99493993D01*
X99215241Y-99540755D01*
X99283735Y-99582181D01*
X99325899Y-99623542D01*
X99347193Y-99670111D01*
X99353077Y-99727160D01*
X99345366Y-99790408D01*
X99306430Y-99871364D01*
X99237932Y-99929522D01*
X99188388Y-99946983D01*
X99118469Y-99956537D01*
X99050575Y-99954496D01*
X99002093Y-99940082D01*
X98996943Y-99936493D01*
X98983267Y-99911416D01*
X98992757Y-99867218D01*
X99009246Y-99832527D01*
X99035687Y-99818084D01*
X99085834Y-99818803D01*
X99155453Y-99814660D01*
X99200943Y-99786054D01*
X99216308Y-99733104D01*
X99216294Y-99731582D01*
X99206983Y-99700845D01*
X99175311Y-99672643D01*
X99113731Y-99640136D01*
X99029986Y-99600998D01*
X98974518Y-99579706D01*
X98942497Y-99581079D01*
X98927534Y-99609203D01*
X98923242Y-99668170D01*
X98923231Y-99762068D01*
X98922752Y-99820031D01*
X98920556Y-99891612D01*
X98916986Y-99940606D01*
X98912491Y-99958769D01*
X98911290Y-99958646D01*
X98885319Y-99948802D01*
X98842305Y-99928028D01*
X98782859Y-99897287D01*
X98789923Y-99620298D01*
X98790414Y-99601928D01*
X98796025Y-99472992D01*
X98805938Y-99375814D01*
X98822175Y-99303925D01*
X98846759Y-99250852D01*
X98881715Y-99210127D01*
X98929064Y-99175279D01*
X98929940Y-99174733D01*
X99006499Y-99146303D01*
X99095044Y-99141500D01*
X99180458Y-99159228D01*
G36*
X103456135Y-99550105D02*
G01*
X103455076Y-99644584D01*
X103451436Y-99710414D01*
X103443892Y-99756394D01*
X103431122Y-99791321D01*
X103411803Y-99823995D01*
X103407050Y-99830775D01*
X103356759Y-99884231D01*
X103299457Y-99924547D01*
X103270032Y-99937629D01*
X103164299Y-99959450D01*
X103059734Y-99945336D01*
X102963368Y-99897105D01*
X102882235Y-99816579D01*
X102875385Y-99805791D01*
X102853097Y-99743153D01*
X102838079Y-99655935D01*
X102830792Y-99555210D01*
X102831611Y-99462037D01*
X103028796Y-99462037D01*
X103030349Y-99591114D01*
X103030974Y-99599420D01*
X103040077Y-99670643D01*
X103056288Y-99715809D01*
X103083660Y-99746752D01*
X103129553Y-99775737D01*
X103174942Y-99777261D01*
X103221692Y-99743846D01*
X103229824Y-99735053D01*
X103245754Y-99708741D01*
X103255159Y-99670520D01*
X103259632Y-99611349D01*
X103260769Y-99522182D01*
X103258822Y-99438664D01*
X103249105Y-99359095D01*
X103229047Y-99308808D01*
X103196240Y-99282513D01*
X103148280Y-99274923D01*
X103130016Y-99276432D01*
X103078848Y-99304107D01*
X103045035Y-99366172D01*
X103028796Y-99462037D01*
X102831611Y-99462037D01*
X102831699Y-99452052D01*
X102841262Y-99357533D01*
X102859943Y-99282727D01*
X102883951Y-99232905D01*
X102951536Y-99155409D01*
X103043114Y-99107256D01*
X103155213Y-99090703D01*
X103185151Y-99091599D01*
X103273315Y-99109929D01*
X103345733Y-99156104D01*
X103412192Y-99235648D01*
X103416147Y-99241548D01*
X103434040Y-99273288D01*
X103445678Y-99309163D01*
X103452371Y-99357906D01*
X103455426Y-99428249D01*
X103456106Y-99522182D01*
X103456154Y-99528923D01*
X103456135Y-99550105D01*
G37*
X103456135Y-99550105D02*
X103455076Y-99644584D01*
X103451436Y-99710414D01*
X103443892Y-99756394D01*
X103431122Y-99791321D01*
X103411803Y-99823995D01*
X103407050Y-99830775D01*
X103356759Y-99884231D01*
X103299457Y-99924547D01*
X103270032Y-99937629D01*
X103164299Y-99959450D01*
X103059734Y-99945336D01*
X102963368Y-99897105D01*
X102882235Y-99816579D01*
X102875385Y-99805791D01*
X102853097Y-99743153D01*
X102838079Y-99655935D01*
X102830792Y-99555210D01*
X102831611Y-99462037D01*
X103028796Y-99462037D01*
X103030349Y-99591114D01*
X103030974Y-99599420D01*
X103040077Y-99670643D01*
X103056288Y-99715809D01*
X103083660Y-99746752D01*
X103129553Y-99775737D01*
X103174942Y-99777261D01*
X103221692Y-99743846D01*
X103229824Y-99735053D01*
X103245754Y-99708741D01*
X103255159Y-99670520D01*
X103259632Y-99611349D01*
X103260769Y-99522182D01*
X103258822Y-99438664D01*
X103249105Y-99359095D01*
X103229047Y-99308808D01*
X103196240Y-99282513D01*
X103148280Y-99274923D01*
X103130016Y-99276432D01*
X103078848Y-99304107D01*
X103045035Y-99366172D01*
X103028796Y-99462037D01*
X102831611Y-99462037D01*
X102831699Y-99452052D01*
X102841262Y-99357533D01*
X102859943Y-99282727D01*
X102883951Y-99232905D01*
X102951536Y-99155409D01*
X103043114Y-99107256D01*
X103155213Y-99090703D01*
X103185151Y-99091599D01*
X103273315Y-99109929D01*
X103345733Y-99156104D01*
X103412192Y-99235648D01*
X103416147Y-99241548D01*
X103434040Y-99273288D01*
X103445678Y-99309163D01*
X103452371Y-99357906D01*
X103455426Y-99428249D01*
X103456106Y-99522182D01*
X103456154Y-99528923D01*
X103456135Y-99550105D01*
G36*
X98531892Y-99167167D02*
G01*
X98538060Y-99170581D01*
X98588447Y-99209692D01*
X98633498Y-99259975D01*
X98641355Y-99271339D01*
X98656376Y-99297860D01*
X98667107Y-99329336D01*
X98674486Y-99372591D01*
X98679452Y-99434449D01*
X98682942Y-99521733D01*
X98685893Y-99641269D01*
X98686311Y-99661478D01*
X98687654Y-99792499D01*
X98685761Y-99885296D01*
X98680605Y-99940507D01*
X98672158Y-99958769D01*
X98646594Y-99953301D01*
X98603166Y-99936733D01*
X98592940Y-99931888D01*
X98576967Y-99920920D01*
X98565954Y-99902890D01*
X98558750Y-99871396D01*
X98554208Y-99820036D01*
X98551180Y-99742410D01*
X98548516Y-99632115D01*
X98547785Y-99599875D01*
X98544965Y-99498050D01*
X98541304Y-99426788D01*
X98535694Y-99379332D01*
X98527029Y-99348925D01*
X98514202Y-99328810D01*
X98496105Y-99312229D01*
X98442525Y-99283161D01*
X98376612Y-99277564D01*
X98317635Y-99299807D01*
X98275203Y-99345859D01*
X98258923Y-99411692D01*
X98258470Y-99429587D01*
X98249578Y-99461982D01*
X98223325Y-99466925D01*
X98171919Y-99447633D01*
X98160013Y-99441446D01*
X98127835Y-99405058D01*
X98127198Y-99350954D01*
X98157856Y-99276128D01*
X98185978Y-99235350D01*
X98257883Y-99177421D01*
X98346638Y-99144670D01*
X98441542Y-99140212D01*
X98531892Y-99167167D01*
G37*
X98531892Y-99167167D02*
X98538060Y-99170581D01*
X98588447Y-99209692D01*
X98633498Y-99259975D01*
X98641355Y-99271339D01*
X98656376Y-99297860D01*
X98667107Y-99329336D01*
X98674486Y-99372591D01*
X98679452Y-99434449D01*
X98682942Y-99521733D01*
X98685893Y-99641269D01*
X98686311Y-99661478D01*
X98687654Y-99792499D01*
X98685761Y-99885296D01*
X98680605Y-99940507D01*
X98672158Y-99958769D01*
X98646594Y-99953301D01*
X98603166Y-99936733D01*
X98592940Y-99931888D01*
X98576967Y-99920920D01*
X98565954Y-99902890D01*
X98558750Y-99871396D01*
X98554208Y-99820036D01*
X98551180Y-99742410D01*
X98548516Y-99632115D01*
X98547785Y-99599875D01*
X98544965Y-99498050D01*
X98541304Y-99426788D01*
X98535694Y-99379332D01*
X98527029Y-99348925D01*
X98514202Y-99328810D01*
X98496105Y-99312229D01*
X98442525Y-99283161D01*
X98376612Y-99277564D01*
X98317635Y-99299807D01*
X98275203Y-99345859D01*
X98258923Y-99411692D01*
X98258470Y-99429587D01*
X98249578Y-99461982D01*
X98223325Y-99466925D01*
X98171919Y-99447633D01*
X98160013Y-99441446D01*
X98127835Y-99405058D01*
X98127198Y-99350954D01*
X98157856Y-99276128D01*
X98185978Y-99235350D01*
X98257883Y-99177421D01*
X98346638Y-99144670D01*
X98441542Y-99140212D01*
X98531892Y-99167167D01*
G36*
X98022839Y-99624652D02*
G01*
X98011810Y-99728507D01*
X97987814Y-99806333D01*
X97948043Y-99865760D01*
X97889688Y-99914418D01*
X97834100Y-99942546D01*
X97740751Y-99958199D01*
X97647530Y-99941084D01*
X97563272Y-99893388D01*
X97496818Y-99817294D01*
X97488793Y-99803262D01*
X97478196Y-99778679D01*
X97470335Y-99747309D01*
X97464807Y-99703769D01*
X97461206Y-99642678D01*
X97459128Y-99558655D01*
X97459064Y-99551200D01*
X97594615Y-99551200D01*
X97595077Y-99622316D01*
X97597999Y-99686641D01*
X97605221Y-99728166D01*
X97618561Y-99756067D01*
X97639836Y-99779517D01*
X97644821Y-99784025D01*
X97708863Y-99817295D01*
X97776625Y-99813890D01*
X97839734Y-99774042D01*
X97858526Y-99753398D01*
X97874254Y-99726029D01*
X97883039Y-99688192D01*
X97886859Y-99630355D01*
X97887692Y-99542986D01*
X97887281Y-99476319D01*
X97884434Y-99411245D01*
X97877256Y-99369251D01*
X97863889Y-99341063D01*
X97842472Y-99317406D01*
X97829890Y-99306753D01*
X97764699Y-99278057D01*
X97696400Y-99282575D01*
X97637098Y-99320144D01*
X97624333Y-99335040D01*
X97608764Y-99363089D01*
X97599762Y-99402258D01*
X97595617Y-99461858D01*
X97594615Y-99551200D01*
X97459064Y-99551200D01*
X97458167Y-99446320D01*
X97457919Y-99300289D01*
X97457846Y-98846963D01*
X97521346Y-98873564D01*
X97538136Y-98880845D01*
X97564859Y-98897287D01*
X97580156Y-98922187D01*
X97588563Y-98965732D01*
X97594615Y-99038106D01*
X97600144Y-99103089D01*
X97607450Y-99145750D01*
X97617918Y-99161670D01*
X97633692Y-99157400D01*
X97673890Y-99142397D01*
X97745728Y-99138678D01*
X97823010Y-99152572D01*
X97889688Y-99182505D01*
X97926371Y-99210211D01*
X97973472Y-99264269D01*
X98003638Y-99333577D01*
X98019678Y-99425765D01*
X98024191Y-99542986D01*
X98024401Y-99548462D01*
X98022839Y-99624652D01*
G37*
X98022839Y-99624652D02*
X98011810Y-99728507D01*
X97987814Y-99806333D01*
X97948043Y-99865760D01*
X97889688Y-99914418D01*
X97834100Y-99942546D01*
X97740751Y-99958199D01*
X97647530Y-99941084D01*
X97563272Y-99893388D01*
X97496818Y-99817294D01*
X97488793Y-99803262D01*
X97478196Y-99778679D01*
X97470335Y-99747309D01*
X97464807Y-99703769D01*
X97461206Y-99642678D01*
X97459128Y-99558655D01*
X97459064Y-99551200D01*
X97594615Y-99551200D01*
X97595077Y-99622316D01*
X97597999Y-99686641D01*
X97605221Y-99728166D01*
X97618561Y-99756067D01*
X97639836Y-99779517D01*
X97644821Y-99784025D01*
X97708863Y-99817295D01*
X97776625Y-99813890D01*
X97839734Y-99774042D01*
X97858526Y-99753398D01*
X97874254Y-99726029D01*
X97883039Y-99688192D01*
X97886859Y-99630355D01*
X97887692Y-99542986D01*
X97887281Y-99476319D01*
X97884434Y-99411245D01*
X97877256Y-99369251D01*
X97863889Y-99341063D01*
X97842472Y-99317406D01*
X97829890Y-99306753D01*
X97764699Y-99278057D01*
X97696400Y-99282575D01*
X97637098Y-99320144D01*
X97624333Y-99335040D01*
X97608764Y-99363089D01*
X97599762Y-99402258D01*
X97595617Y-99461858D01*
X97594615Y-99551200D01*
X97459064Y-99551200D01*
X97458167Y-99446320D01*
X97457919Y-99300289D01*
X97457846Y-98846963D01*
X97521346Y-98873564D01*
X97538136Y-98880845D01*
X97564859Y-98897287D01*
X97580156Y-98922187D01*
X97588563Y-98965732D01*
X97594615Y-99038106D01*
X97600144Y-99103089D01*
X97607450Y-99145750D01*
X97617918Y-99161670D01*
X97633692Y-99157400D01*
X97673890Y-99142397D01*
X97745728Y-99138678D01*
X97823010Y-99152572D01*
X97889688Y-99182505D01*
X97926371Y-99210211D01*
X97973472Y-99264269D01*
X98003638Y-99333577D01*
X98019678Y-99425765D01*
X98024191Y-99542986D01*
X98024401Y-99548462D01*
X98022839Y-99624652D01*
G36*
X95210413Y-99604449D02*
G01*
X95205641Y-99707047D01*
X95193150Y-99782126D01*
X95170121Y-99837748D01*
X95133732Y-99881975D01*
X95081162Y-99922869D01*
X95047714Y-99941466D01*
X94994098Y-99953991D01*
X94918780Y-99953003D01*
X94876672Y-99949035D01*
X94825879Y-99936920D01*
X94785280Y-99910585D01*
X94738049Y-99861514D01*
X94731738Y-99854346D01*
X94689277Y-99799189D01*
X94669018Y-99751150D01*
X94663846Y-99694184D01*
X94663846Y-99610471D01*
X94722346Y-99632552D01*
X94764994Y-99658364D01*
X94802064Y-99718928D01*
X94809803Y-99738320D01*
X94853074Y-99793235D01*
X94911976Y-99820879D01*
X94976111Y-99818393D01*
X95035077Y-99782923D01*
X95055342Y-99760805D01*
X95073720Y-99727436D01*
X95067971Y-99697117D01*
X95034887Y-99665913D01*
X94971261Y-99629887D01*
X94873885Y-99585103D01*
X94673615Y-99497445D01*
X94668301Y-99410607D01*
X94670299Y-99355296D01*
X94800783Y-99355296D01*
X94810688Y-99389538D01*
X94855756Y-99426096D01*
X94937557Y-99467692D01*
X94951092Y-99473718D01*
X95015818Y-99501753D01*
X95064247Y-99521472D01*
X95086751Y-99528923D01*
X95090161Y-99523438D01*
X95091529Y-99489948D01*
X95086651Y-99436116D01*
X95074364Y-99383473D01*
X95036041Y-99317151D01*
X94980720Y-99279780D01*
X94914640Y-99274721D01*
X94844040Y-99305339D01*
X94824474Y-99320648D01*
X94800783Y-99355296D01*
X94670299Y-99355296D01*
X94670647Y-99345663D01*
X94700186Y-99263590D01*
X94737472Y-99218361D01*
X94814776Y-99167838D01*
X94906478Y-99142316D01*
X95001274Y-99144336D01*
X95087859Y-99176440D01*
X95106920Y-99188767D01*
X95150640Y-99226912D01*
X95180540Y-99275167D01*
X95198968Y-99340710D01*
X95208270Y-99430720D01*
X95209499Y-99489948D01*
X95210794Y-99552376D01*
X95210413Y-99604449D01*
G37*
X95210413Y-99604449D02*
X95205641Y-99707047D01*
X95193150Y-99782126D01*
X95170121Y-99837748D01*
X95133732Y-99881975D01*
X95081162Y-99922869D01*
X95047714Y-99941466D01*
X94994098Y-99953991D01*
X94918780Y-99953003D01*
X94876672Y-99949035D01*
X94825879Y-99936920D01*
X94785280Y-99910585D01*
X94738049Y-99861514D01*
X94731738Y-99854346D01*
X94689277Y-99799189D01*
X94669018Y-99751150D01*
X94663846Y-99694184D01*
X94663846Y-99610471D01*
X94722346Y-99632552D01*
X94764994Y-99658364D01*
X94802064Y-99718928D01*
X94809803Y-99738320D01*
X94853074Y-99793235D01*
X94911976Y-99820879D01*
X94976111Y-99818393D01*
X95035077Y-99782923D01*
X95055342Y-99760805D01*
X95073720Y-99727436D01*
X95067971Y-99697117D01*
X95034887Y-99665913D01*
X94971261Y-99629887D01*
X94873885Y-99585103D01*
X94673615Y-99497445D01*
X94668301Y-99410607D01*
X94670299Y-99355296D01*
X94800783Y-99355296D01*
X94810688Y-99389538D01*
X94855756Y-99426096D01*
X94937557Y-99467692D01*
X94951092Y-99473718D01*
X95015818Y-99501753D01*
X95064247Y-99521472D01*
X95086751Y-99528923D01*
X95090161Y-99523438D01*
X95091529Y-99489948D01*
X95086651Y-99436116D01*
X95074364Y-99383473D01*
X95036041Y-99317151D01*
X94980720Y-99279780D01*
X94914640Y-99274721D01*
X94844040Y-99305339D01*
X94824474Y-99320648D01*
X94800783Y-99355296D01*
X94670299Y-99355296D01*
X94670647Y-99345663D01*
X94700186Y-99263590D01*
X94737472Y-99218361D01*
X94814776Y-99167838D01*
X94906478Y-99142316D01*
X95001274Y-99144336D01*
X95087859Y-99176440D01*
X95106920Y-99188767D01*
X95150640Y-99226912D01*
X95180540Y-99275167D01*
X95198968Y-99340710D01*
X95208270Y-99430720D01*
X95209499Y-99489948D01*
X95210794Y-99552376D01*
X95210413Y-99604449D01*
G36*
X100036923Y-98901806D02*
G01*
X100036923Y-99436455D01*
X100036660Y-99575094D01*
X100035958Y-99699805D01*
X100034883Y-99805557D01*
X100033500Y-99887322D01*
X100031874Y-99940069D01*
X100030070Y-99958769D01*
X100029364Y-99958706D01*
X100005387Y-99951912D01*
X99961685Y-99937320D01*
X99900154Y-99915870D01*
X99900154Y-99640617D01*
X99899763Y-99532466D01*
X99897946Y-99454026D01*
X99893767Y-99400647D01*
X99886286Y-99365256D01*
X99874567Y-99340779D01*
X99857671Y-99320144D01*
X99846152Y-99309170D01*
X99783864Y-99278775D01*
X99715211Y-99281466D01*
X99652298Y-99317406D01*
X99643139Y-99326325D01*
X99628471Y-99344844D01*
X99618433Y-99369326D01*
X99612151Y-99406393D01*
X99608748Y-99462667D01*
X99607349Y-99544771D01*
X99607077Y-99659329D01*
X99606947Y-99717430D01*
X99606099Y-99812993D01*
X99604594Y-99889526D01*
X99602585Y-99940345D01*
X99600223Y-99958769D01*
X99599518Y-99958706D01*
X99575541Y-99951912D01*
X99531839Y-99937320D01*
X99470308Y-99915870D01*
X99470338Y-99639358D01*
X99470384Y-99614742D01*
X99472970Y-99486419D01*
X99480913Y-99389384D01*
X99496155Y-99317057D01*
X99520636Y-99262855D01*
X99556298Y-99220198D01*
X99605082Y-99182505D01*
X99652661Y-99158910D01*
X99728732Y-99140672D01*
X99803556Y-99139636D01*
X99861077Y-99157378D01*
X99865402Y-99159829D01*
X99878738Y-99159566D01*
X99887851Y-99139039D01*
X99894428Y-99091980D01*
X99900154Y-99012120D01*
X99909923Y-98848236D01*
X100036923Y-98901806D01*
G37*
X100036923Y-98901806D02*
X100036923Y-99436455D01*
X100036660Y-99575094D01*
X100035958Y-99699805D01*
X100034883Y-99805557D01*
X100033500Y-99887322D01*
X100031874Y-99940069D01*
X100030070Y-99958769D01*
X100029364Y-99958706D01*
X100005387Y-99951912D01*
X99961685Y-99937320D01*
X99900154Y-99915870D01*
X99900154Y-99640617D01*
X99899763Y-99532466D01*
X99897946Y-99454026D01*
X99893767Y-99400647D01*
X99886286Y-99365256D01*
X99874567Y-99340779D01*
X99857671Y-99320144D01*
X99846152Y-99309170D01*
X99783864Y-99278775D01*
X99715211Y-99281466D01*
X99652298Y-99317406D01*
X99643139Y-99326325D01*
X99628471Y-99344844D01*
X99618433Y-99369326D01*
X99612151Y-99406393D01*
X99608748Y-99462667D01*
X99607349Y-99544771D01*
X99607077Y-99659329D01*
X99606947Y-99717430D01*
X99606099Y-99812993D01*
X99604594Y-99889526D01*
X99602585Y-99940345D01*
X99600223Y-99958769D01*
X99599518Y-99958706D01*
X99575541Y-99951912D01*
X99531839Y-99937320D01*
X99470308Y-99915870D01*
X99470338Y-99639358D01*
X99470384Y-99614742D01*
X99472970Y-99486419D01*
X99480913Y-99389384D01*
X99496155Y-99317057D01*
X99520636Y-99262855D01*
X99556298Y-99220198D01*
X99605082Y-99182505D01*
X99652661Y-99158910D01*
X99728732Y-99140672D01*
X99803556Y-99139636D01*
X99861077Y-99157378D01*
X99865402Y-99159829D01*
X99878738Y-99159566D01*
X99887851Y-99139039D01*
X99894428Y-99091980D01*
X99900154Y-99012120D01*
X99909923Y-98848236D01*
X100036923Y-98901806D01*
G36*
X101964574Y-99621643D02*
G01*
X101961066Y-99653021D01*
X101934927Y-99764705D01*
X101887694Y-99849642D01*
X101815862Y-99914741D01*
X101811802Y-99917428D01*
X101720487Y-99955634D01*
X101625144Y-99959034D01*
X101533274Y-99929939D01*
X101452379Y-99870660D01*
X101389962Y-99783510D01*
X101388914Y-99781409D01*
X101368173Y-99727289D01*
X101352980Y-99665781D01*
X101344921Y-99608039D01*
X101345582Y-99565215D01*
X101356548Y-99548462D01*
X101366290Y-99549480D01*
X101412877Y-99568009D01*
X101465682Y-99602081D01*
X101510603Y-99641522D01*
X101533535Y-99676155D01*
X101557373Y-99723133D01*
X101606230Y-99765862D01*
X101662963Y-99782923D01*
X101683758Y-99777990D01*
X101724804Y-99753157D01*
X101760557Y-99718685D01*
X101775846Y-99687411D01*
X101775842Y-99687295D01*
X101758495Y-99672933D01*
X101712247Y-99647025D01*
X101644067Y-99613210D01*
X101560923Y-99575129D01*
X101560466Y-99574927D01*
X101470138Y-99534709D01*
X101409592Y-99505733D01*
X101372888Y-99483474D01*
X101354086Y-99463407D01*
X101347246Y-99441009D01*
X101346429Y-99411756D01*
X101352113Y-99356363D01*
X101545000Y-99356363D01*
X101564911Y-99373777D01*
X101614521Y-99399872D01*
X101615976Y-99400610D01*
X101674506Y-99428483D01*
X101726868Y-99450719D01*
X101760086Y-99460126D01*
X101773410Y-99447552D01*
X101775846Y-99404468D01*
X101765724Y-99350847D01*
X101730631Y-99302119D01*
X101679823Y-99276856D01*
X101623181Y-99279406D01*
X101570584Y-99314120D01*
X101549910Y-99338107D01*
X101545000Y-99356363D01*
X101352113Y-99356363D01*
X101353622Y-99341654D01*
X101389184Y-99246412D01*
X101448714Y-99171567D01*
X101525746Y-99119745D01*
X101613815Y-99093573D01*
X101706454Y-99095676D01*
X101797198Y-99128681D01*
X101879579Y-99195215D01*
X101925222Y-99261055D01*
X101958008Y-99355036D01*
X101963339Y-99404468D01*
X101970787Y-99473536D01*
X101964574Y-99621643D01*
G37*
X101964574Y-99621643D02*
X101961066Y-99653021D01*
X101934927Y-99764705D01*
X101887694Y-99849642D01*
X101815862Y-99914741D01*
X101811802Y-99917428D01*
X101720487Y-99955634D01*
X101625144Y-99959034D01*
X101533274Y-99929939D01*
X101452379Y-99870660D01*
X101389962Y-99783510D01*
X101388914Y-99781409D01*
X101368173Y-99727289D01*
X101352980Y-99665781D01*
X101344921Y-99608039D01*
X101345582Y-99565215D01*
X101356548Y-99548462D01*
X101366290Y-99549480D01*
X101412877Y-99568009D01*
X101465682Y-99602081D01*
X101510603Y-99641522D01*
X101533535Y-99676155D01*
X101557373Y-99723133D01*
X101606230Y-99765862D01*
X101662963Y-99782923D01*
X101683758Y-99777990D01*
X101724804Y-99753157D01*
X101760557Y-99718685D01*
X101775846Y-99687411D01*
X101775842Y-99687295D01*
X101758495Y-99672933D01*
X101712247Y-99647025D01*
X101644067Y-99613210D01*
X101560923Y-99575129D01*
X101560466Y-99574927D01*
X101470138Y-99534709D01*
X101409592Y-99505733D01*
X101372888Y-99483474D01*
X101354086Y-99463407D01*
X101347246Y-99441009D01*
X101346429Y-99411756D01*
X101352113Y-99356363D01*
X101545000Y-99356363D01*
X101564911Y-99373777D01*
X101614521Y-99399872D01*
X101615976Y-99400610D01*
X101674506Y-99428483D01*
X101726868Y-99450719D01*
X101760086Y-99460126D01*
X101773410Y-99447552D01*
X101775846Y-99404468D01*
X101765724Y-99350847D01*
X101730631Y-99302119D01*
X101679823Y-99276856D01*
X101623181Y-99279406D01*
X101570584Y-99314120D01*
X101549910Y-99338107D01*
X101545000Y-99356363D01*
X101352113Y-99356363D01*
X101353622Y-99341654D01*
X101389184Y-99246412D01*
X101448714Y-99171567D01*
X101525746Y-99119745D01*
X101613815Y-99093573D01*
X101706454Y-99095676D01*
X101797198Y-99128681D01*
X101879579Y-99195215D01*
X101925222Y-99261055D01*
X101958008Y-99355036D01*
X101963339Y-99404468D01*
X101970787Y-99473536D01*
X101964574Y-99621643D01*
G36*
X97247998Y-99144034D02*
G01*
X97290850Y-99160829D01*
X97340615Y-99183503D01*
X97340615Y-99838533D01*
X97278785Y-99900363D01*
X97264662Y-99914228D01*
X97225536Y-99945046D01*
X97186078Y-99955028D01*
X97127362Y-99950433D01*
X97103456Y-99947462D01*
X97041801Y-99941176D01*
X96998692Y-99938672D01*
X96985905Y-99939055D01*
X96933446Y-99943200D01*
X96870022Y-99950433D01*
X96849730Y-99952918D01*
X96798610Y-99953895D01*
X96761207Y-99938462D01*
X96718599Y-99900363D01*
X96656769Y-99838533D01*
X96656769Y-99488343D01*
X96657251Y-99384857D01*
X96658753Y-99286192D01*
X96661089Y-99208068D01*
X96664071Y-99156662D01*
X96667509Y-99138154D01*
X96668230Y-99138204D01*
X96693203Y-99147413D01*
X96735399Y-99167707D01*
X96792549Y-99197261D01*
X96797928Y-99504746D01*
X96803308Y-99812231D01*
X96920539Y-99812231D01*
X96925885Y-99475192D01*
X96927579Y-99383574D01*
X96930005Y-99285649D01*
X96932634Y-99207906D01*
X96935246Y-99156642D01*
X96937623Y-99138154D01*
X96938306Y-99138219D01*
X96961996Y-99145020D01*
X97005546Y-99159604D01*
X97067077Y-99181054D01*
X97067376Y-99477104D01*
X97067676Y-99528532D01*
X97069754Y-99628466D01*
X97073470Y-99711925D01*
X97078430Y-99771377D01*
X97084240Y-99799287D01*
X97105024Y-99814214D01*
X97147440Y-99818825D01*
X97194077Y-99812231D01*
X97199423Y-99475192D01*
X97201336Y-99389546D01*
X97205303Y-99288172D01*
X97210491Y-99208655D01*
X97216499Y-99156736D01*
X97222927Y-99138154D01*
X97247998Y-99144034D01*
G37*
X97247998Y-99144034D02*
X97290850Y-99160829D01*
X97340615Y-99183503D01*
X97340615Y-99838533D01*
X97278785Y-99900363D01*
X97264662Y-99914228D01*
X97225536Y-99945046D01*
X97186078Y-99955028D01*
X97127362Y-99950433D01*
X97103456Y-99947462D01*
X97041801Y-99941176D01*
X96998692Y-99938672D01*
X96985905Y-99939055D01*
X96933446Y-99943200D01*
X96870022Y-99950433D01*
X96849730Y-99952918D01*
X96798610Y-99953895D01*
X96761207Y-99938462D01*
X96718599Y-99900363D01*
X96656769Y-99838533D01*
X96656769Y-99488343D01*
X96657251Y-99384857D01*
X96658753Y-99286192D01*
X96661089Y-99208068D01*
X96664071Y-99156662D01*
X96667509Y-99138154D01*
X96668230Y-99138204D01*
X96693203Y-99147413D01*
X96735399Y-99167707D01*
X96792549Y-99197261D01*
X96797928Y-99504746D01*
X96803308Y-99812231D01*
X96920539Y-99812231D01*
X96925885Y-99475192D01*
X96927579Y-99383574D01*
X96930005Y-99285649D01*
X96932634Y-99207906D01*
X96935246Y-99156642D01*
X96937623Y-99138154D01*
X96938306Y-99138219D01*
X96961996Y-99145020D01*
X97005546Y-99159604D01*
X97067077Y-99181054D01*
X97067376Y-99477104D01*
X97067676Y-99528532D01*
X97069754Y-99628466D01*
X97073470Y-99711925D01*
X97078430Y-99771377D01*
X97084240Y-99799287D01*
X97105024Y-99814214D01*
X97147440Y-99818825D01*
X97194077Y-99812231D01*
X97199423Y-99475192D01*
X97201336Y-99389546D01*
X97205303Y-99288172D01*
X97210491Y-99208655D01*
X97216499Y-99156736D01*
X97222927Y-99138154D01*
X97247998Y-99144034D01*
G36*
X96323936Y-99139911D02*
G01*
X96365807Y-99150547D01*
X96404791Y-99177062D01*
X96454965Y-99226420D01*
X96487232Y-99261279D01*
X96520844Y-99306534D01*
X96536003Y-99348951D01*
X96539539Y-99402768D01*
X96539539Y-99490850D01*
X96479470Y-99459787D01*
X96431867Y-99421936D01*
X96399261Y-99370950D01*
X96393661Y-99357088D01*
X96350992Y-99303358D01*
X96291707Y-99276417D01*
X96227061Y-99279039D01*
X96168308Y-99314000D01*
X96143450Y-99342394D01*
X96128970Y-99378718D01*
X96144470Y-99411046D01*
X96192667Y-99443565D01*
X96276274Y-99480461D01*
X96288962Y-99485557D01*
X96365078Y-99518907D01*
X96430396Y-99551793D01*
X96471953Y-99577769D01*
X96513576Y-99624167D01*
X96541247Y-99698211D01*
X96538310Y-99777670D01*
X96505571Y-99852868D01*
X96443841Y-99914131D01*
X96393858Y-99940210D01*
X96297303Y-99958470D01*
X96243647Y-99956007D01*
X96193976Y-99942687D01*
X96174919Y-99914739D01*
X96182045Y-99868710D01*
X96184118Y-99862624D01*
X96200556Y-99830349D01*
X96227926Y-99818133D01*
X96280068Y-99818950D01*
X96316884Y-99820061D01*
X96359961Y-99810528D01*
X96389475Y-99782026D01*
X96406286Y-99746935D01*
X96408161Y-99710175D01*
X96408074Y-99709961D01*
X96386279Y-99690098D01*
X96339632Y-99661192D01*
X96279278Y-99628886D01*
X96216360Y-99598823D01*
X96162023Y-99576646D01*
X96127410Y-99568000D01*
X96122260Y-99576467D01*
X96115778Y-99616309D01*
X96111339Y-99681371D01*
X96109692Y-99763385D01*
X96109309Y-99820153D01*
X96107505Y-99891648D01*
X96104558Y-99940610D01*
X96100843Y-99958769D01*
X96081424Y-99952667D01*
X96042227Y-99936095D01*
X95992462Y-99913420D01*
X95992462Y-99622509D01*
X95992780Y-99547940D01*
X95995789Y-99434701D01*
X96003454Y-99350692D01*
X96017562Y-99289520D01*
X96039899Y-99244795D01*
X96072253Y-99210124D01*
X96116410Y-99179117D01*
X96172667Y-99153528D01*
X96276540Y-99138154D01*
X96323936Y-99139911D01*
G37*
X96323936Y-99139911D02*
X96365807Y-99150547D01*
X96404791Y-99177062D01*
X96454965Y-99226420D01*
X96487232Y-99261279D01*
X96520844Y-99306534D01*
X96536003Y-99348951D01*
X96539539Y-99402768D01*
X96539539Y-99490850D01*
X96479470Y-99459787D01*
X96431867Y-99421936D01*
X96399261Y-99370950D01*
X96393661Y-99357088D01*
X96350992Y-99303358D01*
X96291707Y-99276417D01*
X96227061Y-99279039D01*
X96168308Y-99314000D01*
X96143450Y-99342394D01*
X96128970Y-99378718D01*
X96144470Y-99411046D01*
X96192667Y-99443565D01*
X96276274Y-99480461D01*
X96288962Y-99485557D01*
X96365078Y-99518907D01*
X96430396Y-99551793D01*
X96471953Y-99577769D01*
X96513576Y-99624167D01*
X96541247Y-99698211D01*
X96538310Y-99777670D01*
X96505571Y-99852868D01*
X96443841Y-99914131D01*
X96393858Y-99940210D01*
X96297303Y-99958470D01*
X96243647Y-99956007D01*
X96193976Y-99942687D01*
X96174919Y-99914739D01*
X96182045Y-99868710D01*
X96184118Y-99862624D01*
X96200556Y-99830349D01*
X96227926Y-99818133D01*
X96280068Y-99818950D01*
X96316884Y-99820061D01*
X96359961Y-99810528D01*
X96389475Y-99782026D01*
X96406286Y-99746935D01*
X96408161Y-99710175D01*
X96408074Y-99709961D01*
X96386279Y-99690098D01*
X96339632Y-99661192D01*
X96279278Y-99628886D01*
X96216360Y-99598823D01*
X96162023Y-99576646D01*
X96127410Y-99568000D01*
X96122260Y-99576467D01*
X96115778Y-99616309D01*
X96111339Y-99681371D01*
X96109692Y-99763385D01*
X96109309Y-99820153D01*
X96107505Y-99891648D01*
X96104558Y-99940610D01*
X96100843Y-99958769D01*
X96081424Y-99952667D01*
X96042227Y-99936095D01*
X95992462Y-99913420D01*
X95992462Y-99622509D01*
X95992780Y-99547940D01*
X95995789Y-99434701D01*
X96003454Y-99350692D01*
X96017562Y-99289520D01*
X96039899Y-99244795D01*
X96072253Y-99210124D01*
X96116410Y-99179117D01*
X96172667Y-99153528D01*
X96276540Y-99138154D01*
X96323936Y-99139911D01*
G36*
X95671501Y-99146476D02*
G01*
X95752167Y-99176440D01*
X95785714Y-99198954D01*
X95819687Y-99231212D01*
X95843919Y-99272246D01*
X95860001Y-99328108D01*
X95869521Y-99404851D01*
X95874068Y-99508525D01*
X95875231Y-99645184D01*
X95875003Y-99715805D01*
X95873860Y-99812308D01*
X95871919Y-99889323D01*
X95869365Y-99940319D01*
X95866381Y-99958769D01*
X95846962Y-99952667D01*
X95807766Y-99936095D01*
X95806589Y-99935558D01*
X95786235Y-99924903D01*
X95772546Y-99910282D01*
X95764199Y-99884673D01*
X95759874Y-99841054D01*
X95758248Y-99772403D01*
X95758000Y-99671698D01*
X95757500Y-99607813D01*
X95752164Y-99487751D01*
X95739945Y-99399809D01*
X95719552Y-99339375D01*
X95689695Y-99301836D01*
X95649082Y-99282581D01*
X95643448Y-99281239D01*
X95567378Y-99280191D01*
X95508052Y-99314271D01*
X95467077Y-99382598D01*
X95459770Y-99402351D01*
X95443114Y-99446066D01*
X95434679Y-99466155D01*
X95417356Y-99463387D01*
X95379525Y-99448365D01*
X95344240Y-99423556D01*
X95328154Y-99376670D01*
X95332952Y-99343087D01*
X95362431Y-99274967D01*
X95410098Y-99211134D01*
X95465839Y-99166988D01*
X95489193Y-99156782D01*
X95577619Y-99139718D01*
X95671501Y-99146476D01*
G37*
X95671501Y-99146476D02*
X95752167Y-99176440D01*
X95785714Y-99198954D01*
X95819687Y-99231212D01*
X95843919Y-99272246D01*
X95860001Y-99328108D01*
X95869521Y-99404851D01*
X95874068Y-99508525D01*
X95875231Y-99645184D01*
X95875003Y-99715805D01*
X95873860Y-99812308D01*
X95871919Y-99889323D01*
X95869365Y-99940319D01*
X95866381Y-99958769D01*
X95846962Y-99952667D01*
X95807766Y-99936095D01*
X95806589Y-99935558D01*
X95786235Y-99924903D01*
X95772546Y-99910282D01*
X95764199Y-99884673D01*
X95759874Y-99841054D01*
X95758248Y-99772403D01*
X95758000Y-99671698D01*
X95757500Y-99607813D01*
X95752164Y-99487751D01*
X95739945Y-99399809D01*
X95719552Y-99339375D01*
X95689695Y-99301836D01*
X95649082Y-99282581D01*
X95643448Y-99281239D01*
X95567378Y-99280191D01*
X95508052Y-99314271D01*
X95467077Y-99382598D01*
X95459770Y-99402351D01*
X95443114Y-99446066D01*
X95434679Y-99466155D01*
X95417356Y-99463387D01*
X95379525Y-99448365D01*
X95344240Y-99423556D01*
X95328154Y-99376670D01*
X95332952Y-99343087D01*
X95362431Y-99274967D01*
X95410098Y-99211134D01*
X95465839Y-99166988D01*
X95489193Y-99156782D01*
X95577619Y-99139718D01*
X95671501Y-99146476D01*
G36*
X102709763Y-99768269D02*
G01*
X102710300Y-99811802D01*
X102712019Y-99957344D01*
X102712365Y-100068711D01*
X102710277Y-100149804D01*
X102704698Y-100204522D01*
X102694567Y-100236761D01*
X102678826Y-100250422D01*
X102656417Y-100249403D01*
X102626280Y-100237603D01*
X102587355Y-100218920D01*
X102579038Y-100214933D01*
X102544402Y-100195419D01*
X102526314Y-100172202D01*
X102519392Y-100133492D01*
X102518256Y-100067497D01*
X102518205Y-99949000D01*
X102396141Y-99949000D01*
X102321055Y-99945712D01*
X102262015Y-99932377D01*
X102212986Y-99905423D01*
X102209330Y-99902788D01*
X102159581Y-99858286D01*
X102124959Y-99804523D01*
X102103123Y-99734154D01*
X102091737Y-99639830D01*
X102088959Y-99533271D01*
X102283846Y-99533271D01*
X102283880Y-99551131D01*
X102285735Y-99631748D01*
X102291693Y-99684447D01*
X102303506Y-99718668D01*
X102322923Y-99743846D01*
X102324133Y-99745049D01*
X102371858Y-99777628D01*
X102418110Y-99774417D01*
X102470350Y-99734965D01*
X102483128Y-99721482D01*
X102501949Y-99693837D01*
X102512562Y-99657880D01*
X102517252Y-99603364D01*
X102518308Y-99520042D01*
X102517394Y-99469598D01*
X102507477Y-99377857D01*
X102484842Y-99317752D01*
X102447238Y-99284900D01*
X102392416Y-99274923D01*
X102369317Y-99277050D01*
X102329350Y-99298147D01*
X102302926Y-99345161D01*
X102288330Y-99422175D01*
X102283846Y-99533271D01*
X102088959Y-99533271D01*
X102088462Y-99514206D01*
X102089187Y-99422536D01*
X102092490Y-99353098D01*
X102099828Y-99304945D01*
X102112655Y-99268866D01*
X102132423Y-99235648D01*
X102150569Y-99210261D01*
X102216461Y-99141727D01*
X102291114Y-99104505D01*
X102384904Y-99092722D01*
X102492240Y-99104467D01*
X102585031Y-99146595D01*
X102658421Y-99220898D01*
X102663954Y-99228764D01*
X102676857Y-99249668D01*
X102686742Y-99273555D01*
X102694093Y-99305582D01*
X102699394Y-99350905D01*
X102703127Y-99414679D01*
X102705778Y-99502060D01*
X102706096Y-99520042D01*
X102707828Y-99618205D01*
X102709763Y-99768269D01*
G37*
X102709763Y-99768269D02*
X102710300Y-99811802D01*
X102712019Y-99957344D01*
X102712365Y-100068711D01*
X102710277Y-100149804D01*
X102704698Y-100204522D01*
X102694567Y-100236761D01*
X102678826Y-100250422D01*
X102656417Y-100249403D01*
X102626280Y-100237603D01*
X102587355Y-100218920D01*
X102579038Y-100214933D01*
X102544402Y-100195419D01*
X102526314Y-100172202D01*
X102519392Y-100133492D01*
X102518256Y-100067497D01*
X102518205Y-99949000D01*
X102396141Y-99949000D01*
X102321055Y-99945712D01*
X102262015Y-99932377D01*
X102212986Y-99905423D01*
X102209330Y-99902788D01*
X102159581Y-99858286D01*
X102124959Y-99804523D01*
X102103123Y-99734154D01*
X102091737Y-99639830D01*
X102088959Y-99533271D01*
X102283846Y-99533271D01*
X102283880Y-99551131D01*
X102285735Y-99631748D01*
X102291693Y-99684447D01*
X102303506Y-99718668D01*
X102322923Y-99743846D01*
X102324133Y-99745049D01*
X102371858Y-99777628D01*
X102418110Y-99774417D01*
X102470350Y-99734965D01*
X102483128Y-99721482D01*
X102501949Y-99693837D01*
X102512562Y-99657880D01*
X102517252Y-99603364D01*
X102518308Y-99520042D01*
X102517394Y-99469598D01*
X102507477Y-99377857D01*
X102484842Y-99317752D01*
X102447238Y-99284900D01*
X102392416Y-99274923D01*
X102369317Y-99277050D01*
X102329350Y-99298147D01*
X102302926Y-99345161D01*
X102288330Y-99422175D01*
X102283846Y-99533271D01*
X102088959Y-99533271D01*
X102088462Y-99514206D01*
X102089187Y-99422536D01*
X102092490Y-99353098D01*
X102099828Y-99304945D01*
X102112655Y-99268866D01*
X102132423Y-99235648D01*
X102150569Y-99210261D01*
X102216461Y-99141727D01*
X102291114Y-99104505D01*
X102384904Y-99092722D01*
X102492240Y-99104467D01*
X102585031Y-99146595D01*
X102658421Y-99220898D01*
X102663954Y-99228764D01*
X102676857Y-99249668D01*
X102686742Y-99273555D01*
X102694093Y-99305582D01*
X102699394Y-99350905D01*
X102703127Y-99414679D01*
X102705778Y-99502060D01*
X102706096Y-99520042D01*
X102707828Y-99618205D01*
X102709763Y-99768269D01*
G36*
X99077575Y-92807693D02*
G01*
X99213371Y-92807807D01*
X99315576Y-92808472D01*
X99389122Y-92810182D01*
X99438942Y-92813429D01*
X99469967Y-92818706D01*
X99487129Y-92826507D01*
X99495361Y-92837325D01*
X99499594Y-92851654D01*
X99499716Y-92852168D01*
X99506672Y-92885851D01*
X99519320Y-92950917D01*
X99536360Y-93040542D01*
X99556496Y-93147904D01*
X99578429Y-93266178D01*
X99580218Y-93275856D01*
X99602083Y-93390650D01*
X99622430Y-93491480D01*
X99639934Y-93572217D01*
X99653271Y-93626734D01*
X99661116Y-93648901D01*
X99661158Y-93648936D01*
X99685884Y-93661200D01*
X99736631Y-93681576D01*
X99802462Y-93705674D01*
X99806169Y-93706983D01*
X99890331Y-93738791D01*
X99988230Y-93778685D01*
X100079435Y-93818353D01*
X100229407Y-93886420D01*
X100561499Y-93659639D01*
X100584889Y-93643688D01*
X100685080Y-93575890D01*
X100774480Y-93516208D01*
X100847745Y-93468156D01*
X100899527Y-93435250D01*
X100924480Y-93421004D01*
X100941577Y-93424270D01*
X100980395Y-93449571D01*
X101040385Y-93499675D01*
X101123210Y-93575989D01*
X101230535Y-93679922D01*
X101240139Y-93689382D01*
X101325302Y-93774145D01*
X101400949Y-93850937D01*
X101462449Y-93914947D01*
X101505173Y-93961361D01*
X101524489Y-93985369D01*
X101524552Y-93985485D01*
X101527006Y-94003763D01*
X101517956Y-94033411D01*
X101495119Y-94078486D01*
X101456213Y-94143044D01*
X101398954Y-94231140D01*
X101321059Y-94346830D01*
X101307785Y-94366357D01*
X101240652Y-94465278D01*
X101181410Y-94552848D01*
X101133588Y-94623831D01*
X101100715Y-94672991D01*
X101086318Y-94695095D01*
X101085232Y-94699777D01*
X101092044Y-94734710D01*
X101112450Y-94791753D01*
X101143123Y-94861172D01*
X101184808Y-94951959D01*
X101231352Y-95059686D01*
X101270877Y-95157192D01*
X101280676Y-95182430D01*
X101306340Y-95246870D01*
X101325193Y-95291763D01*
X101333710Y-95308616D01*
X101343111Y-95309875D01*
X101385363Y-95317159D01*
X101454521Y-95329739D01*
X101543387Y-95346246D01*
X101644768Y-95365312D01*
X101751467Y-95385569D01*
X101856288Y-95405647D01*
X101952036Y-95424179D01*
X102031516Y-95439795D01*
X102087530Y-95451127D01*
X102112885Y-95456807D01*
X102117088Y-95458408D01*
X102127334Y-95467045D01*
X102134957Y-95485433D01*
X102140338Y-95518460D01*
X102143859Y-95571013D01*
X102145901Y-95647979D01*
X102146847Y-95754246D01*
X102147077Y-95894701D01*
X102147077Y-96321845D01*
X102044500Y-96342091D01*
X102032092Y-96344518D01*
X101966199Y-96357088D01*
X101875084Y-96374170D01*
X101769104Y-96393829D01*
X101658615Y-96414132D01*
X101615105Y-96422299D01*
X101517882Y-96442167D01*
X101436858Y-96460954D01*
X101379477Y-96476859D01*
X101353187Y-96488079D01*
X101341273Y-96506411D01*
X101319583Y-96554916D01*
X101297395Y-96617692D01*
X101289585Y-96641200D01*
X101260835Y-96718366D01*
X101223752Y-96809694D01*
X101184375Y-96900093D01*
X101163315Y-96947310D01*
X101133311Y-97017837D01*
X101112692Y-97070655D01*
X101105026Y-97096912D01*
X101105452Y-97098894D01*
X101119993Y-97126751D01*
X101152783Y-97180510D01*
X101200493Y-97254963D01*
X101259798Y-97344897D01*
X101327369Y-97445104D01*
X101549713Y-97771416D01*
X101257601Y-98064016D01*
X101229349Y-98092171D01*
X101142961Y-98176449D01*
X101065756Y-98249128D01*
X101002258Y-98306112D01*
X100956990Y-98343307D01*
X100934474Y-98356616D01*
X100910023Y-98346490D01*
X100858819Y-98317421D01*
X100786747Y-98272896D01*
X100699460Y-98216411D01*
X100602612Y-98151462D01*
X100507486Y-98087314D01*
X100421669Y-98030827D01*
X100351652Y-97986184D01*
X100302876Y-97956855D01*
X100280783Y-97946308D01*
X100279488Y-97946404D01*
X100250139Y-97956802D01*
X100198093Y-97981012D01*
X100133708Y-98014249D01*
X100133032Y-98014613D01*
X100047521Y-98057441D01*
X99988926Y-98078365D01*
X99952571Y-98078423D01*
X99933775Y-98058654D01*
X99925819Y-98039195D01*
X99904347Y-97987080D01*
X99871273Y-97906964D01*
X99828356Y-97803107D01*
X99777356Y-97679767D01*
X99720033Y-97541201D01*
X99658146Y-97391670D01*
X99602052Y-97255636D01*
X99544977Y-97116050D01*
X99494479Y-96991315D01*
X99452254Y-96885672D01*
X99419995Y-96803365D01*
X99399397Y-96748635D01*
X99392154Y-96725726D01*
X99405986Y-96704718D01*
X99444412Y-96669642D01*
X99498807Y-96628887D01*
X99629395Y-96522267D01*
X99746260Y-96386025D01*
X99831780Y-96236118D01*
X99885431Y-96076971D01*
X99906684Y-95913012D01*
X99895014Y-95748667D01*
X99849894Y-95588361D01*
X99770797Y-95436520D01*
X99657197Y-95297572D01*
X99597965Y-95243460D01*
X99456054Y-95147782D01*
X99304206Y-95085405D01*
X99146861Y-95054844D01*
X98988456Y-95054615D01*
X98833429Y-95083232D01*
X98686220Y-95139210D01*
X98551266Y-95221064D01*
X98433005Y-95327309D01*
X98335877Y-95456459D01*
X98264318Y-95607031D01*
X98222769Y-95777539D01*
X98215143Y-95859722D01*
X98225634Y-96037775D01*
X98272882Y-96206704D01*
X98355489Y-96363522D01*
X98472059Y-96505245D01*
X98621193Y-96628887D01*
X98673561Y-96667982D01*
X98712832Y-96703443D01*
X98727846Y-96725692D01*
X98721859Y-96745088D01*
X98702432Y-96797059D01*
X98671194Y-96877002D01*
X98629839Y-96980673D01*
X98580061Y-97103832D01*
X98523553Y-97242234D01*
X98462009Y-97391637D01*
X98406008Y-97527020D01*
X98348184Y-97666852D01*
X98296500Y-97791872D01*
X98252718Y-97897822D01*
X98218597Y-97980441D01*
X98195898Y-98035472D01*
X98186380Y-98058654D01*
X98186269Y-98058928D01*
X98167228Y-98078503D01*
X98130694Y-98078279D01*
X98071954Y-98057210D01*
X97986292Y-98014249D01*
X97979549Y-98010631D01*
X97915938Y-97978087D01*
X97865707Y-97955050D01*
X97839218Y-97946308D01*
X97817506Y-97956639D01*
X97768984Y-97985788D01*
X97699163Y-98030287D01*
X97613484Y-98086668D01*
X97517388Y-98151462D01*
X97422706Y-98214984D01*
X97335132Y-98271705D01*
X97262642Y-98316547D01*
X97210889Y-98346016D01*
X97185526Y-98356616D01*
X97181206Y-98355270D01*
X97151092Y-98334056D01*
X97099640Y-98290237D01*
X97031375Y-98227909D01*
X96950820Y-98151170D01*
X96862500Y-98064116D01*
X96570488Y-97771617D01*
X97025360Y-97102525D01*
X96956208Y-96952916D01*
X96956003Y-96952473D01*
X96914477Y-96857101D01*
X96872044Y-96750896D01*
X96837858Y-96656769D01*
X96832684Y-96641588D01*
X96806601Y-96571109D01*
X96783081Y-96516342D01*
X96766677Y-96488079D01*
X96759996Y-96484088D01*
X96719892Y-96470697D01*
X96651795Y-96453373D01*
X96563145Y-96433917D01*
X96461385Y-96414132D01*
X96430904Y-96408551D01*
X96320628Y-96388233D01*
X96217731Y-96369095D01*
X96132569Y-96353070D01*
X96075500Y-96342091D01*
X95972923Y-96321845D01*
X95972923Y-95894701D01*
X95972946Y-95842180D01*
X95973379Y-95714047D01*
X95974659Y-95618420D01*
X95977168Y-95550411D01*
X95981286Y-95505133D01*
X95987395Y-95477697D01*
X95995878Y-95463218D01*
X96007115Y-95456807D01*
X96017994Y-95454209D01*
X96062347Y-95445022D01*
X96133106Y-95430991D01*
X96223074Y-95413486D01*
X96325056Y-95393874D01*
X96431857Y-95373525D01*
X96536281Y-95353807D01*
X96631132Y-95336089D01*
X96709214Y-95321738D01*
X96763332Y-95312124D01*
X96786291Y-95308616D01*
X96787842Y-95306497D01*
X96800325Y-95279006D01*
X96821927Y-95226406D01*
X96849123Y-95157192D01*
X96886866Y-95063937D01*
X96933328Y-94956159D01*
X96976878Y-94861172D01*
X96986858Y-94839851D01*
X97014862Y-94773086D01*
X97031641Y-94721590D01*
X97033854Y-94695095D01*
X97032713Y-94693218D01*
X97014584Y-94665565D01*
X96978644Y-94611849D01*
X96928418Y-94537303D01*
X96867430Y-94447162D01*
X96799205Y-94346657D01*
X96722330Y-94232470D01*
X96664663Y-94143770D01*
X96625426Y-94078721D01*
X96602350Y-94033295D01*
X96593166Y-94003463D01*
X96595604Y-93985195D01*
X96596424Y-93983825D01*
X96618477Y-93957205D01*
X96663436Y-93908697D01*
X96726673Y-93843108D01*
X96803559Y-93765247D01*
X96889465Y-93679922D01*
X96978579Y-93593334D01*
X97065872Y-93511947D01*
X97130018Y-93457035D01*
X97172679Y-93427190D01*
X97195521Y-93421004D01*
X97198505Y-93422394D01*
X97229936Y-93441127D01*
X97286997Y-93477733D01*
X97364343Y-93528697D01*
X97456626Y-93590504D01*
X97558502Y-93659639D01*
X97890593Y-93886420D01*
X98040566Y-93818353D01*
X98044923Y-93816381D01*
X98137000Y-93776491D01*
X98234683Y-93736818D01*
X98317539Y-93705674D01*
X98317905Y-93705545D01*
X98383685Y-93681456D01*
X98434323Y-93661110D01*
X98458884Y-93648901D01*
X98459282Y-93648458D01*
X98467619Y-93623456D01*
X98481341Y-93566598D01*
X98499123Y-93484014D01*
X98519641Y-93381831D01*
X98541571Y-93266178D01*
X98542336Y-93262033D01*
X98564229Y-93144019D01*
X98584281Y-93037151D01*
X98601192Y-92948252D01*
X98613667Y-92884145D01*
X98620406Y-92851654D01*
X98620837Y-92849853D01*
X98625273Y-92835944D01*
X98634263Y-92825489D01*
X98652737Y-92817996D01*
X98685628Y-92812972D01*
X98737868Y-92809922D01*
X98814388Y-92808355D01*
X98920122Y-92807776D01*
X99060000Y-92807692D01*
X99077575Y-92807693D01*
G37*
X99077575Y-92807693D02*
X99213371Y-92807807D01*
X99315576Y-92808472D01*
X99389122Y-92810182D01*
X99438942Y-92813429D01*
X99469967Y-92818706D01*
X99487129Y-92826507D01*
X99495361Y-92837325D01*
X99499594Y-92851654D01*
X99499716Y-92852168D01*
X99506672Y-92885851D01*
X99519320Y-92950917D01*
X99536360Y-93040542D01*
X99556496Y-93147904D01*
X99578429Y-93266178D01*
X99580218Y-93275856D01*
X99602083Y-93390650D01*
X99622430Y-93491480D01*
X99639934Y-93572217D01*
X99653271Y-93626734D01*
X99661116Y-93648901D01*
X99661158Y-93648936D01*
X99685884Y-93661200D01*
X99736631Y-93681576D01*
X99802462Y-93705674D01*
X99806169Y-93706983D01*
X99890331Y-93738791D01*
X99988230Y-93778685D01*
X100079435Y-93818353D01*
X100229407Y-93886420D01*
X100561499Y-93659639D01*
X100584889Y-93643688D01*
X100685080Y-93575890D01*
X100774480Y-93516208D01*
X100847745Y-93468156D01*
X100899527Y-93435250D01*
X100924480Y-93421004D01*
X100941577Y-93424270D01*
X100980395Y-93449571D01*
X101040385Y-93499675D01*
X101123210Y-93575989D01*
X101230535Y-93679922D01*
X101240139Y-93689382D01*
X101325302Y-93774145D01*
X101400949Y-93850937D01*
X101462449Y-93914947D01*
X101505173Y-93961361D01*
X101524489Y-93985369D01*
X101524552Y-93985485D01*
X101527006Y-94003763D01*
X101517956Y-94033411D01*
X101495119Y-94078486D01*
X101456213Y-94143044D01*
X101398954Y-94231140D01*
X101321059Y-94346830D01*
X101307785Y-94366357D01*
X101240652Y-94465278D01*
X101181410Y-94552848D01*
X101133588Y-94623831D01*
X101100715Y-94672991D01*
X101086318Y-94695095D01*
X101085232Y-94699777D01*
X101092044Y-94734710D01*
X101112450Y-94791753D01*
X101143123Y-94861172D01*
X101184808Y-94951959D01*
X101231352Y-95059686D01*
X101270877Y-95157192D01*
X101280676Y-95182430D01*
X101306340Y-95246870D01*
X101325193Y-95291763D01*
X101333710Y-95308616D01*
X101343111Y-95309875D01*
X101385363Y-95317159D01*
X101454521Y-95329739D01*
X101543387Y-95346246D01*
X101644768Y-95365312D01*
X101751467Y-95385569D01*
X101856288Y-95405647D01*
X101952036Y-95424179D01*
X102031516Y-95439795D01*
X102087530Y-95451127D01*
X102112885Y-95456807D01*
X102117088Y-95458408D01*
X102127334Y-95467045D01*
X102134957Y-95485433D01*
X102140338Y-95518460D01*
X102143859Y-95571013D01*
X102145901Y-95647979D01*
X102146847Y-95754246D01*
X102147077Y-95894701D01*
X102147077Y-96321845D01*
X102044500Y-96342091D01*
X102032092Y-96344518D01*
X101966199Y-96357088D01*
X101875084Y-96374170D01*
X101769104Y-96393829D01*
X101658615Y-96414132D01*
X101615105Y-96422299D01*
X101517882Y-96442167D01*
X101436858Y-96460954D01*
X101379477Y-96476859D01*
X101353187Y-96488079D01*
X101341273Y-96506411D01*
X101319583Y-96554916D01*
X101297395Y-96617692D01*
X101289585Y-96641200D01*
X101260835Y-96718366D01*
X101223752Y-96809694D01*
X101184375Y-96900093D01*
X101163315Y-96947310D01*
X101133311Y-97017837D01*
X101112692Y-97070655D01*
X101105026Y-97096912D01*
X101105452Y-97098894D01*
X101119993Y-97126751D01*
X101152783Y-97180510D01*
X101200493Y-97254963D01*
X101259798Y-97344897D01*
X101327369Y-97445104D01*
X101549713Y-97771416D01*
X101257601Y-98064016D01*
X101229349Y-98092171D01*
X101142961Y-98176449D01*
X101065756Y-98249128D01*
X101002258Y-98306112D01*
X100956990Y-98343307D01*
X100934474Y-98356616D01*
X100910023Y-98346490D01*
X100858819Y-98317421D01*
X100786747Y-98272896D01*
X100699460Y-98216411D01*
X100602612Y-98151462D01*
X100507486Y-98087314D01*
X100421669Y-98030827D01*
X100351652Y-97986184D01*
X100302876Y-97956855D01*
X100280783Y-97946308D01*
X100279488Y-97946404D01*
X100250139Y-97956802D01*
X100198093Y-97981012D01*
X100133708Y-98014249D01*
X100133032Y-98014613D01*
X100047521Y-98057441D01*
X99988926Y-98078365D01*
X99952571Y-98078423D01*
X99933775Y-98058654D01*
X99925819Y-98039195D01*
X99904347Y-97987080D01*
X99871273Y-97906964D01*
X99828356Y-97803107D01*
X99777356Y-97679767D01*
X99720033Y-97541201D01*
X99658146Y-97391670D01*
X99602052Y-97255636D01*
X99544977Y-97116050D01*
X99494479Y-96991315D01*
X99452254Y-96885672D01*
X99419995Y-96803365D01*
X99399397Y-96748635D01*
X99392154Y-96725726D01*
X99405986Y-96704718D01*
X99444412Y-96669642D01*
X99498807Y-96628887D01*
X99629395Y-96522267D01*
X99746260Y-96386025D01*
X99831780Y-96236118D01*
X99885431Y-96076971D01*
X99906684Y-95913012D01*
X99895014Y-95748667D01*
X99849894Y-95588361D01*
X99770797Y-95436520D01*
X99657197Y-95297572D01*
X99597965Y-95243460D01*
X99456054Y-95147782D01*
X99304206Y-95085405D01*
X99146861Y-95054844D01*
X98988456Y-95054615D01*
X98833429Y-95083232D01*
X98686220Y-95139210D01*
X98551266Y-95221064D01*
X98433005Y-95327309D01*
X98335877Y-95456459D01*
X98264318Y-95607031D01*
X98222769Y-95777539D01*
X98215143Y-95859722D01*
X98225634Y-96037775D01*
X98272882Y-96206704D01*
X98355489Y-96363522D01*
X98472059Y-96505245D01*
X98621193Y-96628887D01*
X98673561Y-96667982D01*
X98712832Y-96703443D01*
X98727846Y-96725692D01*
X98721859Y-96745088D01*
X98702432Y-96797059D01*
X98671194Y-96877002D01*
X98629839Y-96980673D01*
X98580061Y-97103832D01*
X98523553Y-97242234D01*
X98462009Y-97391637D01*
X98406008Y-97527020D01*
X98348184Y-97666852D01*
X98296500Y-97791872D01*
X98252718Y-97897822D01*
X98218597Y-97980441D01*
X98195898Y-98035472D01*
X98186380Y-98058654D01*
X98186269Y-98058928D01*
X98167228Y-98078503D01*
X98130694Y-98078279D01*
X98071954Y-98057210D01*
X97986292Y-98014249D01*
X97979549Y-98010631D01*
X97915938Y-97978087D01*
X97865707Y-97955050D01*
X97839218Y-97946308D01*
X97817506Y-97956639D01*
X97768984Y-97985788D01*
X97699163Y-98030287D01*
X97613484Y-98086668D01*
X97517388Y-98151462D01*
X97422706Y-98214984D01*
X97335132Y-98271705D01*
X97262642Y-98316547D01*
X97210889Y-98346016D01*
X97185526Y-98356616D01*
X97181206Y-98355270D01*
X97151092Y-98334056D01*
X97099640Y-98290237D01*
X97031375Y-98227909D01*
X96950820Y-98151170D01*
X96862500Y-98064116D01*
X96570488Y-97771617D01*
X97025360Y-97102525D01*
X96956208Y-96952916D01*
X96956003Y-96952473D01*
X96914477Y-96857101D01*
X96872044Y-96750896D01*
X96837858Y-96656769D01*
X96832684Y-96641588D01*
X96806601Y-96571109D01*
X96783081Y-96516342D01*
X96766677Y-96488079D01*
X96759996Y-96484088D01*
X96719892Y-96470697D01*
X96651795Y-96453373D01*
X96563145Y-96433917D01*
X96461385Y-96414132D01*
X96430904Y-96408551D01*
X96320628Y-96388233D01*
X96217731Y-96369095D01*
X96132569Y-96353070D01*
X96075500Y-96342091D01*
X95972923Y-96321845D01*
X95972923Y-95894701D01*
X95972946Y-95842180D01*
X95973379Y-95714047D01*
X95974659Y-95618420D01*
X95977168Y-95550411D01*
X95981286Y-95505133D01*
X95987395Y-95477697D01*
X95995878Y-95463218D01*
X96007115Y-95456807D01*
X96017994Y-95454209D01*
X96062347Y-95445022D01*
X96133106Y-95430991D01*
X96223074Y-95413486D01*
X96325056Y-95393874D01*
X96431857Y-95373525D01*
X96536281Y-95353807D01*
X96631132Y-95336089D01*
X96709214Y-95321738D01*
X96763332Y-95312124D01*
X96786291Y-95308616D01*
X96787842Y-95306497D01*
X96800325Y-95279006D01*
X96821927Y-95226406D01*
X96849123Y-95157192D01*
X96886866Y-95063937D01*
X96933328Y-94956159D01*
X96976878Y-94861172D01*
X96986858Y-94839851D01*
X97014862Y-94773086D01*
X97031641Y-94721590D01*
X97033854Y-94695095D01*
X97032713Y-94693218D01*
X97014584Y-94665565D01*
X96978644Y-94611849D01*
X96928418Y-94537303D01*
X96867430Y-94447162D01*
X96799205Y-94346657D01*
X96722330Y-94232470D01*
X96664663Y-94143770D01*
X96625426Y-94078721D01*
X96602350Y-94033295D01*
X96593166Y-94003463D01*
X96595604Y-93985195D01*
X96596424Y-93983825D01*
X96618477Y-93957205D01*
X96663436Y-93908697D01*
X96726673Y-93843108D01*
X96803559Y-93765247D01*
X96889465Y-93679922D01*
X96978579Y-93593334D01*
X97065872Y-93511947D01*
X97130018Y-93457035D01*
X97172679Y-93427190D01*
X97195521Y-93421004D01*
X97198505Y-93422394D01*
X97229936Y-93441127D01*
X97286997Y-93477733D01*
X97364343Y-93528697D01*
X97456626Y-93590504D01*
X97558502Y-93659639D01*
X97890593Y-93886420D01*
X98040566Y-93818353D01*
X98044923Y-93816381D01*
X98137000Y-93776491D01*
X98234683Y-93736818D01*
X98317539Y-93705674D01*
X98317905Y-93705545D01*
X98383685Y-93681456D01*
X98434323Y-93661110D01*
X98458884Y-93648901D01*
X98459282Y-93648458D01*
X98467619Y-93623456D01*
X98481341Y-93566598D01*
X98499123Y-93484014D01*
X98519641Y-93381831D01*
X98541571Y-93266178D01*
X98542336Y-93262033D01*
X98564229Y-93144019D01*
X98584281Y-93037151D01*
X98601192Y-92948252D01*
X98613667Y-92884145D01*
X98620406Y-92851654D01*
X98620837Y-92849853D01*
X98625273Y-92835944D01*
X98634263Y-92825489D01*
X98652737Y-92817996D01*
X98685628Y-92812972D01*
X98737868Y-92809922D01*
X98814388Y-92808355D01*
X98920122Y-92807776D01*
X99060000Y-92807692D01*
X99077575Y-92807693D01*
%TD*%
M02*
