%TF.GenerationSoftware,KiCad,Pcbnew,5.1.8+dfsg1-1+b1*%
%TF.CreationDate,2021-07-02T16:19:49-05:00*%
%TF.ProjectId,mqtt-thermocouple,6d717474-2d74-4686-9572-6d6f636f7570,A*%
%TF.SameCoordinates,Original*%
%TF.FileFunction,Copper,L2,Bot*%
%TF.FilePolarity,Positive*%
%FSLAX46Y46*%
G04 Gerber Fmt 4.6, Leading zero omitted, Abs format (unit mm)*
G04 Created by KiCad (PCBNEW 5.1.8+dfsg1-1+b1) date 2021-07-02 16:19:49*
%MOMM*%
%LPD*%
G01*
G04 APERTURE LIST*
%TA.AperFunction,ComponentPad*%
%ADD10O,1.900000X2.100000*%
%TD*%
%TA.AperFunction,ComponentPad*%
%ADD11R,1.900000X2.100000*%
%TD*%
%TA.AperFunction,ComponentPad*%
%ADD12C,1.524000*%
%TD*%
%TA.AperFunction,ComponentPad*%
%ADD13C,0.500000*%
%TD*%
%TA.AperFunction,ComponentPad*%
%ADD14C,1.600000*%
%TD*%
%TA.AperFunction,ComponentPad*%
%ADD15R,1.600000X1.600000*%
%TD*%
%TA.AperFunction,ComponentPad*%
%ADD16R,3.500000X3.500000*%
%TD*%
%TA.AperFunction,ViaPad*%
%ADD17C,0.800000*%
%TD*%
%TA.AperFunction,ViaPad*%
%ADD18C,0.635000*%
%TD*%
%TA.AperFunction,Conductor*%
%ADD19C,0.889000*%
%TD*%
%TA.AperFunction,Conductor*%
%ADD20C,0.381000*%
%TD*%
G04 APERTURE END LIST*
D10*
%TO.P,A1,11*%
%TO.N,GND*%
X93980000Y-50800000D03*
%TO.P,A1,10*%
X93980000Y-71120000D03*
%TO.P,A1,12*%
%TO.N,N/C*%
X96520000Y-50800000D03*
%TO.P,A1,9*%
X96520000Y-71120000D03*
%TO.P,A1,13*%
%TO.N,+3V3*%
X99060000Y-50800000D03*
%TO.P,A1,8*%
%TO.N,+5V*%
X99060000Y-71120000D03*
%TO.P,A1,14*%
%TO.N,Net-(A1-Pad14)*%
X101600000Y-50800000D03*
%TO.P,A1,7*%
%TO.N,MOSI*%
X101600000Y-71120000D03*
%TO.P,A1,15*%
%TO.N,N/C*%
X104140000Y-50800000D03*
%TO.P,A1,6*%
%TO.N,/display/~CS~*%
X104140000Y-71120000D03*
%TO.P,A1,16*%
%TO.N,N/C*%
X106680000Y-50800000D03*
%TO.P,A1,5*%
%TO.N,SCK*%
X106680000Y-71120000D03*
%TO.P,A1,17*%
%TO.N,SDA*%
X109220000Y-50800000D03*
%TO.P,A1,4*%
%TO.N,Net-(A1-Pad1)*%
X109220000Y-71120000D03*
%TO.P,A1,18*%
%TO.N,SCL*%
X111760000Y-50800000D03*
%TO.P,A1,3*%
%TO.N,N/C*%
X111760000Y-71120000D03*
%TO.P,A1,19*%
X114300000Y-50800000D03*
%TO.P,A1,2*%
X114300000Y-71120000D03*
%TO.P,A1,20*%
X116840000Y-50800000D03*
D11*
%TO.P,A1,1*%
%TO.N,Net-(A1-Pad1)*%
X116840000Y-71120000D03*
%TD*%
D12*
%TO.P,TC1,2*%
%TO.N,Net-(TC1-Pad2)*%
X59550300Y-93218000D03*
%TO.P,TC1,1*%
%TO.N,Net-(TC1-Pad1)*%
X67449700Y-93218000D03*
%TD*%
D13*
%TO.P,U1,30*%
%TO.N,Net-(U1-Pad21)*%
X77200000Y-93980000D03*
%TO.P,U1,29*%
X76200000Y-93980000D03*
%TO.P,U1,28*%
X75200000Y-93980000D03*
%TO.P,U1,27*%
X77200000Y-92980000D03*
%TO.P,U1,26*%
X76200000Y-92980000D03*
%TO.P,U1,24*%
X77200000Y-91980000D03*
%TO.P,U1,23*%
X76200000Y-91980000D03*
%TO.P,U1,22*%
X75200000Y-91980000D03*
%TO.P,U1,25*%
X75200000Y-92980000D03*
%TD*%
D14*
%TO.P,C1,2*%
%TO.N,GND*%
X60920000Y-59690000D03*
D15*
%TO.P,C1,1*%
%TO.N,Net-(C1-Pad1)*%
X58420000Y-59690000D03*
%TD*%
%TO.P,J1,3*%
%TO.N,N/C*%
%TA.AperFunction,ComponentPad*%
G36*
G01*
X57925000Y-48590000D02*
X59675000Y-48590000D01*
G75*
G02*
X60550000Y-49465000I0J-875000D01*
G01*
X60550000Y-51215000D01*
G75*
G02*
X59675000Y-52090000I-875000J0D01*
G01*
X57925000Y-52090000D01*
G75*
G02*
X57050000Y-51215000I0J875000D01*
G01*
X57050000Y-49465000D01*
G75*
G02*
X57925000Y-48590000I875000J0D01*
G01*
G37*
%TD.AperFunction*%
%TO.P,J1,2*%
%TO.N,GND*%
%TA.AperFunction,ComponentPad*%
G36*
G01*
X62500000Y-45840000D02*
X64500000Y-45840000D01*
G75*
G02*
X65250000Y-46590000I0J-750000D01*
G01*
X65250000Y-48090000D01*
G75*
G02*
X64500000Y-48840000I-750000J0D01*
G01*
X62500000Y-48840000D01*
G75*
G02*
X61750000Y-48090000I0J750000D01*
G01*
X61750000Y-46590000D01*
G75*
G02*
X62500000Y-45840000I750000J0D01*
G01*
G37*
%TD.AperFunction*%
D16*
%TO.P,J1,1*%
%TO.N,Net-(C1-Pad1)*%
X63500000Y-53340000D03*
%TD*%
D17*
%TO.N,+5V*%
X97790000Y-81280000D03*
D18*
%TO.N,/display/SEG2*%
X91059000Y-59055000D03*
X115316000Y-59055000D03*
X109093000Y-59055000D03*
X98806000Y-59055000D03*
%TO.N,/display/SEG3*%
X92499000Y-58377000D03*
X100076000Y-58420000D03*
X107696000Y-58420000D03*
X116840000Y-58420000D03*
%TO.N,/display/SEG0*%
X93929200Y-62865000D03*
X119761000Y-62865000D03*
X104444800Y-62865000D03*
X112115600Y-62865000D03*
%TO.N,/display/SEG8*%
X95351600Y-62230000D03*
X102997000Y-62230000D03*
X110617000Y-62230000D03*
X118364000Y-62230000D03*
%TO.N,/display/SEG7*%
X112014000Y-60960000D03*
X119634000Y-60960000D03*
X96799400Y-60960000D03*
X104394000Y-60960000D03*
%TO.N,/display/SEG1*%
X105410000Y-63500000D03*
X96799400Y-63500000D03*
X113030000Y-63500000D03*
X101600000Y-63500000D03*
%TO.N,/display/SEG6*%
X96139000Y-61595000D03*
X111379000Y-61595000D03*
X103759000Y-61595000D03*
X118999000Y-61595000D03*
%TO.N,/display/SEG5*%
X115443000Y-60325000D03*
X92506800Y-60325000D03*
X100203000Y-60325000D03*
X107696000Y-60325000D03*
%TO.N,/display/SEG4*%
X114681000Y-59690000D03*
X107061000Y-59690000D03*
X99441000Y-59690000D03*
X91821000Y-59690000D03*
D17*
%TO.N,+3V3*%
X75565000Y-97155000D03*
X73025000Y-57150000D03*
X79375000Y-54610000D03*
D18*
%TO.N,SDA*%
X76200000Y-85090000D03*
%TO.N,SCL*%
X78740000Y-83820000D03*
%TO.N,/display/SEG2*%
X122555000Y-59055000D03*
%TO.N,/display/SEG3*%
X126365000Y-59055000D03*
%TO.N,/display/SEG0*%
X122555000Y-62865000D03*
%TO.N,/display/SEG8*%
X127635000Y-62865000D03*
%TO.N,/display/SEG7*%
X131445000Y-61595000D03*
%TO.N,/display/SEG1*%
X126365000Y-63500000D03*
%TO.N,/display/SEG6*%
X127635000Y-61595000D03*
%TO.N,/display/SEG5*%
X131445000Y-60325000D03*
%TO.N,/display/SEG4*%
X127000000Y-59690000D03*
%TO.N,/display/~CS~*%
X121920000Y-56515000D03*
X131445000Y-58420000D03*
%TO.N,SCK*%
X122555000Y-57150000D03*
X125095000Y-57150000D03*
%TD*%
D19*
%TO.N,+5V*%
X99060000Y-80010000D02*
X97790000Y-81280000D01*
X99060000Y-71120000D02*
X99060000Y-80010000D01*
D20*
%TO.N,/display/SEG2*%
X91059000Y-59055000D02*
X98806000Y-59055000D01*
X109093000Y-59055000D02*
X115316000Y-59055000D01*
X98806000Y-59055000D02*
X109093000Y-59055000D01*
%TO.N,/display/SEG3*%
X107696000Y-58420000D02*
X116840000Y-58420000D01*
X92075000Y-58420000D02*
X100076000Y-58420000D01*
X100076000Y-58420000D02*
X107696000Y-58420000D01*
%TO.N,/display/SEG0*%
X93929200Y-62865000D02*
X104444800Y-62865000D01*
X112115600Y-62865000D02*
X119761000Y-62865000D01*
X104444800Y-62865000D02*
X112115600Y-62865000D01*
%TO.N,/display/SEG8*%
X102997000Y-62230000D02*
X110617000Y-62230000D01*
X110617000Y-62230000D02*
X118364000Y-62230000D01*
X95351600Y-62230000D02*
X102997000Y-62230000D01*
%TO.N,/display/SEG7*%
X96799400Y-60960000D02*
X104394000Y-60960000D01*
X104394000Y-60960000D02*
X112014000Y-60960000D01*
X112014000Y-60960000D02*
X119634000Y-60960000D01*
%TO.N,/display/SEG1*%
X105410000Y-63500000D02*
X113030000Y-63500000D01*
X101600000Y-63500000D02*
X105410000Y-63500000D01*
X96799400Y-63500000D02*
X101600000Y-63500000D01*
%TO.N,/display/SEG6*%
X96139000Y-61595000D02*
X118237000Y-61595000D01*
X118999000Y-61595000D02*
X118237000Y-61595000D01*
%TO.N,/display/SEG5*%
X100203000Y-60325000D02*
X107696000Y-60325000D01*
X107696000Y-60325000D02*
X115443000Y-60325000D01*
X92506800Y-60325000D02*
X100203000Y-60325000D01*
%TO.N,/display/SEG4*%
X91821000Y-59690000D02*
X114681000Y-59690000D01*
%TO.N,+3V3*%
X73025000Y-78740000D02*
X73025000Y-94615000D01*
X73025000Y-94615000D02*
X75565000Y-97155000D01*
X73025000Y-78740000D02*
X73025000Y-57150000D01*
D19*
X76835000Y-57150000D02*
X73025000Y-57150000D01*
X79375000Y-54610000D02*
X76835000Y-57150000D01*
%TO.N,Net-(C1-Pad1)*%
X58420000Y-55781000D02*
X58420000Y-59690000D01*
X60861000Y-53340000D02*
X58420000Y-55781000D01*
X63500000Y-53340000D02*
X60861000Y-53340000D01*
D20*
%TO.N,SDA*%
X109220000Y-49530000D02*
X109220000Y-50800000D01*
X107950000Y-48260000D02*
X109220000Y-49530000D01*
X90170000Y-48260000D02*
X107950000Y-48260000D01*
X88900000Y-49530000D02*
X90170000Y-48260000D01*
X88900000Y-83820000D02*
X88900000Y-49530000D01*
X87630000Y-85090000D02*
X88900000Y-83820000D01*
X76200000Y-85090000D02*
X87630000Y-85090000D01*
%TO.N,SCL*%
X111760000Y-50800000D02*
X111760000Y-48260000D01*
X111760000Y-48260000D02*
X110490000Y-46990000D01*
X110490000Y-46990000D02*
X89535000Y-46990000D01*
X89535000Y-46990000D02*
X87630000Y-48895000D01*
X87630000Y-48895000D02*
X87630000Y-73660000D01*
X78740000Y-83820000D02*
X86360000Y-83820000D01*
X86360000Y-83820000D02*
X87630000Y-82550000D01*
X87630000Y-82550000D02*
X87630000Y-73660000D01*
%TO.N,/display/SEG2*%
X121920000Y-59055000D02*
X115316000Y-59055000D01*
X122555000Y-59055000D02*
X121920000Y-59055000D01*
%TO.N,/display/SEG3*%
X125730000Y-58420000D02*
X126365000Y-59055000D01*
X116840000Y-58420000D02*
X125730000Y-58420000D01*
%TO.N,/display/SEG0*%
X122555000Y-62865000D02*
X119761000Y-62865000D01*
%TO.N,/display/SEG8*%
X127000000Y-62230000D02*
X127635000Y-62865000D01*
X118364000Y-62230000D02*
X127000000Y-62230000D01*
%TO.N,/display/SEG7*%
X130810000Y-60960000D02*
X131445000Y-61595000D01*
X119634000Y-60960000D02*
X130810000Y-60960000D01*
%TO.N,/display/SEG1*%
X113030000Y-63500000D02*
X119990618Y-63500000D01*
X119990618Y-63500000D02*
X124460000Y-63500000D01*
X124460000Y-63500000D02*
X126365000Y-63500000D01*
%TO.N,/display/SEG6*%
X118999000Y-61595000D02*
X125095000Y-61595000D01*
X125095000Y-61595000D02*
X127635000Y-61595000D01*
%TO.N,/display/SEG5*%
X131445000Y-60325000D02*
X115443000Y-60325000D01*
%TO.N,/display/SEG4*%
X114681000Y-59690000D02*
X127000000Y-59690000D01*
%TO.N,/display/~CS~*%
X129540000Y-56515000D02*
X131445000Y-58420000D01*
X121920000Y-56515000D02*
X129540000Y-56515000D01*
%TO.N,SCK*%
X125095000Y-57150000D02*
X122555000Y-57150000D01*
%TD*%
M02*
