%TF.GenerationSoftware,KiCad,Pcbnew,5.1.8+dfsg1-1+b1*%
%TF.CreationDate,2021-07-02T16:19:49-05:00*%
%TF.ProjectId,mqtt-thermocouple,6d717474-2d74-4686-9572-6d6f636f7570,A*%
%TF.SameCoordinates,Original*%
%TF.FileFunction,Copper,L1,Top*%
%TF.FilePolarity,Positive*%
%FSLAX46Y46*%
G04 Gerber Fmt 4.6, Leading zero omitted, Abs format (unit mm)*
G04 Created by KiCad (PCBNEW 5.1.8+dfsg1-1+b1) date 2021-07-02 16:19:49*
%MOMM*%
%LPD*%
G01*
G04 APERTURE LIST*
%TA.AperFunction,SMDPad,CuDef*%
%ADD10R,2.500000X2.500000*%
%TD*%
%TA.AperFunction,SMDPad,CuDef*%
%ADD11R,1.600000X0.410000*%
%TD*%
%TA.AperFunction,SMDPad,CuDef*%
%ADD12R,0.900000X2.800000*%
%TD*%
%TA.AperFunction,ComponentPad*%
%ADD13O,1.900000X2.100000*%
%TD*%
%TA.AperFunction,ComponentPad*%
%ADD14R,1.900000X2.100000*%
%TD*%
%TA.AperFunction,ComponentPad*%
%ADD15C,1.524000*%
%TD*%
%TA.AperFunction,ComponentPad*%
%ADD16C,0.500000*%
%TD*%
%TA.AperFunction,SMDPad,CuDef*%
%ADD17R,3.250000X3.250000*%
%TD*%
%TA.AperFunction,SMDPad,CuDef*%
%ADD18R,0.810000X0.320000*%
%TD*%
%TA.AperFunction,SMDPad,CuDef*%
%ADD19R,0.320000X0.810000*%
%TD*%
%TA.AperFunction,SMDPad,CuDef*%
%ADD20R,1.900000X0.800000*%
%TD*%
%TA.AperFunction,SMDPad,CuDef*%
%ADD21R,0.800000X1.900000*%
%TD*%
%TA.AperFunction,ComponentPad*%
%ADD22C,1.600000*%
%TD*%
%TA.AperFunction,ComponentPad*%
%ADD23R,1.600000X1.600000*%
%TD*%
%TA.AperFunction,ComponentPad*%
%ADD24R,3.500000X3.500000*%
%TD*%
%TA.AperFunction,ViaPad*%
%ADD25C,0.800000*%
%TD*%
%TA.AperFunction,ViaPad*%
%ADD26C,0.635000*%
%TD*%
%TA.AperFunction,Conductor*%
%ADD27C,0.889000*%
%TD*%
%TA.AperFunction,Conductor*%
%ADD28C,0.381000*%
%TD*%
G04 APERTURE END LIST*
D10*
%TO.P,PS1,4*%
%TO.N,N/C*%
X50380000Y-79660000D03*
%TO.P,PS1,3*%
%TO.N,+5V*%
X61380000Y-79660000D03*
%TO.P,PS1,2*%
%TO.N,GND*%
X61380000Y-67660000D03*
%TO.P,PS1,1*%
%TO.N,Net-(C1-Pad1)*%
X50380000Y-67660000D03*
%TD*%
D11*
%TO.P,U3,16*%
%TO.N,+3V3*%
X129654300Y-58737500D03*
%TO.P,U3,15*%
%TO.N,/display/~CS~*%
X129654300Y-59372500D03*
%TO.P,U3,14*%
%TO.N,/display/SEG4*%
X129654300Y-60007500D03*
%TO.P,U3,13*%
%TO.N,/display/SEG5*%
X129654300Y-60642500D03*
%TO.P,U3,12*%
%TO.N,/display/SEG6*%
X129654300Y-61277500D03*
%TO.P,U3,11*%
%TO.N,/display/SEG7*%
X129654300Y-61912500D03*
%TO.P,U3,10*%
%TO.N,/display/SEG8*%
X129654300Y-62547500D03*
%TO.P,U3,9*%
%TO.N,Net-(C7-Pad1)*%
X129654300Y-63182500D03*
%TO.P,U3,8*%
%TO.N,GND*%
X124345700Y-63182500D03*
%TO.P,U3,7*%
%TO.N,Net-(R3-Pad1)*%
X124345700Y-62547500D03*
%TO.P,U3,6*%
%TO.N,/display/SEG0*%
X124345700Y-61912500D03*
%TO.P,U3,5*%
%TO.N,/display/SEG1*%
X124345700Y-61277500D03*
%TO.P,U3,4*%
%TO.N,/display/SEG2*%
X124345700Y-60642500D03*
%TO.P,U3,3*%
%TO.N,/display/SEG3*%
X124345700Y-60007500D03*
%TO.P,U3,2*%
%TO.N,SCK*%
X124345700Y-59372500D03*
%TO.P,U3,1*%
%TO.N,MOSI*%
X124345700Y-58737500D03*
%TD*%
%TO.P,R3,2*%
%TO.N,GND*%
%TA.AperFunction,SMDPad,CuDef*%
G36*
G01*
X123835000Y-68210000D02*
X125085000Y-68210000D01*
G75*
G02*
X125335000Y-68460000I0J-250000D01*
G01*
X125335000Y-69260000D01*
G75*
G02*
X125085000Y-69510000I-250000J0D01*
G01*
X123835000Y-69510000D01*
G75*
G02*
X123585000Y-69260000I0J250000D01*
G01*
X123585000Y-68460000D01*
G75*
G02*
X123835000Y-68210000I250000J0D01*
G01*
G37*
%TD.AperFunction*%
%TO.P,R3,1*%
%TO.N,Net-(R3-Pad1)*%
%TA.AperFunction,SMDPad,CuDef*%
G36*
G01*
X123835000Y-65110000D02*
X125085000Y-65110000D01*
G75*
G02*
X125335000Y-65360000I0J-250000D01*
G01*
X125335000Y-66160000D01*
G75*
G02*
X125085000Y-66410000I-250000J0D01*
G01*
X123835000Y-66410000D01*
G75*
G02*
X123585000Y-66160000I0J250000D01*
G01*
X123585000Y-65360000D01*
G75*
G02*
X123835000Y-65110000I250000J0D01*
G01*
G37*
%TD.AperFunction*%
%TD*%
D12*
%TO.P,D6,10*%
%TO.N,/display/SEG1*%
X113960000Y-55960000D03*
%TO.P,D6,9*%
%TO.N,/display/SEG2*%
X115400000Y-55960000D03*
%TO.P,D6,8*%
%TO.N,/display/SEG3*%
X116840000Y-55960000D03*
%TO.P,D6,7*%
%TO.N,/display/SEG8*%
X118280000Y-55960000D03*
%TO.P,D6,6*%
%TO.N,/display/SEG7*%
X119720000Y-55960000D03*
%TO.P,D6,5*%
%TO.N,/display/SEG0*%
X119720000Y-65960000D03*
%TO.P,D6,4*%
%TO.N,/display/SEG6*%
X118280000Y-65960000D03*
%TO.P,D6,3*%
%TO.N,/display/SEG3*%
X116840000Y-65960000D03*
%TO.P,D6,2*%
%TO.N,/display/SEG5*%
X115400000Y-65960000D03*
%TO.P,D6,1*%
%TO.N,/display/SEG4*%
X113960000Y-65960000D03*
%TD*%
%TO.P,D5,10*%
%TO.N,/display/SEG1*%
X106340000Y-55960000D03*
%TO.P,D5,9*%
%TO.N,/display/SEG3*%
X107780000Y-55960000D03*
%TO.P,D5,8*%
%TO.N,/display/SEG2*%
X109220000Y-55960000D03*
%TO.P,D5,7*%
%TO.N,/display/SEG8*%
X110660000Y-55960000D03*
%TO.P,D5,6*%
%TO.N,/display/SEG7*%
X112100000Y-55960000D03*
%TO.P,D5,5*%
%TO.N,/display/SEG0*%
X112100000Y-65960000D03*
%TO.P,D5,4*%
%TO.N,/display/SEG6*%
X110660000Y-65960000D03*
%TO.P,D5,3*%
%TO.N,/display/SEG2*%
X109220000Y-65960000D03*
%TO.P,D5,2*%
%TO.N,/display/SEG5*%
X107780000Y-65960000D03*
%TO.P,D5,1*%
%TO.N,/display/SEG4*%
X106340000Y-65960000D03*
%TD*%
%TO.P,D4,10*%
%TO.N,/display/SEG2*%
X98720000Y-55960000D03*
%TO.P,D4,9*%
%TO.N,/display/SEG3*%
X100160000Y-55960000D03*
%TO.P,D4,8*%
%TO.N,/display/SEG1*%
X101600000Y-55960000D03*
%TO.P,D4,7*%
%TO.N,/display/SEG8*%
X103040000Y-55960000D03*
%TO.P,D4,6*%
%TO.N,/display/SEG7*%
X104480000Y-55960000D03*
%TO.P,D4,5*%
%TO.N,/display/SEG0*%
X104480000Y-65960000D03*
%TO.P,D4,4*%
%TO.N,/display/SEG6*%
X103040000Y-65960000D03*
%TO.P,D4,3*%
%TO.N,/display/SEG1*%
X101600000Y-65960000D03*
%TO.P,D4,2*%
%TO.N,/display/SEG5*%
X100160000Y-65960000D03*
%TO.P,D4,1*%
%TO.N,/display/SEG4*%
X98720000Y-65960000D03*
%TD*%
%TO.P,D3,10*%
%TO.N,/display/SEG2*%
X91100000Y-55960000D03*
%TO.P,D3,9*%
%TO.N,/display/SEG3*%
X92540000Y-55960000D03*
%TO.P,D3,8*%
%TO.N,/display/SEG0*%
X93980000Y-55960000D03*
%TO.P,D3,7*%
%TO.N,/display/SEG8*%
X95420000Y-55960000D03*
%TO.P,D3,6*%
%TO.N,/display/SEG7*%
X96860000Y-55960000D03*
%TO.P,D3,5*%
%TO.N,/display/SEG1*%
X96860000Y-65960000D03*
%TO.P,D3,4*%
%TO.N,/display/SEG6*%
X95420000Y-65960000D03*
%TO.P,D3,3*%
%TO.N,/display/SEG0*%
X93980000Y-65960000D03*
%TO.P,D3,2*%
%TO.N,/display/SEG5*%
X92540000Y-65960000D03*
%TO.P,D3,1*%
%TO.N,/display/SEG4*%
X91100000Y-65960000D03*
%TD*%
%TO.P,C7,2*%
%TO.N,GND*%
%TA.AperFunction,SMDPad,CuDef*%
G36*
G01*
X128889999Y-68210000D02*
X130190001Y-68210000D01*
G75*
G02*
X130440000Y-68459999I0J-249999D01*
G01*
X130440000Y-69285001D01*
G75*
G02*
X130190001Y-69535000I-249999J0D01*
G01*
X128889999Y-69535000D01*
G75*
G02*
X128640000Y-69285001I0J249999D01*
G01*
X128640000Y-68459999D01*
G75*
G02*
X128889999Y-68210000I249999J0D01*
G01*
G37*
%TD.AperFunction*%
%TO.P,C7,1*%
%TO.N,Net-(C7-Pad1)*%
%TA.AperFunction,SMDPad,CuDef*%
G36*
G01*
X128889999Y-65085000D02*
X130190001Y-65085000D01*
G75*
G02*
X130440000Y-65334999I0J-249999D01*
G01*
X130440000Y-66160001D01*
G75*
G02*
X130190001Y-66410000I-249999J0D01*
G01*
X128889999Y-66410000D01*
G75*
G02*
X128640000Y-66160001I0J249999D01*
G01*
X128640000Y-65334999D01*
G75*
G02*
X128889999Y-65085000I249999J0D01*
G01*
G37*
%TD.AperFunction*%
%TD*%
%TO.P,C6,2*%
%TO.N,GND*%
%TA.AperFunction,SMDPad,CuDef*%
G36*
G01*
X121300001Y-50877500D02*
X119999999Y-50877500D01*
G75*
G02*
X119750000Y-50627501I0J249999D01*
G01*
X119750000Y-49802499D01*
G75*
G02*
X119999999Y-49552500I249999J0D01*
G01*
X121300001Y-49552500D01*
G75*
G02*
X121550000Y-49802499I0J-249999D01*
G01*
X121550000Y-50627501D01*
G75*
G02*
X121300001Y-50877500I-249999J0D01*
G01*
G37*
%TD.AperFunction*%
%TO.P,C6,1*%
%TO.N,+3V3*%
%TA.AperFunction,SMDPad,CuDef*%
G36*
G01*
X121300001Y-54002500D02*
X119999999Y-54002500D01*
G75*
G02*
X119750000Y-53752501I0J249999D01*
G01*
X119750000Y-52927499D01*
G75*
G02*
X119999999Y-52677500I249999J0D01*
G01*
X121300001Y-52677500D01*
G75*
G02*
X121550000Y-52927499I0J-249999D01*
G01*
X121550000Y-53752501D01*
G75*
G02*
X121300001Y-54002500I-249999J0D01*
G01*
G37*
%TD.AperFunction*%
%TD*%
D13*
%TO.P,A1,11*%
%TO.N,GND*%
X93980000Y-50800000D03*
%TO.P,A1,10*%
X93980000Y-71120000D03*
%TO.P,A1,12*%
%TO.N,N/C*%
X96520000Y-50800000D03*
%TO.P,A1,9*%
X96520000Y-71120000D03*
%TO.P,A1,13*%
%TO.N,+3V3*%
X99060000Y-50800000D03*
%TO.P,A1,8*%
%TO.N,+5V*%
X99060000Y-71120000D03*
%TO.P,A1,14*%
%TO.N,Net-(A1-Pad14)*%
X101600000Y-50800000D03*
%TO.P,A1,7*%
%TO.N,MOSI*%
X101600000Y-71120000D03*
%TO.P,A1,15*%
%TO.N,N/C*%
X104140000Y-50800000D03*
%TO.P,A1,6*%
%TO.N,/display/~CS~*%
X104140000Y-71120000D03*
%TO.P,A1,16*%
%TO.N,N/C*%
X106680000Y-50800000D03*
%TO.P,A1,5*%
%TO.N,SCK*%
X106680000Y-71120000D03*
%TO.P,A1,17*%
%TO.N,SDA*%
X109220000Y-50800000D03*
%TO.P,A1,4*%
%TO.N,Net-(A1-Pad1)*%
X109220000Y-71120000D03*
%TO.P,A1,18*%
%TO.N,SCL*%
X111760000Y-50800000D03*
%TO.P,A1,3*%
%TO.N,N/C*%
X111760000Y-71120000D03*
%TO.P,A1,19*%
X114300000Y-50800000D03*
%TO.P,A1,2*%
X114300000Y-71120000D03*
%TO.P,A1,20*%
X116840000Y-50800000D03*
D14*
%TO.P,A1,1*%
%TO.N,Net-(A1-Pad1)*%
X116840000Y-71120000D03*
%TD*%
D15*
%TO.P,TC1,2*%
%TO.N,Net-(TC1-Pad2)*%
X59550300Y-93218000D03*
%TO.P,TC1,1*%
%TO.N,Net-(TC1-Pad1)*%
X67449700Y-93218000D03*
%TD*%
D16*
%TO.P,U1,30*%
%TO.N,Net-(U1-Pad21)*%
X77200000Y-93980000D03*
%TO.P,U1,29*%
X76200000Y-93980000D03*
%TO.P,U1,28*%
X75200000Y-93980000D03*
%TO.P,U1,27*%
X77200000Y-92980000D03*
%TO.P,U1,26*%
X76200000Y-92980000D03*
%TO.P,U1,24*%
X77200000Y-91980000D03*
%TO.P,U1,23*%
X76200000Y-91980000D03*
%TO.P,U1,22*%
X75200000Y-91980000D03*
%TO.P,U1,25*%
X75200000Y-92980000D03*
D17*
%TO.P,U1,21*%
X76200000Y-92980000D03*
D18*
%TO.P,U1,15*%
%TO.N,N/C*%
X78650000Y-91680000D03*
%TO.P,U1,14*%
X78650000Y-92330000D03*
%TO.P,U1,13*%
%TO.N,GND*%
X78650000Y-92980000D03*
%TO.P,U1,12*%
%TO.N,N/C*%
X78650000Y-93630000D03*
%TO.P,U1,11*%
X78650000Y-94280000D03*
%TO.P,U1,5*%
%TO.N,GND*%
X73750000Y-94280000D03*
%TO.P,U1,4*%
%TO.N,Net-(TC1-Pad2)*%
X73750000Y-93630000D03*
%TO.P,U1,3*%
%TO.N,GND*%
X73750000Y-92980000D03*
%TO.P,U1,2*%
%TO.N,Net-(TC1-Pad1)*%
X73750000Y-92330000D03*
%TO.P,U1,1*%
%TO.N,GND*%
X73750000Y-91680000D03*
D19*
%TO.P,U1,20*%
%TO.N,SDA*%
X74900000Y-90530000D03*
%TO.P,U1,19*%
%TO.N,SCL*%
X75550000Y-90530000D03*
%TO.P,U1,18*%
%TO.N,GND*%
X76200000Y-90530000D03*
%TO.P,U1,17*%
X76850000Y-90530000D03*
%TO.P,U1,16*%
X77500000Y-90530000D03*
%TO.P,U1,10*%
X77500000Y-95430000D03*
%TO.P,U1,9*%
X76850000Y-95430000D03*
%TO.P,U1,8*%
%TO.N,+3V3*%
X76200000Y-95430000D03*
%TO.P,U1,7*%
%TO.N,GND*%
X75550000Y-95430000D03*
%TO.P,U1,6*%
X74900000Y-95430000D03*
%TD*%
D20*
%TO.P,Q2,3*%
%TO.N,Net-(A1-Pad1)*%
X84050000Y-62230000D03*
%TO.P,Q2,2*%
%TO.N,GND*%
X81050000Y-63180000D03*
%TO.P,Q2,1*%
%TO.N,Net-(Q2-Pad1)*%
X81050000Y-61280000D03*
%TD*%
D21*
%TO.P,Q1,3*%
%TO.N,Net-(D2-Pad1)*%
X129540000Y-80240000D03*
%TO.P,Q1,2*%
%TO.N,GND*%
X128590000Y-77240000D03*
%TO.P,Q1,1*%
%TO.N,Net-(A1-Pad14)*%
X130490000Y-77240000D03*
%TD*%
%TO.P,R9,2*%
%TO.N,GND*%
%TA.AperFunction,SMDPad,CuDef*%
G36*
G01*
X77100000Y-65395001D02*
X77100000Y-64144999D01*
G75*
G02*
X77349999Y-63895000I249999J0D01*
G01*
X78150001Y-63895000D01*
G75*
G02*
X78400000Y-64144999I0J-249999D01*
G01*
X78400000Y-65395001D01*
G75*
G02*
X78150001Y-65645000I-249999J0D01*
G01*
X77349999Y-65645000D01*
G75*
G02*
X77100000Y-65395001I0J249999D01*
G01*
G37*
%TD.AperFunction*%
%TO.P,R9,1*%
%TO.N,Net-(C5-Pad1)*%
%TA.AperFunction,SMDPad,CuDef*%
G36*
G01*
X74000000Y-65395001D02*
X74000000Y-64144999D01*
G75*
G02*
X74249999Y-63895000I249999J0D01*
G01*
X75050001Y-63895000D01*
G75*
G02*
X75300000Y-64144999I0J-249999D01*
G01*
X75300000Y-65395001D01*
G75*
G02*
X75050001Y-65645000I-249999J0D01*
G01*
X74249999Y-65645000D01*
G75*
G02*
X74000000Y-65395001I0J249999D01*
G01*
G37*
%TD.AperFunction*%
%TD*%
%TO.P,R8,2*%
%TO.N,Net-(C5-Pad1)*%
%TA.AperFunction,SMDPad,CuDef*%
G36*
G01*
X76209999Y-57415000D02*
X77460001Y-57415000D01*
G75*
G02*
X77710000Y-57664999I0J-249999D01*
G01*
X77710000Y-58465001D01*
G75*
G02*
X77460001Y-58715000I-249999J0D01*
G01*
X76209999Y-58715000D01*
G75*
G02*
X75960000Y-58465001I0J249999D01*
G01*
X75960000Y-57664999D01*
G75*
G02*
X76209999Y-57415000I249999J0D01*
G01*
G37*
%TD.AperFunction*%
%TO.P,R8,1*%
%TO.N,Net-(Q2-Pad1)*%
%TA.AperFunction,SMDPad,CuDef*%
G36*
G01*
X76209999Y-54315000D02*
X77460001Y-54315000D01*
G75*
G02*
X77710000Y-54564999I0J-249999D01*
G01*
X77710000Y-55365001D01*
G75*
G02*
X77460001Y-55615000I-249999J0D01*
G01*
X76209999Y-55615000D01*
G75*
G02*
X75960000Y-55365001I0J249999D01*
G01*
X75960000Y-54564999D01*
G75*
G02*
X76209999Y-54315000I249999J0D01*
G01*
G37*
%TD.AperFunction*%
%TD*%
%TO.P,R7,2*%
%TO.N,Net-(A1-Pad1)*%
%TA.AperFunction,SMDPad,CuDef*%
G36*
G01*
X81289999Y-57415000D02*
X82540001Y-57415000D01*
G75*
G02*
X82790000Y-57664999I0J-249999D01*
G01*
X82790000Y-58465001D01*
G75*
G02*
X82540001Y-58715000I-249999J0D01*
G01*
X81289999Y-58715000D01*
G75*
G02*
X81040000Y-58465001I0J249999D01*
G01*
X81040000Y-57664999D01*
G75*
G02*
X81289999Y-57415000I249999J0D01*
G01*
G37*
%TD.AperFunction*%
%TO.P,R7,1*%
%TO.N,+3V3*%
%TA.AperFunction,SMDPad,CuDef*%
G36*
G01*
X81289999Y-54315000D02*
X82540001Y-54315000D01*
G75*
G02*
X82790000Y-54564999I0J-249999D01*
G01*
X82790000Y-55365001D01*
G75*
G02*
X82540001Y-55615000I-249999J0D01*
G01*
X81289999Y-55615000D01*
G75*
G02*
X81040000Y-55365001I0J249999D01*
G01*
X81040000Y-54564999D01*
G75*
G02*
X81289999Y-54315000I249999J0D01*
G01*
G37*
%TD.AperFunction*%
%TD*%
%TO.P,R6,2*%
%TO.N,Net-(R6-Pad2)*%
%TA.AperFunction,SMDPad,CuDef*%
G36*
G01*
X75300000Y-67954999D02*
X75300000Y-69205001D01*
G75*
G02*
X75050001Y-69455000I-249999J0D01*
G01*
X74249999Y-69455000D01*
G75*
G02*
X74000000Y-69205001I0J249999D01*
G01*
X74000000Y-67954999D01*
G75*
G02*
X74249999Y-67705000I249999J0D01*
G01*
X75050001Y-67705000D01*
G75*
G02*
X75300000Y-67954999I0J-249999D01*
G01*
G37*
%TD.AperFunction*%
%TO.P,R6,1*%
%TO.N,Net-(C4-Pad2)*%
%TA.AperFunction,SMDPad,CuDef*%
G36*
G01*
X78400000Y-67954999D02*
X78400000Y-69205001D01*
G75*
G02*
X78150001Y-69455000I-249999J0D01*
G01*
X77349999Y-69455000D01*
G75*
G02*
X77100000Y-69205001I0J249999D01*
G01*
X77100000Y-67954999D01*
G75*
G02*
X77349999Y-67705000I249999J0D01*
G01*
X78150001Y-67705000D01*
G75*
G02*
X78400000Y-67954999I0J-249999D01*
G01*
G37*
%TD.AperFunction*%
%TD*%
%TO.P,R5,2*%
%TO.N,Net-(R5-Pad2)*%
%TA.AperFunction,SMDPad,CuDef*%
G36*
G01*
X75300000Y-71764999D02*
X75300000Y-73015001D01*
G75*
G02*
X75050001Y-73265000I-249999J0D01*
G01*
X74249999Y-73265000D01*
G75*
G02*
X74000000Y-73015001I0J249999D01*
G01*
X74000000Y-71764999D01*
G75*
G02*
X74249999Y-71515000I249999J0D01*
G01*
X75050001Y-71515000D01*
G75*
G02*
X75300000Y-71764999I0J-249999D01*
G01*
G37*
%TD.AperFunction*%
%TO.P,R5,1*%
%TO.N,Net-(C4-Pad2)*%
%TA.AperFunction,SMDPad,CuDef*%
G36*
G01*
X78400000Y-71764999D02*
X78400000Y-73015001D01*
G75*
G02*
X78150001Y-73265000I-249999J0D01*
G01*
X77349999Y-73265000D01*
G75*
G02*
X77100000Y-73015001I0J249999D01*
G01*
X77100000Y-71764999D01*
G75*
G02*
X77349999Y-71515000I249999J0D01*
G01*
X78150001Y-71515000D01*
G75*
G02*
X78400000Y-71764999I0J-249999D01*
G01*
G37*
%TD.AperFunction*%
%TD*%
%TO.P,C5,2*%
%TO.N,GND*%
%TA.AperFunction,SMDPad,CuDef*%
G36*
G01*
X77100000Y-61610002D02*
X77100000Y-60309998D01*
G75*
G02*
X77349998Y-60060000I249998J0D01*
G01*
X78175002Y-60060000D01*
G75*
G02*
X78425000Y-60309998I0J-249998D01*
G01*
X78425000Y-61610002D01*
G75*
G02*
X78175002Y-61860000I-249998J0D01*
G01*
X77349998Y-61860000D01*
G75*
G02*
X77100000Y-61610002I0J249998D01*
G01*
G37*
%TD.AperFunction*%
%TO.P,C5,1*%
%TO.N,Net-(C5-Pad1)*%
%TA.AperFunction,SMDPad,CuDef*%
G36*
G01*
X73975000Y-61610002D02*
X73975000Y-60309998D01*
G75*
G02*
X74224998Y-60060000I249998J0D01*
G01*
X75050002Y-60060000D01*
G75*
G02*
X75300000Y-60309998I0J-249998D01*
G01*
X75300000Y-61610002D01*
G75*
G02*
X75050002Y-61860000I-249998J0D01*
G01*
X74224998Y-61860000D01*
G75*
G02*
X73975000Y-61610002I0J249998D01*
G01*
G37*
%TD.AperFunction*%
%TD*%
%TO.P,C4,2*%
%TO.N,Net-(C4-Pad2)*%
%TA.AperFunction,SMDPad,CuDef*%
G36*
G01*
X77100000Y-76850002D02*
X77100000Y-75549998D01*
G75*
G02*
X77349998Y-75300000I249998J0D01*
G01*
X78175002Y-75300000D01*
G75*
G02*
X78425000Y-75549998I0J-249998D01*
G01*
X78425000Y-76850002D01*
G75*
G02*
X78175002Y-77100000I-249998J0D01*
G01*
X77349998Y-77100000D01*
G75*
G02*
X77100000Y-76850002I0J249998D01*
G01*
G37*
%TD.AperFunction*%
%TO.P,C4,1*%
%TO.N,Net-(C4-Pad1)*%
%TA.AperFunction,SMDPad,CuDef*%
G36*
G01*
X73975000Y-76850002D02*
X73975000Y-75549998D01*
G75*
G02*
X74224998Y-75300000I249998J0D01*
G01*
X75050002Y-75300000D01*
G75*
G02*
X75300000Y-75549998I0J-249998D01*
G01*
X75300000Y-76850002D01*
G75*
G02*
X75050002Y-77100000I-249998J0D01*
G01*
X74224998Y-77100000D01*
G75*
G02*
X73975000Y-76850002I0J249998D01*
G01*
G37*
%TD.AperFunction*%
%TD*%
%TO.P,U2,16*%
%TO.N,+3V3*%
%TA.AperFunction,SMDPad,CuDef*%
G36*
G01*
X69445000Y-61110000D02*
X69445000Y-60810000D01*
G75*
G02*
X69595000Y-60660000I150000J0D01*
G01*
X71245000Y-60660000D01*
G75*
G02*
X71395000Y-60810000I0J-150000D01*
G01*
X71395000Y-61110000D01*
G75*
G02*
X71245000Y-61260000I-150000J0D01*
G01*
X69595000Y-61260000D01*
G75*
G02*
X69445000Y-61110000I0J150000D01*
G01*
G37*
%TD.AperFunction*%
%TO.P,U2,15*%
%TO.N,N/C*%
%TA.AperFunction,SMDPad,CuDef*%
G36*
G01*
X69445000Y-62380000D02*
X69445000Y-62080000D01*
G75*
G02*
X69595000Y-61930000I150000J0D01*
G01*
X71245000Y-61930000D01*
G75*
G02*
X71395000Y-62080000I0J-150000D01*
G01*
X71395000Y-62380000D01*
G75*
G02*
X71245000Y-62530000I-150000J0D01*
G01*
X69595000Y-62530000D01*
G75*
G02*
X69445000Y-62380000I0J150000D01*
G01*
G37*
%TD.AperFunction*%
%TO.P,U2,14*%
%TA.AperFunction,SMDPad,CuDef*%
G36*
G01*
X69445000Y-63650000D02*
X69445000Y-63350000D01*
G75*
G02*
X69595000Y-63200000I150000J0D01*
G01*
X71245000Y-63200000D01*
G75*
G02*
X71395000Y-63350000I0J-150000D01*
G01*
X71395000Y-63650000D01*
G75*
G02*
X71245000Y-63800000I-150000J0D01*
G01*
X69595000Y-63800000D01*
G75*
G02*
X69445000Y-63650000I0J150000D01*
G01*
G37*
%TD.AperFunction*%
%TO.P,U2,13*%
%TA.AperFunction,SMDPad,CuDef*%
G36*
G01*
X69445000Y-64920000D02*
X69445000Y-64620000D01*
G75*
G02*
X69595000Y-64470000I150000J0D01*
G01*
X71245000Y-64470000D01*
G75*
G02*
X71395000Y-64620000I0J-150000D01*
G01*
X71395000Y-64920000D01*
G75*
G02*
X71245000Y-65070000I-150000J0D01*
G01*
X69595000Y-65070000D01*
G75*
G02*
X69445000Y-64920000I0J150000D01*
G01*
G37*
%TD.AperFunction*%
%TO.P,U2,12*%
%TO.N,Net-(C5-Pad1)*%
%TA.AperFunction,SMDPad,CuDef*%
G36*
G01*
X69445000Y-66190000D02*
X69445000Y-65890000D01*
G75*
G02*
X69595000Y-65740000I150000J0D01*
G01*
X71245000Y-65740000D01*
G75*
G02*
X71395000Y-65890000I0J-150000D01*
G01*
X71395000Y-66190000D01*
G75*
G02*
X71245000Y-66340000I-150000J0D01*
G01*
X69595000Y-66340000D01*
G75*
G02*
X69445000Y-66190000I0J150000D01*
G01*
G37*
%TD.AperFunction*%
%TO.P,U2,11*%
%TO.N,Net-(R6-Pad2)*%
%TA.AperFunction,SMDPad,CuDef*%
G36*
G01*
X69445000Y-67460000D02*
X69445000Y-67160000D01*
G75*
G02*
X69595000Y-67010000I150000J0D01*
G01*
X71245000Y-67010000D01*
G75*
G02*
X71395000Y-67160000I0J-150000D01*
G01*
X71395000Y-67460000D01*
G75*
G02*
X71245000Y-67610000I-150000J0D01*
G01*
X69595000Y-67610000D01*
G75*
G02*
X69445000Y-67460000I0J150000D01*
G01*
G37*
%TD.AperFunction*%
%TO.P,U2,10*%
%TO.N,Net-(R5-Pad2)*%
%TA.AperFunction,SMDPad,CuDef*%
G36*
G01*
X69445000Y-68730000D02*
X69445000Y-68430000D01*
G75*
G02*
X69595000Y-68280000I150000J0D01*
G01*
X71245000Y-68280000D01*
G75*
G02*
X71395000Y-68430000I0J-150000D01*
G01*
X71395000Y-68730000D01*
G75*
G02*
X71245000Y-68880000I-150000J0D01*
G01*
X69595000Y-68880000D01*
G75*
G02*
X69445000Y-68730000I0J150000D01*
G01*
G37*
%TD.AperFunction*%
%TO.P,U2,9*%
%TO.N,Net-(C4-Pad1)*%
%TA.AperFunction,SMDPad,CuDef*%
G36*
G01*
X69445000Y-70000000D02*
X69445000Y-69700000D01*
G75*
G02*
X69595000Y-69550000I150000J0D01*
G01*
X71245000Y-69550000D01*
G75*
G02*
X71395000Y-69700000I0J-150000D01*
G01*
X71395000Y-70000000D01*
G75*
G02*
X71245000Y-70150000I-150000J0D01*
G01*
X69595000Y-70150000D01*
G75*
G02*
X69445000Y-70000000I0J150000D01*
G01*
G37*
%TD.AperFunction*%
%TO.P,U2,8*%
%TO.N,GND*%
%TA.AperFunction,SMDPad,CuDef*%
G36*
G01*
X64495000Y-70000000D02*
X64495000Y-69700000D01*
G75*
G02*
X64645000Y-69550000I150000J0D01*
G01*
X66295000Y-69550000D01*
G75*
G02*
X66445000Y-69700000I0J-150000D01*
G01*
X66445000Y-70000000D01*
G75*
G02*
X66295000Y-70150000I-150000J0D01*
G01*
X64645000Y-70150000D01*
G75*
G02*
X64495000Y-70000000I0J150000D01*
G01*
G37*
%TD.AperFunction*%
%TO.P,U2,7*%
%TO.N,N/C*%
%TA.AperFunction,SMDPad,CuDef*%
G36*
G01*
X64495000Y-68730000D02*
X64495000Y-68430000D01*
G75*
G02*
X64645000Y-68280000I150000J0D01*
G01*
X66295000Y-68280000D01*
G75*
G02*
X66445000Y-68430000I0J-150000D01*
G01*
X66445000Y-68730000D01*
G75*
G02*
X66295000Y-68880000I-150000J0D01*
G01*
X64645000Y-68880000D01*
G75*
G02*
X64495000Y-68730000I0J150000D01*
G01*
G37*
%TD.AperFunction*%
%TO.P,U2,6*%
%TA.AperFunction,SMDPad,CuDef*%
G36*
G01*
X64495000Y-67460000D02*
X64495000Y-67160000D01*
G75*
G02*
X64645000Y-67010000I150000J0D01*
G01*
X66295000Y-67010000D01*
G75*
G02*
X66445000Y-67160000I0J-150000D01*
G01*
X66445000Y-67460000D01*
G75*
G02*
X66295000Y-67610000I-150000J0D01*
G01*
X64645000Y-67610000D01*
G75*
G02*
X64495000Y-67460000I0J150000D01*
G01*
G37*
%TD.AperFunction*%
%TO.P,U2,5*%
%TA.AperFunction,SMDPad,CuDef*%
G36*
G01*
X64495000Y-66190000D02*
X64495000Y-65890000D01*
G75*
G02*
X64645000Y-65740000I150000J0D01*
G01*
X66295000Y-65740000D01*
G75*
G02*
X66445000Y-65890000I0J-150000D01*
G01*
X66445000Y-66190000D01*
G75*
G02*
X66295000Y-66340000I-150000J0D01*
G01*
X64645000Y-66340000D01*
G75*
G02*
X64495000Y-66190000I0J150000D01*
G01*
G37*
%TD.AperFunction*%
%TO.P,U2,4*%
%TA.AperFunction,SMDPad,CuDef*%
G36*
G01*
X64495000Y-64920000D02*
X64495000Y-64620000D01*
G75*
G02*
X64645000Y-64470000I150000J0D01*
G01*
X66295000Y-64470000D01*
G75*
G02*
X66445000Y-64620000I0J-150000D01*
G01*
X66445000Y-64920000D01*
G75*
G02*
X66295000Y-65070000I-150000J0D01*
G01*
X64645000Y-65070000D01*
G75*
G02*
X64495000Y-64920000I0J150000D01*
G01*
G37*
%TD.AperFunction*%
%TO.P,U2,3*%
%TO.N,Net-(Q2-Pad1)*%
%TA.AperFunction,SMDPad,CuDef*%
G36*
G01*
X64495000Y-63650000D02*
X64495000Y-63350000D01*
G75*
G02*
X64645000Y-63200000I150000J0D01*
G01*
X66295000Y-63200000D01*
G75*
G02*
X66445000Y-63350000I0J-150000D01*
G01*
X66445000Y-63650000D01*
G75*
G02*
X66295000Y-63800000I-150000J0D01*
G01*
X64645000Y-63800000D01*
G75*
G02*
X64495000Y-63650000I0J150000D01*
G01*
G37*
%TD.AperFunction*%
%TO.P,U2,2*%
%TO.N,N/C*%
%TA.AperFunction,SMDPad,CuDef*%
G36*
G01*
X64495000Y-62380000D02*
X64495000Y-62080000D01*
G75*
G02*
X64645000Y-61930000I150000J0D01*
G01*
X66295000Y-61930000D01*
G75*
G02*
X66445000Y-62080000I0J-150000D01*
G01*
X66445000Y-62380000D01*
G75*
G02*
X66295000Y-62530000I-150000J0D01*
G01*
X64645000Y-62530000D01*
G75*
G02*
X64495000Y-62380000I0J150000D01*
G01*
G37*
%TD.AperFunction*%
%TO.P,U2,1*%
%TA.AperFunction,SMDPad,CuDef*%
G36*
G01*
X64495000Y-61110000D02*
X64495000Y-60810000D01*
G75*
G02*
X64645000Y-60660000I150000J0D01*
G01*
X66295000Y-60660000D01*
G75*
G02*
X66445000Y-60810000I0J-150000D01*
G01*
X66445000Y-61110000D01*
G75*
G02*
X66295000Y-61260000I-150000J0D01*
G01*
X64645000Y-61260000D01*
G75*
G02*
X64495000Y-61110000I0J150000D01*
G01*
G37*
%TD.AperFunction*%
%TD*%
D22*
%TO.P,C1,2*%
%TO.N,GND*%
X60920000Y-59690000D03*
D23*
%TO.P,C1,1*%
%TO.N,Net-(C1-Pad1)*%
X58420000Y-59690000D03*
%TD*%
%TO.P,C3,2*%
%TO.N,GND*%
%TA.AperFunction,SMDPad,CuDef*%
G36*
G01*
X68502500Y-79390003D02*
X68502500Y-78089997D01*
G75*
G02*
X68752497Y-77840000I249997J0D01*
G01*
X69577503Y-77840000D01*
G75*
G02*
X69827500Y-78089997I0J-249997D01*
G01*
X69827500Y-79390003D01*
G75*
G02*
X69577503Y-79640000I-249997J0D01*
G01*
X68752497Y-79640000D01*
G75*
G02*
X68502500Y-79390003I0J249997D01*
G01*
G37*
%TD.AperFunction*%
%TO.P,C3,1*%
%TO.N,+5V*%
%TA.AperFunction,SMDPad,CuDef*%
G36*
G01*
X65377500Y-79390003D02*
X65377500Y-78089997D01*
G75*
G02*
X65627497Y-77840000I249997J0D01*
G01*
X66452503Y-77840000D01*
G75*
G02*
X66702500Y-78089997I0J-249997D01*
G01*
X66702500Y-79390003D01*
G75*
G02*
X66452503Y-79640000I-249997J0D01*
G01*
X65627497Y-79640000D01*
G75*
G02*
X65377500Y-79390003I0J249997D01*
G01*
G37*
%TD.AperFunction*%
%TD*%
%TO.P,C2,2*%
%TO.N,GND*%
%TA.AperFunction,SMDPad,CuDef*%
G36*
G01*
X52677500Y-62880003D02*
X52677500Y-61579997D01*
G75*
G02*
X52927497Y-61330000I249997J0D01*
G01*
X53752503Y-61330000D01*
G75*
G02*
X54002500Y-61579997I0J-249997D01*
G01*
X54002500Y-62880003D01*
G75*
G02*
X53752503Y-63130000I-249997J0D01*
G01*
X52927497Y-63130000D01*
G75*
G02*
X52677500Y-62880003I0J249997D01*
G01*
G37*
%TD.AperFunction*%
%TO.P,C2,1*%
%TO.N,Net-(C1-Pad1)*%
%TA.AperFunction,SMDPad,CuDef*%
G36*
G01*
X49552500Y-62880003D02*
X49552500Y-61579997D01*
G75*
G02*
X49802497Y-61330000I249997J0D01*
G01*
X50627503Y-61330000D01*
G75*
G02*
X50877500Y-61579997I0J-249997D01*
G01*
X50877500Y-62880003D01*
G75*
G02*
X50627503Y-63130000I-249997J0D01*
G01*
X49802497Y-63130000D01*
G75*
G02*
X49552500Y-62880003I0J249997D01*
G01*
G37*
%TD.AperFunction*%
%TD*%
%TO.P,R2,2*%
%TO.N,Net-(D2-Pad2)*%
%TA.AperFunction,SMDPad,CuDef*%
G36*
G01*
X102500000Y-84445001D02*
X102500000Y-83194999D01*
G75*
G02*
X102749999Y-82945000I249999J0D01*
G01*
X103550001Y-82945000D01*
G75*
G02*
X103800000Y-83194999I0J-249999D01*
G01*
X103800000Y-84445001D01*
G75*
G02*
X103550001Y-84695000I-249999J0D01*
G01*
X102749999Y-84695000D01*
G75*
G02*
X102500000Y-84445001I0J249999D01*
G01*
G37*
%TD.AperFunction*%
%TO.P,R2,1*%
%TO.N,+5V*%
%TA.AperFunction,SMDPad,CuDef*%
G36*
G01*
X99400000Y-84445001D02*
X99400000Y-83194999D01*
G75*
G02*
X99649999Y-82945000I249999J0D01*
G01*
X100450001Y-82945000D01*
G75*
G02*
X100700000Y-83194999I0J-249999D01*
G01*
X100700000Y-84445001D01*
G75*
G02*
X100450001Y-84695000I-249999J0D01*
G01*
X99649999Y-84695000D01*
G75*
G02*
X99400000Y-84445001I0J249999D01*
G01*
G37*
%TD.AperFunction*%
%TD*%
%TO.P,R1,2*%
%TO.N,Net-(D1-Pad2)*%
%TA.AperFunction,SMDPad,CuDef*%
G36*
G01*
X102500000Y-79365001D02*
X102500000Y-78114999D01*
G75*
G02*
X102749999Y-77865000I249999J0D01*
G01*
X103550001Y-77865000D01*
G75*
G02*
X103800000Y-78114999I0J-249999D01*
G01*
X103800000Y-79365001D01*
G75*
G02*
X103550001Y-79615000I-249999J0D01*
G01*
X102749999Y-79615000D01*
G75*
G02*
X102500000Y-79365001I0J249999D01*
G01*
G37*
%TD.AperFunction*%
%TO.P,R1,1*%
%TO.N,+5V*%
%TA.AperFunction,SMDPad,CuDef*%
G36*
G01*
X99400000Y-79365001D02*
X99400000Y-78114999D01*
G75*
G02*
X99649999Y-77865000I249999J0D01*
G01*
X100450001Y-77865000D01*
G75*
G02*
X100700000Y-78114999I0J-249999D01*
G01*
X100700000Y-79365001D01*
G75*
G02*
X100450001Y-79615000I-249999J0D01*
G01*
X99649999Y-79615000D01*
G75*
G02*
X99400000Y-79365001I0J249999D01*
G01*
G37*
%TD.AperFunction*%
%TD*%
%TO.P,D2,2*%
%TO.N,Net-(D2-Pad2)*%
%TA.AperFunction,SMDPad,CuDef*%
G36*
G01*
X121145000Y-80020000D02*
X121145000Y-81270000D01*
G75*
G02*
X120895000Y-81520000I-250000J0D01*
G01*
X119970000Y-81520000D01*
G75*
G02*
X119720000Y-81270000I0J250000D01*
G01*
X119720000Y-80020000D01*
G75*
G02*
X119970000Y-79770000I250000J0D01*
G01*
X120895000Y-79770000D01*
G75*
G02*
X121145000Y-80020000I0J-250000D01*
G01*
G37*
%TD.AperFunction*%
%TO.P,D2,1*%
%TO.N,Net-(D2-Pad1)*%
%TA.AperFunction,SMDPad,CuDef*%
G36*
G01*
X124120000Y-80020000D02*
X124120000Y-81270000D01*
G75*
G02*
X123870000Y-81520000I-250000J0D01*
G01*
X122945000Y-81520000D01*
G75*
G02*
X122695000Y-81270000I0J250000D01*
G01*
X122695000Y-80020000D01*
G75*
G02*
X122945000Y-79770000I250000J0D01*
G01*
X123870000Y-79770000D01*
G75*
G02*
X124120000Y-80020000I0J-250000D01*
G01*
G37*
%TD.AperFunction*%
%TD*%
%TO.P,D1,2*%
%TO.N,Net-(D1-Pad2)*%
%TA.AperFunction,SMDPad,CuDef*%
G36*
G01*
X111620000Y-80020000D02*
X111620000Y-81270000D01*
G75*
G02*
X111370000Y-81520000I-250000J0D01*
G01*
X110445000Y-81520000D01*
G75*
G02*
X110195000Y-81270000I0J250000D01*
G01*
X110195000Y-80020000D01*
G75*
G02*
X110445000Y-79770000I250000J0D01*
G01*
X111370000Y-79770000D01*
G75*
G02*
X111620000Y-80020000I0J-250000D01*
G01*
G37*
%TD.AperFunction*%
%TO.P,D1,1*%
%TO.N,GND*%
%TA.AperFunction,SMDPad,CuDef*%
G36*
G01*
X114595000Y-80020000D02*
X114595000Y-81270000D01*
G75*
G02*
X114345000Y-81520000I-250000J0D01*
G01*
X113420000Y-81520000D01*
G75*
G02*
X113170000Y-81270000I0J250000D01*
G01*
X113170000Y-80020000D01*
G75*
G02*
X113420000Y-79770000I250000J0D01*
G01*
X114345000Y-79770000D01*
G75*
G02*
X114595000Y-80020000I0J-250000D01*
G01*
G37*
%TD.AperFunction*%
%TD*%
%TO.P,J1,3*%
%TO.N,N/C*%
%TA.AperFunction,ComponentPad*%
G36*
G01*
X57925000Y-48590000D02*
X59675000Y-48590000D01*
G75*
G02*
X60550000Y-49465000I0J-875000D01*
G01*
X60550000Y-51215000D01*
G75*
G02*
X59675000Y-52090000I-875000J0D01*
G01*
X57925000Y-52090000D01*
G75*
G02*
X57050000Y-51215000I0J875000D01*
G01*
X57050000Y-49465000D01*
G75*
G02*
X57925000Y-48590000I875000J0D01*
G01*
G37*
%TD.AperFunction*%
%TO.P,J1,2*%
%TO.N,GND*%
%TA.AperFunction,ComponentPad*%
G36*
G01*
X62500000Y-45840000D02*
X64500000Y-45840000D01*
G75*
G02*
X65250000Y-46590000I0J-750000D01*
G01*
X65250000Y-48090000D01*
G75*
G02*
X64500000Y-48840000I-750000J0D01*
G01*
X62500000Y-48840000D01*
G75*
G02*
X61750000Y-48090000I0J750000D01*
G01*
X61750000Y-46590000D01*
G75*
G02*
X62500000Y-45840000I750000J0D01*
G01*
G37*
%TD.AperFunction*%
D24*
%TO.P,J1,1*%
%TO.N,Net-(C1-Pad1)*%
X63500000Y-53340000D03*
%TD*%
D25*
%TO.N,+5V*%
X97790000Y-81280000D03*
D26*
%TO.N,/display/SEG2*%
X91059000Y-59055000D03*
X115316000Y-59055000D03*
X109093000Y-59055000D03*
X98806000Y-59055000D03*
%TO.N,/display/SEG3*%
X92499000Y-58377000D03*
X100076000Y-58420000D03*
X107696000Y-58420000D03*
X116840000Y-58420000D03*
%TO.N,/display/SEG0*%
X93929200Y-62865000D03*
X119761000Y-62865000D03*
X104444800Y-62865000D03*
X112115600Y-62865000D03*
%TO.N,/display/SEG8*%
X95351600Y-62230000D03*
X102997000Y-62230000D03*
X110617000Y-62230000D03*
X118364000Y-62230000D03*
%TO.N,/display/SEG7*%
X112014000Y-60960000D03*
X119634000Y-60960000D03*
X96799400Y-60960000D03*
X104394000Y-60960000D03*
%TO.N,/display/SEG1*%
X105410000Y-63500000D03*
X96799400Y-63500000D03*
X113030000Y-63500000D03*
X101600000Y-63500000D03*
%TO.N,/display/SEG6*%
X96139000Y-61595000D03*
X111379000Y-61595000D03*
X103759000Y-61595000D03*
X118999000Y-61595000D03*
%TO.N,/display/SEG5*%
X115443000Y-60325000D03*
X92506800Y-60325000D03*
X100203000Y-60325000D03*
X107696000Y-60325000D03*
%TO.N,/display/SEG4*%
X114681000Y-59690000D03*
X107061000Y-59690000D03*
X99441000Y-59690000D03*
X91821000Y-59690000D03*
D25*
%TO.N,+3V3*%
X75565000Y-97155000D03*
X73025000Y-57150000D03*
X79375000Y-54610000D03*
D26*
%TO.N,SDA*%
X76200000Y-85090000D03*
%TO.N,SCL*%
X78740000Y-83820000D03*
%TO.N,/display/SEG2*%
X122555000Y-59055000D03*
%TO.N,/display/SEG3*%
X126365000Y-59055000D03*
%TO.N,/display/SEG0*%
X122555000Y-62865000D03*
%TO.N,/display/SEG8*%
X127635000Y-62865000D03*
%TO.N,/display/SEG7*%
X131445000Y-61595000D03*
%TO.N,/display/SEG1*%
X126365000Y-63500000D03*
%TO.N,/display/SEG6*%
X127635000Y-61595000D03*
%TO.N,/display/SEG5*%
X131445000Y-60325000D03*
%TO.N,/display/SEG4*%
X127000000Y-59690000D03*
%TO.N,/display/~CS~*%
X121920000Y-56515000D03*
X131445000Y-58420000D03*
%TO.N,SCK*%
X122555000Y-57150000D03*
X125095000Y-57150000D03*
%TD*%
D27*
%TO.N,*%
X114300000Y-50800000D02*
X114300000Y-50165000D01*
X106680000Y-50800000D02*
X106680000Y-50165000D01*
D28*
%TO.N,GND*%
X78650000Y-92980000D02*
X81010000Y-92980000D01*
X81010000Y-92980000D02*
X81280000Y-92710000D01*
X74900000Y-95430000D02*
X75550000Y-95430000D01*
X76850000Y-95430000D02*
X77500000Y-95430000D01*
X73750000Y-92980000D02*
X71390000Y-92980000D01*
X76200000Y-90530000D02*
X77500000Y-90530000D01*
D27*
%TO.N,+5V*%
X65120000Y-79660000D02*
X66040000Y-78740000D01*
X61380000Y-79660000D02*
X65120000Y-79660000D01*
%TO.N,Net-(D1-Pad2)*%
X109002500Y-78740000D02*
X110907500Y-80645000D01*
X103150000Y-78740000D02*
X109002500Y-78740000D01*
%TO.N,Net-(D2-Pad2)*%
X117257500Y-83820000D02*
X120432500Y-80645000D01*
X103150000Y-83820000D02*
X117257500Y-83820000D01*
%TO.N,*%
X96520000Y-71120000D02*
X96520000Y-71755000D01*
%TO.N,Net-(A1-Pad1)*%
X116840000Y-71120000D02*
X116840000Y-73660000D01*
X116840000Y-73660000D02*
X115570000Y-74930000D01*
X109220000Y-71120000D02*
X109220000Y-74930000D01*
X115570000Y-74930000D02*
X109220000Y-74930000D01*
X81915000Y-58065000D02*
X82195000Y-58065000D01*
X84050000Y-59920000D02*
X84050000Y-62230000D01*
X82195000Y-58065000D02*
X84050000Y-59920000D01*
X84050000Y-62230000D02*
X84050000Y-73255000D01*
X85725000Y-74930000D02*
X109220000Y-74930000D01*
X84050000Y-73255000D02*
X85725000Y-74930000D01*
%TO.N,+5V*%
X69850000Y-82550000D02*
X90805000Y-82550000D01*
X66040000Y-78740000D02*
X69850000Y-82550000D01*
X100050000Y-78740000D02*
X100050000Y-79020000D01*
X100050000Y-79020000D02*
X97790000Y-81280000D01*
X100050000Y-83540000D02*
X100050000Y-83820000D01*
X97790000Y-81280000D02*
X100050000Y-83540000D01*
X96520000Y-82550000D02*
X97790000Y-81280000D01*
X90805000Y-82550000D02*
X96520000Y-82550000D01*
D28*
%TO.N,/display/SEG2*%
X115359000Y-59012000D02*
X115316000Y-59055000D01*
X115359000Y-55960000D02*
X115359000Y-59012000D01*
X109179000Y-55960000D02*
X109179000Y-58969000D01*
X91059000Y-55960000D02*
X91059000Y-59055000D01*
X98679000Y-55960000D02*
X98679000Y-58928000D01*
X98679000Y-58928000D02*
X98806000Y-59055000D01*
X109179000Y-58969000D02*
X109093000Y-59055000D01*
X109179000Y-59141000D02*
X109093000Y-59055000D01*
X109179000Y-65960000D02*
X109179000Y-59141000D01*
%TO.N,/display/SEG3*%
X92499000Y-55960000D02*
X92499000Y-58377000D01*
X100119000Y-58377000D02*
X100076000Y-58420000D01*
X100119000Y-55960000D02*
X100119000Y-58377000D01*
X107739000Y-58377000D02*
X107696000Y-58420000D01*
X107739000Y-55960000D02*
X107739000Y-58377000D01*
X116799000Y-58379000D02*
X116840000Y-58420000D01*
X116799000Y-55960000D02*
X116799000Y-58379000D01*
%TO.N,/display/SEG0*%
X93939000Y-62855200D02*
X93929200Y-62865000D01*
X93929200Y-62865000D02*
X93929200Y-65950200D01*
X119679000Y-62947000D02*
X119761000Y-62865000D01*
X119679000Y-65960000D02*
X119679000Y-62947000D01*
X104439000Y-62870800D02*
X104444800Y-62865000D01*
X104439000Y-65960000D02*
X104439000Y-62870800D01*
X112059000Y-65960000D02*
X112059000Y-62921600D01*
X112059000Y-62921600D02*
X112115600Y-62865000D01*
%TO.N,/display/SEG8*%
X95379000Y-62202600D02*
X95351600Y-62230000D01*
X95379000Y-55960000D02*
X95379000Y-62202600D01*
X102999000Y-62228000D02*
X102997000Y-62230000D01*
X102999000Y-55960000D02*
X102999000Y-62228000D01*
X110619000Y-62228000D02*
X110617000Y-62230000D01*
X110619000Y-55960000D02*
X110619000Y-62228000D01*
X118239000Y-62105000D02*
X118364000Y-62230000D01*
X118239000Y-55960000D02*
X118239000Y-62105000D01*
%TO.N,/display/SEG7*%
X104439000Y-60915000D02*
X104394000Y-60960000D01*
X104439000Y-55960000D02*
X104439000Y-60915000D01*
X112059000Y-60915000D02*
X112014000Y-60960000D01*
X112059000Y-55960000D02*
X112059000Y-60915000D01*
X119679000Y-60915000D02*
X119634000Y-60960000D01*
X119679000Y-55960000D02*
X119679000Y-60915000D01*
X96819000Y-60940400D02*
X96799400Y-60960000D01*
X96819000Y-55960000D02*
X96819000Y-60940400D01*
%TO.N,/display/SEG1*%
X106299000Y-55960000D02*
X106299000Y-59055000D01*
X105410000Y-59944000D02*
X105410000Y-63500000D01*
X106299000Y-59055000D02*
X105410000Y-59944000D01*
X101600000Y-63500000D02*
X101600000Y-65919000D01*
X113919000Y-55960000D02*
X113919000Y-58801000D01*
X113030000Y-59690000D02*
X113030000Y-63500000D01*
X113919000Y-58801000D02*
X113030000Y-59690000D01*
X96819000Y-63519600D02*
X96799400Y-63500000D01*
X96819000Y-65960000D02*
X96819000Y-63519600D01*
X101559000Y-63459000D02*
X101600000Y-63500000D01*
X101559000Y-55960000D02*
X101559000Y-63459000D01*
%TO.N,/display/SEG6*%
X95379000Y-65960000D02*
X95379000Y-63502000D01*
X95379000Y-63502000D02*
X96139000Y-62742000D01*
X96139000Y-62742000D02*
X96139000Y-61595000D01*
X118239000Y-63502000D02*
X118999000Y-62742000D01*
X110619000Y-65960000D02*
X110619000Y-63502000D01*
X111379000Y-62742000D02*
X111379000Y-61595000D01*
X110619000Y-63502000D02*
X111379000Y-62742000D01*
X102999000Y-65960000D02*
X102999000Y-63502000D01*
X103759000Y-62742000D02*
X103759000Y-61595000D01*
X102999000Y-63502000D02*
X103759000Y-62742000D01*
X118999000Y-62742000D02*
X118999000Y-61595000D01*
X118239000Y-63502000D02*
X118239000Y-65960000D01*
%TO.N,/display/SEG5*%
X107739000Y-60368000D02*
X107696000Y-60325000D01*
X115359000Y-60409000D02*
X115443000Y-60325000D01*
X115443000Y-60325000D02*
X115443000Y-65876000D01*
X107696000Y-60325000D02*
X107696000Y-65917000D01*
X92499000Y-60332800D02*
X92506800Y-60325000D01*
X92499000Y-65960000D02*
X92499000Y-60332800D01*
X100119000Y-65960000D02*
X100119000Y-60409000D01*
X100119000Y-60409000D02*
X100203000Y-60325000D01*
%TO.N,/display/SEG4*%
X113919000Y-65960000D02*
X113919000Y-60452000D01*
X113919000Y-60452000D02*
X114681000Y-59690000D01*
X106299000Y-65960000D02*
X106299000Y-60452000D01*
X106299000Y-60452000D02*
X107061000Y-59690000D01*
X98679000Y-65960000D02*
X98679000Y-60452000D01*
X98679000Y-60452000D02*
X99441000Y-59690000D01*
X91059000Y-65960000D02*
X91059000Y-60452000D01*
X91059000Y-60452000D02*
X91821000Y-59690000D01*
D27*
%TO.N,Net-(D2-Pad1)*%
X129135000Y-80645000D02*
X129540000Y-80240000D01*
X123407500Y-80645000D02*
X129135000Y-80645000D01*
%TO.N,+3V3*%
X100330000Y-53340000D02*
X122963300Y-53340000D01*
X99060000Y-52070000D02*
X100330000Y-53340000D01*
X122963300Y-53340000D02*
X126773300Y-57150000D01*
X99060000Y-50800000D02*
X99060000Y-52070000D01*
X128360800Y-58737500D02*
X126773300Y-57150000D01*
D28*
X129654300Y-58737500D02*
X128360800Y-58737500D01*
D27*
X99060000Y-52070000D02*
X97790000Y-53340000D01*
X97790000Y-53340000D02*
X88900000Y-53340000D01*
X87630000Y-53340000D02*
X86360000Y-53340000D01*
D28*
X76200000Y-95430000D02*
X76200000Y-96520000D01*
X75565000Y-97155000D02*
X76200000Y-96520000D01*
D27*
X88900000Y-53340000D02*
X87630000Y-53340000D01*
X83540000Y-53340000D02*
X81915000Y-54965000D01*
X86360000Y-53340000D02*
X83540000Y-53340000D01*
X73025000Y-57150000D02*
X72390000Y-57150000D01*
X70420000Y-59120000D02*
X70420000Y-60960000D01*
X72390000Y-57150000D02*
X70420000Y-59120000D01*
X79730000Y-54965000D02*
X79375000Y-54610000D01*
X81915000Y-54965000D02*
X79730000Y-54965000D01*
%TO.N,Net-(C1-Pad1)*%
X50380000Y-62395000D02*
X50215000Y-62230000D01*
X50380000Y-67660000D02*
X50380000Y-62395000D01*
X50215000Y-62230000D02*
X50215000Y-59005000D01*
X55880000Y-53340000D02*
X63500000Y-53340000D01*
X50215000Y-59005000D02*
X55880000Y-53340000D01*
%TO.N,Net-(C5-Pad1)*%
X74637500Y-64757500D02*
X74650000Y-64770000D01*
X74637500Y-60960000D02*
X74637500Y-64757500D01*
X73380000Y-66040000D02*
X74650000Y-64770000D01*
X73380000Y-66040000D02*
X70420000Y-66040000D01*
D28*
X76835000Y-58762500D02*
X74637500Y-60960000D01*
X76835000Y-58065000D02*
X76835000Y-58762500D01*
D27*
%TO.N,Net-(R6-Pad2)*%
X74650000Y-68580000D02*
X73380000Y-67310000D01*
X73380000Y-67310000D02*
X70420000Y-67310000D01*
%TO.N,Net-(R5-Pad2)*%
X73025000Y-70765000D02*
X74650000Y-72390000D01*
X72390000Y-68580000D02*
X73025000Y-69215000D01*
X73025000Y-69215000D02*
X73025000Y-70765000D01*
X70420000Y-68580000D02*
X72390000Y-68580000D01*
%TO.N,Net-(C4-Pad1)*%
X70420000Y-71982500D02*
X74637500Y-76200000D01*
X70420000Y-69850000D02*
X70420000Y-71982500D01*
%TO.N,Net-(C4-Pad2)*%
X77750000Y-76187500D02*
X77762500Y-76200000D01*
X77750000Y-68580000D02*
X77750000Y-76187500D01*
%TO.N,Net-(Q2-Pad1)*%
X66445000Y-63500000D02*
X67310000Y-62635000D01*
X65470000Y-63500000D02*
X66445000Y-63500000D01*
X67310000Y-62635000D02*
X67310000Y-57150000D01*
X69495000Y-54965000D02*
X69215000Y-55245000D01*
X69495000Y-54965000D02*
X68897500Y-55562500D01*
X76835000Y-54965000D02*
X69495000Y-54965000D01*
X68897500Y-55562500D02*
X69215000Y-55245000D01*
X67310000Y-57150000D02*
X68897500Y-55562500D01*
X81050000Y-61280000D02*
X81050000Y-60730000D01*
X81050000Y-60730000D02*
X79375000Y-59055000D01*
X79375000Y-57505000D02*
X76835000Y-54965000D01*
X79375000Y-59055000D02*
X79375000Y-57505000D01*
D28*
%TO.N,Net-(A1-Pad14)*%
X130490000Y-77240000D02*
X130490000Y-77155000D01*
D27*
X130490000Y-77155000D02*
X132715000Y-74930000D01*
X132715000Y-74930000D02*
X132715000Y-50800000D01*
X132715000Y-50800000D02*
X127000000Y-45085000D01*
X127000000Y-45085000D02*
X102870000Y-45085000D01*
X102870000Y-45085000D02*
X101600000Y-46355000D01*
X101600000Y-46355000D02*
X101600000Y-50800000D01*
D28*
%TO.N,Net-(TC1-Pad2)*%
X73750000Y-93630000D02*
X70200000Y-93630000D01*
X70200000Y-93630000D02*
X68580000Y-95250000D01*
X61582300Y-95250000D02*
X59550300Y-93218000D01*
X68580000Y-95250000D02*
X61582300Y-95250000D01*
%TO.N,Net-(TC1-Pad1)*%
X68337700Y-92330000D02*
X67449700Y-93218000D01*
X73750000Y-92330000D02*
X68337700Y-92330000D01*
%TO.N,SDA*%
X74900000Y-90530000D02*
X74900000Y-88295000D01*
X74900000Y-86390000D02*
X76200000Y-85090000D01*
X74900000Y-88295000D02*
X74900000Y-86390000D01*
%TO.N,SCL*%
X75550000Y-90530000D02*
X75550000Y-88915000D01*
X75550000Y-87010000D02*
X78740000Y-83820000D01*
X75550000Y-88915000D02*
X75550000Y-87010000D01*
%TO.N,Net-(C7-Pad1)*%
X129540000Y-63296800D02*
X129654300Y-63182500D01*
X129540000Y-65747500D02*
X129540000Y-63296800D01*
%TO.N,/display/SEG2*%
X122555000Y-60032800D02*
X122555000Y-59055000D01*
X123164700Y-60642500D02*
X122555000Y-60032800D01*
X124345700Y-60642500D02*
X123164700Y-60642500D01*
%TO.N,/display/SEG3*%
X116840000Y-60325000D02*
X116840000Y-65919000D01*
X116840000Y-58420000D02*
X116840000Y-60325000D01*
X125412500Y-60007500D02*
X124345700Y-60007500D01*
X126365000Y-59055000D02*
X125412500Y-60007500D01*
%TO.N,/display/SEG0*%
X93929200Y-56010800D02*
X93980000Y-55960000D01*
X93929200Y-62865000D02*
X93929200Y-56010800D01*
X124345700Y-61912500D02*
X122872500Y-61912500D01*
X122555000Y-62230000D02*
X122555000Y-62865000D01*
X122872500Y-61912500D02*
X122555000Y-62230000D01*
%TO.N,/display/SEG8*%
X127952500Y-62547500D02*
X129654300Y-62547500D01*
X127635000Y-62865000D02*
X127952500Y-62547500D01*
%TO.N,/display/SEG7*%
X131127500Y-61912500D02*
X129654300Y-61912500D01*
X131445000Y-61595000D02*
X131127500Y-61912500D01*
%TO.N,/display/SEG1*%
X125526700Y-61277500D02*
X124345700Y-61277500D01*
X126365000Y-62115800D02*
X125526700Y-61277500D01*
X126365000Y-63500000D02*
X126365000Y-62115800D01*
%TO.N,/display/SEG6*%
X127952500Y-61277500D02*
X129654300Y-61277500D01*
X127635000Y-61595000D02*
X127952500Y-61277500D01*
%TO.N,/display/SEG5*%
X131127500Y-60642500D02*
X131445000Y-60325000D01*
X129654300Y-60642500D02*
X131127500Y-60642500D01*
%TO.N,/display/SEG4*%
X127317500Y-60007500D02*
X129654300Y-60007500D01*
X127000000Y-59690000D02*
X127317500Y-60007500D01*
%TO.N,Net-(R3-Pad1)*%
X124460000Y-65760000D02*
X124486000Y-65760000D01*
X124486000Y-65760000D02*
X125730000Y-64516000D01*
X125287202Y-62547500D02*
X124345700Y-62547500D01*
X125730000Y-62990298D02*
X125287202Y-62547500D01*
X125730000Y-64516000D02*
X125730000Y-62990298D01*
%TO.N,/display/~CS~*%
X104140000Y-71120000D02*
X104140000Y-69215000D01*
X104140000Y-69215000D02*
X104775000Y-68580000D01*
X104775000Y-68580000D02*
X110490000Y-68580000D01*
X110490000Y-68580000D02*
X120650000Y-68580000D01*
X120650000Y-68580000D02*
X121285000Y-67945000D01*
X121285000Y-67945000D02*
X121285000Y-67310000D01*
X121285000Y-67310000D02*
X121285000Y-58420000D01*
X121285000Y-57150000D02*
X121920000Y-56515000D01*
X121285000Y-58420000D02*
X121285000Y-57150000D01*
X129654300Y-59372500D02*
X131127500Y-59372500D01*
X131127500Y-59372500D02*
X131445000Y-59055000D01*
X131445000Y-59055000D02*
X131445000Y-58420000D01*
%TO.N,MOSI*%
X101600000Y-71120000D02*
X101600000Y-68580000D01*
X101600000Y-68580000D02*
X102235000Y-67945000D01*
X102235000Y-67945000D02*
X110490000Y-67945000D01*
X110490000Y-67945000D02*
X120015000Y-67945000D01*
X120156502Y-67945000D02*
X120650000Y-67451502D01*
X120015000Y-67945000D02*
X120156502Y-67945000D01*
X120650000Y-67451502D02*
X120650000Y-58420000D01*
X120650000Y-56515000D02*
X121285000Y-55880000D01*
X120650000Y-58420000D02*
X120650000Y-56515000D01*
X124345700Y-58737500D02*
X124345700Y-56400700D01*
X123825000Y-55880000D02*
X121285000Y-55880000D01*
X124345700Y-56400700D02*
X123825000Y-55880000D01*
%TO.N,SCK*%
X124345700Y-59372500D02*
X125287202Y-59372500D01*
X125287202Y-59372500D02*
X125463201Y-59196501D01*
X121920000Y-58420000D02*
X121920000Y-68580000D01*
X106680000Y-69850000D02*
X106680000Y-71120000D01*
X107315000Y-69215000D02*
X106680000Y-69850000D01*
X121920000Y-68580000D02*
X121285000Y-69215000D01*
X121285000Y-69215000D02*
X107315000Y-69215000D01*
X121920000Y-57785000D02*
X122555000Y-57150000D01*
X121920000Y-58420000D02*
X121920000Y-57785000D01*
X125463201Y-57518201D02*
X125095000Y-57150000D01*
X125463201Y-59196501D02*
X125463201Y-57518201D01*
%TD*%
M02*
