%TF.GenerationSoftware,KiCad,Pcbnew,5.1.8+dfsg1-1+b1*%
%TF.CreationDate,2021-07-09T11:33:23-05:00*%
%TF.ProjectId,mqtt-thermocouple,6d717474-2d74-4686-9572-6d6f636f7570,A*%
%TF.SameCoordinates,Original*%
%TF.FileFunction,Legend,Bot*%
%TF.FilePolarity,Positive*%
%FSLAX46Y46*%
G04 Gerber Fmt 4.6, Leading zero omitted, Abs format (unit mm)*
G04 Created by KiCad (PCBNEW 5.1.8+dfsg1-1+b1) date 2021-07-09 11:33:23*
%MOMM*%
%LPD*%
G01*
G04 APERTURE LIST*
%ADD10C,0.150000*%
%ADD11C,0.120000*%
G04 APERTURE END LIST*
D10*
X51172619Y-93550952D02*
X51648809Y-93884285D01*
X51172619Y-94122380D02*
X52172619Y-94122380D01*
X52172619Y-93741428D01*
X52125000Y-93646190D01*
X52077380Y-93598571D01*
X51982142Y-93550952D01*
X51839285Y-93550952D01*
X51744047Y-93598571D01*
X51696428Y-93646190D01*
X51648809Y-93741428D01*
X51648809Y-94122380D01*
X51696428Y-93122380D02*
X51696428Y-92789047D01*
X51172619Y-92646190D02*
X51172619Y-93122380D01*
X52172619Y-93122380D01*
X52172619Y-92646190D01*
X52172619Y-92360476D02*
X51172619Y-92027142D01*
X52172619Y-91693809D01*
X51172619Y-91360476D02*
X52172619Y-91360476D01*
X51220238Y-90931904D02*
X51172619Y-90789047D01*
X51172619Y-90550952D01*
X51220238Y-90455714D01*
X51267857Y-90408095D01*
X51363095Y-90360476D01*
X51458333Y-90360476D01*
X51553571Y-90408095D01*
X51601190Y-90455714D01*
X51648809Y-90550952D01*
X51696428Y-90741428D01*
X51744047Y-90836666D01*
X51791666Y-90884285D01*
X51886904Y-90931904D01*
X51982142Y-90931904D01*
X52077380Y-90884285D01*
X52125000Y-90836666D01*
X52172619Y-90741428D01*
X52172619Y-90503333D01*
X52125000Y-90360476D01*
X51172619Y-89931904D02*
X52172619Y-89931904D01*
X52172619Y-89265238D02*
X52172619Y-89074761D01*
X52125000Y-88979523D01*
X52029761Y-88884285D01*
X51839285Y-88836666D01*
X51505952Y-88836666D01*
X51315476Y-88884285D01*
X51220238Y-88979523D01*
X51172619Y-89074761D01*
X51172619Y-89265238D01*
X51220238Y-89360476D01*
X51315476Y-89455714D01*
X51505952Y-89503333D01*
X51839285Y-89503333D01*
X52029761Y-89455714D01*
X52125000Y-89360476D01*
X52172619Y-89265238D01*
X51172619Y-88408095D02*
X52172619Y-88408095D01*
X51172619Y-87836666D01*
X52172619Y-87836666D01*
X51458333Y-86646190D02*
X51458333Y-86170000D01*
X51172619Y-86741428D02*
X52172619Y-86408095D01*
X51172619Y-86074761D01*
X50522619Y-93670000D02*
X49808333Y-93670000D01*
X49665476Y-93717619D01*
X49570238Y-93812857D01*
X49522619Y-93955714D01*
X49522619Y-94050952D01*
X50522619Y-93193809D02*
X49713095Y-93193809D01*
X49617857Y-93146190D01*
X49570238Y-93098571D01*
X49522619Y-93003333D01*
X49522619Y-92812857D01*
X49570238Y-92717619D01*
X49617857Y-92670000D01*
X49713095Y-92622380D01*
X50522619Y-92622380D01*
X49522619Y-91670000D02*
X49522619Y-92146190D01*
X50522619Y-92146190D01*
X49998809Y-91146190D02*
X49522619Y-91146190D01*
X50522619Y-91479523D02*
X49998809Y-91146190D01*
X50522619Y-90812857D01*
X50427380Y-89765238D02*
X50475000Y-89717619D01*
X50522619Y-89622380D01*
X50522619Y-89384285D01*
X50475000Y-89289047D01*
X50427380Y-89241428D01*
X50332142Y-89193809D01*
X50236904Y-89193809D01*
X50094047Y-89241428D01*
X49522619Y-89812857D01*
X49522619Y-89193809D01*
X50522619Y-88574761D02*
X50522619Y-88479523D01*
X50475000Y-88384285D01*
X50427380Y-88336666D01*
X50332142Y-88289047D01*
X50141666Y-88241428D01*
X49903571Y-88241428D01*
X49713095Y-88289047D01*
X49617857Y-88336666D01*
X49570238Y-88384285D01*
X49522619Y-88479523D01*
X49522619Y-88574761D01*
X49570238Y-88670000D01*
X49617857Y-88717619D01*
X49713095Y-88765238D01*
X49903571Y-88812857D01*
X50141666Y-88812857D01*
X50332142Y-88765238D01*
X50427380Y-88717619D01*
X50475000Y-88670000D01*
X50522619Y-88574761D01*
X50427380Y-87860476D02*
X50475000Y-87812857D01*
X50522619Y-87717619D01*
X50522619Y-87479523D01*
X50475000Y-87384285D01*
X50427380Y-87336666D01*
X50332142Y-87289047D01*
X50236904Y-87289047D01*
X50094047Y-87336666D01*
X49522619Y-87908095D01*
X49522619Y-87289047D01*
X49522619Y-86336666D02*
X49522619Y-86908095D01*
X49522619Y-86622380D02*
X50522619Y-86622380D01*
X50379761Y-86717619D01*
X50284523Y-86812857D01*
X50236904Y-86908095D01*
D11*
%TO.C,A1*%
X118210000Y-49430000D02*
X118210000Y-52170000D01*
X92610000Y-49430000D02*
X118210000Y-49430000D01*
X92610000Y-52170000D02*
X92610000Y-49430000D01*
X118210000Y-52170000D02*
X92610000Y-52170000D01*
X118210000Y-69750000D02*
X118210000Y-72490000D01*
X92610000Y-69750000D02*
X118210000Y-69750000D01*
X92610000Y-72490000D02*
X92610000Y-69750000D01*
X118210000Y-72490000D02*
X92610000Y-72490000D01*
X123440000Y-73910000D02*
X123440000Y-72160000D01*
X121690000Y-73910000D02*
X123440000Y-73910000D01*
X120650000Y-48140000D02*
X87630000Y-48140000D01*
X120650000Y-73780000D02*
X87630000Y-73780000D01*
X84970000Y-71120000D02*
X84970000Y-50800000D01*
X123310000Y-71120000D02*
X123310000Y-50800000D01*
X87630000Y-73780000D02*
G75*
G02*
X84970000Y-71120000I0J2660000D01*
G01*
X84970000Y-50800000D02*
G75*
G02*
X87630000Y-48140000I2660000J0D01*
G01*
X120650000Y-48140000D02*
G75*
G02*
X123310000Y-50800000I0J-2660000D01*
G01*
X123310000Y-71120000D02*
G75*
G02*
X120650000Y-73780000I-2660000J0D01*
G01*
D10*
X124356666Y-60245714D02*
X124356666Y-60721904D01*
X124642380Y-60150476D02*
X123642380Y-60483809D01*
X124642380Y-60817142D01*
X124642380Y-61674285D02*
X124642380Y-61102857D01*
X124642380Y-61388571D02*
X123642380Y-61388571D01*
X123785238Y-61293333D01*
X123880476Y-61198095D01*
X123928095Y-61102857D01*
%TD*%
M02*
