%TF.GenerationSoftware,KiCad,Pcbnew,6.0.4+dfsg-1+b1*%
%TF.CreationDate,2022-04-22T12:30:21-05:00*%
%TF.ProjectId,mqtt-thermocouple,6d717474-2d74-4686-9572-6d6f636f7570,B*%
%TF.SameCoordinates,Original*%
%TF.FileFunction,Copper,L2,Bot*%
%TF.FilePolarity,Positive*%
%FSLAX46Y46*%
G04 Gerber Fmt 4.6, Leading zero omitted, Abs format (unit mm)*
G04 Created by KiCad (PCBNEW 6.0.4+dfsg-1+b1) date 2022-04-22 12:30:21*
%MOMM*%
%LPD*%
G01*
G04 APERTURE LIST*
G04 Aperture macros list*
%AMRoundRect*
0 Rectangle with rounded corners*
0 $1 Rounding radius*
0 $2 $3 $4 $5 $6 $7 $8 $9 X,Y pos of 4 corners*
0 Add a 4 corners polygon primitive as box body*
4,1,4,$2,$3,$4,$5,$6,$7,$8,$9,$2,$3,0*
0 Add four circle primitives for the rounded corners*
1,1,$1+$1,$2,$3*
1,1,$1+$1,$4,$5*
1,1,$1+$1,$6,$7*
1,1,$1+$1,$8,$9*
0 Add four rect primitives between the rounded corners*
20,1,$1+$1,$2,$3,$4,$5,0*
20,1,$1+$1,$4,$5,$6,$7,0*
20,1,$1+$1,$6,$7,$8,$9,0*
20,1,$1+$1,$8,$9,$2,$3,0*%
G04 Aperture macros list end*
%TA.AperFunction,ComponentPad*%
%ADD10R,3.500000X3.500000*%
%TD*%
%TA.AperFunction,ComponentPad*%
%ADD11RoundRect,0.750000X-1.000000X0.750000X-1.000000X-0.750000X1.000000X-0.750000X1.000000X0.750000X0*%
%TD*%
%TA.AperFunction,ComponentPad*%
%ADD12RoundRect,0.875000X-0.875000X0.875000X-0.875000X-0.875000X0.875000X-0.875000X0.875000X0.875000X0*%
%TD*%
%TA.AperFunction,ComponentPad*%
%ADD13R,1.600000X1.600000*%
%TD*%
%TA.AperFunction,ComponentPad*%
%ADD14C,1.600000*%
%TD*%
%TA.AperFunction,ComponentPad*%
%ADD15C,0.500000*%
%TD*%
%TA.AperFunction,ComponentPad*%
%ADD16C,2.000000*%
%TD*%
%TA.AperFunction,ComponentPad*%
%ADD17R,1.900000X2.100000*%
%TD*%
%TA.AperFunction,ComponentPad*%
%ADD18O,1.900000X2.100000*%
%TD*%
%TA.AperFunction,ViaPad*%
%ADD19C,0.800000*%
%TD*%
%TA.AperFunction,ViaPad*%
%ADD20C,0.635000*%
%TD*%
%TA.AperFunction,Conductor*%
%ADD21C,0.889000*%
%TD*%
%TA.AperFunction,Conductor*%
%ADD22C,0.381000*%
%TD*%
G04 APERTURE END LIST*
D10*
%TO.P,J1,1*%
%TO.N,Net-(C1-Pad1)*%
X63500000Y-53340000D03*
D11*
%TO.P,J1,2*%
%TO.N,GND*%
X63500000Y-47340000D03*
D12*
%TO.P,J1,3*%
%TO.N,N/C*%
X58800000Y-50340000D03*
%TD*%
D13*
%TO.P,C1,1*%
%TO.N,Net-(C1-Pad1)*%
X58420000Y-59690000D03*
D14*
%TO.P,C1,2*%
%TO.N,GND*%
X60920000Y-59690000D03*
%TD*%
D15*
%TO.P,U1,22,EXP*%
%TO.N,unconnected-(U1-Pad21)*%
X75200000Y-91980000D03*
%TO.P,U1,23,EXP*%
X76200000Y-91980000D03*
%TO.P,U1,24,EXP*%
X77200000Y-91980000D03*
%TO.P,U1,25,EXP*%
X75200000Y-92980000D03*
%TO.P,U1,26,EXP*%
X76200000Y-92980000D03*
%TO.P,U1,27,EXP*%
X77200000Y-92980000D03*
%TO.P,U1,28,EXP*%
X75200000Y-93980000D03*
%TO.P,U1,29,EXP*%
X76200000Y-93980000D03*
%TO.P,U1,30,EXP*%
X77200000Y-93980000D03*
%TD*%
D16*
%TO.P,TC1,1,+*%
%TO.N,Net-(TC1-Pad1)*%
X67449700Y-93218000D03*
%TO.P,TC1,2,-*%
%TO.N,Net-(TC1-Pad2)*%
X59550300Y-93218000D03*
%TD*%
D17*
%TO.P,A1,1,~{RST}*%
%TO.N,Net-(A1-Pad1)*%
X116840000Y-71120000D03*
D18*
%TO.P,A1,2,A*%
%TO.N,unconnected-(A1-Pad2)*%
X114300000Y-71120000D03*
%TO.P,A1,3,EN*%
%TO.N,unconnected-(A1-Pad3)*%
X111760000Y-71120000D03*
%TO.P,A1,4,16*%
%TO.N,Net-(A1-Pad1)*%
X109220000Y-71120000D03*
%TO.P,A1,5,14*%
%TO.N,SCK*%
X106680000Y-71120000D03*
%TO.P,A1,6,12*%
%TO.N,/display/~{CS}*%
X104140000Y-71120000D03*
%TO.P,A1,7,13*%
%TO.N,MOSI*%
X101600000Y-71120000D03*
%TO.P,A1,8,V+*%
%TO.N,+5V*%
X99060000Y-71120000D03*
%TO.P,A1,9,VBat*%
%TO.N,unconnected-(A1-Pad9)*%
X96520000Y-71120000D03*
%TO.P,A1,10,GND*%
%TO.N,GND*%
X93980000Y-71120000D03*
%TO.P,A1,11,GND*%
X93980000Y-50800000D03*
%TO.P,A1,12,LDO*%
%TO.N,unconnected-(A1-Pad12)*%
X96520000Y-50800000D03*
%TO.P,A1,13,3V*%
%TO.N,+3V3*%
X99060000Y-50800000D03*
%TO.P,A1,14,15*%
%TO.N,Net-(A1-Pad14)*%
X101600000Y-50800000D03*
%TO.P,A1,15,2*%
%TO.N,unconnected-(A1-Pad15)*%
X104140000Y-50800000D03*
%TO.P,A1,16,0*%
%TO.N,unconnected-(A1-Pad16)*%
X106680000Y-50800000D03*
%TO.P,A1,17,4*%
%TO.N,SDA*%
X109220000Y-50800000D03*
%TO.P,A1,18,5*%
%TO.N,SCL*%
X111760000Y-50800000D03*
%TO.P,A1,19,RX*%
%TO.N,unconnected-(A1-Pad19)*%
X114300000Y-50800000D03*
%TO.P,A1,20,TX*%
%TO.N,unconnected-(A1-Pad20)*%
X116840000Y-50800000D03*
%TD*%
D19*
%TO.N,GND*%
X120650000Y-46990000D03*
%TO.N,+5V*%
X97790000Y-81280000D03*
%TO.N,+3V3*%
X73025000Y-57150000D03*
X79375000Y-54610000D03*
X75565000Y-97155000D03*
D20*
%TO.N,SDA*%
X76200000Y-85090000D03*
X83058000Y-85090000D03*
%TO.N,SCL*%
X78740000Y-83820000D03*
X85344000Y-83820000D03*
%TO.N,/display/SEG2*%
X91059000Y-59055000D03*
X115316000Y-59055000D03*
X109093000Y-59055000D03*
X98806000Y-59055000D03*
X122555000Y-59055000D03*
%TO.N,/display/SEG3*%
X92499000Y-58377000D03*
X100076000Y-58420000D03*
X107696000Y-58420000D03*
X116840000Y-58420000D03*
X126365000Y-59055000D03*
%TO.N,/display/SEG0*%
X93929200Y-62865000D03*
X119761000Y-62865000D03*
X104444800Y-62865000D03*
X112115600Y-62865000D03*
X122555000Y-62865000D03*
%TO.N,/display/SEG8*%
X95351600Y-62230000D03*
X102997000Y-62230000D03*
X110617000Y-62230000D03*
X118364000Y-62230000D03*
X127635000Y-62865000D03*
%TO.N,/display/SEG7*%
X112014000Y-60960000D03*
X119634000Y-60960000D03*
X96799400Y-60960000D03*
X104394000Y-60960000D03*
X131445000Y-61595000D03*
%TO.N,/display/SEG1*%
X105410000Y-63500000D03*
X96799400Y-63500000D03*
X113030000Y-63500000D03*
X101600000Y-63500000D03*
X126365000Y-63500000D03*
%TO.N,/display/SEG6*%
X96139000Y-61595000D03*
X111379000Y-61595000D03*
X103759000Y-61595000D03*
X118999000Y-61595000D03*
X127635000Y-61595000D03*
%TO.N,/display/SEG5*%
X115443000Y-60325000D03*
X92506800Y-60325000D03*
X100203000Y-60325000D03*
X107696000Y-60325000D03*
X131445000Y-60325000D03*
%TO.N,/display/SEG4*%
X114681000Y-59690000D03*
X107061000Y-59690000D03*
X99441000Y-59690000D03*
X91821000Y-59690000D03*
X127000000Y-59690000D03*
%TO.N,/display/~{CS}*%
X121920000Y-56515000D03*
X131445000Y-58420000D03*
%TO.N,SCK*%
X125095000Y-57150000D03*
X122555000Y-57150000D03*
%TD*%
D21*
%TO.N,+5V*%
X99060000Y-80010000D02*
X97790000Y-81280000D01*
X99060000Y-71120000D02*
X99060000Y-80010000D01*
%TO.N,+3V3*%
X79375000Y-54610000D02*
X76835000Y-57150000D01*
X76835000Y-57150000D02*
X73025000Y-57150000D01*
D22*
X73025000Y-94615000D02*
X75565000Y-97155000D01*
X73025000Y-78740000D02*
X73025000Y-57150000D01*
X73025000Y-78740000D02*
X73025000Y-94615000D01*
D21*
%TO.N,Net-(C1-Pad1)*%
X63500000Y-53340000D02*
X60861000Y-53340000D01*
X58420000Y-55781000D02*
X58420000Y-59690000D01*
X60861000Y-53340000D02*
X58420000Y-55781000D01*
D22*
%TO.N,SDA*%
X88900000Y-49530000D02*
X90170000Y-48260000D01*
X76200000Y-85090000D02*
X83058000Y-85090000D01*
X83058000Y-85090000D02*
X85090000Y-85090000D01*
X88900000Y-83820000D02*
X88900000Y-49530000D01*
X107950000Y-48260000D02*
X109220000Y-49530000D01*
X85090000Y-85090000D02*
X85598000Y-85090000D01*
X87630000Y-85090000D02*
X88900000Y-83820000D01*
X85598000Y-85090000D02*
X87630000Y-85090000D01*
X109220000Y-49530000D02*
X109220000Y-50800000D01*
X90170000Y-48260000D02*
X107950000Y-48260000D01*
%TO.N,SCL*%
X78740000Y-83820000D02*
X85344000Y-83820000D01*
X89535000Y-46990000D02*
X87630000Y-48895000D01*
X111760000Y-50800000D02*
X111760000Y-48260000D01*
X111760000Y-48260000D02*
X110490000Y-46990000D01*
X85344000Y-83820000D02*
X86360000Y-83820000D01*
X110490000Y-46990000D02*
X89535000Y-46990000D01*
X87630000Y-48895000D02*
X87630000Y-73660000D01*
X86360000Y-83820000D02*
X87630000Y-82550000D01*
X87630000Y-82550000D02*
X87630000Y-73660000D01*
%TO.N,/display/SEG2*%
X91059000Y-59055000D02*
X98806000Y-59055000D01*
X109093000Y-59055000D02*
X115316000Y-59055000D01*
X98806000Y-59055000D02*
X109093000Y-59055000D01*
X121920000Y-59055000D02*
X115316000Y-59055000D01*
X122555000Y-59055000D02*
X121920000Y-59055000D01*
%TO.N,/display/SEG3*%
X107696000Y-58420000D02*
X116840000Y-58420000D01*
X92075000Y-58420000D02*
X100076000Y-58420000D01*
X100076000Y-58420000D02*
X107696000Y-58420000D01*
X125730000Y-58420000D02*
X126365000Y-59055000D01*
X116840000Y-58420000D02*
X125730000Y-58420000D01*
%TO.N,/display/SEG0*%
X93929200Y-62865000D02*
X104444800Y-62865000D01*
X112115600Y-62865000D02*
X119761000Y-62865000D01*
X104444800Y-62865000D02*
X112115600Y-62865000D01*
X122555000Y-62865000D02*
X119761000Y-62865000D01*
%TO.N,/display/SEG8*%
X102997000Y-62230000D02*
X110617000Y-62230000D01*
X110617000Y-62230000D02*
X118364000Y-62230000D01*
X95351600Y-62230000D02*
X102997000Y-62230000D01*
X118364000Y-62230000D02*
X127000000Y-62230000D01*
X127000000Y-62230000D02*
X127635000Y-62865000D01*
%TO.N,/display/SEG7*%
X96799400Y-60960000D02*
X104394000Y-60960000D01*
X104394000Y-60960000D02*
X112014000Y-60960000D01*
X112014000Y-60960000D02*
X119634000Y-60960000D01*
X119634000Y-60960000D02*
X130810000Y-60960000D01*
X130810000Y-60960000D02*
X131445000Y-61595000D01*
%TO.N,/display/SEG1*%
X105410000Y-63500000D02*
X113030000Y-63500000D01*
X101600000Y-63500000D02*
X105410000Y-63500000D01*
X96799400Y-63500000D02*
X101600000Y-63500000D01*
X119990618Y-63500000D02*
X124460000Y-63500000D01*
X113030000Y-63500000D02*
X119990618Y-63500000D01*
X124460000Y-63500000D02*
X126365000Y-63500000D01*
%TO.N,/display/SEG6*%
X96139000Y-61595000D02*
X118237000Y-61595000D01*
X118999000Y-61595000D02*
X118237000Y-61595000D01*
X118999000Y-61595000D02*
X125095000Y-61595000D01*
X125095000Y-61595000D02*
X127635000Y-61595000D01*
%TO.N,/display/SEG5*%
X100203000Y-60325000D02*
X107696000Y-60325000D01*
X107696000Y-60325000D02*
X115443000Y-60325000D01*
X92506800Y-60325000D02*
X100203000Y-60325000D01*
X131445000Y-60325000D02*
X115443000Y-60325000D01*
%TO.N,/display/SEG4*%
X91821000Y-59690000D02*
X114681000Y-59690000D01*
X114681000Y-59690000D02*
X127000000Y-59690000D01*
%TO.N,/display/~{CS}*%
X129540000Y-56515000D02*
X131445000Y-58420000D01*
X121920000Y-56515000D02*
X129540000Y-56515000D01*
%TO.N,SCK*%
X125095000Y-57150000D02*
X122555000Y-57150000D01*
%TD*%
%TA.AperFunction,Conductor*%
%TO.N,GND*%
G36*
X126970018Y-43690000D02*
G01*
X126984852Y-43692310D01*
X126984855Y-43692310D01*
X126993724Y-43693691D01*
X127002627Y-43692527D01*
X127002628Y-43692527D01*
X127015874Y-43690795D01*
X127036703Y-43689811D01*
X127268761Y-43698099D01*
X127502836Y-43706459D01*
X127511808Y-43707101D01*
X128007597Y-43760404D01*
X128016500Y-43761684D01*
X128261865Y-43805953D01*
X128507233Y-43850222D01*
X128516017Y-43852133D01*
X128999186Y-43975454D01*
X129007806Y-43977986D01*
X129133305Y-44019756D01*
X129480944Y-44135461D01*
X129489371Y-44138604D01*
X129950071Y-44329432D01*
X129958253Y-44333169D01*
X130404150Y-44556369D01*
X130412044Y-44560679D01*
X130840897Y-44815130D01*
X130848464Y-44819993D01*
X131258068Y-45104386D01*
X131265268Y-45109776D01*
X131653534Y-45422660D01*
X131660332Y-45428550D01*
X132025296Y-45768344D01*
X132031656Y-45774704D01*
X132371450Y-46139668D01*
X132377340Y-46146466D01*
X132690224Y-46534732D01*
X132695614Y-46541932D01*
X132980007Y-46951536D01*
X132984870Y-46959103D01*
X133239321Y-47387956D01*
X133243631Y-47395850D01*
X133466831Y-47841747D01*
X133470568Y-47849929D01*
X133661396Y-48310629D01*
X133664539Y-48319056D01*
X133766040Y-48624016D01*
X133818732Y-48782330D01*
X133822013Y-48792189D01*
X133824546Y-48800814D01*
X133946328Y-49277950D01*
X133947867Y-49283981D01*
X133949778Y-49292767D01*
X133979808Y-49459208D01*
X134038316Y-49783500D01*
X134039596Y-49792403D01*
X134092899Y-50288192D01*
X134093541Y-50297164D01*
X134109920Y-50755769D01*
X134108500Y-50779649D01*
X134107690Y-50784848D01*
X134107690Y-50784855D01*
X134106309Y-50793724D01*
X134107473Y-50802626D01*
X134107473Y-50802628D01*
X134110436Y-50825283D01*
X134111500Y-50841621D01*
X134111500Y-101550633D01*
X134110000Y-101570018D01*
X134106309Y-101593724D01*
X134107473Y-101602627D01*
X134107473Y-101602628D01*
X134109205Y-101615874D01*
X134110189Y-101636703D01*
X134106609Y-101736951D01*
X134093541Y-102102836D01*
X134092899Y-102111808D01*
X134039596Y-102607597D01*
X134038316Y-102616500D01*
X133960166Y-103049661D01*
X133949779Y-103107230D01*
X133947867Y-103116017D01*
X133848133Y-103506774D01*
X133824547Y-103599181D01*
X133822014Y-103607806D01*
X133794295Y-103691091D01*
X133664539Y-104080944D01*
X133661396Y-104089371D01*
X133470568Y-104550071D01*
X133466831Y-104558253D01*
X133243631Y-105004150D01*
X133239321Y-105012044D01*
X132984870Y-105440897D01*
X132980007Y-105448464D01*
X132695614Y-105858068D01*
X132690224Y-105865268D01*
X132377340Y-106253534D01*
X132371450Y-106260332D01*
X132031656Y-106625296D01*
X132025296Y-106631656D01*
X131660332Y-106971450D01*
X131653534Y-106977340D01*
X131265268Y-107290224D01*
X131258068Y-107295614D01*
X130848464Y-107580007D01*
X130840897Y-107584870D01*
X130412044Y-107839321D01*
X130404150Y-107843631D01*
X129958253Y-108066831D01*
X129950071Y-108070568D01*
X129489371Y-108261396D01*
X129480944Y-108264539D01*
X129133305Y-108380244D01*
X129007806Y-108422014D01*
X128999186Y-108424546D01*
X128516019Y-108547867D01*
X128507233Y-108549778D01*
X128261865Y-108594048D01*
X128016500Y-108638316D01*
X128007597Y-108639596D01*
X127511808Y-108692899D01*
X127502836Y-108693541D01*
X127044231Y-108709920D01*
X127020351Y-108708500D01*
X127015152Y-108707690D01*
X127015145Y-108707690D01*
X127006276Y-108706309D01*
X126997374Y-108707473D01*
X126997372Y-108707473D01*
X126984129Y-108709205D01*
X126974714Y-108710436D01*
X126958379Y-108711500D01*
X50849367Y-108711500D01*
X50829982Y-108710000D01*
X50815148Y-108707690D01*
X50815145Y-108707690D01*
X50806276Y-108706309D01*
X50797373Y-108707473D01*
X50797372Y-108707473D01*
X50784126Y-108709205D01*
X50763297Y-108710189D01*
X50531239Y-108701901D01*
X50297164Y-108693541D01*
X50288192Y-108692899D01*
X49792403Y-108639596D01*
X49783500Y-108638316D01*
X49538135Y-108594048D01*
X49292767Y-108549778D01*
X49283981Y-108547867D01*
X48800814Y-108424546D01*
X48792194Y-108422014D01*
X48666695Y-108380244D01*
X48319056Y-108264539D01*
X48310629Y-108261396D01*
X47849929Y-108070568D01*
X47841747Y-108066831D01*
X47395850Y-107843631D01*
X47387956Y-107839321D01*
X46959103Y-107584870D01*
X46951536Y-107580007D01*
X46541932Y-107295614D01*
X46534732Y-107290224D01*
X46146466Y-106977340D01*
X46139668Y-106971450D01*
X45774704Y-106631656D01*
X45768344Y-106625296D01*
X45428550Y-106260332D01*
X45422660Y-106253534D01*
X45109776Y-105865268D01*
X45104386Y-105858068D01*
X44819993Y-105448464D01*
X44815130Y-105440897D01*
X44560679Y-105012044D01*
X44556369Y-105004150D01*
X44333169Y-104558253D01*
X44329432Y-104550071D01*
X44138604Y-104089371D01*
X44135461Y-104080944D01*
X44005705Y-103691091D01*
X43977986Y-103607806D01*
X43975453Y-103599181D01*
X43951868Y-103506774D01*
X43852133Y-103116017D01*
X43850221Y-103107230D01*
X43839835Y-103049661D01*
X43761684Y-102616500D01*
X43760404Y-102607597D01*
X43707101Y-102111808D01*
X43706459Y-102102836D01*
X43693240Y-101732703D01*
X48690743Y-101732703D01*
X48728268Y-102017734D01*
X48804129Y-102295036D01*
X48805813Y-102298984D01*
X48839539Y-102378052D01*
X48916923Y-102559476D01*
X49064561Y-102806161D01*
X49244313Y-103030528D01*
X49452851Y-103228423D01*
X49686317Y-103396186D01*
X49690112Y-103398195D01*
X49690113Y-103398196D01*
X49711869Y-103409715D01*
X49940392Y-103530712D01*
X49964699Y-103539607D01*
X50139407Y-103603541D01*
X50210373Y-103629511D01*
X50491264Y-103690755D01*
X50519841Y-103693004D01*
X50714282Y-103708307D01*
X50714291Y-103708307D01*
X50716739Y-103708500D01*
X50872271Y-103708500D01*
X50874407Y-103708354D01*
X50874418Y-103708354D01*
X51082548Y-103694165D01*
X51082554Y-103694164D01*
X51086825Y-103693873D01*
X51091020Y-103693004D01*
X51091022Y-103693004D01*
X51227584Y-103664723D01*
X51368342Y-103635574D01*
X51639343Y-103539607D01*
X51894812Y-103407750D01*
X51898313Y-103405289D01*
X51898317Y-103405287D01*
X52112499Y-103254757D01*
X52130023Y-103242441D01*
X52340622Y-103046740D01*
X52522713Y-102824268D01*
X52672927Y-102579142D01*
X52779104Y-102337263D01*
X62037564Y-102337263D01*
X62073904Y-102574744D01*
X62087552Y-102616500D01*
X62146934Y-102798183D01*
X62146937Y-102798189D01*
X62148542Y-102803101D01*
X62150929Y-102807687D01*
X62150931Y-102807691D01*
X62159561Y-102824268D01*
X62259475Y-103016200D01*
X62403723Y-103208320D01*
X62577412Y-103374301D01*
X62775878Y-103509686D01*
X62780561Y-103511860D01*
X62780565Y-103511862D01*
X62989095Y-103608658D01*
X62989099Y-103608659D01*
X62993790Y-103610837D01*
X63225298Y-103675040D01*
X63230435Y-103675589D01*
X63418093Y-103695644D01*
X63418101Y-103695644D01*
X63421428Y-103696000D01*
X63560902Y-103696000D01*
X63563475Y-103695788D01*
X63563486Y-103695788D01*
X63664446Y-103687487D01*
X63739437Y-103681322D01*
X63972444Y-103622794D01*
X64163762Y-103539607D01*
X64188026Y-103529057D01*
X64188029Y-103529055D01*
X64192763Y-103526997D01*
X64374053Y-103409715D01*
X64390137Y-103399310D01*
X64390140Y-103399308D01*
X64394477Y-103396502D01*
X64572170Y-103234814D01*
X64632847Y-103157983D01*
X64717867Y-103050330D01*
X64717870Y-103050325D01*
X64721068Y-103046276D01*
X64729762Y-103030528D01*
X64834677Y-102840474D01*
X64834679Y-102840470D01*
X64837174Y-102835950D01*
X64882670Y-102707476D01*
X64915644Y-102614360D01*
X64915645Y-102614356D01*
X64917370Y-102609485D01*
X64923476Y-102575208D01*
X64958595Y-102378052D01*
X64958596Y-102378046D01*
X64959501Y-102372963D01*
X64962436Y-102132737D01*
X64926096Y-101895256D01*
X64878779Y-101750488D01*
X64872966Y-101732703D01*
X124890743Y-101732703D01*
X124928268Y-102017734D01*
X125004129Y-102295036D01*
X125005813Y-102298984D01*
X125039539Y-102378052D01*
X125116923Y-102559476D01*
X125264561Y-102806161D01*
X125444313Y-103030528D01*
X125652851Y-103228423D01*
X125886317Y-103396186D01*
X125890112Y-103398195D01*
X125890113Y-103398196D01*
X125911869Y-103409715D01*
X126140392Y-103530712D01*
X126164699Y-103539607D01*
X126339407Y-103603541D01*
X126410373Y-103629511D01*
X126691264Y-103690755D01*
X126719841Y-103693004D01*
X126914282Y-103708307D01*
X126914291Y-103708307D01*
X126916739Y-103708500D01*
X127072271Y-103708500D01*
X127074407Y-103708354D01*
X127074418Y-103708354D01*
X127282548Y-103694165D01*
X127282554Y-103694164D01*
X127286825Y-103693873D01*
X127291020Y-103693004D01*
X127291022Y-103693004D01*
X127427584Y-103664723D01*
X127568342Y-103635574D01*
X127839343Y-103539607D01*
X128094812Y-103407750D01*
X128098313Y-103405289D01*
X128098317Y-103405287D01*
X128312499Y-103254757D01*
X128330023Y-103242441D01*
X128540622Y-103046740D01*
X128722713Y-102824268D01*
X128872927Y-102579142D01*
X128988483Y-102315898D01*
X129067244Y-102039406D01*
X129107751Y-101754784D01*
X129107845Y-101736951D01*
X129109235Y-101471583D01*
X129109235Y-101471576D01*
X129109257Y-101467297D01*
X129104116Y-101428243D01*
X129078699Y-101235186D01*
X129071732Y-101182266D01*
X128995871Y-100904964D01*
X128970698Y-100845947D01*
X128884763Y-100644476D01*
X128884761Y-100644472D01*
X128883077Y-100640524D01*
X128735439Y-100393839D01*
X128555687Y-100169472D01*
X128347149Y-99971577D01*
X128113683Y-99803814D01*
X128091843Y-99792250D01*
X128068654Y-99779972D01*
X127859608Y-99669288D01*
X127589627Y-99570489D01*
X127308736Y-99509245D01*
X127277685Y-99506801D01*
X127085718Y-99491693D01*
X127085709Y-99491693D01*
X127083261Y-99491500D01*
X126927729Y-99491500D01*
X126925593Y-99491646D01*
X126925582Y-99491646D01*
X126717452Y-99505835D01*
X126717446Y-99505836D01*
X126713175Y-99506127D01*
X126708980Y-99506996D01*
X126708978Y-99506996D01*
X126572416Y-99535277D01*
X126431658Y-99564426D01*
X126160657Y-99660393D01*
X125905188Y-99792250D01*
X125901687Y-99794711D01*
X125901683Y-99794713D01*
X125891594Y-99801804D01*
X125669977Y-99957559D01*
X125459378Y-100153260D01*
X125277287Y-100375732D01*
X125127073Y-100620858D01*
X125011517Y-100884102D01*
X124932756Y-101160594D01*
X124929672Y-101182266D01*
X124894665Y-101428243D01*
X124892249Y-101445216D01*
X124892227Y-101449505D01*
X124892226Y-101449512D01*
X124890765Y-101728417D01*
X124890743Y-101732703D01*
X64872966Y-101732703D01*
X64853066Y-101671817D01*
X64853063Y-101671811D01*
X64851458Y-101666899D01*
X64834979Y-101635242D01*
X64742916Y-101458393D01*
X64740525Y-101453800D01*
X64596277Y-101261680D01*
X64422588Y-101095699D01*
X64224122Y-100960314D01*
X64219439Y-100958140D01*
X64219435Y-100958138D01*
X64010905Y-100861342D01*
X64010901Y-100861341D01*
X64006210Y-100859163D01*
X63774702Y-100794960D01*
X63769565Y-100794411D01*
X63581907Y-100774356D01*
X63581899Y-100774356D01*
X63578572Y-100774000D01*
X63439098Y-100774000D01*
X63436525Y-100774212D01*
X63436514Y-100774212D01*
X63335554Y-100782513D01*
X63260563Y-100788678D01*
X63027556Y-100847206D01*
X62951744Y-100880170D01*
X62811974Y-100940943D01*
X62811971Y-100940945D01*
X62807237Y-100943003D01*
X62605523Y-101073498D01*
X62427830Y-101235186D01*
X62403641Y-101265815D01*
X62282133Y-101419670D01*
X62282130Y-101419675D01*
X62278932Y-101423724D01*
X62276439Y-101428240D01*
X62276437Y-101428243D01*
X62165323Y-101629526D01*
X62162826Y-101634050D01*
X62161102Y-101638919D01*
X62161100Y-101638923D01*
X62084356Y-101855640D01*
X62082630Y-101860515D01*
X62081723Y-101865608D01*
X62081722Y-101865611D01*
X62050765Y-102039406D01*
X62040499Y-102097037D01*
X62037564Y-102337263D01*
X52779104Y-102337263D01*
X52788483Y-102315898D01*
X52867244Y-102039406D01*
X52907751Y-101754784D01*
X52907845Y-101736951D01*
X52909235Y-101471583D01*
X52909235Y-101471576D01*
X52909257Y-101467297D01*
X52904116Y-101428243D01*
X52878699Y-101235186D01*
X52871732Y-101182266D01*
X52795871Y-100904964D01*
X52770698Y-100845947D01*
X52684763Y-100644476D01*
X52684761Y-100644472D01*
X52683077Y-100640524D01*
X52535439Y-100393839D01*
X52355687Y-100169472D01*
X52147149Y-99971577D01*
X51913683Y-99803814D01*
X51891843Y-99792250D01*
X51868654Y-99779972D01*
X51659608Y-99669288D01*
X51389627Y-99570489D01*
X51108736Y-99509245D01*
X51077685Y-99506801D01*
X50885718Y-99491693D01*
X50885709Y-99491693D01*
X50883261Y-99491500D01*
X50727729Y-99491500D01*
X50725593Y-99491646D01*
X50725582Y-99491646D01*
X50517452Y-99505835D01*
X50517446Y-99505836D01*
X50513175Y-99506127D01*
X50508980Y-99506996D01*
X50508978Y-99506996D01*
X50372417Y-99535276D01*
X50231658Y-99564426D01*
X49960657Y-99660393D01*
X49705188Y-99792250D01*
X49701687Y-99794711D01*
X49701683Y-99794713D01*
X49691594Y-99801804D01*
X49469977Y-99957559D01*
X49259378Y-100153260D01*
X49077287Y-100375732D01*
X48927073Y-100620858D01*
X48811517Y-100884102D01*
X48732756Y-101160594D01*
X48729672Y-101182266D01*
X48694665Y-101428243D01*
X48692249Y-101445216D01*
X48692227Y-101449505D01*
X48692226Y-101449512D01*
X48690765Y-101728417D01*
X48690743Y-101732703D01*
X43693240Y-101732703D01*
X43690216Y-101648025D01*
X43691881Y-101622632D01*
X43692768Y-101617355D01*
X43693576Y-101612552D01*
X43693729Y-101600000D01*
X43689773Y-101572376D01*
X43688500Y-101554514D01*
X43688500Y-93218000D01*
X58037135Y-93218000D01*
X58055765Y-93454711D01*
X58056919Y-93459518D01*
X58056920Y-93459524D01*
X58062118Y-93481174D01*
X58111195Y-93685594D01*
X58113088Y-93690165D01*
X58113089Y-93690167D01*
X58163095Y-93810892D01*
X58202060Y-93904963D01*
X58204646Y-93909183D01*
X58323541Y-94103202D01*
X58323545Y-94103208D01*
X58326124Y-94107416D01*
X58480331Y-94287969D01*
X58660884Y-94442176D01*
X58665092Y-94444755D01*
X58665098Y-94444759D01*
X58858154Y-94563064D01*
X58863337Y-94566240D01*
X58867905Y-94568132D01*
X58867911Y-94568135D01*
X59051736Y-94644277D01*
X59082706Y-94657105D01*
X59142741Y-94671518D01*
X59308776Y-94711380D01*
X59308782Y-94711381D01*
X59313589Y-94712535D01*
X59550300Y-94731165D01*
X59787011Y-94712535D01*
X59791818Y-94711381D01*
X59791824Y-94711380D01*
X59957859Y-94671518D01*
X60017894Y-94657105D01*
X60048864Y-94644277D01*
X60232689Y-94568135D01*
X60232695Y-94568132D01*
X60237263Y-94566240D01*
X60242446Y-94563064D01*
X60435502Y-94444759D01*
X60435508Y-94444755D01*
X60439716Y-94442176D01*
X60620269Y-94287969D01*
X60774476Y-94107416D01*
X60777055Y-94103208D01*
X60777059Y-94103202D01*
X60895954Y-93909183D01*
X60898540Y-93904963D01*
X60937506Y-93810892D01*
X60987511Y-93690167D01*
X60987512Y-93690165D01*
X60989405Y-93685594D01*
X61038482Y-93481174D01*
X61043680Y-93459524D01*
X61043681Y-93459518D01*
X61044835Y-93454711D01*
X61063465Y-93218000D01*
X65936535Y-93218000D01*
X65955165Y-93454711D01*
X65956319Y-93459518D01*
X65956320Y-93459524D01*
X65961518Y-93481174D01*
X66010595Y-93685594D01*
X66012488Y-93690165D01*
X66012489Y-93690167D01*
X66062495Y-93810892D01*
X66101460Y-93904963D01*
X66104046Y-93909183D01*
X66222941Y-94103202D01*
X66222945Y-94103208D01*
X66225524Y-94107416D01*
X66379731Y-94287969D01*
X66560284Y-94442176D01*
X66564492Y-94444755D01*
X66564498Y-94444759D01*
X66757554Y-94563064D01*
X66762737Y-94566240D01*
X66767305Y-94568132D01*
X66767311Y-94568135D01*
X66951136Y-94644277D01*
X66982106Y-94657105D01*
X67042141Y-94671518D01*
X67208176Y-94711380D01*
X67208182Y-94711381D01*
X67212989Y-94712535D01*
X67449700Y-94731165D01*
X67686411Y-94712535D01*
X67691218Y-94711381D01*
X67691224Y-94711380D01*
X67857259Y-94671518D01*
X67917294Y-94657105D01*
X67948264Y-94644277D01*
X68132089Y-94568135D01*
X68132095Y-94568132D01*
X68136663Y-94566240D01*
X68141846Y-94563064D01*
X68334902Y-94444759D01*
X68334908Y-94444755D01*
X68339116Y-94442176D01*
X68519669Y-94287969D01*
X68673876Y-94107416D01*
X68676455Y-94103208D01*
X68676459Y-94103202D01*
X68795354Y-93909183D01*
X68797940Y-93904963D01*
X68836906Y-93810892D01*
X68886911Y-93690167D01*
X68886912Y-93690165D01*
X68888805Y-93685594D01*
X68937882Y-93481174D01*
X68943080Y-93459524D01*
X68943081Y-93459518D01*
X68944235Y-93454711D01*
X68962865Y-93218000D01*
X68944235Y-92981289D01*
X68943051Y-92976355D01*
X68889960Y-92755218D01*
X68888805Y-92750406D01*
X68886911Y-92745833D01*
X68799835Y-92535611D01*
X68799833Y-92535607D01*
X68797940Y-92531037D01*
X68760928Y-92470639D01*
X68676459Y-92332798D01*
X68676455Y-92332792D01*
X68673876Y-92328584D01*
X68519669Y-92148031D01*
X68339116Y-91993824D01*
X68334908Y-91991245D01*
X68334902Y-91991241D01*
X68140883Y-91872346D01*
X68136663Y-91869760D01*
X68132093Y-91867867D01*
X68132089Y-91867865D01*
X67921867Y-91780789D01*
X67921865Y-91780788D01*
X67917294Y-91778895D01*
X67837091Y-91759640D01*
X67691224Y-91724620D01*
X67691218Y-91724619D01*
X67686411Y-91723465D01*
X67449700Y-91704835D01*
X67212989Y-91723465D01*
X67208182Y-91724619D01*
X67208176Y-91724620D01*
X67062309Y-91759640D01*
X66982106Y-91778895D01*
X66977535Y-91780788D01*
X66977533Y-91780789D01*
X66767311Y-91867865D01*
X66767307Y-91867867D01*
X66762737Y-91869760D01*
X66758517Y-91872346D01*
X66564498Y-91991241D01*
X66564492Y-91991245D01*
X66560284Y-91993824D01*
X66379731Y-92148031D01*
X66225524Y-92328584D01*
X66222945Y-92332792D01*
X66222941Y-92332798D01*
X66138472Y-92470639D01*
X66101460Y-92531037D01*
X66099567Y-92535607D01*
X66099565Y-92535611D01*
X66012489Y-92745833D01*
X66010595Y-92750406D01*
X66009440Y-92755218D01*
X65956350Y-92976355D01*
X65955165Y-92981289D01*
X65936535Y-93218000D01*
X61063465Y-93218000D01*
X61044835Y-92981289D01*
X61043651Y-92976355D01*
X60990560Y-92755218D01*
X60989405Y-92750406D01*
X60987511Y-92745833D01*
X60900435Y-92535611D01*
X60900433Y-92535607D01*
X60898540Y-92531037D01*
X60861528Y-92470639D01*
X60777059Y-92332798D01*
X60777055Y-92332792D01*
X60774476Y-92328584D01*
X60620269Y-92148031D01*
X60439716Y-91993824D01*
X60435508Y-91991245D01*
X60435502Y-91991241D01*
X60241483Y-91872346D01*
X60237263Y-91869760D01*
X60232693Y-91867867D01*
X60232689Y-91867865D01*
X60022467Y-91780789D01*
X60022465Y-91780788D01*
X60017894Y-91778895D01*
X59937691Y-91759640D01*
X59791824Y-91724620D01*
X59791818Y-91724619D01*
X59787011Y-91723465D01*
X59550300Y-91704835D01*
X59313589Y-91723465D01*
X59308782Y-91724619D01*
X59308776Y-91724620D01*
X59162909Y-91759640D01*
X59082706Y-91778895D01*
X59078135Y-91780788D01*
X59078133Y-91780789D01*
X58867911Y-91867865D01*
X58867907Y-91867867D01*
X58863337Y-91869760D01*
X58859117Y-91872346D01*
X58665098Y-91991241D01*
X58665092Y-91991245D01*
X58660884Y-91993824D01*
X58480331Y-92148031D01*
X58326124Y-92328584D01*
X58323545Y-92332792D01*
X58323541Y-92332798D01*
X58239072Y-92470639D01*
X58202060Y-92531037D01*
X58200167Y-92535607D01*
X58200165Y-92535611D01*
X58113089Y-92745833D01*
X58111195Y-92750406D01*
X58110040Y-92755218D01*
X58056950Y-92976355D01*
X58055765Y-92981289D01*
X58037135Y-93218000D01*
X43688500Y-93218000D01*
X43688500Y-50932703D01*
X48690743Y-50932703D01*
X48728268Y-51217734D01*
X48804129Y-51495036D01*
X48805813Y-51498984D01*
X48906944Y-51736080D01*
X48916923Y-51759476D01*
X48955798Y-51824431D01*
X49059382Y-51997507D01*
X49064561Y-52006161D01*
X49244313Y-52230528D01*
X49364693Y-52344764D01*
X49409149Y-52386951D01*
X49452851Y-52428423D01*
X49686317Y-52596186D01*
X49690112Y-52598195D01*
X49690113Y-52598196D01*
X49711869Y-52609715D01*
X49940392Y-52730712D01*
X50210373Y-52829511D01*
X50491264Y-52890755D01*
X50519841Y-52893004D01*
X50714282Y-52908307D01*
X50714291Y-52908307D01*
X50716739Y-52908500D01*
X50872271Y-52908500D01*
X50874407Y-52908354D01*
X50874418Y-52908354D01*
X51082548Y-52894165D01*
X51082554Y-52894164D01*
X51086825Y-52893873D01*
X51091020Y-52893004D01*
X51091022Y-52893004D01*
X51227583Y-52864724D01*
X51368342Y-52835574D01*
X51639343Y-52739607D01*
X51894812Y-52607750D01*
X51898313Y-52605289D01*
X51898317Y-52605287D01*
X52105685Y-52459546D01*
X52130023Y-52442441D01*
X52248218Y-52332607D01*
X52337479Y-52249661D01*
X52337481Y-52249658D01*
X52340622Y-52246740D01*
X52522713Y-52024268D01*
X52672927Y-51779142D01*
X52695617Y-51727454D01*
X52786757Y-51519830D01*
X52788483Y-51515898D01*
X52847886Y-51307364D01*
X56541500Y-51307364D01*
X56541591Y-51309037D01*
X56541591Y-51309052D01*
X56543446Y-51343295D01*
X56544619Y-51364957D01*
X56545456Y-51369243D01*
X56578504Y-51538469D01*
X56589620Y-51595393D01*
X56672804Y-51814952D01*
X56751879Y-51949464D01*
X56776100Y-51990664D01*
X56791791Y-52017356D01*
X56943181Y-52196819D01*
X57122644Y-52348209D01*
X57127248Y-52350915D01*
X57127250Y-52350917D01*
X57171633Y-52377008D01*
X57325048Y-52467196D01*
X57544607Y-52550380D01*
X57549839Y-52551402D01*
X57549840Y-52551402D01*
X57642187Y-52569436D01*
X57775043Y-52595381D01*
X57779401Y-52595617D01*
X57830948Y-52598409D01*
X57830963Y-52598409D01*
X57832636Y-52598500D01*
X59767364Y-52598500D01*
X59769037Y-52598409D01*
X59769052Y-52598409D01*
X59820599Y-52595617D01*
X59824957Y-52595381D01*
X59833672Y-52593679D01*
X59957815Y-52569436D01*
X60028507Y-52576011D01*
X60084422Y-52619761D01*
X60107807Y-52686795D01*
X60091239Y-52755832D01*
X60071060Y-52782195D01*
X57757075Y-55096180D01*
X57754553Y-55098633D01*
X57709190Y-55141531D01*
X57694863Y-55155079D01*
X57691201Y-55160309D01*
X57691200Y-55160310D01*
X57662037Y-55201959D01*
X57656467Y-55209324D01*
X57625595Y-55247177D01*
X57620286Y-55253686D01*
X57617331Y-55259338D01*
X57617330Y-55259340D01*
X57607763Y-55277641D01*
X57599313Y-55291539D01*
X57583815Y-55313672D01*
X57581283Y-55319524D01*
X57581282Y-55319525D01*
X57561086Y-55366195D01*
X57557111Y-55374527D01*
X57533547Y-55419601D01*
X57533544Y-55419609D01*
X57530589Y-55425261D01*
X57528831Y-55431393D01*
X57528829Y-55431397D01*
X57523138Y-55451245D01*
X57517659Y-55466547D01*
X57506924Y-55491355D01*
X57495215Y-55547404D01*
X57493007Y-55556327D01*
X57477224Y-55611368D01*
X57476735Y-55617727D01*
X57475150Y-55638320D01*
X57472859Y-55654418D01*
X57468321Y-55676139D01*
X57468320Y-55676145D01*
X57467333Y-55680871D01*
X57467000Y-55687224D01*
X57467000Y-55739400D01*
X57466629Y-55749067D01*
X57463246Y-55793038D01*
X57462371Y-55804404D01*
X57466008Y-55833193D01*
X57467000Y-55848971D01*
X57467000Y-58316929D01*
X57446998Y-58385050D01*
X57393342Y-58431543D01*
X57385245Y-58434905D01*
X57373295Y-58439385D01*
X57366116Y-58444765D01*
X57366113Y-58444767D01*
X57280433Y-58508981D01*
X57256739Y-58526739D01*
X57169385Y-58643295D01*
X57118255Y-58779684D01*
X57111500Y-58841866D01*
X57111500Y-60538134D01*
X57118255Y-60600316D01*
X57169385Y-60736705D01*
X57256739Y-60853261D01*
X57373295Y-60940615D01*
X57509684Y-60991745D01*
X57571866Y-60998500D01*
X59268134Y-60998500D01*
X59330316Y-60991745D01*
X59466705Y-60940615D01*
X59583261Y-60853261D01*
X59641119Y-60776062D01*
X60198493Y-60776062D01*
X60207789Y-60788077D01*
X60258994Y-60823931D01*
X60268489Y-60829414D01*
X60465947Y-60921490D01*
X60476239Y-60925236D01*
X60686688Y-60981625D01*
X60697481Y-60983528D01*
X60914525Y-61002517D01*
X60925475Y-61002517D01*
X61142519Y-60983528D01*
X61153312Y-60981625D01*
X61363761Y-60925236D01*
X61374053Y-60921490D01*
X61571511Y-60829414D01*
X61581006Y-60823931D01*
X61633048Y-60787491D01*
X61641424Y-60777012D01*
X61634356Y-60763566D01*
X60932812Y-60062022D01*
X60918868Y-60054408D01*
X60917035Y-60054539D01*
X60910420Y-60058790D01*
X60204923Y-60764287D01*
X60198493Y-60776062D01*
X59641119Y-60776062D01*
X59670615Y-60736705D01*
X59721745Y-60600316D01*
X59728500Y-60538134D01*
X59728500Y-60534815D01*
X59752153Y-60467890D01*
X59798156Y-60432196D01*
X59797141Y-60430266D01*
X59808000Y-60424558D01*
X59808245Y-60424368D01*
X59808403Y-60424347D01*
X59846434Y-60404356D01*
X60547978Y-59702812D01*
X60554356Y-59691132D01*
X61284408Y-59691132D01*
X61284539Y-59692965D01*
X61288790Y-59699580D01*
X61994287Y-60405077D01*
X62006062Y-60411507D01*
X62018077Y-60402211D01*
X62053931Y-60351006D01*
X62059414Y-60341511D01*
X62151490Y-60144053D01*
X62155236Y-60133761D01*
X62211625Y-59923312D01*
X62213528Y-59912519D01*
X62232517Y-59695475D01*
X62232517Y-59684525D01*
X62213528Y-59467481D01*
X62211625Y-59456688D01*
X62155236Y-59246239D01*
X62151490Y-59235947D01*
X62059414Y-59038489D01*
X62053931Y-59028994D01*
X62017491Y-58976952D01*
X62007012Y-58968576D01*
X61993566Y-58975644D01*
X61292022Y-59677188D01*
X61284408Y-59691132D01*
X60554356Y-59691132D01*
X60555592Y-59688868D01*
X60555461Y-59687035D01*
X60551210Y-59680420D01*
X59845713Y-58974923D01*
X59803971Y-58952129D01*
X59793971Y-58949953D01*
X59743773Y-58899747D01*
X59728549Y-58846186D01*
X59728500Y-58845281D01*
X59728500Y-58841866D01*
X59721745Y-58779684D01*
X59670615Y-58643295D01*
X59640407Y-58602988D01*
X60198576Y-58602988D01*
X60205644Y-58616434D01*
X60907188Y-59317978D01*
X60921132Y-59325592D01*
X60922965Y-59325461D01*
X60929580Y-59321210D01*
X61635077Y-58615713D01*
X61641507Y-58603938D01*
X61632211Y-58591923D01*
X61581006Y-58556069D01*
X61571511Y-58550586D01*
X61374053Y-58458510D01*
X61363761Y-58454764D01*
X61153312Y-58398375D01*
X61142519Y-58396472D01*
X60925475Y-58377483D01*
X60914525Y-58377483D01*
X60697481Y-58396472D01*
X60686688Y-58398375D01*
X60476239Y-58454764D01*
X60465947Y-58458510D01*
X60268489Y-58550586D01*
X60258994Y-58556069D01*
X60206952Y-58592509D01*
X60198576Y-58602988D01*
X59640407Y-58602988D01*
X59583261Y-58526739D01*
X59559567Y-58508981D01*
X59473887Y-58444767D01*
X59473884Y-58444765D01*
X59466705Y-58439385D01*
X59454768Y-58434910D01*
X59451774Y-58432661D01*
X59450426Y-58431923D01*
X59450533Y-58431728D01*
X59398005Y-58392268D01*
X59373306Y-58325707D01*
X59373000Y-58316929D01*
X59373000Y-57196794D01*
X72068229Y-57196794D01*
X72097180Y-57388224D01*
X72099383Y-57394210D01*
X72099384Y-57394216D01*
X72131510Y-57481530D01*
X72164032Y-57569922D01*
X72167390Y-57575338D01*
X72167392Y-57575342D01*
X72262691Y-57729044D01*
X72262694Y-57729048D01*
X72266054Y-57734467D01*
X72270440Y-57739105D01*
X72291548Y-57761426D01*
X72323820Y-57824664D01*
X72326000Y-57847999D01*
X72326000Y-94586401D01*
X72325708Y-94594971D01*
X72321830Y-94651852D01*
X72323135Y-94659328D01*
X72323135Y-94659332D01*
X72332663Y-94713924D01*
X72333626Y-94720449D01*
X72333648Y-94720626D01*
X72341191Y-94782960D01*
X72343875Y-94790062D01*
X72344719Y-94793500D01*
X72348583Y-94807623D01*
X72349613Y-94811034D01*
X72350919Y-94818517D01*
X72353972Y-94825472D01*
X72376239Y-94876198D01*
X72378730Y-94882304D01*
X72400994Y-94941222D01*
X72405293Y-94947477D01*
X72406935Y-94950618D01*
X72414033Y-94963372D01*
X72415870Y-94966478D01*
X72418923Y-94973433D01*
X72423548Y-94979460D01*
X72423550Y-94979464D01*
X72457265Y-95023402D01*
X72461129Y-95028720D01*
X72496821Y-95080652D01*
X72502491Y-95085704D01*
X72502492Y-95085705D01*
X72542688Y-95121518D01*
X72547964Y-95126499D01*
X74628757Y-97207292D01*
X74662783Y-97269604D01*
X74664972Y-97283215D01*
X74671458Y-97344928D01*
X74730473Y-97526556D01*
X74825960Y-97691944D01*
X74953747Y-97833866D01*
X75108248Y-97946118D01*
X75114276Y-97948802D01*
X75114278Y-97948803D01*
X75276681Y-98021109D01*
X75282712Y-98023794D01*
X75376112Y-98043647D01*
X75463056Y-98062128D01*
X75463061Y-98062128D01*
X75469513Y-98063500D01*
X75660487Y-98063500D01*
X75666939Y-98062128D01*
X75666944Y-98062128D01*
X75753887Y-98043647D01*
X75847288Y-98023794D01*
X75853319Y-98021109D01*
X76015722Y-97948803D01*
X76015724Y-97948802D01*
X76021752Y-97946118D01*
X76176253Y-97833866D01*
X76304040Y-97691944D01*
X76399527Y-97526556D01*
X76458542Y-97344928D01*
X76478504Y-97155000D01*
X76458542Y-96965072D01*
X76399527Y-96783444D01*
X76304040Y-96618056D01*
X76176253Y-96476134D01*
X76021752Y-96363882D01*
X76015724Y-96361198D01*
X76015722Y-96361197D01*
X75853319Y-96288891D01*
X75853318Y-96288891D01*
X75847288Y-96286206D01*
X75677370Y-96250089D01*
X75614473Y-96215937D01*
X73760905Y-94362370D01*
X73726880Y-94300058D01*
X73724000Y-94273275D01*
X73724000Y-93969343D01*
X74436775Y-93969343D01*
X74453381Y-94138699D01*
X74507094Y-94300167D01*
X74510741Y-94306189D01*
X74510742Y-94306191D01*
X74544766Y-94362370D01*
X74595246Y-94445723D01*
X74713455Y-94568132D01*
X74770445Y-94605425D01*
X74846526Y-94655211D01*
X74855846Y-94661310D01*
X74862450Y-94663766D01*
X74862452Y-94663767D01*
X74898844Y-94677301D01*
X75015341Y-94720626D01*
X75184015Y-94743132D01*
X75191026Y-94742494D01*
X75191030Y-94742494D01*
X75346462Y-94728348D01*
X75353483Y-94727709D01*
X75360185Y-94725531D01*
X75360187Y-94725531D01*
X75508623Y-94677301D01*
X75508626Y-94677300D01*
X75515322Y-94675124D01*
X75636935Y-94602628D01*
X75705689Y-94584928D01*
X75770445Y-94605425D01*
X75846526Y-94655211D01*
X75855846Y-94661310D01*
X75862450Y-94663766D01*
X75862452Y-94663767D01*
X75898844Y-94677301D01*
X76015341Y-94720626D01*
X76184015Y-94743132D01*
X76191026Y-94742494D01*
X76191030Y-94742494D01*
X76346462Y-94728348D01*
X76353483Y-94727709D01*
X76360185Y-94725531D01*
X76360187Y-94725531D01*
X76508623Y-94677301D01*
X76508626Y-94677300D01*
X76515322Y-94675124D01*
X76636935Y-94602628D01*
X76705689Y-94584928D01*
X76770445Y-94605425D01*
X76846526Y-94655211D01*
X76855846Y-94661310D01*
X76862450Y-94663766D01*
X76862452Y-94663767D01*
X76898844Y-94677301D01*
X77015341Y-94720626D01*
X77184015Y-94743132D01*
X77191026Y-94742494D01*
X77191030Y-94742494D01*
X77346462Y-94728348D01*
X77353483Y-94727709D01*
X77360185Y-94725531D01*
X77360187Y-94725531D01*
X77508623Y-94677301D01*
X77508626Y-94677300D01*
X77515322Y-94675124D01*
X77661490Y-94587990D01*
X77666584Y-94583139D01*
X77666588Y-94583136D01*
X77733833Y-94519099D01*
X77784721Y-94470639D01*
X77878891Y-94328902D01*
X77939319Y-94169825D01*
X77963001Y-94001313D01*
X77963299Y-93980000D01*
X77944331Y-93810892D01*
X77888368Y-93650189D01*
X77882383Y-93640610D01*
X77823346Y-93546133D01*
X77804210Y-93477764D01*
X77825252Y-93409636D01*
X77874990Y-93334773D01*
X77878891Y-93328902D01*
X77939319Y-93169825D01*
X77963001Y-93001313D01*
X77963299Y-92980000D01*
X77944331Y-92810892D01*
X77888368Y-92650189D01*
X77882383Y-92640610D01*
X77823346Y-92546133D01*
X77804210Y-92477764D01*
X77825252Y-92409636D01*
X77874990Y-92334773D01*
X77878891Y-92328902D01*
X77939319Y-92169825D01*
X77963001Y-92001313D01*
X77963299Y-91980000D01*
X77944331Y-91810892D01*
X77933189Y-91778895D01*
X77914288Y-91724620D01*
X77888368Y-91650189D01*
X77882383Y-91640610D01*
X77860420Y-91605464D01*
X77798192Y-91505879D01*
X77678286Y-91385132D01*
X77662871Y-91375349D01*
X77623406Y-91350304D01*
X77534608Y-91293951D01*
X77374300Y-91236868D01*
X77205329Y-91216720D01*
X77198326Y-91217456D01*
X77198325Y-91217456D01*
X77043101Y-91233770D01*
X77043097Y-91233771D01*
X77036093Y-91234507D01*
X77029422Y-91236778D01*
X76881673Y-91287075D01*
X76881670Y-91287076D01*
X76875003Y-91289346D01*
X76869007Y-91293034D01*
X76869000Y-91293038D01*
X76765537Y-91356690D01*
X76697036Y-91375349D01*
X76632000Y-91355758D01*
X76540562Y-91297729D01*
X76540558Y-91297727D01*
X76534608Y-91293951D01*
X76374300Y-91236868D01*
X76205329Y-91216720D01*
X76198326Y-91217456D01*
X76198325Y-91217456D01*
X76043101Y-91233770D01*
X76043097Y-91233771D01*
X76036093Y-91234507D01*
X76029422Y-91236778D01*
X75881673Y-91287075D01*
X75881670Y-91287076D01*
X75875003Y-91289346D01*
X75869007Y-91293034D01*
X75869000Y-91293038D01*
X75765537Y-91356690D01*
X75697036Y-91375349D01*
X75632000Y-91355758D01*
X75540562Y-91297729D01*
X75540558Y-91297727D01*
X75534608Y-91293951D01*
X75374300Y-91236868D01*
X75205329Y-91216720D01*
X75198326Y-91217456D01*
X75198325Y-91217456D01*
X75043101Y-91233770D01*
X75043097Y-91233771D01*
X75036093Y-91234507D01*
X75029422Y-91236778D01*
X74881673Y-91287075D01*
X74881670Y-91287076D01*
X74875003Y-91289346D01*
X74869005Y-91293036D01*
X74869003Y-91293037D01*
X74736065Y-91374821D01*
X74736063Y-91374823D01*
X74730066Y-91378512D01*
X74608486Y-91497573D01*
X74516304Y-91640610D01*
X74458103Y-91800516D01*
X74436775Y-91969343D01*
X74453381Y-92138699D01*
X74507094Y-92300167D01*
X74577064Y-92415700D01*
X74595242Y-92484328D01*
X74575198Y-92549225D01*
X74516304Y-92640610D01*
X74458103Y-92800516D01*
X74436775Y-92969343D01*
X74453381Y-93138699D01*
X74507094Y-93300167D01*
X74577064Y-93415700D01*
X74595242Y-93484328D01*
X74575198Y-93549225D01*
X74516304Y-93640610D01*
X74458103Y-93800516D01*
X74436775Y-93969343D01*
X73724000Y-93969343D01*
X73724000Y-85090000D01*
X75369450Y-85090000D01*
X75387600Y-85262681D01*
X75441255Y-85427815D01*
X75528071Y-85578185D01*
X75532489Y-85583092D01*
X75532490Y-85583093D01*
X75638625Y-85700967D01*
X75644254Y-85707219D01*
X75649593Y-85711098D01*
X75762556Y-85793170D01*
X75784725Y-85809277D01*
X75790753Y-85811961D01*
X75790755Y-85811962D01*
X75937315Y-85877215D01*
X75943346Y-85879900D01*
X76028265Y-85897950D01*
X76106727Y-85914628D01*
X76106731Y-85914628D01*
X76113184Y-85916000D01*
X76286816Y-85916000D01*
X76293269Y-85914628D01*
X76293273Y-85914628D01*
X76371735Y-85897950D01*
X76456654Y-85879900D01*
X76462685Y-85877215D01*
X76609245Y-85811962D01*
X76609247Y-85811961D01*
X76615275Y-85809277D01*
X76620049Y-85805809D01*
X76682777Y-85789000D01*
X82575223Y-85789000D01*
X82637951Y-85805809D01*
X82642725Y-85809277D01*
X82648753Y-85811961D01*
X82648755Y-85811962D01*
X82795315Y-85877215D01*
X82801346Y-85879900D01*
X82886265Y-85897950D01*
X82964727Y-85914628D01*
X82964731Y-85914628D01*
X82971184Y-85916000D01*
X83144816Y-85916000D01*
X83151269Y-85914628D01*
X83151273Y-85914628D01*
X83229735Y-85897950D01*
X83314654Y-85879900D01*
X83320685Y-85877215D01*
X83467245Y-85811962D01*
X83467247Y-85811961D01*
X83473275Y-85809277D01*
X83478049Y-85805809D01*
X83540777Y-85789000D01*
X87601401Y-85789000D01*
X87609971Y-85789292D01*
X87659277Y-85792654D01*
X87659281Y-85792654D01*
X87666852Y-85793170D01*
X87674328Y-85791865D01*
X87674332Y-85791865D01*
X87728924Y-85782337D01*
X87735449Y-85781374D01*
X87790418Y-85774722D01*
X87790420Y-85774721D01*
X87797960Y-85773809D01*
X87805062Y-85771125D01*
X87808500Y-85770281D01*
X87822623Y-85766417D01*
X87826034Y-85765387D01*
X87833517Y-85764081D01*
X87891197Y-85738761D01*
X87897304Y-85736270D01*
X87949117Y-85716691D01*
X87949118Y-85716690D01*
X87956222Y-85714006D01*
X87962477Y-85709707D01*
X87965618Y-85708065D01*
X87978372Y-85700967D01*
X87981478Y-85699130D01*
X87988433Y-85696077D01*
X87994460Y-85691452D01*
X87994464Y-85691450D01*
X88038402Y-85657735D01*
X88043720Y-85653871D01*
X88095652Y-85618179D01*
X88136519Y-85572311D01*
X88141499Y-85567036D01*
X89374038Y-84334497D01*
X89380304Y-84328643D01*
X89417547Y-84296154D01*
X89423274Y-84291158D01*
X89459499Y-84239614D01*
X89463425Y-84234329D01*
X89497601Y-84190742D01*
X89497603Y-84190739D01*
X89502291Y-84184760D01*
X89505417Y-84177838D01*
X89507285Y-84174753D01*
X89514507Y-84162091D01*
X89516190Y-84158951D01*
X89520556Y-84152739D01*
X89543436Y-84094054D01*
X89545992Y-84087972D01*
X89571913Y-84030565D01*
X89573297Y-84023097D01*
X89574357Y-84019715D01*
X89578375Y-84005609D01*
X89579254Y-84002185D01*
X89582012Y-83995111D01*
X89590234Y-83932660D01*
X89591265Y-83926147D01*
X89601360Y-83871680D01*
X89602744Y-83864213D01*
X89599209Y-83802905D01*
X89599000Y-83795653D01*
X89599000Y-71390111D01*
X92530989Y-71390111D01*
X92536224Y-71453793D01*
X92537907Y-71463957D01*
X92593796Y-71686461D01*
X92597117Y-71696216D01*
X92688591Y-71906590D01*
X92693469Y-71915688D01*
X92818075Y-72108301D01*
X92824359Y-72116461D01*
X92978763Y-72286149D01*
X92986293Y-72293170D01*
X93166332Y-72435356D01*
X93174919Y-72441061D01*
X93375750Y-72551926D01*
X93385162Y-72556156D01*
X93601416Y-72632736D01*
X93611366Y-72635365D01*
X93708164Y-72652607D01*
X93721460Y-72651148D01*
X93725540Y-72638067D01*
X94234000Y-72638067D01*
X94237918Y-72651411D01*
X94252194Y-72653398D01*
X94313933Y-72643950D01*
X94323961Y-72641561D01*
X94542016Y-72570290D01*
X94551525Y-72566293D01*
X94755007Y-72460367D01*
X94763732Y-72454873D01*
X94947187Y-72317131D01*
X94954894Y-72310288D01*
X95113391Y-72144431D01*
X95119874Y-72136425D01*
X95144293Y-72100628D01*
X95199205Y-72055625D01*
X95269730Y-72047454D01*
X95333477Y-72078708D01*
X95354173Y-72103189D01*
X95360485Y-72112947D01*
X95363964Y-72116770D01*
X95363966Y-72116773D01*
X95456198Y-72218134D01*
X95521896Y-72290335D01*
X95525947Y-72293534D01*
X95525951Y-72293538D01*
X95567000Y-72325956D01*
X95710112Y-72438979D01*
X95920078Y-72554887D01*
X96042542Y-72598254D01*
X96141280Y-72633219D01*
X96141284Y-72633220D01*
X96146155Y-72634945D01*
X96151248Y-72635852D01*
X96151251Y-72635853D01*
X96377184Y-72676098D01*
X96377190Y-72676099D01*
X96382273Y-72677004D01*
X96469540Y-72678070D01*
X96616919Y-72679871D01*
X96616921Y-72679871D01*
X96622089Y-72679934D01*
X96859163Y-72643657D01*
X97087129Y-72569146D01*
X97299864Y-72458403D01*
X97303997Y-72455300D01*
X97304000Y-72455298D01*
X97487520Y-72317507D01*
X97487523Y-72317505D01*
X97491655Y-72314402D01*
X97657352Y-72141010D01*
X97684590Y-72101080D01*
X97739498Y-72056080D01*
X97810023Y-72047909D01*
X97873770Y-72079163D01*
X97894465Y-72103643D01*
X97897671Y-72108599D01*
X97897678Y-72108608D01*
X97900485Y-72112947D01*
X97903964Y-72116770D01*
X97903966Y-72116773D01*
X97996198Y-72218134D01*
X98061896Y-72290335D01*
X98065952Y-72293538D01*
X98066931Y-72294451D01*
X98103111Y-72355538D01*
X98107000Y-72386602D01*
X98107000Y-79563065D01*
X98086998Y-79631186D01*
X98070095Y-79652160D01*
X97081912Y-80640343D01*
X96990286Y-80752686D01*
X96900589Y-80924261D01*
X96847224Y-81110368D01*
X96832371Y-81303404D01*
X96856636Y-81495484D01*
X96919030Y-81678762D01*
X97017001Y-81845750D01*
X97146549Y-81989628D01*
X97151678Y-81993410D01*
X97151682Y-81993413D01*
X97187991Y-82020182D01*
X97302382Y-82104518D01*
X97308171Y-82107193D01*
X97308173Y-82107194D01*
X97363594Y-82132802D01*
X97478133Y-82185726D01*
X97666625Y-82229936D01*
X97771100Y-82232854D01*
X97853773Y-82235164D01*
X97853776Y-82235164D01*
X97860156Y-82235342D01*
X98013674Y-82208273D01*
X98044538Y-82202831D01*
X98044539Y-82202831D01*
X98050821Y-82201723D01*
X98230832Y-82130452D01*
X98392835Y-82024439D01*
X98397563Y-82020182D01*
X99722925Y-80694820D01*
X99725447Y-80692367D01*
X99780496Y-80640310D01*
X99780497Y-80640309D01*
X99785137Y-80635921D01*
X99817963Y-80589041D01*
X99823533Y-80581676D01*
X99855683Y-80542257D01*
X99855685Y-80542254D01*
X99859714Y-80537314D01*
X99872237Y-80513359D01*
X99880687Y-80499461D01*
X99892524Y-80482556D01*
X99896185Y-80477328D01*
X99918916Y-80424802D01*
X99922889Y-80416473D01*
X99946454Y-80371395D01*
X99949411Y-80365739D01*
X99956862Y-80339753D01*
X99962341Y-80324452D01*
X99970541Y-80305504D01*
X99970542Y-80305500D01*
X99973076Y-80299645D01*
X99984783Y-80243608D01*
X99987000Y-80234648D01*
X100001014Y-80185774D01*
X100001014Y-80185773D01*
X100002775Y-80179632D01*
X100004849Y-80152687D01*
X100007139Y-80136595D01*
X100011677Y-80114867D01*
X100012667Y-80110129D01*
X100013000Y-80103776D01*
X100013000Y-80051598D01*
X100013371Y-80041931D01*
X100017140Y-79992955D01*
X100017140Y-79992952D01*
X100017629Y-79986596D01*
X100013992Y-79957807D01*
X100013000Y-79942029D01*
X100013000Y-72384447D01*
X100033002Y-72316326D01*
X100047906Y-72297396D01*
X100050721Y-72294451D01*
X100197352Y-72141010D01*
X100224590Y-72101080D01*
X100279498Y-72056080D01*
X100350023Y-72047909D01*
X100413770Y-72079163D01*
X100434465Y-72103643D01*
X100437671Y-72108599D01*
X100437678Y-72108608D01*
X100440485Y-72112947D01*
X100443964Y-72116770D01*
X100443966Y-72116773D01*
X100536198Y-72218134D01*
X100601896Y-72290335D01*
X100605947Y-72293534D01*
X100605951Y-72293538D01*
X100647000Y-72325956D01*
X100790112Y-72438979D01*
X101000078Y-72554887D01*
X101122542Y-72598254D01*
X101221280Y-72633219D01*
X101221284Y-72633220D01*
X101226155Y-72634945D01*
X101231248Y-72635852D01*
X101231251Y-72635853D01*
X101457184Y-72676098D01*
X101457190Y-72676099D01*
X101462273Y-72677004D01*
X101549540Y-72678070D01*
X101696919Y-72679871D01*
X101696921Y-72679871D01*
X101702089Y-72679934D01*
X101939163Y-72643657D01*
X102167129Y-72569146D01*
X102379864Y-72458403D01*
X102383997Y-72455300D01*
X102384000Y-72455298D01*
X102567520Y-72317507D01*
X102567523Y-72317505D01*
X102571655Y-72314402D01*
X102737352Y-72141010D01*
X102764590Y-72101080D01*
X102819498Y-72056080D01*
X102890023Y-72047909D01*
X102953770Y-72079163D01*
X102974465Y-72103643D01*
X102977671Y-72108599D01*
X102977678Y-72108608D01*
X102980485Y-72112947D01*
X102983964Y-72116770D01*
X102983966Y-72116773D01*
X103076198Y-72218134D01*
X103141896Y-72290335D01*
X103145947Y-72293534D01*
X103145951Y-72293538D01*
X103187000Y-72325956D01*
X103330112Y-72438979D01*
X103540078Y-72554887D01*
X103662542Y-72598254D01*
X103761280Y-72633219D01*
X103761284Y-72633220D01*
X103766155Y-72634945D01*
X103771248Y-72635852D01*
X103771251Y-72635853D01*
X103997184Y-72676098D01*
X103997190Y-72676099D01*
X104002273Y-72677004D01*
X104089540Y-72678070D01*
X104236919Y-72679871D01*
X104236921Y-72679871D01*
X104242089Y-72679934D01*
X104479163Y-72643657D01*
X104707129Y-72569146D01*
X104919864Y-72458403D01*
X104923997Y-72455300D01*
X104924000Y-72455298D01*
X105107520Y-72317507D01*
X105107523Y-72317505D01*
X105111655Y-72314402D01*
X105277352Y-72141010D01*
X105304590Y-72101080D01*
X105359498Y-72056080D01*
X105430023Y-72047909D01*
X105493770Y-72079163D01*
X105514465Y-72103643D01*
X105517671Y-72108599D01*
X105517678Y-72108608D01*
X105520485Y-72112947D01*
X105523964Y-72116770D01*
X105523966Y-72116773D01*
X105616198Y-72218134D01*
X105681896Y-72290335D01*
X105685947Y-72293534D01*
X105685951Y-72293538D01*
X105727000Y-72325956D01*
X105870112Y-72438979D01*
X106080078Y-72554887D01*
X106202542Y-72598254D01*
X106301280Y-72633219D01*
X106301284Y-72633220D01*
X106306155Y-72634945D01*
X106311248Y-72635852D01*
X106311251Y-72635853D01*
X106537184Y-72676098D01*
X106537190Y-72676099D01*
X106542273Y-72677004D01*
X106629540Y-72678070D01*
X106776919Y-72679871D01*
X106776921Y-72679871D01*
X106782089Y-72679934D01*
X107019163Y-72643657D01*
X107247129Y-72569146D01*
X107459864Y-72458403D01*
X107463997Y-72455300D01*
X107464000Y-72455298D01*
X107647520Y-72317507D01*
X107647523Y-72317505D01*
X107651655Y-72314402D01*
X107817352Y-72141010D01*
X107844590Y-72101080D01*
X107899498Y-72056080D01*
X107970023Y-72047909D01*
X108033770Y-72079163D01*
X108054465Y-72103643D01*
X108057671Y-72108599D01*
X108057678Y-72108608D01*
X108060485Y-72112947D01*
X108063964Y-72116770D01*
X108063966Y-72116773D01*
X108156198Y-72218134D01*
X108221896Y-72290335D01*
X108225947Y-72293534D01*
X108225951Y-72293538D01*
X108267000Y-72325956D01*
X108410112Y-72438979D01*
X108620078Y-72554887D01*
X108742542Y-72598254D01*
X108841280Y-72633219D01*
X108841284Y-72633220D01*
X108846155Y-72634945D01*
X108851248Y-72635852D01*
X108851251Y-72635853D01*
X109077184Y-72676098D01*
X109077190Y-72676099D01*
X109082273Y-72677004D01*
X109169540Y-72678070D01*
X109316919Y-72679871D01*
X109316921Y-72679871D01*
X109322089Y-72679934D01*
X109559163Y-72643657D01*
X109787129Y-72569146D01*
X109999864Y-72458403D01*
X110003997Y-72455300D01*
X110004000Y-72455298D01*
X110187520Y-72317507D01*
X110187523Y-72317505D01*
X110191655Y-72314402D01*
X110357352Y-72141010D01*
X110384590Y-72101080D01*
X110439498Y-72056080D01*
X110510023Y-72047909D01*
X110573770Y-72079163D01*
X110594465Y-72103643D01*
X110597671Y-72108599D01*
X110597678Y-72108608D01*
X110600485Y-72112947D01*
X110603964Y-72116770D01*
X110603966Y-72116773D01*
X110696198Y-72218134D01*
X110761896Y-72290335D01*
X110765947Y-72293534D01*
X110765951Y-72293538D01*
X110807000Y-72325956D01*
X110950112Y-72438979D01*
X111160078Y-72554887D01*
X111282542Y-72598254D01*
X111381280Y-72633219D01*
X111381284Y-72633220D01*
X111386155Y-72634945D01*
X111391248Y-72635852D01*
X111391251Y-72635853D01*
X111617184Y-72676098D01*
X111617190Y-72676099D01*
X111622273Y-72677004D01*
X111709540Y-72678070D01*
X111856919Y-72679871D01*
X111856921Y-72679871D01*
X111862089Y-72679934D01*
X112099163Y-72643657D01*
X112327129Y-72569146D01*
X112539864Y-72458403D01*
X112543997Y-72455300D01*
X112544000Y-72455298D01*
X112727520Y-72317507D01*
X112727523Y-72317505D01*
X112731655Y-72314402D01*
X112897352Y-72141010D01*
X112924590Y-72101080D01*
X112979498Y-72056080D01*
X113050023Y-72047909D01*
X113113770Y-72079163D01*
X113134465Y-72103643D01*
X113137671Y-72108599D01*
X113137678Y-72108608D01*
X113140485Y-72112947D01*
X113143964Y-72116770D01*
X113143966Y-72116773D01*
X113236198Y-72218134D01*
X113301896Y-72290335D01*
X113305947Y-72293534D01*
X113305951Y-72293538D01*
X113347000Y-72325956D01*
X113490112Y-72438979D01*
X113700078Y-72554887D01*
X113822542Y-72598254D01*
X113921280Y-72633219D01*
X113921284Y-72633220D01*
X113926155Y-72634945D01*
X113931248Y-72635852D01*
X113931251Y-72635853D01*
X114157184Y-72676098D01*
X114157190Y-72676099D01*
X114162273Y-72677004D01*
X114249540Y-72678070D01*
X114396919Y-72679871D01*
X114396921Y-72679871D01*
X114402089Y-72679934D01*
X114639163Y-72643657D01*
X114867129Y-72569146D01*
X115079864Y-72458403D01*
X115083997Y-72455300D01*
X115084000Y-72455298D01*
X115238049Y-72339634D01*
X115304534Y-72314728D01*
X115373929Y-72329720D01*
X115424203Y-72379851D01*
X115431683Y-72396162D01*
X115436232Y-72408295D01*
X115439385Y-72416705D01*
X115526739Y-72533261D01*
X115643295Y-72620615D01*
X115779684Y-72671745D01*
X115841866Y-72678500D01*
X117838134Y-72678500D01*
X117900316Y-72671745D01*
X118036705Y-72620615D01*
X118153261Y-72533261D01*
X118240615Y-72416705D01*
X118291745Y-72280316D01*
X118298500Y-72218134D01*
X118298500Y-70021866D01*
X118291745Y-69959684D01*
X118240615Y-69823295D01*
X118153261Y-69706739D01*
X118036705Y-69619385D01*
X117900316Y-69568255D01*
X117838134Y-69561500D01*
X115841866Y-69561500D01*
X115779684Y-69568255D01*
X115643295Y-69619385D01*
X115526739Y-69706739D01*
X115439385Y-69823295D01*
X115436233Y-69831703D01*
X115436232Y-69831705D01*
X115431156Y-69845244D01*
X115388514Y-69902007D01*
X115321952Y-69926706D01*
X115252603Y-69911498D01*
X115235083Y-69899894D01*
X115128993Y-69816109D01*
X115109888Y-69801021D01*
X114899922Y-69685113D01*
X114777458Y-69641746D01*
X114678720Y-69606781D01*
X114678716Y-69606780D01*
X114673845Y-69605055D01*
X114668752Y-69604148D01*
X114668749Y-69604147D01*
X114442816Y-69563902D01*
X114442810Y-69563901D01*
X114437727Y-69562996D01*
X114345484Y-69561869D01*
X114203081Y-69560129D01*
X114203079Y-69560129D01*
X114197911Y-69560066D01*
X113960837Y-69596343D01*
X113732871Y-69670854D01*
X113520136Y-69781597D01*
X113516003Y-69784700D01*
X113516000Y-69784702D01*
X113435366Y-69845244D01*
X113328345Y-69925598D01*
X113162648Y-70098990D01*
X113135410Y-70138920D01*
X113080502Y-70183920D01*
X113009977Y-70192091D01*
X112946230Y-70160837D01*
X112925535Y-70136357D01*
X112922329Y-70131401D01*
X112922322Y-70131392D01*
X112919515Y-70127053D01*
X112897861Y-70103255D01*
X112761582Y-69953487D01*
X112761580Y-69953486D01*
X112758104Y-69949665D01*
X112754053Y-69946466D01*
X112754049Y-69946462D01*
X112588993Y-69816109D01*
X112569888Y-69801021D01*
X112359922Y-69685113D01*
X112237458Y-69641746D01*
X112138720Y-69606781D01*
X112138716Y-69606780D01*
X112133845Y-69605055D01*
X112128752Y-69604148D01*
X112128749Y-69604147D01*
X111902816Y-69563902D01*
X111902810Y-69563901D01*
X111897727Y-69562996D01*
X111805484Y-69561869D01*
X111663081Y-69560129D01*
X111663079Y-69560129D01*
X111657911Y-69560066D01*
X111420837Y-69596343D01*
X111192871Y-69670854D01*
X110980136Y-69781597D01*
X110976003Y-69784700D01*
X110976000Y-69784702D01*
X110895366Y-69845244D01*
X110788345Y-69925598D01*
X110622648Y-70098990D01*
X110595410Y-70138920D01*
X110540502Y-70183920D01*
X110469977Y-70192091D01*
X110406230Y-70160837D01*
X110385535Y-70136357D01*
X110382329Y-70131401D01*
X110382322Y-70131392D01*
X110379515Y-70127053D01*
X110357861Y-70103255D01*
X110221582Y-69953487D01*
X110221580Y-69953486D01*
X110218104Y-69949665D01*
X110214053Y-69946466D01*
X110214049Y-69946462D01*
X110048993Y-69816109D01*
X110029888Y-69801021D01*
X109819922Y-69685113D01*
X109697458Y-69641746D01*
X109598720Y-69606781D01*
X109598716Y-69606780D01*
X109593845Y-69605055D01*
X109588752Y-69604148D01*
X109588749Y-69604147D01*
X109362816Y-69563902D01*
X109362810Y-69563901D01*
X109357727Y-69562996D01*
X109265484Y-69561869D01*
X109123081Y-69560129D01*
X109123079Y-69560129D01*
X109117911Y-69560066D01*
X108880837Y-69596343D01*
X108652871Y-69670854D01*
X108440136Y-69781597D01*
X108436003Y-69784700D01*
X108436000Y-69784702D01*
X108355366Y-69845244D01*
X108248345Y-69925598D01*
X108082648Y-70098990D01*
X108055410Y-70138920D01*
X108000502Y-70183920D01*
X107929977Y-70192091D01*
X107866230Y-70160837D01*
X107845535Y-70136357D01*
X107842329Y-70131401D01*
X107842322Y-70131392D01*
X107839515Y-70127053D01*
X107817861Y-70103255D01*
X107681582Y-69953487D01*
X107681580Y-69953486D01*
X107678104Y-69949665D01*
X107674053Y-69946466D01*
X107674049Y-69946462D01*
X107508993Y-69816109D01*
X107489888Y-69801021D01*
X107279922Y-69685113D01*
X107157458Y-69641746D01*
X107058720Y-69606781D01*
X107058716Y-69606780D01*
X107053845Y-69605055D01*
X107048752Y-69604148D01*
X107048749Y-69604147D01*
X106822816Y-69563902D01*
X106822810Y-69563901D01*
X106817727Y-69562996D01*
X106725484Y-69561869D01*
X106583081Y-69560129D01*
X106583079Y-69560129D01*
X106577911Y-69560066D01*
X106340837Y-69596343D01*
X106112871Y-69670854D01*
X105900136Y-69781597D01*
X105896003Y-69784700D01*
X105896000Y-69784702D01*
X105815366Y-69845244D01*
X105708345Y-69925598D01*
X105542648Y-70098990D01*
X105515410Y-70138920D01*
X105460502Y-70183920D01*
X105389977Y-70192091D01*
X105326230Y-70160837D01*
X105305535Y-70136357D01*
X105302329Y-70131401D01*
X105302322Y-70131392D01*
X105299515Y-70127053D01*
X105277861Y-70103255D01*
X105141582Y-69953487D01*
X105141580Y-69953486D01*
X105138104Y-69949665D01*
X105134053Y-69946466D01*
X105134049Y-69946462D01*
X104968993Y-69816109D01*
X104949888Y-69801021D01*
X104739922Y-69685113D01*
X104617458Y-69641746D01*
X104518720Y-69606781D01*
X104518716Y-69606780D01*
X104513845Y-69605055D01*
X104508752Y-69604148D01*
X104508749Y-69604147D01*
X104282816Y-69563902D01*
X104282810Y-69563901D01*
X104277727Y-69562996D01*
X104185484Y-69561869D01*
X104043081Y-69560129D01*
X104043079Y-69560129D01*
X104037911Y-69560066D01*
X103800837Y-69596343D01*
X103572871Y-69670854D01*
X103360136Y-69781597D01*
X103356003Y-69784700D01*
X103356000Y-69784702D01*
X103275366Y-69845244D01*
X103168345Y-69925598D01*
X103002648Y-70098990D01*
X102975410Y-70138920D01*
X102920502Y-70183920D01*
X102849977Y-70192091D01*
X102786230Y-70160837D01*
X102765535Y-70136357D01*
X102762329Y-70131401D01*
X102762322Y-70131392D01*
X102759515Y-70127053D01*
X102737861Y-70103255D01*
X102601582Y-69953487D01*
X102601580Y-69953486D01*
X102598104Y-69949665D01*
X102594053Y-69946466D01*
X102594049Y-69946462D01*
X102428993Y-69816109D01*
X102409888Y-69801021D01*
X102199922Y-69685113D01*
X102077458Y-69641746D01*
X101978720Y-69606781D01*
X101978716Y-69606780D01*
X101973845Y-69605055D01*
X101968752Y-69604148D01*
X101968749Y-69604147D01*
X101742816Y-69563902D01*
X101742810Y-69563901D01*
X101737727Y-69562996D01*
X101645484Y-69561869D01*
X101503081Y-69560129D01*
X101503079Y-69560129D01*
X101497911Y-69560066D01*
X101260837Y-69596343D01*
X101032871Y-69670854D01*
X100820136Y-69781597D01*
X100816003Y-69784700D01*
X100816000Y-69784702D01*
X100735366Y-69845244D01*
X100628345Y-69925598D01*
X100462648Y-70098990D01*
X100435410Y-70138920D01*
X100380502Y-70183920D01*
X100309977Y-70192091D01*
X100246230Y-70160837D01*
X100225535Y-70136357D01*
X100222329Y-70131401D01*
X100222322Y-70131392D01*
X100219515Y-70127053D01*
X100197861Y-70103255D01*
X100061582Y-69953487D01*
X100061580Y-69953486D01*
X100058104Y-69949665D01*
X100054053Y-69946466D01*
X100054049Y-69946462D01*
X99888993Y-69816109D01*
X99869888Y-69801021D01*
X99659922Y-69685113D01*
X99537458Y-69641746D01*
X99438720Y-69606781D01*
X99438716Y-69606780D01*
X99433845Y-69605055D01*
X99428752Y-69604148D01*
X99428749Y-69604147D01*
X99202816Y-69563902D01*
X99202810Y-69563901D01*
X99197727Y-69562996D01*
X99105484Y-69561869D01*
X98963081Y-69560129D01*
X98963079Y-69560129D01*
X98957911Y-69560066D01*
X98720837Y-69596343D01*
X98492871Y-69670854D01*
X98280136Y-69781597D01*
X98276003Y-69784700D01*
X98276000Y-69784702D01*
X98195366Y-69845244D01*
X98088345Y-69925598D01*
X97922648Y-70098990D01*
X97895410Y-70138920D01*
X97840502Y-70183920D01*
X97769977Y-70192091D01*
X97706230Y-70160837D01*
X97685535Y-70136357D01*
X97682329Y-70131401D01*
X97682322Y-70131392D01*
X97679515Y-70127053D01*
X97657861Y-70103255D01*
X97521582Y-69953487D01*
X97521580Y-69953486D01*
X97518104Y-69949665D01*
X97514053Y-69946466D01*
X97514049Y-69946462D01*
X97348993Y-69816109D01*
X97329888Y-69801021D01*
X97119922Y-69685113D01*
X96997458Y-69641746D01*
X96898720Y-69606781D01*
X96898716Y-69606780D01*
X96893845Y-69605055D01*
X96888752Y-69604148D01*
X96888749Y-69604147D01*
X96662816Y-69563902D01*
X96662810Y-69563901D01*
X96657727Y-69562996D01*
X96565484Y-69561869D01*
X96423081Y-69560129D01*
X96423079Y-69560129D01*
X96417911Y-69560066D01*
X96180837Y-69596343D01*
X95952871Y-69670854D01*
X95740136Y-69781597D01*
X95736003Y-69784700D01*
X95736000Y-69784702D01*
X95655366Y-69845244D01*
X95548345Y-69925598D01*
X95382648Y-70098990D01*
X95355105Y-70139367D01*
X95300196Y-70184369D01*
X95229671Y-70192541D01*
X95165924Y-70161287D01*
X95145226Y-70136802D01*
X95141925Y-70131699D01*
X95135641Y-70123539D01*
X94981237Y-69953851D01*
X94973707Y-69946830D01*
X94793668Y-69804644D01*
X94785081Y-69798939D01*
X94584250Y-69688074D01*
X94574838Y-69683844D01*
X94358584Y-69607264D01*
X94348634Y-69604635D01*
X94251836Y-69587393D01*
X94238540Y-69588852D01*
X94234000Y-69603408D01*
X94234000Y-72638067D01*
X93725540Y-72638067D01*
X93726000Y-72636592D01*
X93726000Y-71392115D01*
X93721525Y-71376876D01*
X93720135Y-71375671D01*
X93712452Y-71374000D01*
X92547779Y-71374000D01*
X92533050Y-71378325D01*
X92530989Y-71390111D01*
X89599000Y-71390111D01*
X89599000Y-70847987D01*
X92532003Y-70847987D01*
X92534651Y-70862609D01*
X92547027Y-70866000D01*
X93707885Y-70866000D01*
X93723124Y-70861525D01*
X93724329Y-70860135D01*
X93726000Y-70852452D01*
X93726000Y-69601933D01*
X93722082Y-69588589D01*
X93707806Y-69586602D01*
X93646067Y-69596050D01*
X93636039Y-69598439D01*
X93417984Y-69669710D01*
X93408475Y-69673707D01*
X93204993Y-69779633D01*
X93196268Y-69785127D01*
X93012813Y-69922869D01*
X93005106Y-69929712D01*
X92846609Y-70095569D01*
X92840126Y-70103575D01*
X92710845Y-70293094D01*
X92705756Y-70302053D01*
X92609163Y-70510145D01*
X92605606Y-70519813D01*
X92544299Y-70740879D01*
X92542368Y-70750999D01*
X92532003Y-70847987D01*
X89599000Y-70847987D01*
X89599000Y-59055000D01*
X90228450Y-59055000D01*
X90246600Y-59227681D01*
X90300255Y-59392815D01*
X90387071Y-59543185D01*
X90391489Y-59548092D01*
X90391490Y-59548093D01*
X90443381Y-59605723D01*
X90503254Y-59672219D01*
X90508593Y-59676098D01*
X90523647Y-59687035D01*
X90643725Y-59774277D01*
X90649753Y-59776961D01*
X90649755Y-59776962D01*
X90796315Y-59842215D01*
X90802346Y-59844900D01*
X90946539Y-59875549D01*
X91009012Y-59909277D01*
X91040175Y-59959860D01*
X91062255Y-60027815D01*
X91149071Y-60178185D01*
X91265254Y-60307219D01*
X91405725Y-60409277D01*
X91411753Y-60411961D01*
X91411755Y-60411962D01*
X91537371Y-60467890D01*
X91564346Y-60479900D01*
X91626686Y-60493151D01*
X91689159Y-60526878D01*
X91720322Y-60577460D01*
X91748055Y-60662815D01*
X91751358Y-60668537D01*
X91751359Y-60668538D01*
X91806640Y-60764287D01*
X91834871Y-60813185D01*
X91839289Y-60818092D01*
X91839290Y-60818093D01*
X91870956Y-60853261D01*
X91951054Y-60942219D01*
X92091525Y-61044277D01*
X92097553Y-61046961D01*
X92097555Y-61046962D01*
X92244115Y-61112215D01*
X92250146Y-61114900D01*
X92335065Y-61132950D01*
X92413527Y-61149628D01*
X92413531Y-61149628D01*
X92419984Y-61151000D01*
X92593616Y-61151000D01*
X92600069Y-61149628D01*
X92600073Y-61149628D01*
X92678535Y-61132950D01*
X92763454Y-61114900D01*
X92769485Y-61112215D01*
X92916045Y-61046962D01*
X92916047Y-61046961D01*
X92922075Y-61044277D01*
X92926849Y-61040809D01*
X92989577Y-61024000D01*
X95296646Y-61024000D01*
X95364767Y-61044002D01*
X95411260Y-61097658D01*
X95421364Y-61167932D01*
X95405765Y-61213000D01*
X95380255Y-61257185D01*
X95378213Y-61263470D01*
X95360000Y-61319523D01*
X95319926Y-61378129D01*
X95264222Y-61401356D01*
X95264784Y-61404000D01*
X95094946Y-61440100D01*
X95088917Y-61442784D01*
X95088915Y-61442785D01*
X94942355Y-61508038D01*
X94942353Y-61508039D01*
X94936325Y-61510723D01*
X94795854Y-61612781D01*
X94791441Y-61617683D01*
X94791439Y-61617684D01*
X94720627Y-61696329D01*
X94679671Y-61741815D01*
X94592855Y-61892185D01*
X94539200Y-62057319D01*
X94538510Y-62063883D01*
X94538018Y-62066198D01*
X94504290Y-62128671D01*
X94442140Y-62162992D01*
X94414772Y-62166000D01*
X94411977Y-62166000D01*
X94349249Y-62149191D01*
X94344475Y-62145723D01*
X94338447Y-62143039D01*
X94338445Y-62143038D01*
X94191885Y-62077785D01*
X94191883Y-62077784D01*
X94185854Y-62075100D01*
X94100935Y-62057050D01*
X94022473Y-62040372D01*
X94022469Y-62040372D01*
X94016016Y-62039000D01*
X93842384Y-62039000D01*
X93835931Y-62040372D01*
X93835927Y-62040372D01*
X93757465Y-62057050D01*
X93672546Y-62075100D01*
X93666517Y-62077784D01*
X93666515Y-62077785D01*
X93519955Y-62143038D01*
X93519953Y-62143039D01*
X93513925Y-62145723D01*
X93508584Y-62149603D01*
X93508583Y-62149604D01*
X93429149Y-62207316D01*
X93373454Y-62247781D01*
X93369041Y-62252683D01*
X93369039Y-62252684D01*
X93313550Y-62314311D01*
X93257271Y-62376815D01*
X93170455Y-62527185D01*
X93116800Y-62692319D01*
X93098650Y-62865000D01*
X93116800Y-63037681D01*
X93170455Y-63202815D01*
X93257271Y-63353185D01*
X93373454Y-63482219D01*
X93513925Y-63584277D01*
X93519953Y-63586961D01*
X93519955Y-63586962D01*
X93633820Y-63637658D01*
X93672546Y-63654900D01*
X93756199Y-63672681D01*
X93835927Y-63689628D01*
X93835931Y-63689628D01*
X93842384Y-63691000D01*
X94016016Y-63691000D01*
X94022469Y-63689628D01*
X94022473Y-63689628D01*
X94102201Y-63672681D01*
X94185854Y-63654900D01*
X94224580Y-63637658D01*
X94338445Y-63586962D01*
X94338447Y-63586961D01*
X94344475Y-63584277D01*
X94349249Y-63580809D01*
X94411977Y-63564000D01*
X95862572Y-63564000D01*
X95930693Y-63584002D01*
X95977186Y-63637658D01*
X95985818Y-63663802D01*
X95986310Y-63666117D01*
X95987000Y-63672681D01*
X96040655Y-63837815D01*
X96127471Y-63988185D01*
X96243654Y-64117219D01*
X96384125Y-64219277D01*
X96390153Y-64221961D01*
X96390155Y-64221962D01*
X96536715Y-64287215D01*
X96542746Y-64289900D01*
X96627665Y-64307950D01*
X96706127Y-64324628D01*
X96706131Y-64324628D01*
X96712584Y-64326000D01*
X96886216Y-64326000D01*
X96892669Y-64324628D01*
X96892673Y-64324628D01*
X96971135Y-64307950D01*
X97056054Y-64289900D01*
X97062085Y-64287215D01*
X97208645Y-64221962D01*
X97208647Y-64221961D01*
X97214675Y-64219277D01*
X97219449Y-64215809D01*
X97282177Y-64199000D01*
X101117223Y-64199000D01*
X101179951Y-64215809D01*
X101184725Y-64219277D01*
X101190753Y-64221961D01*
X101190755Y-64221962D01*
X101337315Y-64287215D01*
X101343346Y-64289900D01*
X101428265Y-64307950D01*
X101506727Y-64324628D01*
X101506731Y-64324628D01*
X101513184Y-64326000D01*
X101686816Y-64326000D01*
X101693269Y-64324628D01*
X101693273Y-64324628D01*
X101771735Y-64307950D01*
X101856654Y-64289900D01*
X101862685Y-64287215D01*
X102009245Y-64221962D01*
X102009247Y-64221961D01*
X102015275Y-64219277D01*
X102020049Y-64215809D01*
X102082777Y-64199000D01*
X104927223Y-64199000D01*
X104989951Y-64215809D01*
X104994725Y-64219277D01*
X105000753Y-64221961D01*
X105000755Y-64221962D01*
X105147315Y-64287215D01*
X105153346Y-64289900D01*
X105238265Y-64307950D01*
X105316727Y-64324628D01*
X105316731Y-64324628D01*
X105323184Y-64326000D01*
X105496816Y-64326000D01*
X105503269Y-64324628D01*
X105503273Y-64324628D01*
X105581735Y-64307950D01*
X105666654Y-64289900D01*
X105672685Y-64287215D01*
X105819245Y-64221962D01*
X105819247Y-64221961D01*
X105825275Y-64219277D01*
X105830049Y-64215809D01*
X105892777Y-64199000D01*
X112547223Y-64199000D01*
X112609951Y-64215809D01*
X112614725Y-64219277D01*
X112620753Y-64221961D01*
X112620755Y-64221962D01*
X112767315Y-64287215D01*
X112773346Y-64289900D01*
X112858265Y-64307950D01*
X112936727Y-64324628D01*
X112936731Y-64324628D01*
X112943184Y-64326000D01*
X113116816Y-64326000D01*
X113123269Y-64324628D01*
X113123273Y-64324628D01*
X113201735Y-64307950D01*
X113286654Y-64289900D01*
X113292685Y-64287215D01*
X113439245Y-64221962D01*
X113439247Y-64221961D01*
X113445275Y-64219277D01*
X113450049Y-64215809D01*
X113512777Y-64199000D01*
X125882223Y-64199000D01*
X125944951Y-64215809D01*
X125949725Y-64219277D01*
X125955753Y-64221961D01*
X125955755Y-64221962D01*
X126102315Y-64287215D01*
X126108346Y-64289900D01*
X126193265Y-64307950D01*
X126271727Y-64324628D01*
X126271731Y-64324628D01*
X126278184Y-64326000D01*
X126451816Y-64326000D01*
X126458269Y-64324628D01*
X126458273Y-64324628D01*
X126536735Y-64307950D01*
X126621654Y-64289900D01*
X126627685Y-64287215D01*
X126774245Y-64221962D01*
X126774247Y-64221961D01*
X126780275Y-64219277D01*
X126920746Y-64117219D01*
X127036929Y-63988185D01*
X127123745Y-63837815D01*
X127164600Y-63712076D01*
X127204673Y-63653470D01*
X127270070Y-63625833D01*
X127335681Y-63635905D01*
X127372311Y-63652214D01*
X127372319Y-63652217D01*
X127378346Y-63654900D01*
X127461999Y-63672681D01*
X127541727Y-63689628D01*
X127541731Y-63689628D01*
X127548184Y-63691000D01*
X127721816Y-63691000D01*
X127728269Y-63689628D01*
X127728273Y-63689628D01*
X127808001Y-63672681D01*
X127891654Y-63654900D01*
X127930380Y-63637658D01*
X128044245Y-63586962D01*
X128044247Y-63586961D01*
X128050275Y-63584277D01*
X128190746Y-63482219D01*
X128306929Y-63353185D01*
X128393745Y-63202815D01*
X128447400Y-63037681D01*
X128465550Y-62865000D01*
X128447400Y-62692319D01*
X128393745Y-62527185D01*
X128306929Y-62376815D01*
X128250650Y-62314311D01*
X128219933Y-62250303D01*
X128228697Y-62179849D01*
X128250650Y-62145689D01*
X128302510Y-62088093D01*
X128302511Y-62088092D01*
X128306929Y-62083185D01*
X128393745Y-61932815D01*
X128447400Y-61767681D01*
X128448090Y-61761117D01*
X128448582Y-61758802D01*
X128482310Y-61696329D01*
X128544460Y-61662008D01*
X128571828Y-61659000D01*
X130468275Y-61659000D01*
X130536396Y-61679002D01*
X130557370Y-61695905D01*
X130612872Y-61751407D01*
X130643610Y-61801566D01*
X130686255Y-61932815D01*
X130773071Y-62083185D01*
X130777489Y-62088092D01*
X130777490Y-62088093D01*
X130844930Y-62162992D01*
X130889254Y-62212219D01*
X131029725Y-62314277D01*
X131035753Y-62316961D01*
X131035755Y-62316962D01*
X131182315Y-62382215D01*
X131188346Y-62384900D01*
X131273265Y-62402950D01*
X131351727Y-62419628D01*
X131351731Y-62419628D01*
X131358184Y-62421000D01*
X131531816Y-62421000D01*
X131538269Y-62419628D01*
X131538273Y-62419628D01*
X131616735Y-62402950D01*
X131701654Y-62384900D01*
X131707685Y-62382215D01*
X131854245Y-62316962D01*
X131854247Y-62316961D01*
X131860275Y-62314277D01*
X132000746Y-62212219D01*
X132045071Y-62162992D01*
X132112510Y-62088093D01*
X132112511Y-62088092D01*
X132116929Y-62083185D01*
X132203745Y-61932815D01*
X132257400Y-61767681D01*
X132275550Y-61595000D01*
X132257400Y-61422319D01*
X132203745Y-61257185D01*
X132116929Y-61106815D01*
X132060650Y-61044311D01*
X132029933Y-60980303D01*
X132038697Y-60909849D01*
X132060650Y-60875689D01*
X132112510Y-60818093D01*
X132112511Y-60818092D01*
X132116929Y-60813185D01*
X132145160Y-60764287D01*
X132200441Y-60668538D01*
X132200442Y-60668537D01*
X132203745Y-60662815D01*
X132257400Y-60497681D01*
X132266458Y-60411507D01*
X132274860Y-60331565D01*
X132275550Y-60325000D01*
X132257400Y-60152319D01*
X132203745Y-59987185D01*
X132116929Y-59836815D01*
X132063037Y-59776962D01*
X132005161Y-59712684D01*
X132005159Y-59712683D01*
X132000746Y-59707781D01*
X131983808Y-59695475D01*
X131865617Y-59609604D01*
X131865616Y-59609603D01*
X131860275Y-59605723D01*
X131854247Y-59603039D01*
X131854245Y-59603038D01*
X131707685Y-59537785D01*
X131707683Y-59537784D01*
X131701654Y-59535100D01*
X131616735Y-59517050D01*
X131538273Y-59500372D01*
X131538269Y-59500372D01*
X131531816Y-59499000D01*
X131358184Y-59499000D01*
X131351731Y-59500372D01*
X131351727Y-59500372D01*
X131273265Y-59517050D01*
X131188346Y-59535100D01*
X131182317Y-59537784D01*
X131182315Y-59537785D01*
X131035755Y-59603038D01*
X131035753Y-59603039D01*
X131029725Y-59605723D01*
X131024951Y-59609191D01*
X130962223Y-59626000D01*
X127936828Y-59626000D01*
X127868707Y-59605998D01*
X127822214Y-59552342D01*
X127813582Y-59526198D01*
X127813090Y-59523883D01*
X127812400Y-59517319D01*
X127758745Y-59352185D01*
X127671929Y-59201815D01*
X127618037Y-59141962D01*
X127560161Y-59077684D01*
X127560159Y-59077683D01*
X127555746Y-59072781D01*
X127495478Y-59028994D01*
X127420617Y-58974604D01*
X127420616Y-58974603D01*
X127415275Y-58970723D01*
X127409247Y-58968039D01*
X127409245Y-58968038D01*
X127348857Y-58941152D01*
X127256654Y-58900100D01*
X127248880Y-58898448D01*
X127248195Y-58898078D01*
X127243918Y-58896688D01*
X127244172Y-58895906D01*
X127186410Y-58864720D01*
X127155247Y-58814138D01*
X127125787Y-58723470D01*
X127123745Y-58717185D01*
X127065577Y-58616434D01*
X127040232Y-58572536D01*
X127036929Y-58566815D01*
X127027253Y-58556069D01*
X126925161Y-58442684D01*
X126925159Y-58442683D01*
X126920746Y-58437781D01*
X126780275Y-58335723D01*
X126774247Y-58333039D01*
X126774245Y-58333038D01*
X126627685Y-58267785D01*
X126627683Y-58267784D01*
X126621654Y-58265100D01*
X126615199Y-58263728D01*
X126615190Y-58263725D01*
X126584478Y-58257197D01*
X126521581Y-58223046D01*
X126244497Y-57945962D01*
X126238643Y-57939696D01*
X126231768Y-57931815D01*
X126201158Y-57896726D01*
X126149622Y-57860506D01*
X126144326Y-57856573D01*
X126100737Y-57822394D01*
X126100734Y-57822392D01*
X126094760Y-57817708D01*
X126087836Y-57814582D01*
X126084801Y-57812744D01*
X126072102Y-57805500D01*
X126068954Y-57803812D01*
X126062739Y-57799444D01*
X126004050Y-57776562D01*
X125998005Y-57774022D01*
X125940565Y-57748087D01*
X125933092Y-57746702D01*
X125929674Y-57745631D01*
X125915685Y-57741646D01*
X125912193Y-57740749D01*
X125905111Y-57737988D01*
X125897576Y-57736996D01*
X125894893Y-57736307D01*
X125833887Y-57699990D01*
X125802201Y-57636457D01*
X125809892Y-57565879D01*
X125817111Y-57551267D01*
X125828235Y-57532000D01*
X125853745Y-57487815D01*
X125907400Y-57322681D01*
X125908090Y-57316117D01*
X125908582Y-57313802D01*
X125942310Y-57251329D01*
X126004460Y-57217008D01*
X126031828Y-57214000D01*
X129198275Y-57214000D01*
X129266396Y-57234002D01*
X129287370Y-57250905D01*
X130612871Y-58576406D01*
X130643609Y-58626565D01*
X130686255Y-58757815D01*
X130689558Y-58763537D01*
X130689559Y-58763538D01*
X130754512Y-58876040D01*
X130773071Y-58908185D01*
X130777489Y-58913092D01*
X130777490Y-58913093D01*
X130829381Y-58970723D01*
X130889254Y-59037219D01*
X131029725Y-59139277D01*
X131035753Y-59141961D01*
X131035755Y-59141962D01*
X131182315Y-59207215D01*
X131188346Y-59209900D01*
X131271999Y-59227681D01*
X131351727Y-59244628D01*
X131351731Y-59244628D01*
X131358184Y-59246000D01*
X131531816Y-59246000D01*
X131538269Y-59244628D01*
X131538273Y-59244628D01*
X131618001Y-59227681D01*
X131701654Y-59209900D01*
X131707685Y-59207215D01*
X131854245Y-59141962D01*
X131854247Y-59141961D01*
X131860275Y-59139277D01*
X132000746Y-59037219D01*
X132060620Y-58970723D01*
X132112510Y-58913093D01*
X132112511Y-58913092D01*
X132116929Y-58908185D01*
X132135488Y-58876040D01*
X132200441Y-58763538D01*
X132200442Y-58763537D01*
X132203745Y-58757815D01*
X132240955Y-58643295D01*
X132255360Y-58598960D01*
X132255360Y-58598959D01*
X132257400Y-58592681D01*
X132261825Y-58550586D01*
X132274860Y-58426565D01*
X132275550Y-58420000D01*
X132257400Y-58247319D01*
X132203745Y-58082185D01*
X132185540Y-58050652D01*
X132120232Y-57937536D01*
X132116929Y-57931815D01*
X132105390Y-57919000D01*
X132005161Y-57807684D01*
X132005159Y-57807683D01*
X132000746Y-57802781D01*
X131971333Y-57781411D01*
X131865617Y-57704604D01*
X131865616Y-57704603D01*
X131860275Y-57700723D01*
X131854247Y-57698039D01*
X131854245Y-57698038D01*
X131707685Y-57632785D01*
X131707683Y-57632784D01*
X131701654Y-57630100D01*
X131695199Y-57628728D01*
X131695190Y-57628725D01*
X131664478Y-57622197D01*
X131601581Y-57588046D01*
X130054497Y-56040962D01*
X130048643Y-56034696D01*
X130041768Y-56026815D01*
X130011158Y-55991726D01*
X129959622Y-55955506D01*
X129954326Y-55951573D01*
X129910737Y-55917394D01*
X129910734Y-55917392D01*
X129904760Y-55912708D01*
X129897836Y-55909582D01*
X129894801Y-55907744D01*
X129882102Y-55900500D01*
X129878954Y-55898812D01*
X129872739Y-55894444D01*
X129814050Y-55871562D01*
X129808005Y-55869022D01*
X129750565Y-55843087D01*
X129743092Y-55841702D01*
X129739674Y-55840631D01*
X129725685Y-55836646D01*
X129722193Y-55835749D01*
X129715111Y-55832988D01*
X129707578Y-55831996D01*
X129707577Y-55831996D01*
X129652670Y-55824767D01*
X129646157Y-55823735D01*
X129591682Y-55813639D01*
X129591680Y-55813639D01*
X129584213Y-55812255D01*
X129576633Y-55812692D01*
X129576632Y-55812692D01*
X129522888Y-55815791D01*
X129515635Y-55816000D01*
X122402777Y-55816000D01*
X122340049Y-55799191D01*
X122335275Y-55795723D01*
X122329247Y-55793039D01*
X122329245Y-55793038D01*
X122182685Y-55727785D01*
X122182683Y-55727784D01*
X122176654Y-55725100D01*
X122091735Y-55707050D01*
X122013273Y-55690372D01*
X122013269Y-55690372D01*
X122006816Y-55689000D01*
X121833184Y-55689000D01*
X121826731Y-55690372D01*
X121826727Y-55690372D01*
X121748265Y-55707050D01*
X121663346Y-55725100D01*
X121657317Y-55727784D01*
X121657315Y-55727785D01*
X121510755Y-55793038D01*
X121510753Y-55793039D01*
X121504725Y-55795723D01*
X121499384Y-55799603D01*
X121499383Y-55799604D01*
X121372787Y-55891582D01*
X121364254Y-55897781D01*
X121359841Y-55902683D01*
X121359839Y-55902684D01*
X121252490Y-56021907D01*
X121248071Y-56026815D01*
X121161255Y-56177185D01*
X121107600Y-56342319D01*
X121089450Y-56515000D01*
X121107600Y-56687681D01*
X121161255Y-56852815D01*
X121248071Y-57003185D01*
X121364254Y-57132219D01*
X121504725Y-57234277D01*
X121510753Y-57236961D01*
X121510755Y-57236962D01*
X121542072Y-57250905D01*
X121663346Y-57304900D01*
X121671120Y-57306552D01*
X121671805Y-57306922D01*
X121676082Y-57308312D01*
X121675828Y-57309094D01*
X121733590Y-57340280D01*
X121764753Y-57390862D01*
X121796255Y-57487815D01*
X121799558Y-57493537D01*
X121799559Y-57493538D01*
X121821765Y-57532000D01*
X121838503Y-57600996D01*
X121815282Y-57668088D01*
X121759475Y-57711975D01*
X121712646Y-57721000D01*
X117322777Y-57721000D01*
X117260049Y-57704191D01*
X117255275Y-57700723D01*
X117249247Y-57698039D01*
X117249245Y-57698038D01*
X117102685Y-57632785D01*
X117102683Y-57632784D01*
X117096654Y-57630100D01*
X117011735Y-57612050D01*
X116933273Y-57595372D01*
X116933269Y-57595372D01*
X116926816Y-57594000D01*
X116753184Y-57594000D01*
X116746731Y-57595372D01*
X116746727Y-57595372D01*
X116668265Y-57612050D01*
X116583346Y-57630100D01*
X116577317Y-57632784D01*
X116577315Y-57632785D01*
X116430755Y-57698038D01*
X116430753Y-57698039D01*
X116424725Y-57700723D01*
X116419951Y-57704191D01*
X116357223Y-57721000D01*
X108178777Y-57721000D01*
X108116049Y-57704191D01*
X108111275Y-57700723D01*
X108105247Y-57698039D01*
X108105245Y-57698038D01*
X107958685Y-57632785D01*
X107958683Y-57632784D01*
X107952654Y-57630100D01*
X107867735Y-57612050D01*
X107789273Y-57595372D01*
X107789269Y-57595372D01*
X107782816Y-57594000D01*
X107609184Y-57594000D01*
X107602731Y-57595372D01*
X107602727Y-57595372D01*
X107524265Y-57612050D01*
X107439346Y-57630100D01*
X107433317Y-57632784D01*
X107433315Y-57632785D01*
X107286755Y-57698038D01*
X107286753Y-57698039D01*
X107280725Y-57700723D01*
X107275951Y-57704191D01*
X107213223Y-57721000D01*
X100558777Y-57721000D01*
X100496049Y-57704191D01*
X100491275Y-57700723D01*
X100485247Y-57698039D01*
X100485245Y-57698038D01*
X100338685Y-57632785D01*
X100338683Y-57632784D01*
X100332654Y-57630100D01*
X100247735Y-57612050D01*
X100169273Y-57595372D01*
X100169269Y-57595372D01*
X100162816Y-57594000D01*
X99989184Y-57594000D01*
X99982731Y-57595372D01*
X99982727Y-57595372D01*
X99904265Y-57612050D01*
X99819346Y-57630100D01*
X99813317Y-57632784D01*
X99813315Y-57632785D01*
X99666755Y-57698038D01*
X99666753Y-57698039D01*
X99660725Y-57700723D01*
X99655951Y-57704191D01*
X99593223Y-57721000D01*
X93042308Y-57721000D01*
X92974187Y-57700998D01*
X92968247Y-57696936D01*
X92919617Y-57661604D01*
X92919616Y-57661603D01*
X92914275Y-57657723D01*
X92908247Y-57655039D01*
X92908245Y-57655038D01*
X92761685Y-57589785D01*
X92761683Y-57589784D01*
X92755654Y-57587100D01*
X92655817Y-57565879D01*
X92592273Y-57552372D01*
X92592269Y-57552372D01*
X92585816Y-57551000D01*
X92412184Y-57551000D01*
X92405731Y-57552372D01*
X92405727Y-57552372D01*
X92342183Y-57565879D01*
X92242346Y-57587100D01*
X92236317Y-57589784D01*
X92236315Y-57589785D01*
X92089755Y-57655038D01*
X92089753Y-57655039D01*
X92083725Y-57657723D01*
X92078384Y-57661603D01*
X92078383Y-57661604D01*
X92015907Y-57706996D01*
X91956983Y-57730148D01*
X91907040Y-57736191D01*
X91899937Y-57738875D01*
X91899933Y-57738876D01*
X91764499Y-57790054D01*
X91748778Y-57795994D01*
X91742520Y-57800295D01*
X91710366Y-57822394D01*
X91609348Y-57891821D01*
X91604297Y-57897491D01*
X91604295Y-57897492D01*
X91501854Y-58012469D01*
X91501852Y-58012472D01*
X91496801Y-58018141D01*
X91493246Y-58024854D01*
X91493246Y-58024855D01*
X91421225Y-58160879D01*
X91417634Y-58167661D01*
X91415783Y-58175028D01*
X91414827Y-58177520D01*
X91371739Y-58233947D01*
X91304985Y-58258121D01*
X91271003Y-58255609D01*
X91202460Y-58241040D01*
X91152273Y-58230372D01*
X91152269Y-58230372D01*
X91145816Y-58229000D01*
X90972184Y-58229000D01*
X90965731Y-58230372D01*
X90965727Y-58230372D01*
X90887265Y-58247050D01*
X90802346Y-58265100D01*
X90796317Y-58267784D01*
X90796315Y-58267785D01*
X90649755Y-58333038D01*
X90649753Y-58333039D01*
X90643725Y-58335723D01*
X90503254Y-58437781D01*
X90498841Y-58442683D01*
X90498839Y-58442684D01*
X90396747Y-58556069D01*
X90387071Y-58566815D01*
X90383768Y-58572536D01*
X90358424Y-58616434D01*
X90300255Y-58717185D01*
X90246600Y-58882319D01*
X90228450Y-59055000D01*
X89599000Y-59055000D01*
X89599000Y-51070111D01*
X92530989Y-51070111D01*
X92536224Y-51133793D01*
X92537907Y-51143957D01*
X92593796Y-51366461D01*
X92597117Y-51376216D01*
X92688591Y-51586590D01*
X92693469Y-51595688D01*
X92818075Y-51788301D01*
X92824359Y-51796461D01*
X92978763Y-51966149D01*
X92986293Y-51973170D01*
X93166332Y-52115356D01*
X93174919Y-52121061D01*
X93375750Y-52231926D01*
X93385162Y-52236156D01*
X93601416Y-52312736D01*
X93611366Y-52315365D01*
X93708164Y-52332607D01*
X93721460Y-52331148D01*
X93726000Y-52316592D01*
X93726000Y-51072115D01*
X93721525Y-51056876D01*
X93720135Y-51055671D01*
X93712452Y-51054000D01*
X92547779Y-51054000D01*
X92533050Y-51058325D01*
X92530989Y-51070111D01*
X89599000Y-51070111D01*
X89599000Y-50527987D01*
X92532003Y-50527987D01*
X92534651Y-50542609D01*
X92547027Y-50546000D01*
X93707885Y-50546000D01*
X93723124Y-50541525D01*
X93724329Y-50540135D01*
X93726000Y-50532452D01*
X93726000Y-49281933D01*
X93722082Y-49268589D01*
X93707806Y-49266602D01*
X93646067Y-49276050D01*
X93636039Y-49278439D01*
X93417984Y-49349710D01*
X93408475Y-49353707D01*
X93204993Y-49459633D01*
X93196268Y-49465127D01*
X93012813Y-49602869D01*
X93005106Y-49609712D01*
X92846609Y-49775569D01*
X92840126Y-49783575D01*
X92710845Y-49973094D01*
X92705756Y-49982053D01*
X92609163Y-50190145D01*
X92605606Y-50199813D01*
X92544299Y-50420879D01*
X92542368Y-50430999D01*
X92532003Y-50527987D01*
X89599000Y-50527987D01*
X89599000Y-49871725D01*
X89619002Y-49803604D01*
X89635905Y-49782630D01*
X90422630Y-48995905D01*
X90484942Y-48961879D01*
X90511725Y-48959000D01*
X107608275Y-48959000D01*
X107676396Y-48979002D01*
X107697370Y-48995905D01*
X108189941Y-49488476D01*
X108223967Y-49550788D01*
X108218902Y-49621603D01*
X108191940Y-49664622D01*
X108082648Y-49778990D01*
X108055410Y-49818920D01*
X108000502Y-49863920D01*
X107929977Y-49872091D01*
X107866230Y-49840837D01*
X107845535Y-49816357D01*
X107842329Y-49811401D01*
X107842322Y-49811392D01*
X107839515Y-49807053D01*
X107826185Y-49792403D01*
X107681582Y-49633487D01*
X107681580Y-49633486D01*
X107678104Y-49629665D01*
X107674053Y-49626466D01*
X107674049Y-49626462D01*
X107539087Y-49519876D01*
X107489888Y-49481021D01*
X107279922Y-49365113D01*
X107138529Y-49315043D01*
X107058720Y-49286781D01*
X107058716Y-49286780D01*
X107053845Y-49285055D01*
X107048752Y-49284148D01*
X107048749Y-49284147D01*
X106822816Y-49243902D01*
X106822810Y-49243901D01*
X106817727Y-49242996D01*
X106730460Y-49241930D01*
X106583081Y-49240129D01*
X106583079Y-49240129D01*
X106577911Y-49240066D01*
X106340837Y-49276343D01*
X106112871Y-49350854D01*
X106085726Y-49364985D01*
X105913178Y-49454808D01*
X105900136Y-49461597D01*
X105896003Y-49464700D01*
X105896000Y-49464702D01*
X105712480Y-49602493D01*
X105708345Y-49605598D01*
X105542648Y-49778990D01*
X105515410Y-49818920D01*
X105460502Y-49863920D01*
X105389977Y-49872091D01*
X105326230Y-49840837D01*
X105305535Y-49816357D01*
X105302329Y-49811401D01*
X105302322Y-49811392D01*
X105299515Y-49807053D01*
X105286185Y-49792403D01*
X105141582Y-49633487D01*
X105141580Y-49633486D01*
X105138104Y-49629665D01*
X105134053Y-49626466D01*
X105134049Y-49626462D01*
X104999087Y-49519876D01*
X104949888Y-49481021D01*
X104739922Y-49365113D01*
X104598529Y-49315043D01*
X104518720Y-49286781D01*
X104518716Y-49286780D01*
X104513845Y-49285055D01*
X104508752Y-49284148D01*
X104508749Y-49284147D01*
X104282816Y-49243902D01*
X104282810Y-49243901D01*
X104277727Y-49242996D01*
X104190460Y-49241930D01*
X104043081Y-49240129D01*
X104043079Y-49240129D01*
X104037911Y-49240066D01*
X103800837Y-49276343D01*
X103572871Y-49350854D01*
X103545726Y-49364985D01*
X103373178Y-49454808D01*
X103360136Y-49461597D01*
X103356003Y-49464700D01*
X103356000Y-49464702D01*
X103172480Y-49602493D01*
X103168345Y-49605598D01*
X103002648Y-49778990D01*
X102975410Y-49818920D01*
X102920502Y-49863920D01*
X102849977Y-49872091D01*
X102786230Y-49840837D01*
X102765535Y-49816357D01*
X102762329Y-49811401D01*
X102762322Y-49811392D01*
X102759515Y-49807053D01*
X102746185Y-49792403D01*
X102601582Y-49633487D01*
X102601580Y-49633486D01*
X102598104Y-49629665D01*
X102594053Y-49626466D01*
X102594049Y-49626462D01*
X102459087Y-49519876D01*
X102409888Y-49481021D01*
X102199922Y-49365113D01*
X102058529Y-49315043D01*
X101978720Y-49286781D01*
X101978716Y-49286780D01*
X101973845Y-49285055D01*
X101968752Y-49284148D01*
X101968749Y-49284147D01*
X101742816Y-49243902D01*
X101742810Y-49243901D01*
X101737727Y-49242996D01*
X101650460Y-49241930D01*
X101503081Y-49240129D01*
X101503079Y-49240129D01*
X101497911Y-49240066D01*
X101260837Y-49276343D01*
X101032871Y-49350854D01*
X101005726Y-49364985D01*
X100833178Y-49454808D01*
X100820136Y-49461597D01*
X100816003Y-49464700D01*
X100816000Y-49464702D01*
X100632480Y-49602493D01*
X100628345Y-49605598D01*
X100462648Y-49778990D01*
X100435410Y-49818920D01*
X100380502Y-49863920D01*
X100309977Y-49872091D01*
X100246230Y-49840837D01*
X100225535Y-49816357D01*
X100222329Y-49811401D01*
X100222322Y-49811392D01*
X100219515Y-49807053D01*
X100206185Y-49792403D01*
X100061582Y-49633487D01*
X100061580Y-49633486D01*
X100058104Y-49629665D01*
X100054053Y-49626466D01*
X100054049Y-49626462D01*
X99919087Y-49519876D01*
X99869888Y-49481021D01*
X99659922Y-49365113D01*
X99518529Y-49315043D01*
X99438720Y-49286781D01*
X99438716Y-49286780D01*
X99433845Y-49285055D01*
X99428752Y-49284148D01*
X99428749Y-49284147D01*
X99202816Y-49243902D01*
X99202810Y-49243901D01*
X99197727Y-49242996D01*
X99110460Y-49241930D01*
X98963081Y-49240129D01*
X98963079Y-49240129D01*
X98957911Y-49240066D01*
X98720837Y-49276343D01*
X98492871Y-49350854D01*
X98465726Y-49364985D01*
X98293178Y-49454808D01*
X98280136Y-49461597D01*
X98276003Y-49464700D01*
X98276000Y-49464702D01*
X98092480Y-49602493D01*
X98088345Y-49605598D01*
X97922648Y-49778990D01*
X97895410Y-49818920D01*
X97840502Y-49863920D01*
X97769977Y-49872091D01*
X97706230Y-49840837D01*
X97685535Y-49816357D01*
X97682329Y-49811401D01*
X97682322Y-49811392D01*
X97679515Y-49807053D01*
X97666185Y-49792403D01*
X97521582Y-49633487D01*
X97521580Y-49633486D01*
X97518104Y-49629665D01*
X97514053Y-49626466D01*
X97514049Y-49626462D01*
X97379087Y-49519876D01*
X97329888Y-49481021D01*
X97119922Y-49365113D01*
X96978529Y-49315043D01*
X96898720Y-49286781D01*
X96898716Y-49286780D01*
X96893845Y-49285055D01*
X96888752Y-49284148D01*
X96888749Y-49284147D01*
X96662816Y-49243902D01*
X96662810Y-49243901D01*
X96657727Y-49242996D01*
X96570460Y-49241930D01*
X96423081Y-49240129D01*
X96423079Y-49240129D01*
X96417911Y-49240066D01*
X96180837Y-49276343D01*
X95952871Y-49350854D01*
X95925726Y-49364985D01*
X95753178Y-49454808D01*
X95740136Y-49461597D01*
X95736003Y-49464700D01*
X95736000Y-49464702D01*
X95552480Y-49602493D01*
X95548345Y-49605598D01*
X95382648Y-49778990D01*
X95355105Y-49819367D01*
X95300196Y-49864369D01*
X95229671Y-49872541D01*
X95165924Y-49841287D01*
X95145226Y-49816802D01*
X95141925Y-49811699D01*
X95135641Y-49803539D01*
X94981237Y-49633851D01*
X94973707Y-49626830D01*
X94793668Y-49484644D01*
X94785081Y-49478939D01*
X94584250Y-49368074D01*
X94574838Y-49363844D01*
X94358584Y-49287264D01*
X94348634Y-49284635D01*
X94251836Y-49267393D01*
X94238540Y-49268852D01*
X94234000Y-49283408D01*
X94234000Y-52318067D01*
X94237918Y-52331411D01*
X94252194Y-52333398D01*
X94313933Y-52323950D01*
X94323961Y-52321561D01*
X94542016Y-52250290D01*
X94551525Y-52246293D01*
X94755007Y-52140367D01*
X94763732Y-52134873D01*
X94947187Y-51997131D01*
X94954894Y-51990288D01*
X95113391Y-51824431D01*
X95119874Y-51816425D01*
X95144293Y-51780628D01*
X95199205Y-51735625D01*
X95269730Y-51727454D01*
X95333477Y-51758708D01*
X95354173Y-51783189D01*
X95360485Y-51792947D01*
X95363964Y-51796770D01*
X95363966Y-51796773D01*
X95518087Y-51966149D01*
X95521896Y-51970335D01*
X95525947Y-51973534D01*
X95525951Y-51973538D01*
X95581435Y-52017356D01*
X95710112Y-52118979D01*
X95920078Y-52234887D01*
X95993819Y-52261000D01*
X96141280Y-52313219D01*
X96141284Y-52313220D01*
X96146155Y-52314945D01*
X96151248Y-52315852D01*
X96151251Y-52315853D01*
X96377184Y-52356098D01*
X96377190Y-52356099D01*
X96382273Y-52357004D01*
X96469540Y-52358070D01*
X96616919Y-52359871D01*
X96616921Y-52359871D01*
X96622089Y-52359934D01*
X96859163Y-52323657D01*
X97087129Y-52249146D01*
X97299864Y-52138403D01*
X97303997Y-52135300D01*
X97304000Y-52135298D01*
X97487520Y-51997507D01*
X97487523Y-51997505D01*
X97491655Y-51994402D01*
X97657352Y-51821010D01*
X97684590Y-51781080D01*
X97739498Y-51736080D01*
X97810023Y-51727909D01*
X97873770Y-51759163D01*
X97894465Y-51783643D01*
X97897671Y-51788599D01*
X97897678Y-51788608D01*
X97900485Y-51792947D01*
X97903964Y-51796770D01*
X97903966Y-51796773D01*
X98058087Y-51966149D01*
X98061896Y-51970335D01*
X98065947Y-51973534D01*
X98065951Y-51973538D01*
X98121435Y-52017356D01*
X98250112Y-52118979D01*
X98460078Y-52234887D01*
X98533819Y-52261000D01*
X98681280Y-52313219D01*
X98681284Y-52313220D01*
X98686155Y-52314945D01*
X98691248Y-52315852D01*
X98691251Y-52315853D01*
X98917184Y-52356098D01*
X98917190Y-52356099D01*
X98922273Y-52357004D01*
X99009540Y-52358070D01*
X99156919Y-52359871D01*
X99156921Y-52359871D01*
X99162089Y-52359934D01*
X99399163Y-52323657D01*
X99627129Y-52249146D01*
X99839864Y-52138403D01*
X99843997Y-52135300D01*
X99844000Y-52135298D01*
X100027520Y-51997507D01*
X100027523Y-51997505D01*
X100031655Y-51994402D01*
X100197352Y-51821010D01*
X100224590Y-51781080D01*
X100279498Y-51736080D01*
X100350023Y-51727909D01*
X100413770Y-51759163D01*
X100434465Y-51783643D01*
X100437671Y-51788599D01*
X100437678Y-51788608D01*
X100440485Y-51792947D01*
X100443964Y-51796770D01*
X100443966Y-51796773D01*
X100598087Y-51966149D01*
X100601896Y-51970335D01*
X100605947Y-51973534D01*
X100605951Y-51973538D01*
X100661435Y-52017356D01*
X100790112Y-52118979D01*
X101000078Y-52234887D01*
X101073819Y-52261000D01*
X101221280Y-52313219D01*
X101221284Y-52313220D01*
X101226155Y-52314945D01*
X101231248Y-52315852D01*
X101231251Y-52315853D01*
X101457184Y-52356098D01*
X101457190Y-52356099D01*
X101462273Y-52357004D01*
X101549540Y-52358070D01*
X101696919Y-52359871D01*
X101696921Y-52359871D01*
X101702089Y-52359934D01*
X101939163Y-52323657D01*
X102167129Y-52249146D01*
X102379864Y-52138403D01*
X102383997Y-52135300D01*
X102384000Y-52135298D01*
X102567520Y-51997507D01*
X102567523Y-51997505D01*
X102571655Y-51994402D01*
X102737352Y-51821010D01*
X102764590Y-51781080D01*
X102819498Y-51736080D01*
X102890023Y-51727909D01*
X102953770Y-51759163D01*
X102974465Y-51783643D01*
X102977671Y-51788599D01*
X102977678Y-51788608D01*
X102980485Y-51792947D01*
X102983964Y-51796770D01*
X102983966Y-51796773D01*
X103138087Y-51966149D01*
X103141896Y-51970335D01*
X103145947Y-51973534D01*
X103145951Y-51973538D01*
X103201435Y-52017356D01*
X103330112Y-52118979D01*
X103540078Y-52234887D01*
X103613819Y-52261000D01*
X103761280Y-52313219D01*
X103761284Y-52313220D01*
X103766155Y-52314945D01*
X103771248Y-52315852D01*
X103771251Y-52315853D01*
X103997184Y-52356098D01*
X103997190Y-52356099D01*
X104002273Y-52357004D01*
X104089540Y-52358070D01*
X104236919Y-52359871D01*
X104236921Y-52359871D01*
X104242089Y-52359934D01*
X104479163Y-52323657D01*
X104707129Y-52249146D01*
X104919864Y-52138403D01*
X104923997Y-52135300D01*
X104924000Y-52135298D01*
X105107520Y-51997507D01*
X105107523Y-51997505D01*
X105111655Y-51994402D01*
X105277352Y-51821010D01*
X105304590Y-51781080D01*
X105359498Y-51736080D01*
X105430023Y-51727909D01*
X105493770Y-51759163D01*
X105514465Y-51783643D01*
X105517671Y-51788599D01*
X105517678Y-51788608D01*
X105520485Y-51792947D01*
X105523964Y-51796770D01*
X105523966Y-51796773D01*
X105678087Y-51966149D01*
X105681896Y-51970335D01*
X105685947Y-51973534D01*
X105685951Y-51973538D01*
X105741435Y-52017356D01*
X105870112Y-52118979D01*
X106080078Y-52234887D01*
X106153819Y-52261000D01*
X106301280Y-52313219D01*
X106301284Y-52313220D01*
X106306155Y-52314945D01*
X106311248Y-52315852D01*
X106311251Y-52315853D01*
X106537184Y-52356098D01*
X106537190Y-52356099D01*
X106542273Y-52357004D01*
X106629540Y-52358070D01*
X106776919Y-52359871D01*
X106776921Y-52359871D01*
X106782089Y-52359934D01*
X107019163Y-52323657D01*
X107247129Y-52249146D01*
X107459864Y-52138403D01*
X107463997Y-52135300D01*
X107464000Y-52135298D01*
X107647520Y-51997507D01*
X107647523Y-51997505D01*
X107651655Y-51994402D01*
X107817352Y-51821010D01*
X107844590Y-51781080D01*
X107899498Y-51736080D01*
X107970023Y-51727909D01*
X108033770Y-51759163D01*
X108054465Y-51783643D01*
X108057671Y-51788599D01*
X108057678Y-51788608D01*
X108060485Y-51792947D01*
X108063964Y-51796770D01*
X108063966Y-51796773D01*
X108218087Y-51966149D01*
X108221896Y-51970335D01*
X108225947Y-51973534D01*
X108225951Y-51973538D01*
X108281435Y-52017356D01*
X108410112Y-52118979D01*
X108620078Y-52234887D01*
X108693819Y-52261000D01*
X108841280Y-52313219D01*
X108841284Y-52313220D01*
X108846155Y-52314945D01*
X108851248Y-52315852D01*
X108851251Y-52315853D01*
X109077184Y-52356098D01*
X109077190Y-52356099D01*
X109082273Y-52357004D01*
X109169540Y-52358070D01*
X109316919Y-52359871D01*
X109316921Y-52359871D01*
X109322089Y-52359934D01*
X109559163Y-52323657D01*
X109787129Y-52249146D01*
X109999864Y-52138403D01*
X110003997Y-52135300D01*
X110004000Y-52135298D01*
X110187520Y-51997507D01*
X110187523Y-51997505D01*
X110191655Y-51994402D01*
X110357352Y-51821010D01*
X110384590Y-51781080D01*
X110439498Y-51736080D01*
X110510023Y-51727909D01*
X110573770Y-51759163D01*
X110594465Y-51783643D01*
X110597671Y-51788599D01*
X110597678Y-51788608D01*
X110600485Y-51792947D01*
X110603964Y-51796770D01*
X110603966Y-51796773D01*
X110758087Y-51966149D01*
X110761896Y-51970335D01*
X110765947Y-51973534D01*
X110765951Y-51973538D01*
X110821435Y-52017356D01*
X110950112Y-52118979D01*
X111160078Y-52234887D01*
X111233819Y-52261000D01*
X111381280Y-52313219D01*
X111381284Y-52313220D01*
X111386155Y-52314945D01*
X111391248Y-52315852D01*
X111391251Y-52315853D01*
X111617184Y-52356098D01*
X111617190Y-52356099D01*
X111622273Y-52357004D01*
X111709540Y-52358070D01*
X111856919Y-52359871D01*
X111856921Y-52359871D01*
X111862089Y-52359934D01*
X112099163Y-52323657D01*
X112327129Y-52249146D01*
X112539864Y-52138403D01*
X112543997Y-52135300D01*
X112544000Y-52135298D01*
X112727520Y-51997507D01*
X112727523Y-51997505D01*
X112731655Y-51994402D01*
X112897352Y-51821010D01*
X112924590Y-51781080D01*
X112979498Y-51736080D01*
X113050023Y-51727909D01*
X113113770Y-51759163D01*
X113134465Y-51783643D01*
X113137671Y-51788599D01*
X113137678Y-51788608D01*
X113140485Y-51792947D01*
X113143964Y-51796770D01*
X113143966Y-51796773D01*
X113298087Y-51966149D01*
X113301896Y-51970335D01*
X113305947Y-51973534D01*
X113305951Y-51973538D01*
X113361435Y-52017356D01*
X113490112Y-52118979D01*
X113700078Y-52234887D01*
X113773819Y-52261000D01*
X113921280Y-52313219D01*
X113921284Y-52313220D01*
X113926155Y-52314945D01*
X113931248Y-52315852D01*
X113931251Y-52315853D01*
X114157184Y-52356098D01*
X114157190Y-52356099D01*
X114162273Y-52357004D01*
X114249540Y-52358070D01*
X114396919Y-52359871D01*
X114396921Y-52359871D01*
X114402089Y-52359934D01*
X114639163Y-52323657D01*
X114867129Y-52249146D01*
X115079864Y-52138403D01*
X115083997Y-52135300D01*
X115084000Y-52135298D01*
X115267520Y-51997507D01*
X115267523Y-51997505D01*
X115271655Y-51994402D01*
X115437352Y-51821010D01*
X115464590Y-51781080D01*
X115519498Y-51736080D01*
X115590023Y-51727909D01*
X115653770Y-51759163D01*
X115674465Y-51783643D01*
X115677671Y-51788599D01*
X115677678Y-51788608D01*
X115680485Y-51792947D01*
X115683964Y-51796770D01*
X115683966Y-51796773D01*
X115838087Y-51966149D01*
X115841896Y-51970335D01*
X115845947Y-51973534D01*
X115845951Y-51973538D01*
X115901435Y-52017356D01*
X116030112Y-52118979D01*
X116240078Y-52234887D01*
X116313819Y-52261000D01*
X116461280Y-52313219D01*
X116461284Y-52313220D01*
X116466155Y-52314945D01*
X116471248Y-52315852D01*
X116471251Y-52315853D01*
X116697184Y-52356098D01*
X116697190Y-52356099D01*
X116702273Y-52357004D01*
X116789540Y-52358070D01*
X116936919Y-52359871D01*
X116936921Y-52359871D01*
X116942089Y-52359934D01*
X117179163Y-52323657D01*
X117407129Y-52249146D01*
X117619864Y-52138403D01*
X117623997Y-52135300D01*
X117624000Y-52135298D01*
X117807520Y-51997507D01*
X117807523Y-51997505D01*
X117811655Y-51994402D01*
X117977352Y-51821010D01*
X117981485Y-51814952D01*
X118109586Y-51627162D01*
X118112505Y-51622883D01*
X118213484Y-51405344D01*
X118277576Y-51174232D01*
X118298500Y-50978443D01*
X118298500Y-50932703D01*
X124890743Y-50932703D01*
X124928268Y-51217734D01*
X125004129Y-51495036D01*
X125005813Y-51498984D01*
X125106944Y-51736080D01*
X125116923Y-51759476D01*
X125155798Y-51824431D01*
X125259382Y-51997507D01*
X125264561Y-52006161D01*
X125444313Y-52230528D01*
X125564693Y-52344764D01*
X125609149Y-52386951D01*
X125652851Y-52428423D01*
X125886317Y-52596186D01*
X125890112Y-52598195D01*
X125890113Y-52598196D01*
X125911869Y-52609715D01*
X126140392Y-52730712D01*
X126410373Y-52829511D01*
X126691264Y-52890755D01*
X126719841Y-52893004D01*
X126914282Y-52908307D01*
X126914291Y-52908307D01*
X126916739Y-52908500D01*
X127072271Y-52908500D01*
X127074407Y-52908354D01*
X127074418Y-52908354D01*
X127282548Y-52894165D01*
X127282554Y-52894164D01*
X127286825Y-52893873D01*
X127291020Y-52893004D01*
X127291022Y-52893004D01*
X127427583Y-52864724D01*
X127568342Y-52835574D01*
X127839343Y-52739607D01*
X128094812Y-52607750D01*
X128098313Y-52605289D01*
X128098317Y-52605287D01*
X128305685Y-52459546D01*
X128330023Y-52442441D01*
X128448218Y-52332607D01*
X128537479Y-52249661D01*
X128537481Y-52249658D01*
X128540622Y-52246740D01*
X128722713Y-52024268D01*
X128872927Y-51779142D01*
X128895617Y-51727454D01*
X128986757Y-51519830D01*
X128988483Y-51515898D01*
X129067244Y-51239406D01*
X129104862Y-50975086D01*
X129107146Y-50959036D01*
X129107146Y-50959034D01*
X129107751Y-50954784D01*
X129107845Y-50936951D01*
X129109235Y-50671583D01*
X129109235Y-50671576D01*
X129109257Y-50667297D01*
X129105899Y-50641786D01*
X129091504Y-50532452D01*
X129071732Y-50382266D01*
X128995871Y-50104964D01*
X128896542Y-49872091D01*
X128884763Y-49844476D01*
X128884761Y-49844472D01*
X128883077Y-49840524D01*
X128759168Y-49633487D01*
X128737643Y-49597521D01*
X128737640Y-49597517D01*
X128735439Y-49593839D01*
X128555687Y-49369472D01*
X128371182Y-49194383D01*
X128350258Y-49174527D01*
X128350255Y-49174525D01*
X128347149Y-49171577D01*
X128113683Y-49003814D01*
X128091843Y-48992250D01*
X128029044Y-48959000D01*
X127859608Y-48869288D01*
X127672508Y-48800819D01*
X127593658Y-48771964D01*
X127593656Y-48771963D01*
X127589627Y-48770489D01*
X127308736Y-48709245D01*
X127277685Y-48706801D01*
X127085718Y-48691693D01*
X127085709Y-48691693D01*
X127083261Y-48691500D01*
X126927729Y-48691500D01*
X126925593Y-48691646D01*
X126925582Y-48691646D01*
X126717452Y-48705835D01*
X126717446Y-48705836D01*
X126713175Y-48706127D01*
X126708980Y-48706996D01*
X126708978Y-48706996D01*
X126646720Y-48719889D01*
X126431658Y-48764426D01*
X126160657Y-48860393D01*
X126156848Y-48862359D01*
X125930856Y-48979002D01*
X125905188Y-48992250D01*
X125901687Y-48994711D01*
X125901683Y-48994713D01*
X125805663Y-49062197D01*
X125669977Y-49157559D01*
X125654903Y-49171567D01*
X125465040Y-49347999D01*
X125459378Y-49353260D01*
X125277287Y-49575732D01*
X125127073Y-49820858D01*
X125011517Y-50084102D01*
X124932756Y-50360594D01*
X124918470Y-50460973D01*
X124893106Y-50639197D01*
X124892249Y-50645216D01*
X124892227Y-50649505D01*
X124892226Y-50649512D01*
X124891263Y-50833420D01*
X124890743Y-50932703D01*
X118298500Y-50932703D01*
X118298500Y-50639197D01*
X118290470Y-50541525D01*
X118284271Y-50466124D01*
X118284270Y-50466118D01*
X118283847Y-50460973D01*
X118225420Y-50228364D01*
X118223364Y-50223634D01*
X118223361Y-50223627D01*
X118131847Y-50013159D01*
X118131845Y-50013156D01*
X118129787Y-50008422D01*
X118106933Y-49973094D01*
X118002325Y-49811396D01*
X118002323Y-49811393D01*
X117999515Y-49807053D01*
X117986185Y-49792403D01*
X117841582Y-49633487D01*
X117841580Y-49633486D01*
X117838104Y-49629665D01*
X117834053Y-49626466D01*
X117834049Y-49626462D01*
X117699087Y-49519876D01*
X117649888Y-49481021D01*
X117439922Y-49365113D01*
X117298529Y-49315043D01*
X117218720Y-49286781D01*
X117218716Y-49286780D01*
X117213845Y-49285055D01*
X117208752Y-49284148D01*
X117208749Y-49284147D01*
X116982816Y-49243902D01*
X116982810Y-49243901D01*
X116977727Y-49242996D01*
X116890460Y-49241930D01*
X116743081Y-49240129D01*
X116743079Y-49240129D01*
X116737911Y-49240066D01*
X116500837Y-49276343D01*
X116272871Y-49350854D01*
X116245726Y-49364985D01*
X116073178Y-49454808D01*
X116060136Y-49461597D01*
X116056003Y-49464700D01*
X116056000Y-49464702D01*
X115872480Y-49602493D01*
X115868345Y-49605598D01*
X115702648Y-49778990D01*
X115675410Y-49818920D01*
X115620502Y-49863920D01*
X115549977Y-49872091D01*
X115486230Y-49840837D01*
X115465535Y-49816357D01*
X115462329Y-49811401D01*
X115462322Y-49811392D01*
X115459515Y-49807053D01*
X115446185Y-49792403D01*
X115301582Y-49633487D01*
X115301580Y-49633486D01*
X115298104Y-49629665D01*
X115294053Y-49626466D01*
X115294049Y-49626462D01*
X115159087Y-49519876D01*
X115109888Y-49481021D01*
X114899922Y-49365113D01*
X114758529Y-49315043D01*
X114678720Y-49286781D01*
X114678716Y-49286780D01*
X114673845Y-49285055D01*
X114668752Y-49284148D01*
X114668749Y-49284147D01*
X114442816Y-49243902D01*
X114442810Y-49243901D01*
X114437727Y-49242996D01*
X114350460Y-49241930D01*
X114203081Y-49240129D01*
X114203079Y-49240129D01*
X114197911Y-49240066D01*
X113960837Y-49276343D01*
X113732871Y-49350854D01*
X113705726Y-49364985D01*
X113533178Y-49454808D01*
X113520136Y-49461597D01*
X113516003Y-49464700D01*
X113516000Y-49464702D01*
X113332480Y-49602493D01*
X113328345Y-49605598D01*
X113162648Y-49778990D01*
X113135410Y-49818920D01*
X113080502Y-49863920D01*
X113009977Y-49872091D01*
X112946230Y-49840837D01*
X112925535Y-49816357D01*
X112922329Y-49811401D01*
X112922322Y-49811392D01*
X112919515Y-49807053D01*
X112906185Y-49792403D01*
X112761582Y-49633487D01*
X112761580Y-49633486D01*
X112758104Y-49629665D01*
X112754053Y-49626466D01*
X112754049Y-49626462D01*
X112619087Y-49519876D01*
X112569888Y-49481021D01*
X112524103Y-49455746D01*
X112474136Y-49405316D01*
X112459000Y-49345440D01*
X112459000Y-48288589D01*
X112459292Y-48280019D01*
X112462653Y-48230724D01*
X112462653Y-48230720D01*
X112463169Y-48223148D01*
X112461836Y-48215507D01*
X112452338Y-48161090D01*
X112451375Y-48154564D01*
X112444722Y-48099582D01*
X112444721Y-48099579D01*
X112443809Y-48092040D01*
X112441123Y-48084931D01*
X112440277Y-48081488D01*
X112436414Y-48067363D01*
X112435386Y-48063958D01*
X112434081Y-48056482D01*
X112408765Y-47998810D01*
X112406277Y-47992715D01*
X112386690Y-47940880D01*
X112386689Y-47940878D01*
X112384006Y-47933778D01*
X112379709Y-47927526D01*
X112378066Y-47924383D01*
X112370971Y-47911635D01*
X112369130Y-47908523D01*
X112366077Y-47901567D01*
X112327732Y-47851593D01*
X112323861Y-47846266D01*
X112323525Y-47845776D01*
X112288179Y-47794348D01*
X112242320Y-47753489D01*
X112237045Y-47748509D01*
X111004496Y-46515961D01*
X110998642Y-46509695D01*
X110966152Y-46472451D01*
X110961158Y-46466726D01*
X110909622Y-46430506D01*
X110904326Y-46426573D01*
X110860737Y-46392394D01*
X110860734Y-46392392D01*
X110854760Y-46387708D01*
X110847836Y-46384582D01*
X110844801Y-46382744D01*
X110832102Y-46375500D01*
X110828954Y-46373812D01*
X110822739Y-46369444D01*
X110764050Y-46346562D01*
X110758005Y-46344022D01*
X110700565Y-46318087D01*
X110693092Y-46316702D01*
X110689674Y-46315631D01*
X110675685Y-46311646D01*
X110672193Y-46310749D01*
X110665111Y-46307988D01*
X110657578Y-46306996D01*
X110657577Y-46306996D01*
X110602670Y-46299767D01*
X110596157Y-46298735D01*
X110541682Y-46288639D01*
X110541680Y-46288639D01*
X110534213Y-46287255D01*
X110526633Y-46287692D01*
X110526632Y-46287692D01*
X110472888Y-46290791D01*
X110465635Y-46291000D01*
X89563600Y-46291000D01*
X89555029Y-46290708D01*
X89505725Y-46287346D01*
X89505721Y-46287346D01*
X89498149Y-46286830D01*
X89490673Y-46288135D01*
X89490669Y-46288135D01*
X89436078Y-46297663D01*
X89429553Y-46298626D01*
X89374582Y-46305278D01*
X89374579Y-46305279D01*
X89367040Y-46306191D01*
X89359938Y-46308875D01*
X89356500Y-46309719D01*
X89342377Y-46313583D01*
X89338965Y-46314613D01*
X89331483Y-46315919D01*
X89324530Y-46318971D01*
X89324524Y-46318973D01*
X89273806Y-46341237D01*
X89267710Y-46343725D01*
X89244276Y-46352580D01*
X89215885Y-46363308D01*
X89215882Y-46363310D01*
X89208778Y-46365994D01*
X89202514Y-46370299D01*
X89199347Y-46371955D01*
X89186582Y-46379060D01*
X89183525Y-46380868D01*
X89176567Y-46383922D01*
X89170539Y-46388547D01*
X89170538Y-46388548D01*
X89126604Y-46422260D01*
X89121267Y-46426138D01*
X89114912Y-46430506D01*
X89069348Y-46461821D01*
X89064296Y-46467491D01*
X89064295Y-46467492D01*
X89028482Y-46507688D01*
X89023501Y-46512964D01*
X87155962Y-48380503D01*
X87149697Y-48386356D01*
X87106726Y-48423842D01*
X87102359Y-48430056D01*
X87070506Y-48475378D01*
X87066573Y-48480674D01*
X87032394Y-48524263D01*
X87032392Y-48524266D01*
X87027708Y-48530240D01*
X87024582Y-48537164D01*
X87022744Y-48540199D01*
X87015500Y-48552898D01*
X87013812Y-48556046D01*
X87009444Y-48562261D01*
X87006684Y-48569340D01*
X86986567Y-48620939D01*
X86984022Y-48626995D01*
X86958087Y-48684435D01*
X86956702Y-48691908D01*
X86955631Y-48695326D01*
X86951646Y-48709315D01*
X86950749Y-48712807D01*
X86947988Y-48719889D01*
X86946996Y-48727422D01*
X86946996Y-48727423D01*
X86939767Y-48782330D01*
X86938735Y-48788843D01*
X86928639Y-48843318D01*
X86927255Y-48850787D01*
X86927692Y-48858367D01*
X86927692Y-48858368D01*
X86930791Y-48912112D01*
X86931000Y-48919365D01*
X86931000Y-82208273D01*
X86910998Y-82276394D01*
X86894096Y-82297368D01*
X86107370Y-83084095D01*
X86045057Y-83118120D01*
X86018274Y-83121000D01*
X85826777Y-83121000D01*
X85764049Y-83104191D01*
X85759275Y-83100723D01*
X85753247Y-83098039D01*
X85753245Y-83098038D01*
X85606685Y-83032785D01*
X85606683Y-83032784D01*
X85600654Y-83030100D01*
X85515735Y-83012050D01*
X85437273Y-82995372D01*
X85437269Y-82995372D01*
X85430816Y-82994000D01*
X85257184Y-82994000D01*
X85250731Y-82995372D01*
X85250727Y-82995372D01*
X85172265Y-83012050D01*
X85087346Y-83030100D01*
X85081317Y-83032784D01*
X85081315Y-83032785D01*
X84934755Y-83098038D01*
X84934753Y-83098039D01*
X84928725Y-83100723D01*
X84923951Y-83104191D01*
X84861223Y-83121000D01*
X79222777Y-83121000D01*
X79160049Y-83104191D01*
X79155275Y-83100723D01*
X79149247Y-83098039D01*
X79149245Y-83098038D01*
X79002685Y-83032785D01*
X79002683Y-83032784D01*
X78996654Y-83030100D01*
X78911735Y-83012050D01*
X78833273Y-82995372D01*
X78833269Y-82995372D01*
X78826816Y-82994000D01*
X78653184Y-82994000D01*
X78646731Y-82995372D01*
X78646727Y-82995372D01*
X78568265Y-83012050D01*
X78483346Y-83030100D01*
X78477317Y-83032784D01*
X78477315Y-83032785D01*
X78330755Y-83098038D01*
X78330753Y-83098039D01*
X78324725Y-83100723D01*
X78319384Y-83104603D01*
X78319383Y-83104604D01*
X78193290Y-83196216D01*
X78184254Y-83202781D01*
X78068071Y-83331815D01*
X77981255Y-83482185D01*
X77979213Y-83488470D01*
X77953578Y-83567368D01*
X77927600Y-83647319D01*
X77909450Y-83820000D01*
X77927600Y-83992681D01*
X77929640Y-83998959D01*
X77929640Y-83998960D01*
X77933994Y-84012360D01*
X77981255Y-84157815D01*
X77984558Y-84163537D01*
X77984559Y-84163538D01*
X78006765Y-84202000D01*
X78023503Y-84270996D01*
X78000282Y-84338088D01*
X77944475Y-84381975D01*
X77897646Y-84391000D01*
X76682777Y-84391000D01*
X76620049Y-84374191D01*
X76615275Y-84370723D01*
X76609247Y-84368039D01*
X76609245Y-84368038D01*
X76462685Y-84302785D01*
X76462683Y-84302784D01*
X76456654Y-84300100D01*
X76371735Y-84282050D01*
X76293273Y-84265372D01*
X76293269Y-84265372D01*
X76286816Y-84264000D01*
X76113184Y-84264000D01*
X76106731Y-84265372D01*
X76106727Y-84265372D01*
X76028265Y-84282050D01*
X75943346Y-84300100D01*
X75937317Y-84302784D01*
X75937315Y-84302785D01*
X75790755Y-84368038D01*
X75790753Y-84368039D01*
X75784725Y-84370723D01*
X75644254Y-84472781D01*
X75528071Y-84601815D01*
X75441255Y-84752185D01*
X75387600Y-84917319D01*
X75369450Y-85090000D01*
X73724000Y-85090000D01*
X73724000Y-58229000D01*
X73744002Y-58160879D01*
X73797658Y-58114386D01*
X73850000Y-58103000D01*
X76819550Y-58103000D01*
X76823068Y-58103049D01*
X76898773Y-58105164D01*
X76898776Y-58105164D01*
X76905156Y-58105342D01*
X76961517Y-58095404D01*
X76970665Y-58094135D01*
X77021270Y-58088995D01*
X77021274Y-58088994D01*
X77027616Y-58088350D01*
X77053411Y-58080266D01*
X77069210Y-58076415D01*
X77089534Y-58072832D01*
X77089538Y-58072831D01*
X77095821Y-58071723D01*
X77149043Y-58050651D01*
X77157745Y-58047570D01*
X77212363Y-58030454D01*
X77217950Y-58027357D01*
X77217957Y-58027354D01*
X77236001Y-58017352D01*
X77250701Y-58010403D01*
X77269889Y-58002806D01*
X77269897Y-58002802D01*
X77275832Y-58000452D01*
X77323733Y-57969106D01*
X77331636Y-57964339D01*
X77376111Y-57939686D01*
X77381695Y-57936591D01*
X77402225Y-57918995D01*
X77415221Y-57909238D01*
X77433778Y-57897094D01*
X77433779Y-57897093D01*
X77437835Y-57894439D01*
X77442563Y-57890182D01*
X77479455Y-57853290D01*
X77486553Y-57846717D01*
X77528695Y-57810597D01*
X77538577Y-57797858D01*
X77546479Y-57787670D01*
X77556944Y-57775801D01*
X78817746Y-56515000D01*
X80083088Y-55249658D01*
X80085106Y-55247183D01*
X80085112Y-55247177D01*
X80170676Y-55142264D01*
X80170676Y-55142263D01*
X80174713Y-55137314D01*
X80177669Y-55131659D01*
X80177672Y-55131655D01*
X80261451Y-54971401D01*
X80264411Y-54965739D01*
X80317775Y-54779632D01*
X80330718Y-54611435D01*
X80332140Y-54592955D01*
X80332140Y-54592952D01*
X80332629Y-54586596D01*
X80308364Y-54394517D01*
X80245970Y-54211239D01*
X80147999Y-54044250D01*
X80116252Y-54008991D01*
X80022724Y-53905118D01*
X80022721Y-53905115D01*
X80018451Y-53900373D01*
X79862618Y-53785483D01*
X79814054Y-53763043D01*
X79692655Y-53706949D01*
X79692656Y-53706949D01*
X79686866Y-53704274D01*
X79498375Y-53660064D01*
X79393878Y-53657145D01*
X79311226Y-53654836D01*
X79311223Y-53654836D01*
X79304843Y-53654658D01*
X79184340Y-53675906D01*
X79120461Y-53687169D01*
X79120460Y-53687169D01*
X79114178Y-53688277D01*
X78934167Y-53759548D01*
X78772164Y-53865561D01*
X78767437Y-53869818D01*
X76477160Y-56160095D01*
X76414848Y-56194121D01*
X76388065Y-56197000D01*
X72976612Y-56197000D01*
X72908326Y-56203936D01*
X72838733Y-56211005D01*
X72838732Y-56211005D01*
X72832384Y-56211650D01*
X72647637Y-56269546D01*
X72478305Y-56363409D01*
X72331305Y-56489403D01*
X72212642Y-56642382D01*
X72127164Y-56816098D01*
X72078361Y-57003453D01*
X72068229Y-57196794D01*
X59373000Y-57196794D01*
X59373000Y-56227935D01*
X59393002Y-56159814D01*
X59409905Y-56138840D01*
X61026405Y-54522340D01*
X61088717Y-54488314D01*
X61159532Y-54493379D01*
X61216368Y-54535926D01*
X61241179Y-54602446D01*
X61241500Y-54611435D01*
X61241500Y-55138134D01*
X61248255Y-55200316D01*
X61299385Y-55336705D01*
X61386739Y-55453261D01*
X61503295Y-55540615D01*
X61639684Y-55591745D01*
X61701866Y-55598500D01*
X65298134Y-55598500D01*
X65360316Y-55591745D01*
X65496705Y-55540615D01*
X65613261Y-55453261D01*
X65700615Y-55336705D01*
X65751745Y-55200316D01*
X65758500Y-55138134D01*
X65758500Y-51541866D01*
X65751745Y-51479684D01*
X65700615Y-51343295D01*
X65613261Y-51226739D01*
X65496705Y-51139385D01*
X65360316Y-51088255D01*
X65298134Y-51081500D01*
X61701866Y-51081500D01*
X61639684Y-51088255D01*
X61503295Y-51139385D01*
X61386739Y-51226739D01*
X61299385Y-51343295D01*
X61296236Y-51351696D01*
X61295019Y-51353918D01*
X61244760Y-51404064D01*
X61175369Y-51419077D01*
X61108877Y-51394191D01*
X61066395Y-51337307D01*
X61058500Y-51293408D01*
X61058500Y-49372636D01*
X61058229Y-49367616D01*
X61055617Y-49319401D01*
X61055381Y-49315043D01*
X61010380Y-49084607D01*
X60927196Y-48865048D01*
X60836141Y-48710158D01*
X60810917Y-48667250D01*
X60810915Y-48667248D01*
X60808209Y-48662644D01*
X60656819Y-48483181D01*
X60477356Y-48331791D01*
X60274952Y-48212804D01*
X60109082Y-48149961D01*
X61242001Y-48149961D01*
X61242209Y-48155071D01*
X61253082Y-48288767D01*
X61254852Y-48299320D01*
X61307967Y-48506185D01*
X61311701Y-48516731D01*
X61400510Y-48710705D01*
X61406046Y-48720412D01*
X61527803Y-48895597D01*
X61534976Y-48904176D01*
X61685824Y-49055024D01*
X61694403Y-49062197D01*
X61869588Y-49183954D01*
X61879295Y-49189490D01*
X62073269Y-49278299D01*
X62083815Y-49282033D01*
X62290679Y-49335147D01*
X62301234Y-49336918D01*
X62434930Y-49347793D01*
X62440036Y-49348000D01*
X63227885Y-49348000D01*
X63243124Y-49343525D01*
X63244329Y-49342135D01*
X63246000Y-49334452D01*
X63246000Y-49329884D01*
X63754000Y-49329884D01*
X63758475Y-49345123D01*
X63759865Y-49346328D01*
X63767548Y-49347999D01*
X64559961Y-49347999D01*
X64565071Y-49347791D01*
X64698767Y-49336918D01*
X64709320Y-49335148D01*
X64916185Y-49282033D01*
X64926731Y-49278299D01*
X65120705Y-49189490D01*
X65130412Y-49183954D01*
X65305597Y-49062197D01*
X65314176Y-49055024D01*
X65465024Y-48904176D01*
X65472197Y-48895597D01*
X65593954Y-48720412D01*
X65599490Y-48710705D01*
X65688299Y-48516731D01*
X65692033Y-48506185D01*
X65745147Y-48299321D01*
X65746918Y-48288766D01*
X65757793Y-48155070D01*
X65758000Y-48149964D01*
X65758000Y-47612115D01*
X65753525Y-47596876D01*
X65752135Y-47595671D01*
X65744452Y-47594000D01*
X63772115Y-47594000D01*
X63756876Y-47598475D01*
X63755671Y-47599865D01*
X63754000Y-47607548D01*
X63754000Y-49329884D01*
X63246000Y-49329884D01*
X63246000Y-47612115D01*
X63241525Y-47596876D01*
X63240135Y-47595671D01*
X63232452Y-47594000D01*
X61260116Y-47594000D01*
X61244877Y-47598475D01*
X61243672Y-47599865D01*
X61242001Y-47607548D01*
X61242001Y-48149961D01*
X60109082Y-48149961D01*
X60055393Y-48129620D01*
X59824957Y-48084619D01*
X59819227Y-48084309D01*
X59769052Y-48081591D01*
X59769037Y-48081591D01*
X59767364Y-48081500D01*
X57832636Y-48081500D01*
X57830963Y-48081591D01*
X57830948Y-48081591D01*
X57780773Y-48084309D01*
X57775043Y-48084619D01*
X57544607Y-48129620D01*
X57325048Y-48212804D01*
X57122644Y-48331791D01*
X56943181Y-48483181D01*
X56791791Y-48662644D01*
X56789085Y-48667248D01*
X56789083Y-48667250D01*
X56763859Y-48710158D01*
X56672804Y-48865048D01*
X56589620Y-49084607D01*
X56544619Y-49315043D01*
X56544383Y-49319401D01*
X56541772Y-49367616D01*
X56541500Y-49372636D01*
X56541500Y-51307364D01*
X52847886Y-51307364D01*
X52867244Y-51239406D01*
X52904862Y-50975086D01*
X52907146Y-50959036D01*
X52907146Y-50959034D01*
X52907751Y-50954784D01*
X52907845Y-50936951D01*
X52909235Y-50671583D01*
X52909235Y-50671576D01*
X52909257Y-50667297D01*
X52905899Y-50641786D01*
X52891504Y-50532452D01*
X52871732Y-50382266D01*
X52795871Y-50104964D01*
X52696542Y-49872091D01*
X52684763Y-49844476D01*
X52684761Y-49844472D01*
X52683077Y-49840524D01*
X52559168Y-49633487D01*
X52537643Y-49597521D01*
X52537640Y-49597517D01*
X52535439Y-49593839D01*
X52355687Y-49369472D01*
X52171182Y-49194383D01*
X52150258Y-49174527D01*
X52150255Y-49174525D01*
X52147149Y-49171577D01*
X51913683Y-49003814D01*
X51891843Y-48992250D01*
X51829044Y-48959000D01*
X51659608Y-48869288D01*
X51472508Y-48800819D01*
X51393658Y-48771964D01*
X51393656Y-48771963D01*
X51389627Y-48770489D01*
X51108736Y-48709245D01*
X51077685Y-48706801D01*
X50885718Y-48691693D01*
X50885709Y-48691693D01*
X50883261Y-48691500D01*
X50727729Y-48691500D01*
X50725593Y-48691646D01*
X50725582Y-48691646D01*
X50517452Y-48705835D01*
X50517446Y-48705836D01*
X50513175Y-48706127D01*
X50508980Y-48706996D01*
X50508978Y-48706996D01*
X50446720Y-48719889D01*
X50231658Y-48764426D01*
X49960657Y-48860393D01*
X49956848Y-48862359D01*
X49730856Y-48979002D01*
X49705188Y-48992250D01*
X49701687Y-48994711D01*
X49701683Y-48994713D01*
X49605663Y-49062197D01*
X49469977Y-49157559D01*
X49454903Y-49171567D01*
X49265040Y-49347999D01*
X49259378Y-49353260D01*
X49077287Y-49575732D01*
X48927073Y-49820858D01*
X48811517Y-50084102D01*
X48732756Y-50360594D01*
X48718470Y-50460973D01*
X48693106Y-50639197D01*
X48692249Y-50645216D01*
X48692227Y-50649505D01*
X48692226Y-50649512D01*
X48691263Y-50833420D01*
X48690743Y-50932703D01*
X43688500Y-50932703D01*
X43688500Y-50853250D01*
X43690246Y-50832345D01*
X43692770Y-50817344D01*
X43692770Y-50817341D01*
X43693576Y-50812552D01*
X43693729Y-50800000D01*
X43691137Y-50781898D01*
X43689945Y-50759542D01*
X43693087Y-50671583D01*
X43697693Y-50542609D01*
X43706459Y-50297164D01*
X43707101Y-50288192D01*
X43760404Y-49792403D01*
X43761684Y-49783500D01*
X43820192Y-49459208D01*
X43850222Y-49292767D01*
X43852133Y-49283981D01*
X43853672Y-49277950D01*
X43975454Y-48800814D01*
X43977987Y-48792189D01*
X43981269Y-48782330D01*
X44033960Y-48624016D01*
X44135461Y-48319056D01*
X44138604Y-48310629D01*
X44329432Y-47849929D01*
X44333169Y-47841747D01*
X44556369Y-47395850D01*
X44560679Y-47387956D01*
X44750586Y-47067885D01*
X61242000Y-47067885D01*
X61246475Y-47083124D01*
X61247865Y-47084329D01*
X61255548Y-47086000D01*
X63227885Y-47086000D01*
X63243124Y-47081525D01*
X63244329Y-47080135D01*
X63246000Y-47072452D01*
X63246000Y-47067885D01*
X63754000Y-47067885D01*
X63758475Y-47083124D01*
X63759865Y-47084329D01*
X63767548Y-47086000D01*
X65739884Y-47086000D01*
X65755123Y-47081525D01*
X65756328Y-47080135D01*
X65757999Y-47072452D01*
X65757999Y-46530039D01*
X65757791Y-46524929D01*
X65746918Y-46391233D01*
X65745148Y-46380680D01*
X65692033Y-46173815D01*
X65688299Y-46163269D01*
X65599490Y-45969295D01*
X65593954Y-45959588D01*
X65472197Y-45784403D01*
X65465024Y-45775824D01*
X65314176Y-45624976D01*
X65305597Y-45617803D01*
X65130412Y-45496046D01*
X65120705Y-45490510D01*
X64926731Y-45401701D01*
X64916185Y-45397967D01*
X64709321Y-45344853D01*
X64698766Y-45343082D01*
X64565070Y-45332207D01*
X64559964Y-45332000D01*
X63772115Y-45332000D01*
X63756876Y-45336475D01*
X63755671Y-45337865D01*
X63754000Y-45345548D01*
X63754000Y-47067885D01*
X63246000Y-47067885D01*
X63246000Y-45350116D01*
X63241525Y-45334877D01*
X63240135Y-45333672D01*
X63232452Y-45332001D01*
X62440039Y-45332001D01*
X62434929Y-45332209D01*
X62301233Y-45343082D01*
X62290680Y-45344852D01*
X62083815Y-45397967D01*
X62073269Y-45401701D01*
X61879295Y-45490510D01*
X61869588Y-45496046D01*
X61694403Y-45617803D01*
X61685824Y-45624976D01*
X61534976Y-45775824D01*
X61527803Y-45784403D01*
X61406046Y-45959588D01*
X61400510Y-45969295D01*
X61311701Y-46163269D01*
X61307967Y-46173815D01*
X61254853Y-46380679D01*
X61253082Y-46391234D01*
X61242207Y-46524930D01*
X61242000Y-46530036D01*
X61242000Y-47067885D01*
X44750586Y-47067885D01*
X44815130Y-46959103D01*
X44819993Y-46951536D01*
X45104386Y-46541932D01*
X45109776Y-46534732D01*
X45422660Y-46146466D01*
X45428550Y-46139668D01*
X45768344Y-45774704D01*
X45774704Y-45768344D01*
X46139668Y-45428550D01*
X46146466Y-45422660D01*
X46534732Y-45109776D01*
X46541932Y-45104386D01*
X46951536Y-44819993D01*
X46959103Y-44815130D01*
X47387956Y-44560679D01*
X47395850Y-44556369D01*
X47841747Y-44333169D01*
X47849929Y-44329432D01*
X48310629Y-44138604D01*
X48319056Y-44135461D01*
X48666695Y-44019756D01*
X48792194Y-43977986D01*
X48800814Y-43975454D01*
X49283983Y-43852133D01*
X49292767Y-43850222D01*
X49538135Y-43805953D01*
X49783500Y-43761684D01*
X49792403Y-43760404D01*
X50288192Y-43707101D01*
X50297164Y-43706459D01*
X50755769Y-43690080D01*
X50779649Y-43691500D01*
X50784848Y-43692310D01*
X50784855Y-43692310D01*
X50793724Y-43693691D01*
X50802626Y-43692527D01*
X50802628Y-43692527D01*
X50821338Y-43690080D01*
X50825286Y-43689564D01*
X50841621Y-43688500D01*
X126950633Y-43688500D01*
X126970018Y-43690000D01*
G37*
%TD.AperFunction*%
%TD*%
M02*
